<?xml version="1.0" encoding="utf-8"?>
<!-- Generator: Adobe Illustrator 23.1.1, SVG Export Plug-In . SVG Version: 6.00 Build 0)  -->
<svg version="1.1" id="Layer_1" xmlns="http://www.w3.org/2000/svg" xmlns:xlink="http://www.w3.org/1999/xlink" x="0px" y="0px"
	 viewBox="0 0 50 50" style="enable-background:new 0 0 50 50;" xml:space="preserve">
<style type="text/css">
	.st0{fill:#D4A855;}
</style>
<path class="st0" d="M49.186,23.48L38.647,5.227c-0.653-1.131-1.86-1.828-3.165-1.828H14.404c-1.306,0-2.512,0.697-3.165,1.828
	L0.7,23.48c-0.653,1.131-0.653,2.524,0,3.655l10.539,18.254c0.653,1.131,1.86,1.828,3.165,1.828h21.078
	c1.306,0,2.512-0.697,3.165-1.828l10.539-18.254C49.839,26.005,49.839,24.611,49.186,23.48z M25.055,40.379
	c-0.081,0-0.161-0.002-0.241-0.003v-2.86c0.081,0.002,0.16,0.005,0.241,0.005c6.773,0,12.283-5.51,12.283-12.283
	c0-6.773-5.51-12.283-12.283-12.283s-12.283,5.51-12.283,12.283c0,2.793,0.938,5.37,2.514,7.436l2.295-2.238
	c-1.027-1.474-1.631-3.265-1.631-5.198c0-5.029,4.076-9.105,9.105-9.105s9.105,4.076,9.105,9.105c0,5.029-4.076,9.105-9.105,9.105
	c-0.081,0-0.161-0.003-0.241-0.005V31.48c0.08,0.003,0.161,0.005,0.241,0.005c3.445,0,6.247-2.802,6.247-6.247
	c0-3.445-2.802-6.247-6.247-6.247c-3.445,0-6.247,2.802-6.247,6.247c0,1.153,0.315,2.233,0.862,3.161l2.404-2.344
	c-0.071-0.26-0.11-0.534-0.11-0.817c0-1.707,1.384-3.092,3.092-3.092c1.707,0,3.092,1.384,3.092,3.092
	c0,1.707-1.384,3.092-3.092,3.092c-0.081,0-0.161-0.003-0.24-0.01c-0.201-0.016-0.397-0.052-0.586-0.104
	c-0.022-0.006-0.044-0.011-0.066-0.017l-8.829,8.647c-3.313-2.777-5.42-6.946-5.42-11.607c0-8.362,6.779-15.14,15.14-15.14
	c8.362,0,15.141,6.779,15.141,15.14C40.195,33.6,33.417,40.379,25.055,40.379z"/>
</svg>
