<?xml version="1.0" encoding="utf-8"?>
<!-- Generator: Adobe Illustrator 23.1.1, SVG Export Plug-In . SVG Version: 6.00 Build 0)  -->
<svg version="1.1" id="Capa_1" xmlns="http://www.w3.org/2000/svg" xmlns:xlink="http://www.w3.org/1999/xlink" x="0px" y="0px"
	 viewBox="0 0 175.257 50" style="enable-background:new 0 0 175.257 50;" xml:space="preserve">
<style type="text/css">
	.st0{fill-rule:evenodd;clip-rule:evenodd;fill:#F7F7F7;}
</style>
<g>
	<g id="Capa_1-2">
		<path class="st0" d="M84.655,12.93c0.949,0,1.718,0.769,1.718,1.718c0,0.949-0.769,1.718-1.718,1.718
			c-0.949,0-1.718-0.769-1.718-1.718C82.938,13.699,83.706,12.931,84.655,12.93z M65.316,15.442v7.787h9.452
			c2.15-0.034,3.866-1.806,3.831-3.956c-0.034-2.102-1.729-3.797-3.831-3.831L65.316,15.442z M74.768,25.666h-9.452v8.042h9.452
			c2.221-0.07,3.964-1.927,3.894-4.148C78.595,27.438,76.89,25.733,74.768,25.666z M119.539,27.984
			c0.001,3.213-2.604,5.818-5.817,5.819c-3.213,0.001-5.818-2.604-5.819-5.817c-0.001-3.213,2.604-5.818,5.817-5.819
			c0.001,0,0.001,0,0.002,0C116.934,22.169,119.537,24.772,119.539,27.984z M149.3,22.167c3.213,0,5.818,2.605,5.818,5.818
			s-2.605,5.818-5.818,5.818c-3.213,0-5.818-2.605-5.818-5.818c0,0,0-0.001,0-0.001C143.484,24.772,146.088,22.168,149.3,22.167z
			 M131.69,22.167c3.213-0.001,5.818,2.604,5.819,5.817s-2.604,5.818-5.817,5.819c-3.213,0.001-5.818-2.604-5.819-5.817
			c0-0.001,0-0.001,0-0.002c0.002-3.213,2.607-5.817,5.82-5.817H131.69z M83.435,19.349v16.542h2.437V19.349H83.435z M88.022,27.793
			L88.022,27.793v8.1h2.436v-7.909c0.042-3.213,2.681-5.783,5.894-5.741c3.154,0.041,5.7,2.588,5.741,5.741v7.907h2.437v-8.1l0,0
			c-0.159-4.556-3.981-8.121-8.537-7.963c-4.334,0.151-7.812,3.629-7.963,7.963L88.022,27.793z M158.751,27.793L158.751,27.793v8.1
			h2.437v-7.909c0.042-3.213,2.681-5.783,5.894-5.741c3.153,0.041,5.7,2.588,5.741,5.741v7.907h2.437v-8.1l0,0
			c-0.142-4.556-3.951-8.135-8.507-7.993c-4.357,0.136-7.857,3.636-7.993,7.993L158.751,27.793z M74.907,13.005H62.879v23.139
			h12.028c3.476-0.112,6.226-2.98,6.193-6.457c0.007-2.058-0.963-3.998-2.614-5.227c2.83-2.052,3.461-6.01,1.409-8.84
			c-1.162-1.602-3.007-2.569-4.986-2.613L74.907,13.005z M149.307,19.73c-4.559-0.001-8.255,3.695-8.256,8.254
			c-0.001,4.559,3.695,8.255,8.254,8.256c4.559,0.001,8.255-3.695,8.256-8.254c0-0.001,0-0.001,0-0.002
			c-0.003-4.56-3.701-8.255-8.261-8.254H149.307z M125.88,22.13v-8.6h-2.437v14.454c-0.003,4.561,3.693,8.261,8.254,8.264
			c4.561,0.003,8.261-3.693,8.264-8.254c0.003-4.561-3.693-8.261-8.254-8.264C129.524,19.729,127.429,20.592,125.88,22.13
			L125.88,22.13z M12.459,11.86h-0.451v6.3L31.5,29.871c0.368,0.225,0.623,0.596,0.7,1.021c0.082,0.452-0.006,0.919-0.246,1.311l0,0
			c-0.233,0.396-0.604,0.692-1.042,0.832c-0.41,0.132-0.856,0.084-1.228-0.134L12.008,22.285v15.623h19.928
			c3.452-0.147,6.135-3.059,6-6.512l0,0c0.136-3.453-2.547-6.365-6-6.512c3.452-0.147,6.135-3.059,6-6.512l0,0
			c0.136-3.453-2.547-6.365-6-6.512H19.322l11.977,7.2c0.369,0.224,0.624,0.596,0.7,1.021c0.082,0.452-0.005,0.919-0.245,1.311l0,0
			c-0.234,0.396-0.604,0.692-1.042,0.832c-0.41,0.132-0.856,0.084-1.228-0.134L12.459,11.86z M119.539,33.838v2.053
			c-0.001,3.213-2.606,5.817-5.819,5.817c-2.367,0-4.498-1.435-5.389-3.628L106.073,39c1.718,4.224,6.535,6.255,10.758,4.537
			c2.964-1.206,4.965-4.016,5.134-7.212h0.011v-8.532l0,0c-0.103-4.56-3.884-8.173-8.444-8.07s-8.173,3.884-8.07,8.444
			c0.103,4.56,3.884,8.173,8.444,8.07c2.116-0.048,4.133-0.907,5.635-2.399L119.539,33.838z M25,0c13.807,0,25,11.193,25,25
			S38.807,50,25,50S0,38.807,0,25C0.007,11.196,11.196,0.007,25,0z"/>
	</g>
</g>
</svg>
