<?xml version="1.0" encoding="utf-8"?>
<!-- Generator: Adobe Illustrator 23.1.1, SVG Export Plug-In . SVG Version: 6.00 Build 0)  -->
<svg version="1.1" id="Capa_1" xmlns="http://www.w3.org/2000/svg" xmlns:xlink="http://www.w3.org/1999/xlink" x="0px" y="0px"
	 viewBox="0 0 214.953 50" style="enable-background:new 0 0 214.953 50;" xml:space="preserve">
<style type="text/css">
	.st0{fill:#F7F7F7;}
	.st1{opacity:0.8;fill:#F7F7F7;enable-background:new    ;}
</style>
<g id="bscscan-logo" transform="translate(-219.378 -213.334)">
	<g id="bscscan-logo-circle">
		<path id="Path_1" class="st0" d="M229.913,237.02c0-1.174,0.952-2.125,2.126-2.125c0.003,0,0.006,0,0.01,0l3.54,0.012
			c1.175,0,2.128,0.953,2.128,2.128l0,0v13.386c0.399-0.118,0.909-0.244,1.47-0.376c0.801-0.188,1.367-0.903,1.367-1.726v-16.603
			c0-1.175,0.953-2.128,2.128-2.128h3.55c1.175,0,2.128,0.953,2.128,2.128v15.41c0,0,0.888-0.359,1.753-0.725
			c0.657-0.278,1.084-0.922,1.084-1.635v-18.371c0-1.175,0.953-2.128,2.128-2.128h3.547c1.174,0.001,2.126,0.954,2.126,2.128v15.128
			c3.075-2.228,6.191-4.909,8.664-8.132c0.729-0.95,0.933-2.202,0.544-3.335c-4.542-13.068-18.819-19.98-31.887-15.438
			c-13.068,4.542-19.98,18.819-15.438,31.887c0.513,1.475,1.162,2.898,1.939,4.252c0.618,1.065,1.796,1.675,3.022,1.566
			c0.671-0.059,1.506-0.143,2.499-0.259c0.895-0.102,1.571-0.859,1.572-1.759V237.02"/>
		<path id="Path_2" class="st0" d="M229.837,258.487c11.192,8.142,26.864,5.669,35.006-5.522c3.117-4.285,4.796-9.448,4.795-14.747
			c0-0.578-0.027-1.148-0.065-1.715C260.417,250.159,243.51,256.543,229.837,258.487"/>
	</g>
	<g id="words">
		<path id="Path_124" class="st1" d="M283.555,255.049h-3.508l-0.62,1.76h-1.847l3.222-8.651h1.995l3.21,8.651h-1.847
			L283.555,255.049z M283.084,253.723l-1.289-3.693l-1.289,3.693H283.084z M294.995,249.856c0.55-0.008,1.091,0.138,1.562,0.421
			c0.473,0.292,0.85,0.717,1.084,1.221c0.272,0.588,0.406,1.23,0.39,1.878c0.015,0.648-0.118,1.29-0.39,1.878
			c-0.235,0.504-0.612,0.928-1.084,1.221c-0.471,0.283-1.012,0.429-1.562,0.421c-0.525,0.015-1.041-0.131-1.481-0.417
			c-0.401-0.267-0.707-0.655-0.874-1.107v4.71h-1.748v-10.138h1.748v1.425c0.165-0.452,0.471-0.839,0.874-1.103
			C293.955,249.983,294.471,249.841,294.995,249.856z M294.449,251.381c-0.492-0.015-0.968,0.18-1.308,0.537
			c-0.358,0.399-0.543,0.923-0.514,1.458c-0.027,0.531,0.158,1.051,0.514,1.446c0.339,0.357,0.815,0.553,1.308,0.537
			c0.493,0.021,0.972-0.171,1.314-0.527c0.349-0.402,0.527-0.925,0.496-1.456c0.03-0.533-0.147-1.058-0.496-1.462
			C295.423,251.554,294.944,251.36,294.449,251.381z M301.638,251.257c0.245-0.426,0.595-0.783,1.016-1.035
			c0.427-0.254,0.916-0.384,1.413-0.378v1.872h-0.508c-1.281,0-1.921,0.595-1.921,1.785v3.309h-1.748v-6.866h1.748V251.257z
			 M308.826,249.856c0.627-0.01,1.246,0.135,1.803,0.421c0.529,0.277,0.966,0.701,1.258,1.221c0.316,0.574,0.474,1.222,0.459,1.878
			c0.016,0.654-0.142,1.3-0.459,1.872c-0.295,0.518-0.731,0.942-1.258,1.221c-0.556,0.291-1.176,0.438-1.803,0.428
			c-0.627,0.01-1.247-0.137-1.803-0.428c-0.527-0.279-0.963-0.703-1.258-1.221c-0.317-0.572-0.475-1.218-0.459-1.872
			c-0.016-0.655,0.142-1.303,0.459-1.878c0.292-0.52,0.729-0.944,1.258-1.221C307.58,249.991,308.2,249.846,308.826,249.856z
			 M308.826,251.368c-0.467-0.009-0.916,0.178-1.239,0.514c-0.363,0.409-0.546,0.948-0.508,1.493
			c-0.037,0.545,0.146,1.083,0.508,1.491c0.323,0.337,0.773,0.523,1.239,0.514c0.467,0.009,0.916-0.178,1.239-0.514
			c0.363-0.409,0.546-0.946,0.508-1.491c0.038-0.546-0.145-1.084-0.508-1.493C309.742,251.546,309.293,251.36,308.826,251.368z
			 M316.895,249.856c0.524-0.015,1.04,0.127,1.481,0.409c0.404,0.266,0.714,0.652,0.886,1.103v-3.731h1.735v9.172h-1.735v-1.438
			c-0.175,0.452-0.485,0.839-0.888,1.107c-0.439,0.286-0.955,0.432-1.479,0.417c-0.55,0.008-1.091-0.138-1.562-0.421
			c-0.473-0.292-0.85-0.717-1.084-1.221c-0.272-0.588-0.406-1.23-0.39-1.878c-0.015-0.648,0.118-1.29,0.39-1.878
			c0.235-0.504,0.612-0.928,1.084-1.221C315.804,249.994,316.345,249.848,316.895,249.856z M317.44,251.381
			c-0.494-0.021-0.974,0.173-1.314,0.533c-0.348,0.405-0.526,0.929-0.496,1.462c-0.031,0.532,0.147,1.054,0.496,1.456
			c0.342,0.356,0.821,0.548,1.314,0.527c0.492,0.014,0.967-0.182,1.306-0.539c0.356-0.395,0.541-0.915,0.514-1.446
			c0.027-0.534-0.158-1.056-0.514-1.454C318.407,251.562,317.932,251.366,317.44,251.381z M329.772,249.943v6.866h-1.748v-1.388
			c-0.172,0.451-0.488,0.832-0.899,1.084c-0.435,0.265-0.937,0.401-1.446,0.39c-0.716,0.032-1.41-0.254-1.896-0.781
			c-0.502-0.612-0.755-1.391-0.706-2.181v-3.991h1.735v3.793c-0.029,0.462,0.122,0.917,0.421,1.27
			c0.297,0.309,0.712,0.475,1.14,0.454c0.452,0.021,0.891-0.155,1.202-0.483c0.32-0.389,0.48-0.885,0.446-1.388v-3.644
			L329.772,249.943z M335.065,249.856c0.799-0.028,1.582,0.226,2.212,0.719c0.599,0.493,0.994,1.191,1.109,1.958h-1.847
			c-0.06-0.339-0.24-0.645-0.508-0.861c-0.288-0.218-0.643-0.33-1.004-0.316c-0.443-0.009-0.868,0.18-1.159,0.514
			c-0.338,0.426-0.503,0.963-0.465,1.506c-0.039,0.542,0.126,1.079,0.463,1.506c0.292,0.335,0.717,0.524,1.161,0.514
			c0.361,0.014,0.716-0.098,1.004-0.316c0.268-0.216,0.448-0.522,0.508-0.861h1.847c-0.115,0.767-0.51,1.465-1.109,1.958
			c-0.63,0.492-1.413,0.747-2.212,0.719c-0.622,0.012-1.236-0.136-1.785-0.428c-0.515-0.28-0.938-0.704-1.215-1.221
			c-0.301-0.577-0.45-1.221-0.434-1.872c-0.016-0.652,0.134-1.298,0.434-1.878c0.275-0.518,0.698-0.943,1.215-1.221
			C333.83,249.99,334.444,249.845,335.065,249.856z M343.914,255.31v1.5h-0.917c-0.638,0.043-1.269-0.156-1.766-0.558
			c-0.409-0.372-0.613-0.992-0.613-1.859v-2.975h-0.954v-1.475h0.954v-1.698h1.748v1.698h1.537v1.475h-1.537v2.999
			c-0.026,0.248,0.045,0.497,0.198,0.694c0.189,0.151,0.429,0.222,0.669,0.198H343.914z M352.28,249.856
			c0.627-0.01,1.246,0.135,1.803,0.421c0.529,0.277,0.966,0.701,1.258,1.221c0.316,0.574,0.474,1.222,0.459,1.878
			c0.016,0.654-0.142,1.3-0.459,1.872c-0.295,0.518-0.731,0.942-1.258,1.221c-0.556,0.291-1.176,0.438-1.803,0.428
			c-0.628,0.01-1.249-0.137-1.805-0.428c-0.526-0.279-0.962-0.703-1.256-1.221c-0.317-0.572-0.475-1.218-0.459-1.872
			c-0.016-0.655,0.142-1.303,0.459-1.878c0.292-0.52,0.728-0.944,1.256-1.221C351.032,249.991,351.653,249.846,352.28,249.856z
			 M352.28,251.368c-0.467-0.009-0.916,0.178-1.239,0.514c-0.363,0.409-0.546,0.948-0.508,1.493
			c-0.037,0.545,0.146,1.083,0.508,1.491c0.323,0.337,0.773,0.523,1.239,0.514c0.467,0.009,0.916-0.178,1.239-0.514
			c0.363-0.409,0.546-0.946,0.508-1.491c0.038-0.546-0.145-1.084-0.508-1.493C353.196,251.546,352.747,251.36,352.28,251.368z
			 M361.055,248.753c-0.375-0.066-0.76,0.014-1.078,0.223c-0.235,0.259-0.348,0.607-0.31,0.954v0.012h1.388v1.475h-1.388v5.391
			h-1.748v-5.391h-0.88v-1.475h0.88v-0.161c-0.045-0.701,0.21-1.388,0.7-1.89c0.58-0.481,1.324-0.719,2.076-0.663
			c0.157,0,0.277,0.004,0.359,0.012V248.753z M368.095,249.732v1.834h2.962v1.599h-2.962v1.946h3.334v1.698h-5.453v-8.763h5.453
			v1.686H368.095z M377.167,254.987v1.822h-0.954c-0.683,0.042-1.357-0.172-1.89-0.601c-0.45-0.401-0.675-1.064-0.675-1.989v-2.541
			h-0.93v-1.785h0.93v-1.698h2.119v1.698h1.388v1.785h-1.388v2.578c-0.023,0.204,0.037,0.409,0.165,0.57
			c0.161,0.123,0.362,0.181,0.564,0.161H377.167z M383.364,249.819c0.717-0.032,1.411,0.259,1.89,0.793
			c0.497,0.615,0.747,1.392,0.702,2.181v4.016h-2.119v-3.768c0.024-0.395-0.108-0.784-0.366-1.084
			c-0.253-0.264-0.608-0.406-0.973-0.39c-0.384-0.019-0.757,0.131-1.023,0.409c-0.271,0.326-0.406,0.743-0.378,1.165v3.669h-2.119
			v-9.172h2.119v3.52c0.192-0.407,0.501-0.747,0.886-0.979C382.402,249.932,382.88,249.808,383.364,249.819z M394.544,253.165
			c-0.002,0.192-0.023,0.383-0.062,0.57h-4.797c-0.017,0.411,0.125,0.812,0.397,1.122c0.249,0.231,0.578,0.353,0.917,0.341
			c0.279,0.011,0.554-0.072,0.781-0.235c0.202-0.15,0.346-0.364,0.409-0.607h2.243c-0.087,0.478-0.291,0.928-0.595,1.308
			c-0.312,0.389-0.711,0.699-1.165,0.905c-0.494,0.225-1.031,0.337-1.574,0.331c-0.628,0.012-1.248-0.135-1.803-0.428
			c-0.522-0.283-0.951-0.712-1.233-1.235c-0.308-0.579-0.461-1.228-0.446-1.884c-0.017-0.657,0.135-1.308,0.44-1.89
			c0.282-0.521,0.711-0.948,1.233-1.227c0.558-0.292,1.18-0.439,1.81-0.428c0.629-0.013,1.251,0.131,1.81,0.421
			c0.509,0.269,0.929,0.681,1.208,1.184C394.408,251.949,394.556,252.554,394.544,253.165z M392.399,252.843
			c0.037-0.378-0.097-0.753-0.366-1.023c-0.257-0.229-0.592-0.351-0.936-0.341c-0.355-0.012-0.701,0.112-0.967,0.347
			c-0.273,0.268-0.429,0.634-0.434,1.016H392.399z M398.386,251.195c0.255-0.412,0.606-0.757,1.023-1.004
			c0.41-0.246,0.879-0.374,1.357-0.372v2.268h-0.607c-0.464-0.029-0.924,0.098-1.308,0.359c-0.339,0.308-0.511,0.759-0.465,1.215
			v3.148h-2.119v-6.916h2.119V251.195z M404.793,249.807c0.756-0.039,1.501,0.194,2.101,0.657c0.527,0.441,0.876,1.057,0.985,1.735
			h-1.983c-0.046-0.261-0.186-0.497-0.392-0.663c-0.218-0.166-0.488-0.252-0.762-0.242c-0.194-0.014-0.387,0.041-0.545,0.155
			c-0.127,0.11-0.196,0.272-0.186,0.44c0.001,0.217,0.137,0.41,0.341,0.483c0.346,0.144,0.706,0.252,1.074,0.322
			c0.441,0.098,0.876,0.225,1.301,0.378c0.342,0.13,0.645,0.346,0.88,0.626c0.262,0.33,0.394,0.744,0.372,1.165
			c0.006,0.376-0.107,0.745-0.322,1.053c-0.236,0.322-0.558,0.572-0.93,0.719c-0.457,0.183-0.946,0.272-1.438,0.26
			c-0.795,0.04-1.582-0.177-2.243-0.62c-0.57-0.426-0.941-1.066-1.029-1.772h2.045c0.019,0.272,0.157,0.522,0.378,0.682
			c0.251,0.166,0.548,0.249,0.849,0.235c0.196,0.014,0.391-0.046,0.545-0.167c0.124-0.112,0.192-0.273,0.186-0.44
			c0.009-0.227-0.129-0.434-0.341-0.514c-0.359-0.144-0.73-0.255-1.109-0.331c-0.429-0.084-0.852-0.2-1.264-0.347
			c-0.331-0.125-0.626-0.331-0.855-0.601c-0.255-0.321-0.382-0.725-0.359-1.134c-0.016-0.585,0.246-1.144,0.706-1.506
			C403.377,249.964,404.082,249.761,404.793,249.807z M412.899,249.807c0.811-0.027,1.606,0.234,2.243,0.737
			c0.616,0.513,1.021,1.234,1.14,2.026h-2.243c-0.051-0.272-0.196-0.518-0.409-0.694c-0.224-0.171-0.5-0.259-0.781-0.248
			c-0.358-0.007-0.698,0.157-0.917,0.44c-0.263,0.373-0.39,0.825-0.359,1.281c-0.031,0.456,0.096,0.909,0.359,1.283
			c0.219,0.284,0.559,0.448,0.917,0.442c0.281,0.011,0.557-0.077,0.781-0.248c0.213-0.176,0.358-0.422,0.409-0.694h2.243
			c-0.119,0.792-0.525,1.512-1.14,2.024c-0.637,0.504-1.432,0.766-2.243,0.74c-0.628,0.012-1.248-0.135-1.803-0.428
			c-0.522-0.283-0.951-0.711-1.233-1.233c-0.308-0.579-0.461-1.228-0.446-1.884c-0.017-0.657,0.135-1.308,0.44-1.89
			c0.282-0.521,0.711-0.948,1.233-1.227C411.647,249.942,412.27,249.795,412.899,249.807z M420.633,249.807
			c0.479-0.013,0.953,0.111,1.363,0.359c0.374,0.233,0.668,0.574,0.843,0.979v-1.252h2.107v6.916h-2.107v-1.252
			c-0.175,0.405-0.469,0.746-0.843,0.979c-0.411,0.248-0.884,0.373-1.363,0.359c-0.541,0.008-1.072-0.14-1.531-0.428
			c-0.465-0.302-0.835-0.729-1.066-1.233c-0.272-0.59-0.405-1.234-0.39-1.884c-0.016-0.652,0.118-1.298,0.39-1.89
			c0.233-0.501,0.602-0.927,1.066-1.227C419.561,249.947,420.092,249.798,420.633,249.807z M421.315,251.666
			c-0.413-0.017-0.813,0.146-1.097,0.446c-0.293,0.344-0.442,0.788-0.415,1.239c-0.027,0.451,0.122,0.895,0.415,1.239
			c0.284,0.3,0.684,0.463,1.097,0.446c0.415,0.013,0.815-0.154,1.097-0.459c0.297-0.338,0.45-0.778,0.428-1.227
			c0.025-0.451-0.129-0.894-0.428-1.233C422.128,251.817,421.728,251.652,421.315,251.666z M431.416,249.819
			c0.717-0.032,1.411,0.259,1.89,0.793c0.497,0.615,0.747,1.392,0.702,2.181v4.016h-2.119v-3.768
			c0.024-0.395-0.108-0.784-0.366-1.084c-0.253-0.264-0.608-0.406-0.973-0.39c-0.384-0.019-0.757,0.131-1.023,0.409
			c-0.271,0.326-0.406,0.743-0.378,1.165v3.669h-2.121v-6.916h2.119v1.264c0.192-0.407,0.501-0.747,0.886-0.979
			C430.452,249.932,430.931,249.808,431.416,249.819z"/>
		<path id="Path_123" class="st0" d="M290.386,229.456c1.199,0.216,2.28,0.855,3.049,1.8c0.761,0.936,1.167,2.111,1.145,3.317
			c0.075,1.59-0.576,3.127-1.77,4.179c-1.18,1.021-2.89,1.532-5.131,1.532h-9.013v-21h8.834c2.121,0,3.752,0.466,4.893,1.398
			c1.141,0.932,1.711,2.24,1.71,3.925c0.049,1.159-0.314,2.297-1.026,3.213C292.392,228.654,291.443,229.231,290.386,229.456z
			 M282.86,228.088h3.776c0.857,0.061,1.707-0.187,2.396-0.699c0.564-0.51,0.865-1.249,0.818-2.008
			c0.046-0.761-0.248-1.502-0.803-2.024c-0.535-0.476-1.358-0.714-2.469-0.714h-3.718V228.088z M286.846,236.863
			c0.911,0.06,1.815-0.198,2.558-0.729c0.615-0.53,0.945-1.317,0.892-2.127c0.047-0.821-0.288-1.617-0.909-2.157
			c-0.741-0.549-1.653-0.818-2.573-0.759h-3.955v5.771H286.846z M303.206,223.597c2.003,0,3.609,0.506,4.819,1.517
			c1.22,1.029,2.024,2.467,2.261,4.045h-3.925c-0.128-0.739-0.506-1.411-1.071-1.904c-0.612-0.496-1.385-0.75-2.171-0.714
			c-0.599-0.037-1.19,0.142-1.667,0.506c-0.398,0.34-0.618,0.845-0.595,1.368c-0.016,0.42,0.159,0.824,0.476,1.101
			c0.349,0.295,0.754,0.518,1.19,0.654c0.476,0.159,1.16,0.347,2.052,0.565c1.037,0.216,2.056,0.509,3.049,0.878
			c0.786,0.309,1.482,0.81,2.024,1.458c0.599,0.765,0.9,1.722,0.848,2.692c0.033,1.34-0.583,2.613-1.653,3.421
			c-1.101,0.871-2.583,1.307-4.447,1.307c-2.142,0-3.857-0.48-5.146-1.441c-1.31-0.997-2.158-2.484-2.35-4.12h4.016
			c0.071,0.762,0.459,1.459,1.071,1.919c0.704,0.493,1.551,0.739,2.409,0.699c0.592,0.041,1.177-0.145,1.636-0.521
			c0.377-0.347,0.583-0.841,0.565-1.353c0.015-0.44-0.164-0.865-0.491-1.16c-0.353-0.312-0.769-0.545-1.22-0.684
			c-0.486-0.159-1.174-0.347-2.066-0.565c-1.014-0.216-2.013-0.499-2.989-0.848c-0.762-0.286-1.437-0.762-1.963-1.383
			c-0.582-0.744-0.872-1.675-0.818-2.618c-0.035-1.353,0.572-2.644,1.636-3.48C299.776,224.043,301.283,223.597,303.206,223.597z
			 M321.024,223.597c1.918-0.068,3.798,0.543,5.31,1.725c1.438,1.184,2.386,2.858,2.662,4.7h-4.434
			c-0.144-0.813-0.577-1.547-1.22-2.066c-0.691-0.524-1.543-0.792-2.409-0.759c-1.064-0.021-2.083,0.431-2.781,1.234
			c-0.744,0.823-1.115,2.028-1.115,3.614s0.372,2.791,1.115,3.614c0.699,0.803,1.717,1.255,2.781,1.234
			c0.867,0.034,1.718-0.234,2.409-0.759c0.642-0.519,1.076-1.253,1.22-2.066h4.432c-0.276,1.842-1.225,3.516-2.662,4.7
			c-1.512,1.18-3.391,1.789-5.308,1.72c-1.492,0.028-2.966-0.324-4.283-1.025c-1.237-0.671-2.25-1.69-2.915-2.93
			c-0.722-1.385-1.08-2.93-1.041-4.492c-0.038-1.566,0.32-3.116,1.041-4.506c0.659-1.244,1.674-2.264,2.915-2.93
			C318.061,223.917,319.534,223.569,321.024,223.597z M346.397,234.545c0.008,1.041-0.27,2.065-0.803,2.96
			c-0.571,0.935-1.396,1.688-2.38,2.171c-1.195,0.576-2.511,0.856-3.837,0.815c-1.367,0.023-2.723-0.235-3.986-0.759
			c-1.115-0.464-2.086-1.219-2.809-2.186c-0.712-0.973-1.13-2.129-1.205-3.332h4.462c0.078,0.809,0.442,1.563,1.026,2.127
			c0.634,0.584,1.475,0.889,2.335,0.848c0.736,0.049,1.461-0.203,2.008-0.699c0.471-0.478,0.724-1.129,0.699-1.8
			c0.022-0.592-0.18-1.171-0.565-1.621c-0.397-0.441-0.884-0.791-1.428-1.026c-0.575-0.258-1.368-0.555-2.38-0.892
			c-1.101-0.352-2.175-0.784-3.213-1.294c-0.848-0.44-1.578-1.077-2.127-1.859c-0.622-0.941-0.929-2.055-0.878-3.181
			c-0.07-1.652,0.654-3.239,1.948-4.269c1.299-1.041,3.019-1.562,5.161-1.562c2.221,0,3.991,0.535,5.31,1.606
			c1.309,1.054,2.122,2.605,2.244,4.282h-4.521c-0.096-0.71-0.431-1.366-0.95-1.859c-0.582-0.51-1.34-0.772-2.112-0.729
			c-0.678-0.032-1.345,0.185-1.874,0.61c-0.496,0.451-0.759,1.103-0.716,1.772c-0.019,0.562,0.178,1.11,0.55,1.532
			c0.392,0.425,0.868,0.764,1.398,0.996c0.752,0.329,1.522,0.617,2.305,0.863c1.121,0.382,2.218,0.829,3.287,1.339
			c0.864,0.435,1.605,1.079,2.157,1.874c0.634,0.969,0.946,2.114,0.892,3.27V234.545z M356.897,223.597
			c1.918-0.068,3.798,0.543,5.31,1.725c1.438,1.184,2.386,2.858,2.662,4.7h-4.432c-0.144-0.813-0.577-1.547-1.22-2.066
			c-0.691-0.524-1.543-0.792-2.409-0.759c-1.064-0.021-2.083,0.431-2.781,1.234c-0.744,0.823-1.115,2.028-1.115,3.614
			s0.372,2.791,1.115,3.614c0.699,0.803,1.717,1.255,2.781,1.234c0.867,0.034,1.718-0.234,2.409-0.759
			c0.642-0.519,1.076-1.253,1.22-2.066h4.432c-0.277,1.841-1.225,3.513-2.662,4.697c-1.512,1.181-3.392,1.792-5.31,1.724
			c-1.492,0.028-2.966-0.324-4.283-1.025c-1.237-0.671-2.25-1.69-2.915-2.93c-0.722-1.385-1.08-2.93-1.041-4.492
			c-0.038-1.566,0.32-3.116,1.041-4.506c0.659-1.244,1.674-2.264,2.915-2.93C353.934,223.917,355.407,223.569,356.897,223.597z
			 M374.298,223.597c1.261-0.036,2.504,0.306,3.569,0.982c0.972,0.63,1.713,1.559,2.112,2.647v-3.421h4.164v16.479h-4.164v-3.451
			c-0.401,1.091-1.141,2.024-2.112,2.662c-1.062,0.684-2.307,1.031-3.569,0.995c-1.319,0.019-2.617-0.332-3.748-1.011
			c-1.135-0.702-2.04-1.72-2.603-2.93c-0.653-1.411-0.974-2.952-0.937-4.506c-0.037-1.554,0.284-3.096,0.937-4.506
			c0.563-1.21,1.468-2.228,2.603-2.93C371.681,223.927,372.979,223.577,374.298,223.597z M375.607,227.255
			c-1.187-0.05-2.337,0.417-3.153,1.281c-0.793,0.854-1.19,2.024-1.19,3.512c0,1.487,0.397,2.652,1.19,3.495
			c0.821,0.855,1.969,1.315,3.153,1.264c1.183,0.036,2.326-0.434,3.14-1.294c0.854-0.946,1.298-2.192,1.234-3.465
			c0.067-1.282-0.377-2.539-1.234-3.495C377.933,227.692,376.791,227.22,375.607,227.255z M397.768,223.567
			c1.719-0.077,3.385,0.609,4.551,1.874c1.129,1.249,1.694,3.004,1.694,5.265v9.578h-4.164v-9.102c0-1.309-0.337-2.325-1.011-3.049
			c-0.723-0.744-1.732-1.14-2.768-1.086c-1.075-0.047-2.118,0.376-2.856,1.16c-0.714,0.773-1.071,1.884-1.071,3.332v8.745h-4.191
			v-16.479h4.194v3.3c0.412-1.082,1.17-1.997,2.157-2.603c1.043-0.636,2.246-0.96,3.467-0.935H397.768z"/>
	</g>
</g>
</svg>
