<?xml version="1.0" encoding="utf-8"?>
<!-- Generator: Adobe Illustrator 23.1.1, SVG Export Plug-In . SVG Version: 6.00 Build 0)  -->
<svg version="1.1" id="Capa_1" xmlns="http://www.w3.org/2000/svg" xmlns:xlink="http://www.w3.org/1999/xlink" x="0px" y="0px"
	 viewBox="0 0 182 50" style="enable-background:new 0 0 182 50;" xml:space="preserve">
<style type="text/css">
	.st0{fill-rule:evenodd;clip-rule:evenodd;fill:#F7F7F7;}
</style>
<g>
	<path class="st0" d="M25,0C11.2,0,0,11.2,0,25l0,0c0,13.8,11.2,25,25,25s25-11.2,25-25S38.8,0,25,0z M38.3,27.9
		c1.5-0.6,3-1.4,4.2-2.5l-0.1,0.1l0,0l-0.1,0.1c-0.8,0.7-1.6,1.4-2.5,1.9c-2.3,1.3-4.8,2.2-7.4,2.7c-1.7,0.4-3.5,0.3-5.1-0.3
		c-0.8-0.3-1.5-0.7-2-1.4c1.7,0.9,3.6,1.3,5.5,1.1C33.4,29.6,36,29,38.3,27.9z M36.7,23.8c0-0.5,0.4-1,0.9-1s1,0.4,1,0.9s-0.4,1-1,1
		C37.2,24.8,36.8,24.3,36.7,23.8z M21.7,23.8c-2.5,0-4.5-2-4.5-4.5s2-4.5,4.5-4.5l0,0c2.5,0,4.5,2,4.5,4.5S24.2,23.8,21.7,23.8z
		 M34.2,46.2c-1.5,0.7-3.1,1.2-4.7,1.5c-0.1,0-0.2,0-0.3,0.1c-0.3-2.4,0.1-4.9,1.2-7.1c1.3-2.7,2.9-5.2,4.9-7.4
		c1.7-1.9,3.5-3.6,5.3-5.4c0.7-0.7,1.4-1.5,1.9-2.3l0.1-0.1c0.2-0.3,0.4-0.7,0.5-1.1c1-2,0.3-4.3-1.5-5.5c-1.5-1-3.2-1.8-5-2.2
		c-1.7-0.5-3.4-1.1-5-1.8l0,0c-0.3-1-1.1-1.9-2.2-2.2c-1.4-0.4-2.8-0.4-4.2,0l0,0c-1.4-0.3-2.9-0.5-4.3-0.4
		c-1.6,0.1-3.1,0.5-4.5,1.2c-1.8,0.6-3.4,1.6-4.7,3c-1.4,1.5-2.3,3.4-2.6,5.4c-0.3,1.7-0.3,3.5-0.5,5.3c-0.2,3.8-1,7.5-2.5,11
		c-0.4-0.4-0.8-1-1-1.4c-1.5-2.5-2.5-5.3-2.9-8.3c-0.2-1.3-0.3-2.6-0.3-3.8C2.1,14.7,8.5,6,17.9,3c2.7-0.9,5.5-1.3,8.3-1.1
		c6.1,0.3,11.8,3,15.9,7.6c3.1,3.4,5.1,7.6,5.7,12.1c0.7,4.7,0,9.6-2.2,13.8C43.2,40.3,39.1,44.1,34.2,46.2z"/>
	<path class="st0" d="M21.8,16.3c-1.7,0-3.2,1.3-3.2,3.1v0.1c0,1.7,1.4,3.1,3.1,3.1h0.1c1.7,0,3.1-1.4,3.1-3.2l0,0
		C24.8,17.7,23.5,16.3,21.8,16.3z"/>
</g>
<path class="st0" d="M124,32c-0.1,0-0.1,0.1-0.2,0.1c-2,2.3-4.5,2.7-7.3,2c-3.4-0.9-5.2-3.3-5.9-6.6c-0.5-2.1-0.3-4.3,0.5-6.4
	c1.4-3.5,5-5.6,8.8-5c1.8,0.2,3.4,0.9,4.6,2.2c0.9,1,1.5,2.2,1.7,3.5c0,0.3-0.1,0.3-0.3,0.3c-0.8,0-1.6,0-2.4,0
	c-0.2,0-0.3-0.1-0.3-0.3c-0.3-1.6-1.6-2.9-3.3-3.1c-1.8-0.5-3.8,0.1-5,1.6c-1.1,1.4-1.6,3.2-1.5,5c0,1.3,0.3,2.7,0.9,3.9
	c1.4,2.5,4.5,3.5,7.1,2.1c0.1,0,0.1-0.1,0.2-0.1c1.3-0.8,2-2.3,2-3.8c0-0.3-0.2-0.3-0.4-0.3c-1.3,0-2.5,0-3.8,0
	c-0.4,0-0.5-0.1-0.5-0.5c0-0.5,0-1,0-1.5c0-0.3,0.1-0.4,0.4-0.4c2.2,0,4.5,0,6.7,0c0.3,0,0.4,0.1,0.4,0.3c0,2.9,0,5.7,0,8.6
	c0,0.3-0.1,0.3-0.3,0.3c-0.5,0-1.2,0.2-1.6-0.1c-0.4-0.2-0.3-0.9-0.4-1.4C124.1,32.3,124,32.1,124,32 M72.3,22c-0.4,0-0.8,0-1.2,0
	c-0.2,0-0.3-0.1-0.4-0.3c-0.4-1.7-1.8-3-3.6-3.1c-2-0.4-3.9,0.6-4.9,2.3c-1.5,2.7-1.5,6,0,8.6c1.1,1.9,3.4,2.8,5.4,2.1
	c1.7-0.5,2.9-2,3.1-3.7c0.2-0.7,0.1-0.7,0.9-0.7c0.6,0,1.3,0,1.9,0c0.2,0,0.3,0.1,0.3,0.3c-0.1,3.4-2.6,6.1-6,6.7
	c-4.4,0.9-8.7-2-9.6-6.4c0-0.2-0.1-0.5-0.1-0.7c-0.4-2.1-0.1-4.3,0.8-6.3c1.4-3.3,5-5.3,8.5-4.7c1.8,0.2,3.4,0.9,4.7,2.2
	c0.9,1,1.5,2.2,1.6,3.5c0,0.2,0,0.3-0.3,0.3C73.1,22,72.7,22,72.3,22 M168.4,34c-1.1,0-2.1,0-3.1,0c-0.3,0-0.4-0.2-0.5-0.3
	c-1.1-1.8-2.3-3.6-3.4-5.4c-0.2-0.3-0.3-0.3-0.6-0.1c-1.1,0.7-1.6,2-1.4,3.2c0,0.8,0.1,1.5,0,2.3c0,0.3-0.1,0.4-0.4,0.4
	c-0.7,0-1.3,0-2,0c-0.4,0-0.4-0.1-0.4-0.4c0-2.7,0-5.4,0-8.1c0-2.8,0-5.6,0-8.5c0-0.5,0.1-0.6,0.6-0.5c0.6,0,1.2,0,1.8,0
	c0.4,0,0.5,0.1,0.5,0.5c0,2.9,0,5.9,0,8.8v0.5l0.1,0.1c0.2-0.3,0.4-0.5,0.7-0.8c1.3-1.4,2.6-2.7,4-4c0.1-0.2,0.3-0.3,0.5-0.3
	c1,0,2.1,0,3.1,0c0,0.2-0.2,0.3-0.3,0.4c-1.4,1.3-2.7,2.6-4.1,3.9c-0.3,0.3-0.3,0.5-0.1,0.8c1.6,2.4,3.1,4.7,4.7,7.1
	C168.2,33.6,168.3,33.7,168.4,34L168.4,34z M136.2,28.3c-1.4,0-2.8,0-4.3,0c-0.3,0-0.4,0.1-0.4,0.4c0,1.9,1.6,3.4,3.4,3.4
	c0.5,0,1-0.1,1.4-0.3c0.7-0.3,1.2-0.8,1.5-1.5c0.1-0.3,0.3-0.4,0.6-0.4c0.6,0,1.2,0,1.8,0c0.3,0,0.4,0.1,0.3,0.4
	c-0.6,2.1-2.4,3.7-4.6,3.9c-2,0.4-4.1-0.2-5.6-1.7c-1-1.1-1.6-2.5-1.7-4c-0.2-1.8,0.2-3.6,1.3-5.1c1.3-1.9,3.6-2.8,5.9-2.3
	c2.3,0.4,4.2,2.1,4.7,4.4c0.2,0.8,0.3,1.7,0.3,2.6c0,0.3-0.1,0.4-0.4,0.4C139,28.3,137.6,28.3,136.2,28.3 M134.8,26.5
	c1,0,1.9,0,2.9,0c0.3,0,0.4-0.1,0.3-0.4c-0.1-1.8-1.7-3.1-3.5-3c-1.6,0.1-2.8,1.3-3,2.9c-0.1,0.3,0,0.5,0.4,0.5
	C132.9,26.5,133.8,26.5,134.8,26.5L134.8,26.5z M75.6,27.6c0-0.8,0.1-1.6,0.3-2.4c0.8-2.7,3.4-4.5,6.3-4.3c2.3,0.1,4.2,0.9,5.3,2.9
	c1.3,2.3,1.3,5.2,0,7.5s-3.4,3-5.9,2.9C77.9,34.1,75.6,31.5,75.6,27.6 M78.4,27.6c0,1.1,0.3,2.1,0.8,3c1,1.5,3.1,1.9,4.6,0.9
	c0.4-0.2,0.7-0.5,0.9-0.9c1.1-1.9,1.2-4.2,0-6.1c-1-1.5-3.1-1.9-4.6-0.9c-0.4,0.3-0.7,0.6-0.9,1C78.7,25.5,78.4,26.6,78.4,27.6
	 M169.2,27.7c-0.1-1.8,0.5-3.5,1.6-4.8c2.7-2.6,6.9-2.6,9.6,0c1.3,1.5,1.8,3.5,1.6,5.5c0,0.7-0.2,1.4-0.5,2.1
	c-1.4,3.2-5.2,4.7-8.5,3.3c-2.2-1-3.7-3.1-3.8-5.5C169.2,28.1,169.2,27.8,169.2,27.7L169.2,27.7z M179.2,27.8c0-1.1-0.2-2.2-0.8-3.2
	c-1-1.5-3.1-2-4.6-1c-0.4,0.3-0.7,0.6-1,1c-1.1,1.8-1.1,4.1,0,6c1,1.5,3.1,1.9,4.6,0.9c0.4-0.2,0.7-0.6,0.9-0.9
	C178.9,29.8,179.2,28.8,179.2,27.8 M99.3,23c0.7-1,1.7-1.7,2.9-2c1.1-0.3,2.2-0.2,3.3,0.3c1.5,0.6,2.4,2.1,2.3,3.6
	c0,2.9,0,5.7,0,8.6c0,0.3-0.1,0.4-0.4,0.4c-0.7,0-1.3,0-2,0c-0.4,0-0.5-0.1-0.5-0.4c0-2.4,0-4.9,0-7.3c0-0.5-0.1-1-0.2-1.5
	c-0.4-1.2-1.7-1.9-3-1.5c-0.1,0-0.1,0-0.2,0.1c-1.3,0.4-2.2,1.7-2.2,3c0,2.4,0,4.7,0,7.1c0,0.4-0.1,0.6-0.5,0.5c-0.6,0-1.2,0-1.8,0
	c-0.4,0-0.5-0.1-0.5-0.4c0-1.8,0-3.6,0-5.4c0-2.1,0-4.2,0-6.3c0-0.5,0.1-0.6,0.6-0.5c0.6,0,1.1,0,1.7,0c0.3,0,0.4,0.1,0.4,0.4
	C99.3,22.1,99.3,22.6,99.3,23 M152.9,25.5c-0.1,0-0.1,0-0.2,0c-0.6,0.2-1.3-0.2-1.5-0.8v-0.1c-0.8-2-3.9-2-5.2-0.2
	c-0.4,0.6-0.7,1.3-0.8,2.1c-0.2,1.2-0.1,2.5,0.4,3.7c0.5,1.4,1.9,2.1,3.4,1.9c1.2-0.2,2.2-1.1,2.4-2.4c0.1-0.4,0.3-0.5,0.6-0.5
	c0.6,0,1.3,0,1.9,0c0.4,0,0.4,0.1,0.3,0.4c-0.4,3-3.2,5.1-6.2,4.7c-3.1-0.1-5.6-2.5-5.7-5.7c-0.2-1.4,0.1-2.9,0.6-4.2
	c1-2.3,3.3-3.7,5.8-3.5c1.5,0,3,0.5,4.2,1.6c0.7,0.7,1.1,1.6,1.3,2.6c0.1,0.3,0,0.4-0.4,0.4S153.2,25.5,152.9,25.5 M93.6,27.7
	c0,1.9,0,3.8,0,5.7c0,0.5-0.1,0.6-0.6,0.6c-0.6,0-1.1,0-1.7,0c-0.4,0-0.5-0.1-0.5-0.5c0-3.4,0-6.8,0-10.2c0-0.5,0-1.1,0-1.6
	c0-0.3,0.1-0.4,0.4-0.4c0.6,0,1.3,0,1.9,0c0.4,0,0.5,0.1,0.5,0.5C93.6,23.7,93.6,25.7,93.6,27.7 M92.3,16.4c0.4,0,1-0.2,1.3,0.1
	c0.3,0.3,0.1,0.9,0.1,1.3s0.2,0.9-0.1,1.2c-0.2,0.2-0.8,0.1-1.2,0.1c-0.5,0-1.2,0.2-1.5-0.1c-0.3-0.3-0.1-1-0.1-1.4
	c0-1.1,0-1.1,1.1-1.1L92.3,16.4z"/>
</svg>
