<?xml version="1.0" encoding="utf-8"?>
<!-- Generator: Adobe Illustrator 23.1.1, SVG Export Plug-In . SVG Version: 6.00 Build 0)  -->
<svg version="1.1" id="Capa_1" xmlns="http://www.w3.org/2000/svg" xmlns:xlink="http://www.w3.org/1999/xlink" x="0px" y="0px"
	 viewBox="0 0 290.746 50" style="enable-background:new 0 0 290.746 50;" xml:space="preserve">
<style type="text/css">
	.st0{fill:#F7F7F7;}
</style>
<g>
	<g id="Capa_1-2">
		<path class="st0" d="M279.021,36.386v5.668c0.037,1.23-0.931,2.258-2.161,2.295c-1.23,0.037-2.258-0.931-2.295-2.161
			c-0.001-0.045-0.001-0.089,0-0.134v-18.8c-0.004-0.96,0.771-1.741,1.731-1.745c0.004,0,0.009,0,0.013,0
			c0.984,0.042,1.747,0.874,1.705,1.857c-0.001,0.027-0.003,0.054-0.005,0.082c1.378-1.397,3.27-2.168,5.232-2.132
			c4.312,0,7.509,3.633,7.509,8.139c0,4.458-3.051,8.285-7.267,8.285C281.899,37.711,280.354,37.242,279.021,36.386z
			 M282.703,33.721c1.987,0,3.536-1.89,3.536-4.215c0-2.423-1.6-4.021-3.536-4.021c-2.081,0.043-3.733,1.764-3.69,3.845
			c0.001,0.059,0.004,0.118,0.008,0.176c-0.152,2.175,1.488,4.062,3.663,4.214c0.005,0,0.011,0.001,0.016,0.001H282.703z
			 M267.055,35.756l-0.1-0.533c-0.872,1.7-3.632,2.471-5.376,2.471c-4.168,0-7.27-3.779-7.27-8.285c0-4.458,3.15-8.14,7.51-8.14
			c2.003,0.04,3.893,0.94,5.186,2.471l0.1-0.533c-0.024-0.939,0.717-1.719,1.655-1.743c0.015,0,0.03-0.001,0.045-0.001
			c0.958,0.013,1.731,0.786,1.744,1.744v12.5c0.004,0.959-0.771,1.74-1.73,1.744c-0.005,0-0.009,0-0.014,0
			c-0.919,0.046-1.702-0.662-1.748-1.582C267.055,35.832,267.054,35.794,267.055,35.756z M262.306,33.721
			c2.176-0.141,3.825-2.019,3.684-4.195c0-0.007-0.001-0.013-0.001-0.02c0.123-2.095-1.476-3.893-3.571-4.016
			c-0.037-0.002-0.075-0.004-0.112-0.005c-1.987,0-3.536,1.647-3.536,4.021C258.77,31.831,260.367,33.721,262.306,33.721z
			 M251.018,16.473c0.651,0.417,1.065,1.118,1.115,1.889c-0.005,1.156-0.927,2.1-2.083,2.132c-0.263-0.02-0.523-0.069-0.776-0.145
			c-1.356-1.021-3.003-1.581-4.7-1.6c-4.118,0-6.928,3.343-6.928,7.51s2.858,7.461,6.928,7.461c1.955-0.004,3.833-0.768,5.234-2.132
			c0.355-0.25,0.777-0.385,1.211-0.387c1.085-0.012,1.975,0.858,1.987,1.943c0,0.014,0,0.029,0,0.043
			c-0.017,0.694-0.382,1.333-0.971,1.7c-4.887,4.056-12.137,3.383-16.194-1.505s-3.383-12.137,1.505-16.194
			c2.047-1.699,4.618-2.635,7.278-2.651C246.906,14.494,249.144,15.171,251.018,16.473z M229.458,37.694h-1.211
			c-3.392,0-5.378-1.5-5.378-6.783v-5.475h-1.163c-1.137-0.035-2.03-0.986-1.995-2.123c0.034-1.087,0.907-1.961,1.995-1.995h1.163
			V17.1c-0.024-1.233,0.956-2.252,2.189-2.277c0.013,0,0.027,0,0.04,0c1.241,0.02,2.235,1.036,2.227,2.277v4.215h1.842
			c1.121,0.033,2.007,0.962,1.987,2.083c-0.036,1.09-0.898,1.973-1.987,2.035h-1.842v4.6c0,3.052,0.146,3.682,1.5,3.682h0.629
			c1.094,0.007,1.979,0.892,1.987,1.986C231.422,36.79,230.547,37.67,229.458,37.694L229.458,37.694z M217.058,30.862h-9.013
			c0,2.665,2.568,3.1,3.683,3.1c0.998,0.009,1.988-0.189,2.906-0.581c0.348-0.22,0.751-0.337,1.163-0.339
			c1.001,0.02,1.801,0.84,1.795,1.841c-0.032,0.663-0.398,1.265-0.971,1.6c-1.439,0.928-3.137,1.369-4.845,1.26
			c-4.5,0-8.235-2.422-8.235-8.091c0-4.457,2.277-8.333,7.6-8.333c4.312,0,7.558,2.81,7.656,7.8
			c-0.013,0.957-0.785,1.729-1.742,1.743H217.058z M211.242,25.485c-1.21,0-3.2,0.629-3.2,2.519h6.445
			c-0.048-1.89-2.082-2.519-3.248-2.519H211.242z M202.522,34.157c0.207,0.318,0.324,0.687,0.339,1.066
			c-0.047,1.21-1.017,2.18-2.227,2.228c-0.817-0.1-1.547-0.562-1.986-1.259l-5.136-5.959v4.941c0.026,1.231-0.951,2.251-2.182,2.277
			c-1.231,0.026-2.251-0.951-2.277-2.182c-0.001-0.031-0.001-0.063,0-0.094V17.006c-0.026-1.231,0.951-2.251,2.182-2.277
			c1.231-0.026,2.251,0.951,2.277,2.182c0.001,0.031,0.001,0.063,0,0.094v11.337l5.136-5.669c0.453-0.651,1.153-1.088,1.936-1.211
			c1.175,0.05,2.108,1.005,2.133,2.18c0,0.36-0.101,0.713-0.291,1.018l-4.069,4.457L202.522,34.157z M185.322,25.436h-0.482
			c-2.811,0.145-3.344,1.744-3.344,3.585v6.2c0.026,1.231-0.951,2.251-2.182,2.277c-1.231,0.026-2.251-0.951-2.277-2.182
			c-0.001-0.031-0.001-0.063,0-0.094V23.256c0-0.95,0.77-1.72,1.72-1.72s1.72,0.77,1.72,1.72l0,0
			c1.136-1.204,2.708-1.903,4.363-1.938h0.434c1.13,0.029,2.032,0.952,2.035,2.083c-0.001,1.106-0.884,2.01-1.99,2.035H185.322z
			 M169.576,35.756l-0.1-0.533c-0.872,1.7-3.635,2.471-5.379,2.471c-4.165,0-7.267-3.779-7.267-8.285c0-4.458,3.15-8.14,7.51-8.14
			c2.003,0.04,3.892,0.94,5.184,2.471l0.1-0.533c-0.024-0.939,0.717-1.719,1.655-1.743c0.015,0,0.03-0.001,0.045-0.001
			c0.958,0.013,1.731,0.786,1.744,1.744v12.5c0.004,0.959-0.771,1.74-1.73,1.744c-0.005,0-0.009,0-0.014,0
			c-0.921,0.045-1.704-0.664-1.749-1.585c-0.002-0.037-0.002-0.074-0.002-0.11H169.576z M164.829,33.721
			c2.176-0.141,3.825-2.019,3.684-4.195c0-0.007-0.001-0.013-0.001-0.02c0.123-2.095-1.476-3.893-3.571-4.016
			c-0.037-0.002-0.075-0.004-0.112-0.005c-2.051,0.093-3.638,1.831-3.545,3.881c0.002,0.047,0.005,0.093,0.009,0.14
			c-0.003,2.325,1.546,4.215,3.533,4.215H164.829z M143.411,31.4c-0.458,0.002-0.889-0.214-1.163-0.581l-5.184-5.62v10.024
			c0.026,1.231-0.951,2.25-2.181,2.276c-1.231,0.026-2.25-0.951-2.276-2.181c-0.001-0.031-0.001-0.063,0-0.094V15.358
			c0.139-0.336,0.459-0.563,0.823-0.581c0.384,0.066,0.73,0.273,0.969,0.581l8.285,9.3c0.173,0.238,0.436,0.395,0.727,0.436
			c0.288-0.052,0.546-0.207,0.727-0.436l8.285-9.3c0.231-0.317,0.58-0.527,0.968-0.581c0.373-0.009,0.708,0.227,0.824,0.581v19.865
			c0.024,1.233-0.956,2.252-2.189,2.277c-0.013,0-0.027,0-0.04,0c-1.241-0.02-2.235-1.036-2.228-2.277V25.194l-5.184,5.62
			C144.274,31.148,143.858,31.358,143.411,31.4z M118.653,29.026v6.2c0.026,1.231-0.951,2.25-2.181,2.276
			c-1.231,0.026-2.25-0.951-2.276-2.181c-0.001-0.031-0.001-0.063,0-0.094v-11.97c0-0.95,0.77-1.72,1.72-1.72s1.72,0.77,1.72,1.72
			l0,0c1.282-1.311,3.061-2.015,4.893-1.938c4.458,0,6.444,3.343,6.444,7.17v6.735c0.026,1.231-0.951,2.25-2.181,2.276
			c-1.231,0.026-2.25-0.951-2.276-2.181c-0.001-0.031-0.001-0.063,0-0.094v-6.2c0-1.938-0.243-3.585-3.053-3.585
			c-1.986-0.002-2.81,1.645-2.81,3.583V29.026z M105.33,17.2c-0.032-1.439,1.108-2.631,2.547-2.664c0.007,0,0.013,0,0.02,0
			c1.457,0.016,2.626,1.207,2.617,2.664c0.001,1.432-1.158,2.593-2.59,2.594c-1.432,0.001-2.593-1.158-2.594-2.59
			C105.33,17.203,105.33,17.201,105.33,17.2z M105.669,35.224V23.789c-0.024-1.234,0.956-2.253,2.19-2.278c0.013,0,0.026,0,0.038,0
			c1.242,0.02,2.236,1.036,2.229,2.278v11.434c0.007,1.241-0.986,2.256-2.226,2.277C106.666,37.463,105.681,36.458,105.669,35.224
			L105.669,35.224z M95.01,33.724c1.889,0,3.488-1.793,3.488-4.215s-1.6-3.973-3.488-3.973c-2.047-0.019-3.722,1.626-3.74,3.673
			c-0.001,0.1,0.002,0.2,0.009,0.3c-0.13,2.193,1.539,4.077,3.731,4.212L95.01,33.724z M95.058,21.324
			c4.423,0.08,7.952,3.716,7.9,8.139c0.028,4.439-3.465,8.102-7.9,8.285c-4.545-0.053-8.21-3.739-8.236-8.285
			c0.035-4.519,3.717-8.16,8.236-8.145L95.058,21.324z M83.527,16.473c0.651,0.416,1.065,1.118,1.115,1.889
			c-0.005,1.157-0.928,2.101-2.084,2.132c-0.263-0.021-0.523-0.069-0.775-0.145c-1.356-1.021-3.003-1.581-4.7-1.6
			c-4.118,0-6.928,3.343-6.928,7.51s2.859,7.461,6.928,7.461c1.955-0.004,3.832-0.769,5.233-2.132
			c0.355-0.25,0.777-0.385,1.211-0.387c1.085-0.012,1.975,0.858,1.987,1.943c0,0.014,0,0.029,0,0.043
			c-0.016,0.694-0.381,1.332-0.969,1.7c-4.887,4.056-12.137,3.383-16.194-1.505s-3.383-12.137,1.505-16.194
			c2.046-1.698,4.617-2.635,7.276-2.651C79.413,14.5,81.649,15.177,83.527,16.473z M49.225,25v-0.1
			C49.244,11.252,38.26,0.139,24.613,0C10.917,0.117-0.096,11.304,0,25c-0.079,13.689,10.924,24.866,24.613,25
			c6.224,0.005,12.211-2.39,16.715-6.686c0.908-0.859,0.948-2.292,0.089-3.201c-0.838-0.886-2.227-0.949-3.142-0.142l-0.048,0.048
			c-7.972,7.573-20.574,7.25-28.148-0.723c-0.182-0.192-0.36-0.387-0.534-0.585l10.513-16.86v7.8c0,3.731,1.454,4.942,2.665,5.281
			s3.052,0.1,5.039-3.052l5.765-9.351c0.155-0.273,0.333-0.533,0.533-0.775V26.5c0,3.488,1.405,6.3,3.828,7.655
			c2.276,1.239,5.05,1.128,7.219-0.291C47.994,31.882,49.572,28.485,49.225,25z M42.825,29.893
			c-0.789,0.539-1.806,0.613-2.665,0.194c-0.969-0.581-1.551-1.889-1.551-3.682V20.93c0-2.616-1.017-4.506-2.761-4.99
			c-2.956-0.872-5.184,2.762-6.008,4.118l-5.227,8.382V18.12c-0.049-2.374-0.824-3.779-2.278-4.215
			c-0.969-0.291-2.422-0.145-3.827,1.986L6.831,34.593C5.276,31.634,4.462,28.342,4.458,25C4.392,13.794,13.407,4.649,24.613,4.554
			C35.818,4.649,44.833,13.795,44.767,25v0.1c0.098,2.177-0.581,3.921-1.937,4.793H42.825z"/>
	</g>
</g>
</svg>
