<?xml version="1.0" encoding="utf-8"?>
<!-- Generator: Adobe Illustrator 23.1.1, SVG Export Plug-In . SVG Version: 6.00 Build 0)  -->
<svg version="1.1" id="Capa_1" xmlns="http://www.w3.org/2000/svg" xmlns:xlink="http://www.w3.org/1999/xlink" x="0px" y="0px"
	 viewBox="0 0 556.805 50" style="enable-background:new 0 0 556.805 50;" xml:space="preserve">
<style type="text/css">
	.st0{fill:#F7F7F7;}
</style>
<g>
	<g id="Capa_1-2">
		<path class="st0" d="M244.339,28.628l3.1-10.26c0.852-2.8,1.627-6.465,2.4-9.336h0.154c0.775,2.871,1.7,6.46,2.633,9.331
			l3.253,10.265L244.339,28.628z M325.608,28.628l3.1-10.26c0.852-2.8,1.627-6.465,2.4-9.336h0.154
			c0.775,2.871,1.7,6.46,2.633,9.331l3.253,10.265L325.608,28.628z M189.561,9.319c1.763-0.321,3.554-0.465,5.346-0.431
			c10.231,0,16.588,5.311,16.588,15.359c0,11.554-7.055,17.009-17.825,16.937c-1.373,0.046-2.748-0.026-4.109-0.215V9.319z
			 M68.946,8.673c8.138,0,12.556,7.464,12.556,16.219c0,9.4-4.573,16.435-12.556,16.435c-7.905,0-12.71-6.674-12.71-16.219
			C56.236,15.706,60.886,8.673,68.946,8.673z M461.905,8.673c8.138,0,12.556,7.464,12.556,16.219c0,9.4-4.572,16.435-12.556,16.435
			c-7.9,0-12.709-6.674-12.709-16.219C449.2,15.706,453.845,8.673,461.905,8.673L461.905,8.673z M402.567,49.211H435.1v-9.175
			h-20.768V0.861h-11.765V49.211z M257.584,36.8l4.029,12.413h12.779L258.128,0.861h-15.493l-15.879,48.35h12.163l3.716-12.411
			H257.584z M338.853,36.8l4.029,12.413h12.782L339.4,0.861h-15.5l-15.879,48.35h12.163L323.9,36.8H338.853z M285.016,49.211h11.769
			V10.036h14.251V0.861h-40.118v9.175h14.1L285.016,49.211z M134.639,49.211V34.649c0-7.89-0.155-14.705-0.542-21.16h0.31
			c2.674,5.869,5.701,11.57,9.067,17.072l11.162,18.65h12.386V0.861h-10.836v14.062c-0.06,6.755,0.25,13.507,0.929,20.228h-0.155
			c-2.49-5.697-5.337-11.232-8.525-16.57l-10.851-17.72H123.8v48.35H134.639z M101.8,49.211h11.766V0.861H101.8L101.8,49.211z
			 M515.519,49.211l4.958-20.8c1.241-4.883,2.093-9.475,3.022-14.928h0.154c0.621,5.525,1.473,10.045,2.479,14.924l4.414,20.807
			h12.783L556.8,0.861h-12l-4.263,19.722c-1.083,5.821-2.244,11.489-3.019,16.87h-0.154c-0.775-5.381-1.627-10.547-2.791-16.215
			l-4.181-20.377h-12.548l-4.418,19.731c-1.314,6.027-2.556,11.839-3.408,17.076h-0.154c-0.852-4.879-1.935-11.121-3.1-16.932
			l-3.946-19.875h-12.629l12.393,48.35H515.519z M361.74,49.211h11.765V29.767h18.75v-8.888h-18.75V9.821h20.065v-8.96h-31.83
			V49.211z M177.794,49c4.445,0.514,8.918,0.753,13.393,0.717c10.231,0,18.681-2.007,24.178-6.235
			c4.954-3.945,8.593-10.332,8.593-19.59c0-8.541-3.4-14.5-8.824-18.225C210.177,2.222,203.666,0.5,193.67,0.5
			c-5.311-0.017-10.616,0.342-15.876,1.075L177.794,49z M69.179,0C53.836,0,43.772,10.826,43.772,25.323
			C43.772,39.174,52.907,50,68.326,50c15.343,0,25.639-9.534,25.639-25.466C93.965,11.113,85.218,0,69.179,0z M38.959,39.318
			c-3.194,1.078-6.545,1.613-9.916,1.582c-10.459,0-16.657-6.1-16.657-15.789c0-10.768,7.282-16.011,16.579-16.011
			c3.39-0.037,6.756,0.573,9.917,1.8l2.479-8.6c-2.092-1.081-6.74-2.156-12.861-2.156C12.7,0.144,0,9.247,0,25.754
			C0,39.533,9.29,50,27.338,50c6.276,0,11.234-1.147,13.326-2.079L38.959,39.318z M462.141,0c-15.341,0-25.408,10.826-25.408,25.323
			c0,13.851,9.136,24.677,24.556,24.677c15.342,0,25.639-9.534,25.639-25.466C486.928,11.113,478.177,0,462.141,0z"/>
	</g>
</g>
</svg>
