<?xml version="1.0" encoding="utf-8"?>
<!-- Generator: Adobe Illustrator 23.1.1, SVG Export Plug-In . SVG Version: 6.00 Build 0)  -->
<svg version="1.1" id="Capa_1" xmlns="http://www.w3.org/2000/svg" xmlns:xlink="http://www.w3.org/1999/xlink" x="0px" y="0px"
	 viewBox="0 0 571.324 50" style="enable-background:new 0 0 571.324 50;" xml:space="preserve">
<style type="text/css">
	.st0{fill-rule:evenodd;clip-rule:evenodd;fill:#F7F7F7;}
</style>
<g>
	<g id="Capa_1-2">
		<path class="st0" d="M327.71,15.4L327.71,15.4c-0.001,4.273-3.464,7.736-7.737,7.737H305.6V7.664h14.373
			C324.245,7.665,327.708,11.128,327.71,15.4z M80.439,15.477L80.439,15.477c0.002,4.272-3.46,7.738-7.732,7.74
			c-0.002,0-0.005,0-0.007,0H58.33V7.741H72.7c4.273-0.001,7.738,3.462,7.739,7.735c0,0.001,0,0.001,0,0.002L80.439,15.477z
			 M158.952,8.182h14.371c4.273,0,7.737,3.464,7.737,7.737l0,0c0,4.273-3.464,7.737-7.737,7.737h-14.371V8.182z M357.7,31.747
			h19.382l-9.696-23.515L357.7,31.747z M276.2,18.7v12.61c-0.062,6.855-5.669,12.363-12.524,12.301
			c-6.768-0.061-12.24-5.533-12.301-12.301V18.7c-0.062-6.855,5.446-12.462,12.301-12.524c6.855-0.062,12.462,5.446,12.524,12.301
			C276.201,18.551,276.201,18.626,276.2,18.7z M389.188,48.7c0.71-0.002,1.284-0.578,1.282-1.288c0-0.166-0.033-0.331-0.096-0.485
			C387.134,39.062,374.135,7.521,371.9,2.1c-0.198-0.481-0.666-0.795-1.186-0.795h-6.658c-0.521,0.001-0.99,0.317-1.186,0.8
			c-2.234,5.419-15.233,36.96-18.472,44.818c-0.27,0.656,0.043,1.406,0.698,1.676c0.155,0.064,0.32,0.097,0.488,0.097h4.266
			c0.52,0,0.988-0.314,1.185-0.795c1-2.437,3.974-9.641,3.974-9.641h24.752c0,0,2.968,7.2,3.974,9.641
			c0.197,0.481,0.665,0.795,1.185,0.795L389.188,48.7z M327.879,48.047c0.227,0.403,0.653,0.653,1.116,0.653h4.528
			c0.708,0.001,1.283-0.572,1.284-1.28c0-0.222-0.057-0.44-0.167-0.634c-2.8-4.967-10.086-17.88-10.086-17.88
			c5.783-1.965,9.67-7.398,9.664-13.506l0,0c-0.001-7.867-6.378-14.245-14.245-14.246h-19.6c-0.707-0.003-1.282,0.568-1.285,1.275
			c0,0.003,0,0.006,0,0.009v44.8c0.001,0.709,0.576,1.284,1.285,1.284h3.943c0.708,0.001,1.283-0.572,1.284-1.28
			c0-0.001,0-0.001,0-0.002V29.651h11.9L327.879,48.047z M431.793,36.268V2.5c0-0.709,0.575-1.284,1.284-1.284h3.939
			c0.709,0.001,1.283,0.575,1.284,1.284v44.813c-0.001,0.762-0.617,1.379-1.379,1.38h-3.75c-0.415,0-0.807-0.186-1.07-0.507
			l-0.15,0.1L409.257,14.07v33.339c-0.001,0.709-0.575,1.283-1.284,1.284h-3.944c-0.709,0-1.284-0.575-1.284-1.284V2.592
			c0-0.762,0.617-1.38,1.379-1.381h3.75c0.616,0,1.158,0.408,1.327,1L431.793,36.268z M80.607,48.116
			c0.227,0.404,0.654,0.653,1.117,0.653h4.528c0.709,0,1.284-0.576,1.283-1.285c0-0.22-0.057-0.437-0.165-0.629
			c-2.8-4.966-10.089-17.879-10.089-17.879c5.782-1.965,9.67-7.394,9.668-13.5l0,0C86.947,7.608,80.568,1.23,72.7,1.231H53.1
			c-0.708-0.001-1.282,0.573-1.283,1.281c0,0.001,0,0.001,0,0.002v44.8c-0.002,0.709,0.571,1.284,1.28,1.286
			c0.001,0,0.002,0,0.003,0h3.943c0.709,0,1.283-0.574,1.283-1.283c0,0,0-0.001,0-0.001V29.728h11.9
			C70.226,29.728,78.72,44.773,80.607,48.116z M219.241,8.183h13.051c0.706,0.003,1.281-0.568,1.284-1.274c0-0.003,0-0.006,0-0.009
			V3.053c0-0.762-0.617-1.379-1.379-1.38h-32.424c-0.762,0.001-1.379,0.618-1.379,1.38V6.8c0,0.762,0.617,1.379,1.379,1.38h12.956
			v39.48c0,0.762,0.617,1.379,1.379,1.379h3.754c0.762,0,1.379-0.617,1.379-1.379L219.241,8.183z M173.323,1.673h-19.6
			c-0.709,0.001-1.283,0.575-1.283,1.284v44.8c-0.001,0.708,0.573,1.282,1.281,1.283c0.001,0,0.001,0,0.002,0h3.943
			c0.709,0.001,1.283-0.573,1.284-1.282c0,0,0-0.001,0-0.001V30.17h14.371c7.868-0.001,14.246-6.379,14.245-14.247l0,0
			C187.568,8.055,181.192,1.675,173.323,1.673C173.324,1.673,173.323,1.673,173.323,1.673z M138.4,3.186
			c0.371-0.604,0.183-1.394-0.421-1.765c-0.204-0.126-0.439-0.191-0.679-0.19h-4.628c-0.446,0-0.86,0.231-1.093,0.611
			l-13.644,22.212c0,0-11.416-18.579-13.647-22.212c-0.234-0.38-0.648-0.611-1.094-0.611h-4.628c-0.709,0-1.284,0.576-1.283,1.285
			c0,0.237,0.066,0.469,0.189,0.67l17.208,28.006v16.567c-0.002,0.707,0.57,1.281,1.277,1.283c0.002,0,0.004,0,0.006,0h3.943
			c0.708,0.001,1.283-0.572,1.284-1.28c0-0.001,0-0.002,0-0.003V31.192L138.4,3.186z M563.111,5.422L522.563,45.97l3.4,3.4
			l40.55-40.545v24.3h4.811V0.61h-32.51v4.812H563.111z M463.07,19.588V2.5c0.002-0.707-0.571-1.282-1.278-1.284
			c-0.001,0-0.001,0-0.002,0h-3.943c-0.709,0-1.284,0.575-1.285,1.284v44.813c0.001,0.762,0.617,1.379,1.379,1.38h3.75
			c0.76,0.001,1.378-0.615,1.379-1.375c0-0.002,0-0.003,0-0.005v-16.7l19.774,18.242c0.365,0.336,0.843,0.523,1.34,0.523h5.391
			c0.742,0,1.343-0.602,1.342-1.344c0-0.374-0.156-0.731-0.431-0.985C483.9,40.969,466.7,25.1,466.7,25.1l23.365-21.559
			c0.545-0.504,0.577-1.355,0.073-1.899c-0.254-0.274-0.61-0.43-0.984-0.431h-5.391c-0.497,0-0.975,0.187-1.34,0.524L463.07,19.588z
			 M282.256,18.7c0.075-10.199-8.132-18.528-18.331-18.604c-10.199-0.075-18.528,8.132-18.604,18.331
			c-0.001,0.091-0.001,0.182,0,0.272v12.61c-0.075,10.199,8.132,18.528,18.331,18.604c10.199,0.075,18.528-8.132,18.604-18.331
			c0.001-0.091,0.001-0.182,0-0.272V18.7z M37.2,33.968c0.091-0.697-0.401-1.336-1.098-1.426c-0.055-0.007-0.11-0.011-0.166-0.011
			c-1.2-0.009-2.911-0.009-4.016-0.009c-0.624,0-1.157,0.449-1.264,1.063c-1.085,5.747-6.107,9.908-11.956,9.905l0,0
			c-6.73,0.003-12.187-5.45-12.19-12.18c0-0.001,0-0.003,0-0.004V18.694c0.001-6.73,5.456-12.185,12.186-12.184
			c0.001,0,0.003,0,0.004,0l0,0c5.849,0,10.872,4.155,11.97,9.9c0.106,0.61,0.635,1.055,1.254,1.055c1.1,0.01,2.811,0.01,4.016,0.01
			c0.709,0,1.283-0.574,1.284-1.282c0-0.055-0.003-0.11-0.011-0.165C35.879,6.829,27.995,0.004,18.7,0l0,0
			C8.376-0.004,0.004,8.362,0,18.686c0,0.003,0,0.005,0,0.008v12.612C-0.001,41.63,8.368,49.999,18.692,50c0.003,0,0.005,0,0.008,0
			l0,0C27.995,49.998,35.876,43.168,37.2,33.968z"/>
	</g>
</g>
</svg>
