<?xml version="1.0" encoding="utf-8"?>
<!-- Generator: Adobe Illustrator 23.1.1, SVG Export Plug-In . SVG Version: 6.00 Build 0)  -->
<svg version="1.1" id="Capa_1" xmlns="http://www.w3.org/2000/svg" xmlns:xlink="http://www.w3.org/1999/xlink" x="0px" y="0px"
	 viewBox="0 0 206.6 50" style="enable-background:new 0 0 206.6 50;" xml:space="preserve">
<style type="text/css">
	.st0{fill:#F7F7F7;}
</style>
<g id="Capa_2_1_">
	<g id="Capa_1-2">
		<path class="st0" d="M80.4,10h-7.1v3h3.1v6.4c-1-1.8-3-2.9-5.1-2.9c-4,0-7.4,3.3-7.4,8.6c0,4.9,3.1,8.2,7,8.2
			c2.2,0,4.3-1.2,5.4-3.2v2.6h4L80.4,10z M76.2,27c-0.7,1.7-2.3,2.7-4.2,2.8c-3.1,0-4.6-2.1-4.6-4.7c0-2.8,1.7-5,4.7-5
			c1.8,0,3.4,1.1,4.1,2.7c0.1,0.3,0.1,0.6,0.1,1V26C76.3,26.4,76.3,26.7,76.2,27"/>
		<path class="st0" d="M100.1,24.7v-0.1c-0.3-4.6-4.4-8.1-9-7.8c-4.3,0.3-7.6,3.8-7.8,8c0.1,4.6,3.9,8.2,8.4,8.1
			c2.2,0,4.3-0.8,5.9-2.3l0.1-0.1l-2.1-2.4l-0.1,0.1c-1.1,0.9-2.4,1.5-3.9,1.5c-2.3,0-4.3-1.4-5-3.5H100v-0.1
			C100.2,25.6,100.2,25.1,100.1,24.7 M91.7,19.9c2.1,0,4.1,1.2,4.9,3.2h-9.8C87.6,21.1,89.6,19.9,91.7,19.9"/>
		<polygon class="st0" points="118.1,17.1 113.9,17.1 110.4,23.4 106.9,17.1 102.7,17.1 107,24.9 102.7,32.7 106.9,32.7 110.4,26.4 
			113.9,32.7 118.1,32.7 113.7,24.9 		"/>
		<rect x="123.2" y="27.3" class="st0" width="5.4" height="5.4"/>
		<path class="st0" d="M146.5,17.1v2.3c-1-1.8-3-2.9-5.1-2.9c-4,0-7.4,3.3-7.4,8.6c0,4.9,3.1,8.2,7,8.2c2.2,0,4.3-1.2,5.4-3.2v6.8
			h-5v3.3h8.8V17.1H146.5z M146.4,27c-0.7,1.7-2.3,2.7-4.2,2.8c-3.1,0-4.6-2.1-4.6-4.7c0-2.8,1.7-5,4.7-5c1.8,0,3.4,1.1,4.1,2.7
			c0.1,0.3,0.1,0.6,0.1,1V26C146.6,26.4,146.5,26.7,146.4,27"/>
		<path class="st0" d="M168.7,32.8h-3.6v-2.7H165c-1.1,1.9-3.2,3.1-5.4,3c-2.6,0-5.6-1.4-5.6-7.1v-8.9h4v8.4c0,3.1,0.9,4.4,3.4,4.3
			c1.3,0.1,2.5-0.6,3-1.8c0.2-0.5,0.3-1,0.3-1.5v-9.4h3.9L168.7,32.8z"/>
		<path class="st0" d="M206.6,32.8H203v-2.7h-0.1c-1.1,1.9-3.2,3.1-5.4,3c-2.6,0-5.6-1.4-5.6-7.1v-8.9h4v8.4c0,3.1,0.9,4.4,3.4,4.3
			c1.3,0.1,2.5-0.6,3-1.8c0.2-0.5,0.3-1,0.3-1.5v-9.4h3.9L206.6,32.8z"/>
		<path class="st0" d="M188,19.6c-0.9-2.2-3.4-3.3-5.6-2.4c-0.2,0.1-0.4,0.2-0.6,0.3c-1.1,0.6-2,1.5-2.6,2.5v-2.9H172v3.6h3.1v8.4
			H172v3.7h10.8v-3.7h-3.6v-7c0.7-1.2,2-2,3.4-2c2,0,2,3.4,2,3.4l3.9-0.3C188.6,22.1,188.4,20.8,188,19.6"/>
		<path class="st0" d="M25,0C11.2,0,0,11.2,0,25s11.2,25,25,25s25-11.2,25-25S38.8,0,25,0 M21.7,10.1c1.7-1.9,4.5-2,6.4-0.4
			c0.1,0.1,0.3,0.3,0.4,0.4c1.2,1.3,1.8,3,1.7,4.8c-0.2,3.8-2.8,6-5.1,6s-5-2.6-5.1-6C19.8,13.2,20.4,11.4,21.7,10.1 M38.1,34.3
			c-1.3,1.4-3.1,2.1-4.9,2.2c-1.7,0-3.4-0.6-4.8-1.5l-1.2-0.9l1.7-1.7l1,0.7c1,0.7,2.2,1,3.4,1.1c1.2,0,2.3-0.5,3.2-1.4
			c0.7-0.8,1-1.9,0.8-3C37,26.5,33,26.4,33,26.4c-1.9,0.1-3.7,1-5,2.4c-1,1-1.7,1.7-2.3,2.4s-1.3,1.3-2.3,2.4
			c-1.7,1.9-4.1,3-6.6,3.1h-0.1c-1.7,0-6.2-1-6.6-5.5c-0.2-1.7,0.3-3.5,1.4-4.8c1.3-1.3,3.1-2.1,4.9-2.2c1.8,0,3.5,0.6,4.9,1.6
			l1.1,0.8l-1.8,1.7l-0.8-0.6c-1-0.7-2.2-1.1-3.5-1.1c-1.2,0-2.3,0.5-3.2,1.4c-0.7,0.8-1,1.9-0.8,3c0.3,3.3,4.3,3.3,4.3,3.3
			c1.9-0.1,3.7-1,5-2.4c1-1,1.7-1.7,2.3-2.4s1.3-1.3,2.3-2.4c1.7-1.9,4.1-3,6.6-3.1c1.6,0,6.3,0.8,6.8,5.5
			C39.8,31.2,39.3,32.9,38.1,34.3"/>
		<path class="st0" d="M25,18.7c1.1,0,2.7-1.3,2.8-3.9c0.1-1.1-0.3-2.3-1.1-3.1c-0.4-0.5-1.1-0.8-1.8-0.8c-0.7,0-1.3,0.3-1.7,0.8
			c-0.8,0.9-1.2,2-1.1,3.2C22.3,17.1,24.1,18.7,25,18.7"/>
	</g>
</g>
</svg>
