<?xml version="1.0" encoding="utf-8"?>
<!-- Generator: Adobe Illustrator 23.1.1, SVG Export Plug-In . SVG Version: 6.00 Build 0)  -->
<svg version="1.1" id="Capa_1" xmlns="http://www.w3.org/2000/svg" xmlns:xlink="http://www.w3.org/1999/xlink" x="0px" y="0px"
	 viewBox="0 0 245.219 50" style="enable-background:new 0 0 245.219 50;" xml:space="preserve">
<style type="text/css">
	.st0{fill:#F7F7F7;}
</style>
<g>
	<g id="Capa_1-2">
		<path class="st0" d="M221.559,16.241c1.775,0.116,3.307-1.229,3.423-3.004c0.006-0.088,0.008-0.177,0.006-0.265
			c0.065-1.519-1.114-2.803-2.633-2.868c-0.104-0.004-0.208-0.003-0.312,0.004c-1.811-0.038-3.31,1.399-3.348,3.21
			c-0.001,0.033-0.001,0.065-0.001,0.098c-0.081,1.478,1.051,2.742,2.529,2.823c0.085,0.005,0.17,0.005,0.255,0.002H221.559z
			 M124.119,16.241c1.775,0.116,3.307-1.229,3.423-3.004c0.006-0.088,0.008-0.177,0.006-0.265c0.065-1.52-1.115-2.804-2.635-2.868
			c-0.104-0.004-0.208-0.003-0.311,0.004c-1.811-0.038-3.31,1.399-3.348,3.21c-0.001,0.033-0.001,0.065-0.001,0.098
			c-0.081,1.478,1.051,2.742,2.529,2.823c0.085,0.005,0.17,0.005,0.255,0.002H124.119z M90.884,16.241
			c1.775,0.116,3.308-1.23,3.424-3.005c0.006-0.088,0.008-0.176,0.006-0.264c0.065-1.519-1.114-2.803-2.633-2.868
			c-0.104-0.004-0.208-0.003-0.312,0.004c-1.811-0.039-3.31,1.398-3.348,3.208c-0.001,0.033-0.001,0.067-0.001,0.1
			c-0.081,1.478,1.051,2.742,2.529,2.823c0.084,0.005,0.167,0.005,0.251,0.002H90.884z M108,28.358
			c-0.647,3.312-2.544,5.454-4.442,5.454c-1.778,0-2.666-1.455-2.666-3.475c0-3.717,2.5-7.635,6.017-7.635
			c0.716-0.01,1.429,0.113,2.1,0.363L108,28.358z M66.254,15.877c0.813-0.144,1.638-0.211,2.463-0.2
			c4.806,0,7.188,2.545,7.188,6.867c0.103,3.001-0.904,5.934-2.826,8.24c-1.988,2.125-4.805,3.276-7.713,3.151
			c-0.85,0.008-1.699-0.033-2.544-0.121L66.254,15.877z M155.054,27.388c-0.928,4.848-3.07,6.827-4.808,6.827
			c-1.617,0-2.384-1.333-2.384-3.272c0-3.676,2.748-8.282,6.506-8.282c0.529,0.005,1.055,0.06,1.574,0.162L155.054,27.388z
			 M203.268,22.661c2.3,0,3.112,1.939,3.112,3.757c0,3.353-1.819,8.04-4.93,8.04c-2.061,0-3.193-1.535-3.193-3.838
			c-0.002-3.07,1.655-7.959,5.009-7.959H203.268z M18.176,33.348c1.075,0.267,2.211,0.546,3.381,0.828
			C26.8,35.44,31.524,33.028,33.14,27c1.308-4.884,0-9.733-5.577-10.95c-1.422-0.31-2.974-0.638-4.5-0.956L18.176,33.348z
			 M169.507,38.448L175,9.785h-5.813l-5.493,28.665L169.507,38.448z M219.944,38.448l3.756-19.739h-5.811l-3.758,19.741
			L219.944,38.448z M122.504,38.448l3.753-19.741h-5.811l-3.755,19.743L122.504,38.448z M89.27,38.448l3.753-19.741h-5.811
			L83.457,38.45L89.27,38.448z M230.614,38.448l1.658-8.762c0.808-4.362,3.026-6.744,4.92-6.744c1.491,0,1.975,0.969,1.975,2.382
			c-0.005,0.731-0.072,1.461-0.2,2.181l-2.1,10.943h5.847l2.18-11.468c0.183-1.095,0.291-2.201,0.322-3.311
			c0-3.43-1.856-5.406-5.084-5.406c-2.772,0.012-5.357,1.403-6.893,3.711h-0.081l0.364-3.267h-5.136
			c-0.283,1.775-0.565,3.912-1.09,6.416L224.8,38.45L230.614,38.448z M56.114,38.126c2.473,0.368,4.971,0.543,7.471,0.524
			c5.9,0,9.893-1.089,13.042-3.63c3.647-3.122,5.694-7.721,5.573-12.52c0-4.04-1.372-6.7-3.591-8.521
			c-2.3-1.976-5.652-2.944-9.892-2.944c-2.529-0.014-5.056,0.187-7.551,0.6L56.114,38.126z M188.924,33.405
			c-1.238,0.531-2.57,0.806-3.917,0.808c-2.054,0.095-3.796-1.494-3.891-3.548c-0.008-0.178-0.004-0.356,0.014-0.532
			c0-3.717,2.585-7.231,6.7-7.231c0.912-0.022,1.818,0.143,2.664,0.484l1.454-4.478c-1.301-0.438-2.665-0.656-4.038-0.645
			c-7.51,0-12.876,5.487-12.876,12.516c0,5.088,3.429,8.073,8.313,8.073c1.924,0.051,3.837-0.306,5.613-1.049L188.924,33.405z
			 M159.611,38.45c-0.008-2.979,0.262-5.952,0.808-8.88l2.059-10.337c-2.122-0.632-4.324-0.958-6.538-0.968
			c-9.694,0-14.133,7.1-14.133,13.769c0,4.118,2.421,6.861,5.972,6.861c2.3,0,4.85-1.089,6.668-4.357h0.081
			c-0.081,1.412-0.2,2.743-0.243,3.912H159.611z M204.034,18.224c-7.029,0-11.79,5.649-11.79,12.477
			c0,4.926,3.349,8.194,8.356,8.194c6.827,0,11.789-5.286,11.789-12.517C212.389,21.855,209.323,18.224,204.034,18.224z
			 M132.557,14.994l-0.726,3.715h-2.542l-0.807,4.437h2.5l-1.493,7.808c-0.279,1.202-0.428,2.431-0.444,3.665
			c0,2.5,1.654,4.276,5.164,4.276c1.16,0.021,2.317-0.129,3.433-0.444l0.645-4.558c-0.522,0.067-1.048,0.093-1.574,0.08
			c-1.292,0-1.7-0.684-1.7-1.65c0.033-0.841,0.141-1.678,0.322-2.5l1.333-6.681h4.2l0.888-4.437h-4.24l1.01-5.33L132.557,14.994z
			 M23.76,11.4l1.217-4.541l-3.439-0.921l-1.279,4.774c-2.858-0.544-5.122-0.939-5.122-0.939l-0.717,3.556
			c0,0,1.729,0.343,4.142,0.834l-4.839,18.062c-2.266-0.58-3.707-0.963-3.707-0.963L9.023,34.39c0,0,1.877,0.566,4.721,1.344
			l-0.995,3.711l3.439,0.922l1-3.717c0.623,0.162,1.267,0.326,1.927,0.49l-1,3.741l3.438,0.922l1.047-3.909
			c6.769,0.946,13.515-1.884,15.424-9.677c1.408-5.749,0.434-12.964-8.84-15.6L30.336,8.3L26.9,7.377l-1.19,4.432
			C25.074,11.673,24.418,11.537,23.76,11.4z M94.077,45.64c2.027,0.909,4.236,1.337,6.456,1.25c2.72,0.127,5.404-0.653,7.632-2.218
			c2.342-1.9,3.473-5.13,4.159-8.763l2.988-16.273c-2.326-0.926-4.809-1.391-7.312-1.371c-8.6,0-13.281,6.457-13.241,12.961
			c0.041,3.876,2.421,7.063,6.335,7.063c2.262,0.041,4.391-1.068,5.654-2.945h0.08l-0.323,1.694
			c-0.848,3.96-2.988,5.254-5.895,5.254c-1.779,0.012-3.539-0.36-5.161-1.092L94.077,45.64z M25,0c13.807,0,25,11.193,25,25
			S38.807,50,25,50S0,38.807,0,25C0.007,11.196,11.196,0.007,25,0z"/>
	</g>
</g>
</svg>
