<?xml version="1.0" encoding="utf-8"?>
<!-- Generator: Adobe Illustrator 23.1.1, SVG Export Plug-In . SVG Version: 6.00 Build 0)  -->
<svg version="1.1" id="Capa_1" xmlns="http://www.w3.org/2000/svg" xmlns:xlink="http://www.w3.org/1999/xlink" x="0px" y="0px"
	 viewBox="0 0 323.5 50" style="enable-background:new 0 0 323.5 50;" xml:space="preserve">
<style type="text/css">
	.st0{fill:#F7F7F7;}
</style>
<g>
	<g>
		<path class="st0" d="M71.9,12.2h-9.5c-0.6-0.1-1.1,0.1-1.6,0.5c-0.3,0.4-0.5,0.9-0.5,1.5v22.5c0,0.5,0.1,1.1,0.4,1.5
			c0.5,0.4,1,0.5,1.6,0.5h3.8c0.6,0.1,1.1-0.1,1.6-0.5c0.3-0.4,0.5-0.9,0.5-1.5v-6.3h3.7c3.7,0,6.3-0.8,8-2.3s2.6-3.8,2.6-6.8
			s-0.9-5.3-2.6-6.8C78.2,13,75.5,12.2,71.9,12.2z M73.7,23.9c-0.7,0.6-1.6,0.9-2.5,0.9h-3.1v-6.9h3.1c0.9-0.1,1.8,0.2,2.5,0.9
			c0.6,0.7,1,1.7,0.9,2.6C74.7,22.3,74.4,23.2,73.7,23.9z"/>
		<path class="st0" d="M95.7,19.4c-2.2,0-4.4,0.4-6.3,1.4c-1.7,0.8-3.2,2.1-4.2,3.8c-1,1.7-1.5,3.7-1.5,5.7
			c-0.1,2.4,0.6,4.8,2.2,6.7c1.5,1.6,3.7,2.4,5.9,2.3l0,0c1.3,0,2.6-0.2,3.8-0.6c1-0.3,2-0.9,2.7-1.8l0.5,1.2
			c0.1,0.2,0.2,0.3,0.4,0.5c0.2,0.1,0.4,0.1,0.7,0.1h4c0.4,0,0.8,0,1.1-0.2c0.2-0.3,0.3-0.6,0.3-1V21.9c-1.3-0.8-2.7-1.4-4.2-1.8
			C99.2,19.6,97.5,19.4,95.7,19.4z M97.8,31.1c0,0.8-0.3,1.6-0.9,2.1c-0.7,0.5-1.5,0.8-2.4,0.7c-2.1,0-3.2-1.3-3.2-3.8
			c-0.1-1.4,0.3-2.9,1.2-4c0.8-1,2-1.5,3.3-1.4c0.6,0,1.3,0.1,1.9,0.4v6H97.8z"/>
		<path class="st0" d="M121.8,19.4c-1.4,0-2.7,0.2-4,0.7c-1.1,0.4-2,0.9-2.8,1.7l-0.2-1.2c0-0.2-0.1-0.4-0.3-0.5
			c-0.2-0.1-0.5-0.2-0.7-0.2h-4c-0.4,0-0.8,0.1-1.1,0.3c-0.2,0.3-0.3,0.6-0.2,0.9v15.5c0,0.5,0.1,1.1,0.5,1.5c0.5,0.4,1,0.5,1.6,0.5
			h3.8c0.6,0.1,1.1-0.1,1.6-0.5c0.3-0.4,0.5-0.9,0.5-1.5v-9.7c0-0.6,0.2-1.3,0.7-1.7c0.5-0.4,1.2-0.7,1.9-0.6
			c0.6-0.1,1.2,0.1,1.6,0.5c0.4,0.5,0.6,1.1,0.5,1.7v9.8c0,0.5,0.1,1.1,0.5,1.5c0.5,0.4,1.1,0.5,1.6,0.5h3.8
			c0.6,0.1,1.1-0.1,1.6-0.5c0.3-0.4,0.5-0.9,0.5-1.5V26.4c0.1-1.9-0.6-3.8-1.9-5.2C125.5,20,123.7,19.3,121.8,19.4z"/>
		<path class="st0" d="M142.6,39.2L142.6,39.2L142.6,39.2z"/>
		<path class="st0" d="M149.3,32.9c-0.2-0.4-0.4-0.5-0.6-0.5c-0.3,0-0.5,0.2-0.8,0.3c-0.7,0.4-1.3,0.7-2.1,1
			c-0.7,0.2-1.5,0.4-2.3,0.3c-1.2,0.1-2.4-0.4-3.3-1.2c-0.9-0.9-1.3-2.2-1.2-3.4c-0.1-1.2,0.3-2.5,1.2-3.4c0.8-0.8,2-1.3,3.2-1.2
			c0.8,0,1.5,0.1,2.3,0.3c0.7,0.2,1.4,0.6,2,1c0.2,0.2,0.5,0.3,0.7,0.3c0.3,0,0.5-0.2,0.7-0.5l1.6-2.8c0.2-0.2,0.3-0.5,0.3-0.8
			s-0.2-0.6-0.4-0.7c-1-0.7-2.1-1.2-3.3-1.6c-1.5-0.4-3-0.5-4.5-0.5c-2.1-0.1-4.2,0.4-6.1,1.2c-1.6,0.8-3,2-3.9,3.5
			c-0.9,1.6-1.4,3.4-1.4,5.2c0,3.2,1,5.7,3,7.4s4.8,2.5,8.4,2.5c1.5,0,3.1-0.2,4.6-0.5c1.3-0.3,2.5-0.9,3.6-1.6
			c0.3-0.1,0.4-0.4,0.5-0.7c0-0.2-0.1-0.4-0.2-0.6L149.3,32.9z"/>
		<path class="st0" d="M165.1,19.4c-2.2,0-4.4,0.4-6.3,1.4c-1.7,0.8-3.2,2.1-4.2,3.8c-1,1.7-1.5,3.7-1.5,5.7
			c-0.1,2.4,0.6,4.8,2.2,6.7c1.5,1.6,3.7,2.4,5.9,2.3l0,0c1.3,0,2.6-0.2,3.8-0.6c1-0.3,2-0.9,2.7-1.8l0.5,1.2
			c0.1,0.2,0.2,0.3,0.4,0.5c0.2,0.1,0.4,0.1,0.7,0.1h4c0.4,0,0.8,0,1.1-0.2c0.2-0.3,0.3-0.6,0.3-1V21.9c-1.3-0.8-2.7-1.4-4.2-1.8
			C168.6,19.6,166.9,19.4,165.1,19.4z M167.3,31.1c0,0.8-0.3,1.6-0.9,2.1c-0.7,0.5-1.5,0.8-2.4,0.7l0,0c-2.1,0-3.2-1.3-3.2-3.8
			c-0.1-1.4,0.3-2.9,1.2-4c0.8-1,2-1.5,3.3-1.4c0.6,0,1.3,0.1,1.9,0.4v6H167.3z"/>
		<path class="st0" d="M192.1,29.1l6.7-7.6c0.2-0.2,0.3-0.4,0.3-0.7c0-0.2-0.1-0.4-0.2-0.5c-0.1-0.2-0.4-0.2-0.6-0.2h-6
			c-0.3,0-0.6,0-0.8,0.1s-0.4,0.2-0.5,0.4l-5.1,6.7v-13c0-0.5-0.1-1.1-0.5-1.5s-1-0.6-1.6-0.5H180c-0.6-0.1-1.1,0.1-1.6,0.5
			c-0.3,0.4-0.5,0.9-0.5,1.5v22.5c0,0.5,0.1,1.1,0.4,1.5c0.5,0.4,1,0.5,1.6,0.5h3.8c0.6,0.1,1.1-0.1,1.6-0.5
			c0.3-0.4,0.5-0.9,0.5-1.5V31l5.3,7.2c0.1,0.2,0.3,0.3,0.5,0.4c0.3,0.1,0.5,0.1,0.8,0.1h6c0.2,0,0.4-0.1,0.6-0.2
			c0.2-0.2,0.2-0.4,0.2-0.6c0-0.3-0.1-0.5-0.3-0.7L192.1,29.1z"/>
		<path class="st0" d="M211.2,19.4c-3.5,0-6.2,0.9-8.1,2.6c-1.9,1.7-2.8,4.3-2.8,7.5c-0.1,1.9,0.5,3.7,1.5,5.3c1,1.5,2.4,2.6,4,3.3
			c1.9,0.8,3.8,1.1,5.8,1.1c1.6,0,3.1-0.1,4.6-0.5c1.3-0.3,2.5-0.8,3.6-1.5c0.3-0.1,0.4-0.4,0.5-0.7c0-0.2-0.1-0.4-0.2-0.6l-1.3-2.5
			c-0.2-0.3-0.4-0.5-0.6-0.5c-0.2,0-0.4,0.1-0.6,0.2c-0.7,0.4-1.4,0.7-2.2,0.9c-0.9,0.2-1.8,0.3-2.6,0.3c-1.3,0.1-2.7-0.2-3.9-0.9
			c-0.8-0.6-1.3-1.6-1.2-2.6h12.2c1.1,0,1.7-0.6,1.7-1.9c0.2-2.6-0.8-5.2-2.7-7C217.2,20.3,214.6,19.4,211.2,19.4z M207.7,27.1
			c0-0.8,0.3-1.7,0.9-2.3c0.7-0.6,1.7-0.9,2.6-0.9c0.9-0.1,1.8,0.2,2.6,0.8c0.6,0.6,0.9,1.4,0.9,2.3L207.7,27.1z"/>
		<path class="st0" d="M211.6,39.2L211.6,39.2L211.6,39.2z"/>
		<path class="st0" d="M241.8,25.4c-1.4-0.9-2.9-1.6-4.5-2.2l-0.7-0.3c-1.1-0.4-2-0.8-2.5-1s-0.9-0.6-1.2-1s-0.5-0.9-0.5-1.4
			c-0.1-0.7,0.3-1.4,0.9-1.8c0.8-0.4,1.7-0.6,2.6-0.5c1.9,0,3.8,0.5,5.4,1.5c0.2,0.1,0.4,0.2,0.7,0.3c0.2,0,0.4-0.2,0.6-0.5l1.9-3
			c0.1-0.2,0.2-0.4,0.2-0.6c0-0.3-0.2-0.6-0.7-0.9c-1.2-0.8-2.5-1.4-3.9-1.7c-1.8-0.4-3.6-0.6-5.4-0.6c-2.6-0.1-5.2,0.6-7.4,2
			c-1.9,1.4-2.9,3.6-2.8,5.9c-0.1,1.9,0.7,3.8,2.2,5.1c1.9,1.4,3.9,2.5,6.1,3.3c1.2,0.4,2.4,1,3.5,1.7c0.6,0.4,1,1.1,1,1.8
			c0.1,0.7-0.3,1.4-0.9,1.8c-0.8,0.4-1.8,0.6-2.7,0.5c-1.2,0-2.4-0.2-3.6-0.5c-1.1-0.3-2.2-0.7-3.3-1.3c-0.2-0.1-0.4-0.2-0.7-0.3
			c-0.2,0-0.4,0.2-0.6,0.5l-1.9,3c-0.1,0.2-0.2,0.4-0.2,0.7s0.2,0.6,0.7,0.9c1.4,0.9,3,1.6,4.7,1.9c2,0.5,4.1,0.7,6.2,0.7l0,0
			c3.3,0,5.9-0.7,7.6-2.1c1.7-1.3,2.7-3.4,2.6-5.5c0-1.3-0.2-2.6-0.9-3.7C243.7,26.9,242.8,26,241.8,25.4z"/>
		<path class="st0" d="M274.4,20h-5.2c-0.2,0-0.5,0-0.7,0.2c-0.2,0.1-0.3,0.3-0.3,0.5l-2.1,8.8l-2.6-7.1c-0.1-0.2-0.2-0.5-0.4-0.6
			c-0.2-0.2-0.5-0.2-0.7-0.2h-2.5c-0.3,0-0.5,0-0.8,0.2c-0.2,0.2-0.3,0.4-0.4,0.6l-2.6,7.1l-2.1-8.8c0-0.2-0.1-0.4-0.3-0.5
			S253.2,20,253,20h-5.1c-0.5,0-0.8,0.2-0.8,0.5c0,0.1,0,0.2,0.1,0.4l5,16.8c0.1,0.3,0.2,0.6,0.5,0.8c0.3,0.1,0.6,0.2,0.9,0.2h3.8
			c0.3,0,0.6,0,0.8-0.2c0.2-0.2,0.4-0.5,0.5-0.8l2.6-7l2.6,7c0.1,0.3,0.2,0.6,0.5,0.8c0.2,0.1,0.5,0.2,0.8,0.2h3.8
			c0.3,0,0.6,0,0.9-0.2c0.2-0.2,0.4-0.5,0.5-0.8l5.1-16.8c0-0.1,0.1-0.2,0.1-0.4C275.2,20.2,274.9,20,274.4,20z"/>
		<path class="st0" d="M285,39.2L285,39.2L285,39.2z"/>
		<path class="st0" d="M289,19.4c-2.2,0-4.4,0.4-6.3,1.4c-1.7,0.8-3.2,2.1-4.2,3.8c-1,1.7-1.5,3.7-1.5,5.7c-0.1,2.4,0.6,4.8,2.2,6.7
			c1.5,1.6,3.7,2.4,5.9,2.3c1.3,0,2.6-0.2,3.8-0.6c1-0.3,2-0.9,2.7-1.8l0.5,1.2c0.1,0.2,0.2,0.3,0.4,0.5c0.2,0.1,0.4,0.1,0.7,0.1h4
			c0.4,0,0.8,0,1.1-0.2c0.2-0.3,0.3-0.6,0.3-1V21.9c-1.3-0.8-2.7-1.4-4.2-1.8C292.6,19.6,290.8,19.4,289,19.4z M291.2,31.1
			c0,0.8-0.3,1.6-0.9,2.1c-0.7,0.5-1.5,0.8-2.4,0.7l0,0c-2.1,0-3.2-1.3-3.2-3.8c-0.1-1.4,0.3-2.9,1.2-4c0.8-1,2-1.5,3.3-1.4
			c0.6,0,1.3,0.1,1.9,0.4v6H291.2z"/>
		<path class="st0" d="M323.5,29.4c0-6.6-3.9-10-11.8-10c-1.9,0-3.7,0.3-5.5,0.8c-1.6,0.4-3.1,1.1-4.4,2.1v22.3
			c0,0.5,0.1,1.1,0.4,1.5c0.5,0.4,1,0.5,1.6,0.5h3.6c0.6,0.1,1.1-0.1,1.6-0.5c0.3-0.4,0.5-0.9,0.5-1.5v-6.5c0.6,0.4,1.3,0.7,1.9,0.9
			c0.8,0.2,1.7,0.3,2.5,0.3c2.6,0.2,5.2-0.8,7-2.7C322.7,34.6,323.6,32,323.5,29.4z M315.6,29.3c0.1,1.2-0.2,2.4-0.9,3.4
			c-0.5,0.8-1.5,1.3-2.5,1.2l0,0c-0.8,0-1.5-0.2-2.1-0.7c-0.5-0.5-0.8-1.3-0.7-2V25c0.7-0.3,1.4-0.4,2.1-0.4c1.1-0.1,2.2,0.3,3,1.1
			C315.4,26.8,315.8,28.1,315.6,29.3z"/>
	</g>
	<g>
		<path class="st0" d="M38.7,17.4l1.8-9.6c0.1-0.4,0.1-0.7,0.1-1.1c0-3.6-2.9-6.6-6.5-6.7c-3.6,0-6.6,2.9-6.7,6.5v8.1
			c-0.9-0.1-1.8-0.1-2.7-0.1c-0.9,0-1.9,0-2.8,0.1v-8c0-0.4,0-0.8-0.1-1.1c-0.6-3.6-4.1-6-7.7-5.3c-3.6,0.6-6,4.1-5.3,7.7l1.8,9.6
			C4.6,20.1,0,24.7,0,30.6v3.5c0,4.8,3.2,8.8,7.6,11.5c5.2,3,11.1,4.5,17.1,4.4c6,0.1,11.9-1.4,17.1-4.4c4.4-2.7,7.6-6.7,7.6-11.5
			v-3.5C49.5,24.7,44.9,20.1,38.7,17.4z M47.5,34.1c0,7.7-10.2,13.9-22.7,13.9S2,41.8,2,34.1v-3.5c0-5,4.4-9.4,10.9-11.9l-2-11.3
			c-0.1-0.3-0.1-0.6-0.1-0.8c0-2.5,2-4.6,4.6-4.6S20,4,20,6.6V17c0.7-0.1,1.3-0.2,2-0.2c0.9-0.1,1.8-0.1,2.8-0.1
			c0.9,0,1.8,0,2.7,0.1c0.7,0,1.4,0.1,2,0.2V6.6c0-0.3,0-0.6,0.1-0.8c0.5-2.5,2.9-4.1,5.3-3.7S39,5,38.5,7.4l-2.1,11.2
			c6.6,2.4,11,6.9,11,11.9v3.6H47.5z"/>
		<path class="st0" d="M15.9,25.8c-1.4,0-2.5,1.7-2.5,3.8s1.1,3.8,2.5,3.8s2.5-1.7,2.5-3.8S17.3,25.8,15.9,25.8z"/>
		<path class="st0" d="M33.3,25.8c-1.4,0-2.5,1.7-2.5,3.8s1.1,3.8,2.5,3.8c1.4,0,2.5-1.7,2.5-3.8C35.9,27.5,34.7,25.8,33.3,25.8z"/>
	</g>
</g>
</svg>
