<?xml version="1.0" encoding="utf-8"?>
<!-- Generator: Adobe Illustrator 23.1.1, SVG Export Plug-In . SVG Version: 6.00 Build 0)  -->
<svg version="1.1" id="Capa_1" xmlns="http://www.w3.org/2000/svg" xmlns:xlink="http://www.w3.org/1999/xlink" x="0px" y="0px"
	 viewBox="0 0 200 200" style="enable-background:new 0 0 200 200;" xml:space="preserve">
<style type="text/css">
	.st0{fill:url(#SVGID_1_);}
	.st1{fill:url(#SVGID_2_);}
	.st2{fill:url(#SVGID_3_);}
	.st3{fill:url(#SVGID_4_);}
	.st4{fill:url(#SVGID_5_);}
	.st5{fill:url(#SVGID_6_);}
	.st6{fill:url(#SVGID_7_);}
	.st7{fill:url(#SVGID_8_);}
	.st8{fill:url(#SVGID_9_);}
	.st9{fill:url(#SVGID_10_);}
	.st10{fill:url(#SVGID_11_);}
	.st11{fill:url(#SVGID_12_);}
	.st12{fill:url(#SVGID_13_);}
	.st13{fill:url(#SVGID_14_);}
	.st14{fill:url(#SVGID_15_);}
	.st15{fill:url(#SVGID_16_);}
	.st16{fill:url(#SVGID_17_);}
	.st17{fill:url(#SVGID_18_);}
	.st18{fill:url(#SVGID_19_);}
	.st19{fill:url(#SVGID_20_);}
	.st20{fill:url(#SVGID_21_);}
	.st21{fill:url(#SVGID_22_);}
	.st22{fill:url(#SVGID_23_);}
	.st23{fill:url(#SVGID_24_);}
	.st24{fill:url(#SVGID_25_);}
	.st25{fill:url(#SVGID_26_);}
	.st26{fill:url(#SVGID_27_);}
	.st27{fill:url(#SVGID_28_);}
	.st28{fill:url(#SVGID_29_);}
	.st29{fill:url(#SVGID_30_);}
	.st30{fill:url(#SVGID_31_);}
	.st31{fill:url(#SVGID_32_);}
</style>
<g>
	<linearGradient id="SVGID_1_" gradientUnits="userSpaceOnUse" x1="59.6811" y1="33.2989" x2="142.0742" y2="33.2989">
		<stop  offset="2.591463e-02" style="stop-color:#B17B27"/>
		<stop  offset="0.206" style="stop-color:#ECC670"/>
		<stop  offset="0.2398" style="stop-color:#E7BF69"/>
		<stop  offset="0.2901" style="stop-color:#D9AB54"/>
		<stop  offset="0.3477" style="stop-color:#C48D35"/>
		<stop  offset="0.4888" style="stop-color:#9E6A1A"/>
		<stop  offset="0.4923" style="stop-color:#FFFAE0"/>
		<stop  offset="0.4994" style="stop-color:#FFF6C9"/>
		<stop  offset="0.5077" style="stop-color:#FFF3B6"/>
		<stop  offset="0.5175" style="stop-color:#FFF1A9"/>
		<stop  offset="0.5299" style="stop-color:#FFEFA1"/>
		<stop  offset="0.5544" style="stop-color:#FFEF9F"/>
		<stop  offset="0.8057" style="stop-color:#FDD57F"/>
		<stop  offset="1" style="stop-color:#925F11"/>
	</linearGradient>
	<path class="st0" d="M143.8,28.8l-14.6,4.9c-0.9,5.2-5,9.1-9.8,9.1c-5.5,0-10-5.1-10-11.4c0-2.8,0.9-5.3,2.3-7.2l0,0l-11.4-12.9
		l0,0l-11.4,13l0,0c1.4,2,2.3,4.5,2.3,7.2c0,6.3-4.5,11.4-10,11.4c-4.8,0-8.9-3.9-9.8-9.1l-14.3-4.9l-0.1,0l9.9,26.6
		c9.7-2.7,21.2-4.6,34-4.6c12.2,0,23.2,1.7,32.6,4.2L143.8,28.8L143.8,28.8z"/>
	<linearGradient id="SVGID_2_" gradientUnits="userSpaceOnUse" x1="111.5605" y1="24.1458" x2="111.5605" y2="24.1458">
		<stop  offset="2.591463e-02" style="stop-color:#B17B27"/>
		<stop  offset="0.206" style="stop-color:#ECC670"/>
		<stop  offset="0.2398" style="stop-color:#E7BF69"/>
		<stop  offset="0.2901" style="stop-color:#D9AB54"/>
		<stop  offset="0.3477" style="stop-color:#C48D35"/>
		<stop  offset="0.4888" style="stop-color:#9E6A1A"/>
		<stop  offset="0.4923" style="stop-color:#FFFAE0"/>
		<stop  offset="0.4994" style="stop-color:#FFF6C9"/>
		<stop  offset="0.5077" style="stop-color:#FFF3B6"/>
		<stop  offset="0.5175" style="stop-color:#FFF1A9"/>
		<stop  offset="0.5299" style="stop-color:#FFEFA1"/>
		<stop  offset="0.5544" style="stop-color:#FFEF9F"/>
		<stop  offset="0.8057" style="stop-color:#FDD57F"/>
		<stop  offset="1" style="stop-color:#925F11"/>
	</linearGradient>
	<path class="st1" d="M111.6,24.1"/>
	<g>
		<linearGradient id="SVGID_3_" gradientUnits="userSpaceOnUse" x1="56.3755" y1="42.2584" x2="144.2224" y2="42.2584">
			<stop  offset="0" style="stop-color:#FFE28D"/>
			<stop  offset="0.2279" style="stop-color:#D4AC57"/>
			<stop  offset="0.414" style="stop-color:#C48D35"/>
			<stop  offset="0.586" style="stop-color:#925F11"/>
			<stop  offset="0.7721" style="stop-color:#FFEF9F"/>
			<stop  offset="1" style="stop-color:#FDD57F"/>
		</linearGradient>
		<path class="st2" d="M66.5,56.2L56.4,28.6l0.7-0.3L67,55.3c21.7-5.9,44.3-6,66.1-0.4l10.3-26.2l0.3,0.1l0.3-0.3l0.2,0.2l-0.1,0.3
			l-10.6,26.9l-0.3-0.1c-21.8-5.8-44.6-5.6-66.4,0.4L66.5,56.2z"/>
	</g>
	<linearGradient id="SVGID_4_" gradientUnits="userSpaceOnUse" x1="88.746" y1="24.1274" x2="88.746" y2="24.1274">
		<stop  offset="2.591463e-02" style="stop-color:#B17B27"/>
		<stop  offset="0.206" style="stop-color:#ECC670"/>
		<stop  offset="0.2398" style="stop-color:#E7BF69"/>
		<stop  offset="0.2901" style="stop-color:#D9AB54"/>
		<stop  offset="0.3477" style="stop-color:#C48D35"/>
		<stop  offset="0.4888" style="stop-color:#9E6A1A"/>
		<stop  offset="0.4923" style="stop-color:#FFFAE0"/>
		<stop  offset="0.4994" style="stop-color:#FFF6C9"/>
		<stop  offset="0.5077" style="stop-color:#FFF3B6"/>
		<stop  offset="0.5175" style="stop-color:#FFF1A9"/>
		<stop  offset="0.5299" style="stop-color:#FFEFA1"/>
		<stop  offset="0.5544" style="stop-color:#FFEF9F"/>
		<stop  offset="0.8057" style="stop-color:#FDD57F"/>
		<stop  offset="1" style="stop-color:#925F11"/>
	</linearGradient>
	<path class="st3" d="M88.7,24.1"/>
	<linearGradient id="SVGID_5_" gradientUnits="userSpaceOnUse" x1="82.767" y1="129.5762" x2="117.5482" y2="129.5762">
		<stop  offset="0" style="stop-color:#8F8D87"/>
		<stop  offset="0.1033" style="stop-color:#A7A69E"/>
		<stop  offset="0.2459" style="stop-color:#C5C4BB"/>
		<stop  offset="0.3347" style="stop-color:#ACABA3"/>
		<stop  offset="0.4342" style="stop-color:#97958F"/>
		<stop  offset="0.4983" style="stop-color:#8F8D87"/>
		<stop  offset="0.5002" style="stop-color:#A19F9A"/>
		<stop  offset="0.5049" style="stop-color:#C9C8C6"/>
		<stop  offset="0.5092" style="stop-color:#E7E6E5"/>
		<stop  offset="0.5128" style="stop-color:#F9F8F8"/>
		<stop  offset="0.5153" style="stop-color:#FFFFFF"/>
		<stop  offset="0.5524" style="stop-color:#F4F3F2"/>
		<stop  offset="0.6224" style="stop-color:#E3E2DE"/>
		<stop  offset="0.6702" style="stop-color:#DDDCD7"/>
		<stop  offset="0.8647" style="stop-color:#F8F8F7"/>
	</linearGradient>
	<polygon class="st4" points="117.5,111.8 105,118.9 105,135.6 100.1,138.6 100.1,138.6 95.1,135.6 95.1,118.9 82.8,111.8 
		82.8,116.3 91.1,121.5 91.1,137.7 91.1,137.7 91.1,137.7 98.1,142.1 98.1,147.4 102,147.4 102,142.1 109,137.7 109,121.5 
		117.5,116.3 	"/>
	<g>
		<g>
			<linearGradient id="SVGID_6_" gradientUnits="userSpaceOnUse" x1="82.6288" y1="131.8862" x2="117.6822" y2="131.8862">
				<stop  offset="2.006479e-02" style="stop-color:#7D7B76;stop-opacity:0"/>
				<stop  offset="4.623626e-02" style="stop-color:#84827D;stop-opacity:0.2019"/>
				<stop  offset="8.547332e-02" style="stop-color:#999790;stop-opacity:0.5047"/>
				<stop  offset="0.1327" style="stop-color:#B9B8B0;stop-opacity:0.8691"/>
				<stop  offset="0.1497" style="stop-color:#C7C6BD"/>
				<stop  offset="0.1729" style="stop-color:#CBCAC2"/>
				<stop  offset="0.2008" style="stop-color:#D8D7D1"/>
				<stop  offset="0.2309" style="stop-color:#ECECE9"/>
				<stop  offset="0.2453" style="stop-color:#F8F8F7"/>
				<stop  offset="0.2564" style="stop-color:#D7D6D4"/>
				<stop  offset="0.2722" style="stop-color:#ADACA9"/>
				<stop  offset="0.2864" style="stop-color:#8F8D89"/>
				<stop  offset="0.2984" style="stop-color:#7D7B76"/>
				<stop  offset="0.3067" style="stop-color:#76746F"/>
				<stop  offset="0.3266" style="stop-color:#7C7B76"/>
				<stop  offset="0.3552" style="stop-color:#8F8D89"/>
				<stop  offset="0.3891" style="stop-color:#ACABA8"/>
				<stop  offset="0.4266" style="stop-color:#D5D5D3"/>
				<stop  offset="0.4598" style="stop-color:#FFFFFF"/>
				<stop  offset="0.4914" style="stop-color:#F8F8F7"/>
				<stop  offset="0.5395" style="stop-color:#E4E3E2"/>
				<stop  offset="0.598" style="stop-color:#C3C2C0"/>
				<stop  offset="0.6641" style="stop-color:#969591"/>
				<stop  offset="0.7061" style="stop-color:#76746F"/>
				<stop  offset="0.716" style="stop-color:#878581"/>
				<stop  offset="0.7433" style="stop-color:#B2B1AE"/>
				<stop  offset="0.7696" style="stop-color:#D3D3D1"/>
				<stop  offset="0.7943" style="stop-color:#EBEBEA"/>
				<stop  offset="0.8166" style="stop-color:#FAFAFA"/>
				<stop  offset="0.8346" style="stop-color:#FFFFFF"/>
				<stop  offset="1" style="stop-color:#7D7B76;stop-opacity:0"/>
			</linearGradient>
			<polygon class="st5" points="97.9,147.7 97.9,142.3 90.9,137.9 90.9,137.5 90.9,121.6 82.6,116.6 82.9,116.1 91.4,121.3 
				91.4,137.6 92.1,138 98.4,142 98.4,142.1 98.4,147.1 101.7,147.1 101.7,142 101.8,141.9 108.7,137.6 108.7,121.3 108.8,121.2 
				117.4,116.1 117.7,116.6 109.3,121.6 109.3,137.9 109.1,138 102.3,142.3 102.3,147.7 			"/>
		</g>
	</g>
	<g>
		<linearGradient id="SVGID_7_" gradientUnits="userSpaceOnUse" x1="63.0226" y1="142.465" x2="57.4441" y2="126.8972">
			<stop  offset="2.591463e-02" style="stop-color:#936722"/>
			<stop  offset="0.3477" style="stop-color:#C48D35"/>
			<stop  offset="0.4893" style="stop-color:#9E6A1A"/>
			<stop  offset="0.501" style="stop-color:#FFFAE0"/>
			<stop  offset="0.5071" style="stop-color:#FFF6C9"/>
			<stop  offset="0.5142" style="stop-color:#FFF3B6"/>
			<stop  offset="0.5226" style="stop-color:#FFF1A9"/>
			<stop  offset="0.5334" style="stop-color:#FFEFA1"/>
			<stop  offset="0.5544" style="stop-color:#FFEF9F"/>
			<stop  offset="0.7491" style="stop-color:#FDD57F"/>
			<stop  offset="1" style="stop-color:#D4A855"/>
		</linearGradient>
		<path class="st6" d="M72.5,128.4l-29.6-0.2c2.4,7.5,5.3,14.7,8.8,21.4l23.9-13.9l-3.1-5L72.5,128.4z"/>
		<linearGradient id="SVGID_8_" gradientUnits="userSpaceOnUse" x1="81.1327" y1="166.3749" x2="63.3181" y2="145.0749">
			<stop  offset="2.591463e-02" style="stop-color:#936722"/>
			<stop  offset="9.222059e-02" style="stop-color:#9D6F26"/>
			<stop  offset="0.3477" style="stop-color:#C48D35"/>
			<stop  offset="0.4893" style="stop-color:#9E6A1A"/>
			<stop  offset="0.501" style="stop-color:#FFFAE0"/>
			<stop  offset="0.5071" style="stop-color:#FFF6C9"/>
			<stop  offset="0.5142" style="stop-color:#FFF3B6"/>
			<stop  offset="0.5226" style="stop-color:#FFF1A9"/>
			<stop  offset="0.5334" style="stop-color:#FFEFA1"/>
			<stop  offset="0.5544" style="stop-color:#FFEF9F"/>
			<stop  offset="0.7491" style="stop-color:#FDD57F"/>
			<stop  offset="1" style="stop-color:#D4A855"/>
		</linearGradient>
		<path class="st7" d="M54.8,155.2c5.8,9.8,12.7,18.5,20.7,25.8l10.5-28.3l-7-11.5L54.8,155.2z"/>
		<linearGradient id="SVGID_9_" gradientUnits="userSpaceOnUse" x1="54.3945" y1="125.8465" x2="54.3945" y2="101.0048">
			<stop  offset="2.591463e-02" style="stop-color:#936722"/>
			<stop  offset="0.3477" style="stop-color:#C48D35"/>
			<stop  offset="0.4893" style="stop-color:#9E6A1A"/>
			<stop  offset="0.501" style="stop-color:#FFFAE0"/>
			<stop  offset="0.5071" style="stop-color:#FFF6C9"/>
			<stop  offset="0.5142" style="stop-color:#FFF3B6"/>
			<stop  offset="0.5226" style="stop-color:#FFF1A9"/>
			<stop  offset="0.5334" style="stop-color:#FFEFA1"/>
			<stop  offset="0.5544" style="stop-color:#FFEF9F"/>
			<stop  offset="0.7491" style="stop-color:#FDD57F"/>
			<stop  offset="1" style="stop-color:#D4A855"/>
		</linearGradient>
		<path class="st8" d="M36.2,92.2c0.8,10.2,2.4,20.1,4.9,29.5l31.4,0.3l0-8.7L36.2,92.2z"/>
		<linearGradient id="SVGID_10_" gradientUnits="userSpaceOnUse" x1="80.4993" y1="83.9381" x2="119.4335" y2="83.9381">
			<stop  offset="2.591463e-02" style="stop-color:#B17B27"/>
			<stop  offset="0.1539" style="stop-color:#D9AE59"/>
			<stop  offset="0.3477" style="stop-color:#C48D35"/>
			<stop  offset="0.4893" style="stop-color:#9E6A1A"/>
			<stop  offset="0.501" style="stop-color:#FFFAE0"/>
			<stop  offset="0.5071" style="stop-color:#FFF6C9"/>
			<stop  offset="0.5142" style="stop-color:#FFF3B6"/>
			<stop  offset="0.5226" style="stop-color:#FFF1A9"/>
			<stop  offset="0.5334" style="stop-color:#FFEFA1"/>
			<stop  offset="0.5544" style="stop-color:#FFEF9F"/>
			<stop  offset="0.7491" style="stop-color:#FDD57F"/>
			<stop  offset="1" style="stop-color:#D4A855"/>
		</linearGradient>
		<path class="st9" d="M104.1,104l15.3-41.1c-5.9-0.9-12.2-1.4-18.9-1.4c-7.1,0-13.9,0.6-20.1,1.6l14.8,40.6l4.7,2.7L104.1,104z"/>
		<linearGradient id="SVGID_11_" gradientUnits="userSpaceOnUse" x1="52.1952" y1="95.7274" x2="82.0328" y2="72.6832">
			<stop  offset="2.591463e-02" style="stop-color:#936722"/>
			<stop  offset="0.3477" style="stop-color:#C48D35"/>
			<stop  offset="0.4893" style="stop-color:#9E6A1A"/>
			<stop  offset="0.501" style="stop-color:#FFFAE0"/>
			<stop  offset="0.504" style="stop-color:#FFF6C9"/>
			<stop  offset="0.5075" style="stop-color:#FFF3B6"/>
			<stop  offset="0.5116" style="stop-color:#FFF1A9"/>
			<stop  offset="0.5168" style="stop-color:#FFEFA1"/>
			<stop  offset="0.5271" style="stop-color:#FFEF9F"/>
			<stop  offset="0.7491" style="stop-color:#FDD57F"/>
			<stop  offset="1" style="stop-color:#D4A855"/>
		</linearGradient>
		<path class="st10" d="M86.4,98.6L73.9,64.3C52,69,37.8,77.9,35.7,79.2c0,1.8,0,3.6,0.1,5.3l36.8,21.3l0-15.3L86.4,98.6z"/>
		<linearGradient id="SVGID_12_" gradientUnits="userSpaceOnUse" x1="81.5409" y1="178.732" x2="119.2786" y2="178.732">
			<stop  offset="2.591463e-02" style="stop-color:#B17B27"/>
			<stop  offset="0.1539" style="stop-color:#D9AE59"/>
			<stop  offset="0.3477" style="stop-color:#C48D35"/>
			<stop  offset="0.4893" style="stop-color:#9E6A1A"/>
			<stop  offset="0.501" style="stop-color:#FFFAE0"/>
			<stop  offset="0.5071" style="stop-color:#FFF6C9"/>
			<stop  offset="0.5142" style="stop-color:#FFF3B6"/>
			<stop  offset="0.5226" style="stop-color:#FFF1A9"/>
			<stop  offset="0.5334" style="stop-color:#FFEFA1"/>
			<stop  offset="0.5544" style="stop-color:#FFEF9F"/>
			<stop  offset="0.7491" style="stop-color:#FDD57F"/>
			<stop  offset="1" style="stop-color:#D4A855"/>
		</linearGradient>
		<path class="st11" d="M93,163.5l-2.3-3.7l-9.6,25.7c6.1,4.9,11.9,8.8,18.9,12.1c6.4-3,13.2-6.5,18.8-10.8l-9.5-26l-1.6,2.7H93z"/>
		
			<linearGradient id="SVGID_13_" gradientUnits="userSpaceOnUse" x1="3142.4817" y1="142.465" x2="3136.9031" y2="126.8972" gradientTransform="matrix(-1 0 0 1 3279.459 0)">
			<stop  offset="2.591463e-02" style="stop-color:#936722"/>
			<stop  offset="0.3477" style="stop-color:#C48D35"/>
			<stop  offset="0.4893" style="stop-color:#9E6A1A"/>
			<stop  offset="0.501" style="stop-color:#FFFAE0"/>
			<stop  offset="0.5071" style="stop-color:#FFF6C9"/>
			<stop  offset="0.5142" style="stop-color:#FFF3B6"/>
			<stop  offset="0.5226" style="stop-color:#FFF1A9"/>
			<stop  offset="0.5334" style="stop-color:#FFEFA1"/>
			<stop  offset="0.5544" style="stop-color:#FFEF9F"/>
			<stop  offset="0.7491" style="stop-color:#FDD57F"/>
			<stop  offset="1" style="stop-color:#D4A855"/>
		</linearGradient>
		<path class="st12" d="M127.5,128.4l29.6-0.2c-2.4,7.5-5.3,14.7-8.8,21.4l-23.9-13.9l3.1-5L127.5,128.4z"/>
		
			<linearGradient id="SVGID_14_" gradientUnits="userSpaceOnUse" x1="3160.5918" y1="166.3749" x2="3142.7771" y2="145.0749" gradientTransform="matrix(-1 0 0 1 3279.459 0)">
			<stop  offset="2.591463e-02" style="stop-color:#936722"/>
			<stop  offset="9.222059e-02" style="stop-color:#9D6F26"/>
			<stop  offset="0.3477" style="stop-color:#C48D35"/>
			<stop  offset="0.4893" style="stop-color:#9E6A1A"/>
			<stop  offset="0.501" style="stop-color:#FFFAE0"/>
			<stop  offset="0.5071" style="stop-color:#FFF6C9"/>
			<stop  offset="0.5142" style="stop-color:#FFF3B6"/>
			<stop  offset="0.5226" style="stop-color:#FFF1A9"/>
			<stop  offset="0.5334" style="stop-color:#FFEFA1"/>
			<stop  offset="0.5544" style="stop-color:#FFEF9F"/>
			<stop  offset="0.7491" style="stop-color:#FDD57F"/>
			<stop  offset="1" style="stop-color:#D4A855"/>
		</linearGradient>
		<path class="st13" d="M145.2,155.2c-5.8,9.8-12.7,18.5-20.7,25.8l-10.5-28.3l7-11.5L145.2,155.2z"/>
		
			<linearGradient id="SVGID_15_" gradientUnits="userSpaceOnUse" x1="3133.8535" y1="125.8465" x2="3133.8535" y2="101.0048" gradientTransform="matrix(-1 0 0 1 3279.459 0)">
			<stop  offset="2.591463e-02" style="stop-color:#936722"/>
			<stop  offset="0.3477" style="stop-color:#C48D35"/>
			<stop  offset="0.4893" style="stop-color:#9E6A1A"/>
			<stop  offset="0.501" style="stop-color:#FFFAE0"/>
			<stop  offset="0.5071" style="stop-color:#FFF6C9"/>
			<stop  offset="0.5142" style="stop-color:#FFF3B6"/>
			<stop  offset="0.5226" style="stop-color:#FFF1A9"/>
			<stop  offset="0.5334" style="stop-color:#FFEFA1"/>
			<stop  offset="0.5544" style="stop-color:#FFEF9F"/>
			<stop  offset="0.7491" style="stop-color:#FDD57F"/>
			<stop  offset="1" style="stop-color:#D4A855"/>
		</linearGradient>
		<path class="st14" d="M163.8,92.2c-0.8,10.2-2.4,20.1-4.9,29.5l-31.4,0.3l0-8.7L163.8,92.2z"/>
		
			<linearGradient id="SVGID_16_" gradientUnits="userSpaceOnUse" x1="3131.6543" y1="95.7274" x2="3161.4919" y2="72.6832" gradientTransform="matrix(-1 0 0 1 3279.459 0)">
			<stop  offset="2.591463e-02" style="stop-color:#936722"/>
			<stop  offset="0.3477" style="stop-color:#C48D35"/>
			<stop  offset="0.4893" style="stop-color:#9E6A1A"/>
			<stop  offset="0.501" style="stop-color:#FFFAE0"/>
			<stop  offset="0.504" style="stop-color:#FFF6C9"/>
			<stop  offset="0.5075" style="stop-color:#FFF3B6"/>
			<stop  offset="0.5116" style="stop-color:#FFF1A9"/>
			<stop  offset="0.5168" style="stop-color:#FFEFA1"/>
			<stop  offset="0.5271" style="stop-color:#FFEF9F"/>
			<stop  offset="0.7491" style="stop-color:#FDD57F"/>
			<stop  offset="1" style="stop-color:#D4A855"/>
		</linearGradient>
		<path class="st15" d="M113.6,98.6l12.5-34.3c21.9,4.7,36.1,13.5,38.2,14.9c0,1.8,0,3.6-0.1,5.3l-36.8,21.3l0-15.3L113.6,98.6z"/>
		<g>
			<g>
				<linearGradient id="SVGID_17_" gradientUnits="userSpaceOnUse" x1="42.5881" y1="139.0353" x2="75.8168" y2="139.0353">
					<stop  offset="0" style="stop-color:#FFE28D"/>
					<stop  offset="0.2279" style="stop-color:#D4AC57"/>
					<stop  offset="0.414" style="stop-color:#C48D35"/>
					<stop  offset="0.586" style="stop-color:#925F11"/>
					<stop  offset="0.7721" style="stop-color:#FFEF9F"/>
					<stop  offset="1" style="stop-color:#FDD57F"/>
				</linearGradient>
				<path class="st16" d="M51.6,150l-0.2-0.3c-3.5-6.7-6.5-14-8.8-21.5h0.7c2.3,7.4,5.2,14.4,8.6,20.9l23.6-13.7l0.3,0.5L51.6,150z"
					/>
			</g>
			<g>
				<linearGradient id="SVGID_18_" gradientUnits="userSpaceOnUse" x1="54.556" y1="166.8956" x2="86.2836" y2="166.8956">
					<stop  offset="0" style="stop-color:#FFE28D"/>
					<stop  offset="0.2279" style="stop-color:#D4AC57"/>
					<stop  offset="0.414" style="stop-color:#C48D35"/>
					<stop  offset="0.586" style="stop-color:#925F11"/>
					<stop  offset="0.7721" style="stop-color:#FFEF9F"/>
					<stop  offset="1" style="stop-color:#FDD57F"/>
				</linearGradient>
				<path class="st17" d="M75.7,181.5l-0.4-0.3c-8-7.4-15-16.1-20.8-25.9l0.6-0.3c5.7,9.6,12.5,18.2,20.3,25.4l10.4-28.1l0.4,0.7
					L75.7,181.5z"/>
			</g>
			<g>
				<linearGradient id="SVGID_19_" gradientUnits="userSpaceOnUse" x1="35.8908" y1="107.1719" x2="72.5571" y2="107.1719">
					<stop  offset="0" style="stop-color:#FFE28D"/>
					<stop  offset="0.2279" style="stop-color:#D4AC57"/>
					<stop  offset="0.414" style="stop-color:#C48D35"/>
					<stop  offset="0.586" style="stop-color:#925F11"/>
					<stop  offset="0.7721" style="stop-color:#FFEF9F"/>
					<stop  offset="1" style="stop-color:#FDD57F"/>
				</linearGradient>
				<path class="st18" d="M72.6,122.3l-31.7-0.3l-0.1-0.2c-2.5-9.4-4.1-19.6-4.9-29.8l0.7,0.4c0,0.2,0,0.2,0,0.4
					c0.8,9.9,2.4,19.5,4.8,28.5l31.2,0.3L72.6,122.3z"/>
			</g>
			<g>
				<linearGradient id="SVGID_20_" gradientUnits="userSpaceOnUse" x1="80.164" y1="84.8035" x2="119.7554" y2="84.8035">
					<stop  offset="0" style="stop-color:#FFE28D"/>
					<stop  offset="0.2279" style="stop-color:#D4AC57"/>
					<stop  offset="0.414" style="stop-color:#C48D35"/>
					<stop  offset="0.586" style="stop-color:#925F11"/>
					<stop  offset="0.7721" style="stop-color:#FFEF9F"/>
					<stop  offset="1" style="stop-color:#FDD57F"/>
				</linearGradient>
				<polygon class="st19" points="100,106.8 95.1,103.9 95,103.8 80.2,63.1 80.8,63 95.6,103.5 100,106 103.9,103.8 119.1,62.8 
					119.8,62.9 104.4,104.2 				"/>
			</g>
			<g>
				<linearGradient id="SVGID_21_" gradientUnits="userSpaceOnUse" x1="35.3958" y1="92.7015" x2="86.5671" y2="92.7015">
					<stop  offset="0" style="stop-color:#FFE28D"/>
					<stop  offset="0.2279" style="stop-color:#D4AC57"/>
					<stop  offset="0.414" style="stop-color:#C48D35"/>
					<stop  offset="0.586" style="stop-color:#925F11"/>
					<stop  offset="0.7721" style="stop-color:#FFEF9F"/>
					<stop  offset="1" style="stop-color:#FDD57F"/>
				</linearGradient>
				<path class="st20" d="M72.9,106.4l-0.5-0.3L35.5,84.7l0-0.2c-0.1-1.8-0.1-3.4-0.1-5.2L36,79c0,1.7,0,3.6,0.1,5.4l36.1,21l0-15.2
					l14,8l0.3,0.9l-13.7-7.8L72.9,106.4z"/>
			</g>
			<g>
				<linearGradient id="SVGID_22_" gradientUnits="userSpaceOnUse" x1="80.7645" y1="178.729" x2="119.277" y2="178.729">
					<stop  offset="0" style="stop-color:#FFE28D"/>
					<stop  offset="0.2279" style="stop-color:#D4AC57"/>
					<stop  offset="0.414" style="stop-color:#C48D35"/>
					<stop  offset="0.586" style="stop-color:#925F11"/>
					<stop  offset="0.7721" style="stop-color:#FFEF9F"/>
					<stop  offset="1" style="stop-color:#FDD57F"/>
				</linearGradient>
				<path class="st21" d="M100.1,198l-0.1-0.1c-6.4-3-12.3-6.8-19-12.1l-0.2-0.1l0.1-0.2l9.7-26l0.4,0.7l-9.4,25.3
					c6.6,5.2,12.3,8.9,18.5,11.8c5.9-2.8,12.7-6.2,18.4-10.6l-9.3-25.6l0.4-0.7l9.7,26.5l-0.2,0.1c-5.9,4.5-12.8,8-18.9,10.9
					L100.1,198z"/>
			</g>
			<g>
				<linearGradient id="SVGID_23_" gradientUnits="userSpaceOnUse" x1="124.1954" y1="139.0362" x2="157.409" y2="139.0362">
					<stop  offset="0" style="stop-color:#FFE28D"/>
					<stop  offset="0.2279" style="stop-color:#D4AC57"/>
					<stop  offset="0.414" style="stop-color:#C48D35"/>
					<stop  offset="0.586" style="stop-color:#925F11"/>
					<stop  offset="0.7721" style="stop-color:#FFEF9F"/>
					<stop  offset="1" style="stop-color:#FDD57F"/>
				</linearGradient>
				<path class="st22" d="M148.4,150l-24.2-14l0.3-0.6l23.6,13.7c3.4-6.6,6.2-13.5,8.5-20.9h0.7c-2.4,7.5-5.4,14.8-8.8,21.5
					L148.4,150z"/>
			</g>
			<g>
				<linearGradient id="SVGID_24_" gradientUnits="userSpaceOnUse" x1="113.7147" y1="166.9009" x2="145.444" y2="166.9009">
					<stop  offset="0" style="stop-color:#FFE28D"/>
					<stop  offset="0.2279" style="stop-color:#D4AC57"/>
					<stop  offset="0.414" style="stop-color:#C48D35"/>
					<stop  offset="0.586" style="stop-color:#925F11"/>
					<stop  offset="0.7721" style="stop-color:#FFEF9F"/>
					<stop  offset="1" style="stop-color:#FDD57F"/>
				</linearGradient>
				<path class="st23" d="M124.3,181.5l-0.2-0.5L113.7,153l0.4-0.7l10.4,28.1c7.8-7.2,14.6-15.8,20.3-25.4l0.6,0.3
					c-5.8,9.8-12.8,18.5-20.8,25.9L124.3,181.5z"/>
			</g>
			<g>
				<linearGradient id="SVGID_25_" gradientUnits="userSpaceOnUse" x1="127.4429" y1="107.1697" x2="164.1188" y2="107.1697">
					<stop  offset="0" style="stop-color:#FFE28D"/>
					<stop  offset="0.2279" style="stop-color:#D4AC57"/>
					<stop  offset="0.414" style="stop-color:#C48D35"/>
					<stop  offset="0.586" style="stop-color:#925F11"/>
					<stop  offset="0.7721" style="stop-color:#FFEF9F"/>
					<stop  offset="1" style="stop-color:#FDD57F"/>
				</linearGradient>
				<path class="st24" d="M127.4,122.3l0-0.6l31.2-0.3c2.4-9.3,4-18.9,4.8-29l0.7-0.4c-0.8,10.2-2.4,20.4-4.9,29.8l-0.1,0.2l-0.2,0
					L127.4,122.3z"/>
			</g>
			<g>
				<linearGradient id="SVGID_26_" gradientUnits="userSpaceOnUse" x1="113.429" y1="92.703" x2="164.6042" y2="92.703">
					<stop  offset="0" style="stop-color:#FFE28D"/>
					<stop  offset="0.2279" style="stop-color:#D4AC57"/>
					<stop  offset="0.414" style="stop-color:#C48D35"/>
					<stop  offset="0.586" style="stop-color:#925F11"/>
					<stop  offset="0.7721" style="stop-color:#FFEF9F"/>
					<stop  offset="1" style="stop-color:#FDD57F"/>
				</linearGradient>
				<path class="st25" d="M127.1,106.4l0-15.3L113.4,99l0.3-0.9l14-8l0,15.2l36.1-21c0.1-1.7,0.1-3.7,0.1-5.4l0.7,0.4
					c0,1.7,0,3.4-0.1,5.2l0,0.2l-0.2,0.1L127.1,106.4z"/>
			</g>
		</g>
	</g>
	<linearGradient id="SVGID_27_" gradientUnits="userSpaceOnUse" x1="94.7067" y1="6.754" x2="105.5252" y2="6.754">
		<stop  offset="0" style="stop-color:#C7C6BD"/>
		<stop  offset="0.4981" style="stop-color:#76746F"/>
		<stop  offset="0.4999" style="stop-color:#7C7B76"/>
		<stop  offset="0.5024" style="stop-color:#8F8D89"/>
		<stop  offset="0.5055" style="stop-color:#ACABA8"/>
		<stop  offset="0.5088" style="stop-color:#D5D5D3"/>
		<stop  offset="0.5118" style="stop-color:#FFFFFF"/>
		<stop  offset="0.8009" style="stop-color:#C7C6BD"/>
	</linearGradient>
	<polyline class="st26" points="100.1,11.5 104.9,6.8 100.2,2 95.4,6.7 100.1,11.5 	"/>
	
		<linearGradient id="SVGID_28_" gradientUnits="userSpaceOnUse" x1="3089.6113" y1="35.8115" x2="3098.2456" y2="40.2047" gradientTransform="matrix(-1 0 0 -1 3239.7712 63.0427)">
		<stop  offset="0" style="stop-color:#C7C6BD"/>
		<stop  offset="5.492093e-02" style="stop-color:#BEBDB4"/>
		<stop  offset="0.4981" style="stop-color:#76746F"/>
		<stop  offset="0.4999" style="stop-color:#7C7B76"/>
		<stop  offset="0.5024" style="stop-color:#8F8D89"/>
		<stop  offset="0.5055" style="stop-color:#ACABA8"/>
		<stop  offset="0.5088" style="stop-color:#D5D5D3"/>
		<stop  offset="0.5118" style="stop-color:#FFFFFF"/>
		<stop  offset="0.8009" style="stop-color:#C7C6BD"/>
	</linearGradient>
	<polyline class="st27" points="147.9,20.8 141.7,22.9 143.7,29.2 150,27.1 147.9,20.9 	"/>
	
		<linearGradient id="SVGID_29_" gradientUnits="userSpaceOnUse" x1="55.5154" y1="154.1283" x2="64.747" y2="149.8219" gradientTransform="matrix(0.9964 8.438466e-02 -8.438466e-02 0.9964 8.2674 -131.6755)">
		<stop  offset="0" style="stop-color:#C7C6BD"/>
		<stop  offset="0.4981" style="stop-color:#76746F"/>
		<stop  offset="0.4999" style="stop-color:#7C7B76"/>
		<stop  offset="0.5024" style="stop-color:#8F8D89"/>
		<stop  offset="0.5055" style="stop-color:#ACABA8"/>
		<stop  offset="0.5088" style="stop-color:#D5D5D3"/>
		<stop  offset="0.5118" style="stop-color:#FFFFFF"/>
		<stop  offset="0.8009" style="stop-color:#C7C6BD"/>
	</linearGradient>
	<polyline class="st28" points="57.1,29.1 59.7,23.2 53.8,20.5 51.1,26.5 57,29.2 	"/>
	<g>
		
			<linearGradient id="SVGID_30_" gradientUnits="userSpaceOnUse" x1="54.7409" y1="127.5406" x2="63.4858" y2="123.6615" gradientTransform="matrix(0.9979 6.546447e-02 -6.546447e-02 0.9979 5.4495 -102.1578)">
			<stop  offset="0" style="stop-color:#C7C6BD"/>
			<stop  offset="0.2054" style="stop-color:#FFFFFF"/>
			<stop  offset="0.531" style="stop-color:#76746F"/>
			<stop  offset="0.6145" style="stop-color:#7D7B76"/>
			<stop  offset="0.6161" style="stop-color:#7D7B76"/>
			<stop  offset="0.6928" style="stop-color:#999891"/>
			<stop  offset="0.8009" style="stop-color:#C7C6BD"/>
		</linearGradient>
		<polygon class="st29" points="57.1,29.4 51,26.7 51.1,26.3 56.9,28.9 59.6,23.1 59.9,23.3 		"/>
	</g>
	<g>
		
			<linearGradient id="SVGID_31_" gradientUnits="userSpaceOnUse" x1="228.0496" y1="638.6132" x2="237.0023" y2="634.642" gradientTransform="matrix(0.9067 0.4219 -0.4219 0.9067 157.8836 -666.1404)">
			<stop  offset="0" style="stop-color:#C7C6BD"/>
			<stop  offset="0.2054" style="stop-color:#FFFFFF"/>
			<stop  offset="0.531" style="stop-color:#76746F"/>
			<stop  offset="0.6145" style="stop-color:#7D7B76"/>
			<stop  offset="0.6161" style="stop-color:#7D7B76"/>
			<stop  offset="0.6928" style="stop-color:#999891"/>
			<stop  offset="0.8009" style="stop-color:#C7C6BD"/>
		</linearGradient>
		<polygon class="st30" points="100.1,11.8 95.3,6.8 95.6,6.6 100.1,11.2 104.8,6.6 105.1,6.9 		"/>
	</g>
	<g>
		
			<linearGradient id="SVGID_32_" gradientUnits="userSpaceOnUse" x1="706.897" y1="1178.838" x2="715.6324" y2="1174.963" gradientTransform="matrix(0.6104 0.7921 -0.7921 0.6104 642.8203 -1254.686)">
			<stop  offset="0" style="stop-color:#C7C6BD"/>
			<stop  offset="0.2054" style="stop-color:#FFFFFF"/>
			<stop  offset="0.531" style="stop-color:#76746F"/>
			<stop  offset="0.6145" style="stop-color:#7D7B76"/>
			<stop  offset="0.6161" style="stop-color:#7D7B76"/>
			<stop  offset="0.6928" style="stop-color:#999891"/>
			<stop  offset="0.8009" style="stop-color:#C7C6BD"/>
		</linearGradient>
		<polygon class="st31" points="143.5,29.4 141.5,23 141.9,22.9 143.8,28.9 150,26.9 150.1,27.2 		"/>
	</g>
</g>
</svg>
