<?xml version="1.0" encoding="utf-8"?>
<!-- Generator: Adobe Illustrator 23.1.1, SVG Export Plug-In . SVG Version: 6.00 Build 0)  -->
<svg version="1.1" id="Capa_1" xmlns="http://www.w3.org/2000/svg" xmlns:xlink="http://www.w3.org/1999/xlink" x="0px" y="0px"
	 viewBox="0 0 785.4 785.4" style="enable-background:new 0 0 785.4 785.4;" xml:space="preserve">
<style type="text/css">
	.st0{fill:#324D95;}
	.st1{fill:#14143B;}
	.st2{fill:#FFFFFF;}
</style>
<g>
	<g id="Capa_1-2">
		<path class="st0" d="M575.663,223.163h113.264c52.84,0,96.063,43.232,96.063,96.063v331.202c0,52.84-43.222,96.063-96.063,96.063
			H96.063C43.232,746.491,0,703.268,0,650.428V131.587"/>
		<path class="st1" d="M706.491,223.163H92.081C41.226,223.163,0,181.938,0,131.083c0,0,0,0,0,0l0,0C0,80.229,41.227,40,92.081,40
			h535.91c43.175,0,78.5,34.327,78.5,77.502V223.163z"/>
		<path class="st1" d="M785,617.213H561.665c-68.046,0-123.718-53.686-123.718-119.299l0,0c0-65.575,55.672-119.299,123.718-119.299
			H785"/>
		<circle class="st2" cx="568.089" cy="497.913" r="43.384"/>
	</g>
</g>
</svg>
