<?xml version="1.0" encoding="utf-8"?>
<!-- Generator: Adobe Illustrator 25.2.0, SVG Export Plug-In . SVG Version: 6.00 Build 0)  -->
<svg version="1.1" id="Capa_1" xmlns="http://www.w3.org/2000/svg" xmlns:xlink="http://www.w3.org/1999/xlink" x="0px" y="0px"
	 viewBox="0 0 785.4 785.4" style="enable-background:new 0 0 785.4 785.4;" xml:space="preserve">
<style type="text/css">
	.st0{fill:#324D95;}
	.st1{fill:none;}
	.st2{fill:#233866;}
	.st3{fill:#14143B;}
	.st4{fill:#FFFFFF;}
</style>
<path class="st0" d="M785.4,32.7v720.1c0,7-2.2,13.5-5.9,18.8c-5.9,8.4-15.7,13.9-26.7,13.9H32.6c-18,0-32.6-14.6-32.6-32.6V32.7
	C0,14.6,14.6,0,32.6,0h720.1C770.7,0,785.4,14.6,785.4,32.7z"/>
<path class="st1" d="M785.4,32.7v720.1c0,7-2.2,13.5-5.9,18.8c-5.9,8.4-15.7,13.9-26.7,13.9H32.6c-18,0-32.6-14.6-32.6-32.6V32.7
	C0,14.6,14.6,0,32.6,0h720.1C770.7,0,785.4,14.6,785.4,32.7z"/>
<g>
	<path class="st2" d="M785.4,587.5v165.2c0,7-2.2,13.5-5.9,18.8c-5.9,8.4-15.7,13.9-26.7,13.9H73.5l359.9-359.9l34.3-34.3
		c33.5-33.5,87.8-33.5,121.3,0L785.4,587.5z"/>
	<path class="st3" d="M779.4,771.5c-5.9,8.4-15.7,13.9-26.7,13.9H32.6c-18,0-32.6-14.6-32.6-32.6V486.7L186.6,300
		c33.5-33.5,87.8-33.5,121.3,0l125.4,125.4L779.4,771.5z"/>
</g>
<circle class="st4" cx="525.9" cy="195" r="78.3"/>
</svg>
