<?xml version="1.0" encoding="utf-8"?>
<!-- Generator: Adobe Illustrator 25.2.0, SVG Export Plug-In . SVG Version: 6.00 Build 0)  -->
<svg version="1.1" id="Capa_1" xmlns="http://www.w3.org/2000/svg" xmlns:xlink="http://www.w3.org/1999/xlink" x="0px" y="0px"
	 viewBox="0 0 527.3 345.7" style="enable-background:new 0 0 527.3 345.7;" xml:space="preserve">
<style type="text/css">
	.st0{fill:#846531;}
	.st1{fill:url(#SVGID_1_);}
	.st2{fill:url(#SVGID_2_);}
	.st3{fill:url(#SVGID_3_);}
	.st4{clip-path:url(#SVGID_5_);}
	.st5{fill:#614A24;}
	.st6{fill:#654D26;}
	.st7{fill:#695027;}
	.st8{fill:#6C5329;}
	.st9{fill:#70562A;}
	.st10{fill:#74592B;}
	.st11{fill:#785C2D;}
	.st12{fill:#7B5E2E;}
	.st13{fill:#7F6130;}
	.st14{fill:#836431;}
	.st15{fill:#876732;}
	.st16{clip-path:url(#SVGID_7_);}
	.st17{fill:#6A4A1D;}
	.st18{fill:#806230;}
	.st19{clip-path:url(#SVGID_9_);}
	.st20{clip-path:url(#SVGID_11_);}
	.st21{fill:#949494;}
	.st22{fill:#999999;}
	.st23{fill:#9E9E9E;}
	.st24{fill:#A3A3A3;}
	.st25{fill:#A8A8A8;}
	.st26{fill:#ADADAD;}
	.st27{fill:#B3B3B3;}
	.st28{fill:#B8B8B8;}
	.st29{fill:#8F8F8F;}
	.st30{fill:#8A8A8A;}
	.st31{fill:#858585;}
	.st32{clip-path:url(#SVGID_13_);}
	.st33{fill:#5E4823;}
	.st34{fill:#856632;}
	.st35{fill:url(#SVGID_14_);stroke:#FDDB86;stroke-width:0.5;stroke-miterlimit:10;}
	.st36{fill:url(#SVGID_15_);stroke:#FEE28F;stroke-width:0.5;stroke-miterlimit:10;}
	.st37{fill:#FFFFFF;}
</style>
<polygon class="st0" points="499.9,187.5 499.8,228.2 319.4,232.6 319.5,191.9 "/>
<g>
	<linearGradient id="SVGID_1_" gradientUnits="userSpaceOnUse" x1="499.75" y1="199.075" x2="526.75" y2="199.075">
		<stop  offset="0" style="stop-color:#906E36"/>
		<stop  offset="0.8721" style="stop-color:#8F6D36"/>
		<stop  offset="1" style="stop-color:#6A4A1D"/>
	</linearGradient>
	<path class="st1" d="M526.6,170.6l0-0.1C526.6,170.5,526.6,170.6,526.6,170.6c0,0.1,0,0.1-0.1,0.2c0,0,0,0.1,0,0.1
		c0,0.1,0,0.1,0,0.2c0,0,0,0.1-0.1,0.1c0,0-0.1,0.1-0.1,0.1l0,0.1c-0.1,0.1-0.2,0.3-0.3,0.5v0c0,0,0,0,0,0l0-0.1
		c-0.1,0.2-0.3,0.4-0.5,0.5l0,0.1c-0.3,0.2-0.6,0.5-1,0.7l-24.7,14.4l-0.1,40.7l24.4-14.1l0,0l0.1-0.1c0,0,0,0,0,0l0.3-0.2
		c0.1-0.1,0.2-0.1,0.4-0.2c0.1,0,0.1-0.1,0.2-0.1c0.3-0.2,0.6-0.5,0.9-0.8l0,0c0.1-0.2,0.2-0.3,0.3-0.5l0,0c0.2-0.4,0.4-0.9,0.4-1.4
		l0.1-40.8C526.7,170.2,526.7,170.4,526.6,170.6z M524.5,213.9C524.4,213.9,524.4,213.9,524.5,213.9L524.5,213.9L524.5,213.9z"/>
	<linearGradient id="SVGID_2_" gradientUnits="userSpaceOnUse" x1="526.75" y1="170.275" x2="526.75" y2="170.275">
		<stop  offset="0" style="stop-color:#906E36"/>
		<stop  offset="0.8721" style="stop-color:#8F6D36"/>
		<stop  offset="1" style="stop-color:#6A4A1D"/>
	</linearGradient>
	<path class="st2" d="M526.8,170.5c0-0.1,0-0.3,0-0.4V170.5z"/>
</g>
<linearGradient id="SVGID_3_" gradientUnits="userSpaceOnUse" x1="0.35" y1="240.6945" x2="499.6963" y2="240.6945">
	<stop  offset="0" style="stop-color:#473213"/>
	<stop  offset="2.234772e-02" style="stop-color:#493314"/>
	<stop  offset="0.5771" style="stop-color:#5C4019"/>
	<stop  offset="0.6114" style="stop-color:#6A4A1D"/>
	<stop  offset="0.6648" style="stop-color:#6A4A1D"/>
	<stop  offset="1" style="stop-color:#6A4A1D"/>
</linearGradient>
<path class="st3" d="M299.3,303.6l0,0.1c-1.3,0.6-2.6,1-4,1.1c0,0-0.1,0-0.1,0l0,0c-2.3,0.2-4.6-0.1-6.7-1.1h0l0,0.1L2.8,138.9
	c0,0-0.1,0-0.1-0.1l0,0c-0.4-0.2-0.8-0.5-1.2-0.8c-0.6-0.6-1-1.4-1-2.3l-0.1,40.8c0.1,0.9,0.4,1.7,1,2.3c0.4,0.4,0.8,0.7,1.3,0.9
	l0,0l285.9,165l0-0.2c0.4,0.2,0.9,0.5,0.9,0.5c0.3,0.1,1.9,0.5,2,0.6c0.3,0,0.5,0.1,0.8,0.1c0,0,0,0,0.1,0c1.2,0.1,3.7-0.1,3.7-0.1
	c0.4-0.1,0.9-0.2,1.4-0.4c0.6-0.2,1.2-0.4,1.7-0.7l200.4-116.6l0.1-40.7L299.3,303.6z"/>
<g>
	<g>
		<g>
			<defs>
				<path id="SVGID_4_" d="M225.4,109.5L225.4,109.5c-6.1,3.6-9.9,7.9-11.4,12.5c0-13.6,0.1-27.2,0.1-40.8
					c1.5-4.6,5.3-8.9,11.4-12.5c16.3-9.5,42.8-9.5,59.2,0l0,0c8.2,4.7,12.3,10.9,12.4,17.2c0,13.6-0.1,27.2-0.1,40.8
					c0-6.2-4.1-12.4-12.4-17.2C268.1,100.1,241.7,100.1,225.4,109.5z"/>
			</defs>
			<clipPath id="SVGID_5_">
				<use xlink:href="#SVGID_4_"  style="overflow:visible;"/>
			</clipPath>
			<g class="st4">
				<g>
					<path class="st5" d="M297,86l-0.1,40.8c0-6.2-4.1-12.5-12.4-17.2c-1.9-1.1-3.9-2.1-6-2.9l0.1-40.8c2.1,0.8,4.1,1.8,6,2.9
						C292.9,73.5,297.1,79.8,297,86"/>
					<path class="st6" d="M278.6,65.9l-0.1,40.8c-1.6-0.7-3.3-1.2-5.1-1.7l0.1-40.8C275.2,64.6,277,65.2,278.6,65.9"/>
					<path class="st7" d="M273.6,64.2l-0.1,40.8c-1.4-0.4-2.9-0.8-4.4-1.1l0.1-40.8C270.6,63.4,272.1,63.8,273.6,64.2"/>
					<path class="st8" d="M269.1,63.1l-0.1,40.7c-1.4-0.3-2.8-0.5-4.1-0.7l0.1-40.8C266.5,62.6,267.9,62.8,269.1,63.1"/>
					<path class="st9" d="M265.1,62.4l-0.1,40.8c-1.3-0.2-2.7-0.3-4.1-0.4L261,62C262.4,62,263.6,62.2,265.1,62.4"/>
					<path class="st10" d="M261,61.9l-0.1,40.8c-1.4-0.1-2.7-0.2-4.1-0.2l0.1-40.8C258.2,61.7,259.6,61.8,261,61.9"/>
					<path class="st11" d="M256.9,61.7l-0.1,40.8c-1.4,0-2.9,0-4.3,0l0.1-40.8C254,61.7,255.5,61.7,256.9,61.7"/>
					<path class="st12" d="M252.6,61.7l-0.1,40.8c-1.6,0-3.1,0.2-4.6,0.3l0.1-40.8C249.5,61.9,251,61.8,252.6,61.7"/>
					<path class="st13" d="M248,62l-0.1,40.8c-1.8,0.2-3.6,0.4-5.3,0.7l0.1-40.8C244.4,62.4,246.2,62.2,248,62"/>
					<path class="st14" d="M242.6,62.8l-0.1,40.7c-2.7,0.5-5.3,1.2-7.9,2l0.1-40.8C237.2,63.9,239.9,63.2,242.6,62.8"/>
					<path class="st15" d="M234.7,64.7l-0.1,40.8c-3.2,1-6.3,2.3-9.2,4l-0.5,0.3L225,69l0.5-0.3C228.4,67.1,231.5,65.7,234.7,64.7"
						/>
					<path class="st14" d="M225,69.1l-0.1,40.8c-1.9,1.1-3.7,2.4-5.3,3.9l0.1-40.8C221.4,71.5,223.1,70.2,225,69.1"/>
					<path class="st13" d="M219.7,73l-0.1,40.8c-0.9,0.9-1.8,1.8-2.6,2.8l0.1-40.8C217.9,74.8,218.8,73.8,219.7,73"/>
					<path class="st12" d="M217.1,75.8l-0.1,40.7c-0.6,0.8-1.2,1.6-1.7,2.5l0.1-40.8C216,77.4,216.5,76.5,217.1,75.8"/>
					<path class="st11" d="M215.5,78.3l-0.1,40.8c-0.4,0.8-0.8,1.6-1.1,2.4l0.1-40.8C214.7,79.8,215,79,215.5,78.3"/>
					<path class="st10" d="M214.2,80.7l-0.1,40.8c-0.3,0.8-0.5,1.6-0.7,2.4l0.1-40.8C213.8,82.2,214.1,81.4,214.2,80.7"/>
				</g>
			</g>
		</g>
	</g>
</g>
<g>
	<g>
		<g>
			<defs>
				<path id="SVGID_6_" d="M296.9,126.8L296.9,126.8c0-13.7,0.1-27.3,0.1-40.9V86C297,98.3,297,114.6,296.9,126.8z"/>
			</defs>
			<clipPath id="SVGID_7_">
				<use xlink:href="#SVGID_6_"  style="overflow:visible;"/>
			</clipPath>
			<g class="st16">
				<g>
					<path class="st5" d="M297,86l-0.1,40.8c0-6.2-4.1-12.5-12.4-17.2c-1.9-1.1-3.9-2.1-6-2.9l0.1-40.8c2.1,0.8,4.1,1.8,6,2.9
						C292.9,73.5,297.1,79.8,297,86"/>
				</g>
			</g>
		</g>
	</g>
</g>
<polygon class="st17" points="227.9,1.8 227.7,42.5 68,135.3 68.2,94.6 "/>
<polygon class="st18" points="156.4,98.6 156.2,139.4 68,135.3 68.2,94.6 "/>
<g>
	<g>
		<g>
			<defs>
				<path id="SVGID_8_" d="M163.4,102.9l-0.1,40.7c-0.2-1.3-1-2.4-2.2-3c-1.5-0.8-3.1-1.2-4.8-1.3l0.1-40.7c1.7,0,3.3,0.5,4.8,1.3
					C162.4,100.5,163.2,101.6,163.4,102.9z"/>
			</defs>
			<clipPath id="SVGID_9_">
				<use xlink:href="#SVGID_8_"  style="overflow:visible;"/>
			</clipPath>
			<g class="st19">
				<g>
					<path class="st5" d="M163.4,102.9l-0.1,40.7c-0.2-1.3-1-2.4-2.2-3c-0.4-0.2-0.7-0.4-1.1-0.5l0.1-40.8c0.4,0.1,0.8,0.3,1.1,0.5
						C162.4,100.4,163.2,101.5,163.4,102.9"/>
					<path class="st6" d="M160.1,99.4l-0.1,40.8c-0.3-0.1-0.6-0.2-0.9-0.3l0.1-40.8C159.5,99.2,159.8,99.3,160.1,99.4"/>
					<path class="st7" d="M159.2,99.1l-0.1,40.8l-0.8-0.2l0.2-40.8C158.7,98.9,158.9,99,159.2,99.1"/>
					<path class="st8" d="M158.4,98.9l-0.1,40.8c-0.2,0-0.5-0.1-0.8-0.1l0.1-40.8L158.4,98.9"/>
					<path class="st9" d="M157.6,98.7l-0.1,40.8c-0.2,0-0.5-0.1-0.7-0.1l0.1-40.8L157.6,98.7"/>
					<path class="st10" d="M156.9,98.7l-0.1,40.8c-0.2,0-0.3,0-0.5,0l0.1-40.8H156.9"/>
				</g>
			</g>
		</g>
	</g>
</g>
<g>
	<g>
		<g>
			<defs>
				<path id="SVGID_10_" d="M297,86l-0.1,40.8c0,6.2-4.1,12.3-12.2,17c-16.3,9.5-42.8,9.5-59.1,0c-8.2-4.8-12.4-11-12.4-17.2
					l0.1-40.8c0,6.2,4.1,12.5,12.3,17.2c16.4,9.5,42.9,9.5,59.2,0C293,98.3,297,92.2,297,86z"/>
			</defs>
			<clipPath id="SVGID_11_">
				<use xlink:href="#SVGID_10_"  style="overflow:visible;"/>
			</clipPath>
			<g class="st20">
				<g>
					<path class="st21" d="M297,86l-0.1,40.8c0,0.1,0,0.2,0,0.4l0.1-40.8V86"/>
					<path class="st22" d="M297,86.4l-0.1,40.8c0,0.8-0.1,1.6-0.3,2.4l0.1-40.8C296.9,88,297,87.2,297,86.4"/>
					<path class="st23" d="M296.8,88.8l-0.1,40.7c-0.2,0.8-0.4,1.6-0.7,2.4l0.1-40.8C296.4,90.3,296.6,89.5,296.8,88.8"/>
					<path class="st24" d="M296.1,91.1l-0.1,40.8c-0.3,0.8-0.7,1.6-1.1,2.4l0.1-40.8C295.4,92.7,295.8,91.9,296.1,91.1"/>
					<path class="st25" d="M295,93.5l-0.1,40.8c-0.5,0.9-1.1,1.7-1.7,2.5l0.1-40.8C293.9,95.2,294.5,94.4,295,93.5"/>
					<path class="st26" d="M293.2,96l-0.1,40.8c-0.8,1-1.7,1.9-2.6,2.8l0.1-40.8C291.6,97.9,292.5,97,293.2,96"/>
					<path class="st27" d="M290.6,98.8l-0.1,40.8c-1.6,1.5-3.4,2.8-5.3,3.9l0.1-40.8C287.2,101.6,289.1,100.3,290.6,98.8"/>
					<path class="st28" d="M285.4,102.7l-0.1,40.8l-0.5,0.3c-2.9,1.7-6,3-9.2,4l0.1-40.8c3.2-1,6.3-2.3,9.2-4L285.4,102.7"/>
					<path class="st27" d="M275.6,107.1l-0.1,40.8c-2.6,0.8-5.2,1.5-7.9,2l0.1-40.8C270.5,108.6,273.1,107.9,275.6,107.1"/>
					<path class="st26" d="M267.8,109l-0.1,40.8c-1.8,0.3-3.5,0.6-5.3,0.7l0.1-40.8C264.2,109.6,266,109.4,267.8,109"/>
					<path class="st25" d="M262.5,109.8l-0.1,40.7c-1.5,0.1-3.1,0.3-4.6,0.3l0.1-40.8C259.4,110.1,261,109.9,262.5,109.8"/>
					<path class="st24" d="M257.8,110.1l-0.1,40.8c-1.4,0-2.9,0-4.3,0l0.1-40.8C255,110.1,256.4,110.1,257.8,110.1"/>
					<path class="st23" d="M253.5,110.1l-0.1,40.8c-1.4,0-2.8-0.1-4.1-0.2l0.1-40.8C250.8,110,252.1,110.1,253.5,110.1"/>
					<path class="st22" d="M249.4,109.9l-0.1,40.8c-1.4-0.1-2.7-0.3-4.1-0.5l0.1-40.8C246.7,109.6,248,109.8,249.4,109.9"/>
					<path class="st21" d="M245.4,109.4l-0.1,40.7c-1.4-0.2-2.8-0.4-4.1-0.7l0.1-40.8C242.6,109,244,109.2,245.4,109.4"/>
					<path class="st29" d="M241.2,108.7l-0.1,40.8c-1.5-0.3-2.9-0.7-4.4-1.1l0.1-40.8C238.2,108.1,239.7,108.4,241.2,108.7"/>
					<path class="st30" d="M236.8,107.6l-0.1,40.8c-1.7-0.5-3.4-1.1-5.1-1.7l0.1-40.8C233.4,106.6,235.1,107.1,236.8,107.6"/>
					<path class="st31" d="M231.8,105.9l-0.1,40.8c-2.1-0.8-4.1-1.8-6-2.9c-8.2-4.8-12.4-11-12.4-17.2l0.1-40.8
						c0,6.2,4.1,12.5,12.3,17.2C227.7,104.1,229.7,105.1,231.8,105.9"/>
				</g>
			</g>
		</g>
	</g>
</g>
<g>
	<g>
		<g>
			<defs>
				<path id="SVGID_12_" d="M314.1,137.1l-0.1,40.8c-0.3-1.3-1.1-2.3-2.2-2.9c-1.9-1-4-1.4-6.1-1.3l0.1-40.8
					c2.1-0.1,4.2,0.3,6.1,1.3C313.1,134.7,313.9,135.8,314.1,137.1z"/>
			</defs>
			<clipPath id="SVGID_13_">
				<use xlink:href="#SVGID_12_"  style="overflow:visible;"/>
			</clipPath>
			<g class="st32">
				<g>
					<path class="st5" d="M314.1,137.1l-0.1,40.8c-0.3-1.3-1.1-2.3-2.2-2.9c-0.4-0.2-0.7-0.4-1.1-0.5l0.1-40.8
						c0.4,0.2,0.7,0.3,1.1,0.5C313.1,134.7,313.9,135.8,314.1,137.1"/>
					<path class="st6" d="M310.9,133.6l-0.1,40.8c-0.3-0.1-0.6-0.2-0.9-0.3l0.1-40.8C310.2,133.4,310.6,133.5,310.9,133.6"/>
					<path class="st7" d="M309.9,133.3l-0.1,40.8c-0.3-0.1-0.5-0.1-0.8-0.2l0.1-40.8L309.9,133.3"/>
					<path class="st8" d="M309.1,133.1l-0.1,40.8l-0.8-0.1l0.1-40.8L309.1,133.1"/>
					<path class="st9" d="M308.4,133l-0.1,40.8l-0.7-0.1l0.1-40.8L308.4,133"/>
					<path class="st10" d="M307.6,132.9l-0.1,40.8h-0.7l0.1-40.8H307.6"/>
					<path class="st11" d="M306.9,132.9l-0.1,40.8c-0.3,0-0.5,0-0.8,0l0.1-40.8H306.9"/>
					<path class="st12" d="M306.1,132.9l-0.1,40.8h-0.2l0.1-40.8H306.1"/>
				</g>
			</g>
		</g>
	</g>
</g>
<polygon class="st33" points="166,140.3 165.9,181 163.2,143.6 163.4,102.9 "/>
<polygon class="st34" points="305.9,132.9 305.8,173.7 165.9,181 166,140.3 "/>
<polygon class="st33" points="319.5,191.9 319.4,232.6 314.1,177.8 314.1,137.1 "/>
<linearGradient id="SVGID_14_" gradientUnits="userSpaceOnUse" x1="274.8031" y1="-118.8678" x2="246.8031" y2="229.1322" gradientTransform="matrix(1 0 0 -1 0 348.95)">
	<stop  offset="2.591463e-02" style="stop-color:#936722"/>
	<stop  offset="0.5399" style="stop-color:#C48D35"/>
	<stop  offset="1" style="stop-color:#9E6A1A"/>
</linearGradient>
<path class="st35" d="M227.9,1.8L68.2,94.6l88.2,4.1c1.7,0,3.3,0.5,4.8,1.3c1.2,0.6,2,1.7,2.2,3l2.6,37.4l139.9-7.4
	c2.1-0.1,4.2,0.3,6.1,1.3c1.1,0.5,1.9,1.5,2.2,2.7l5.3,55l180.4-4.4L299.5,304c-3.4,1.7-7.4,1.7-10.8,0L2.8,138.9
	c-3-1.7-3-4.5,0-6.2L227.9,1.8z"/>
<linearGradient id="SVGID_15_" gradientUnits="userSpaceOnUse" x1="303.8462" y1="133.8978" x2="286.8462" y2="354.8978" gradientTransform="matrix(1 0 0 -1 0 348.95)">
	<stop  offset="0" style="stop-color:#FFEF9F"/>
	<stop  offset="0.472" style="stop-color:#FDD57F"/>
	<stop  offset="1" style="stop-color:#D4A855"/>
</linearGradient>
<path class="st36" d="M524.5,166.9c3,1.7,3,4.5,0,6.2l-24.7,14.4l-180.4,4.4l-5.3-54.8c-0.3-1.3-1.1-2.3-2.2-2.9
	c-1.9-1-4-1.4-6.1-1.3L166,140.3l-2.6-37.4c-0.2-1.3-1-2.4-2.2-3c-1.5-0.8-3.1-1.2-4.8-1.2l-88.2-4.1L227.9,1.8
	c3.4-1.7,7.4-1.7,10.8,0L524.5,166.9z M225.7,103c16.4,9.5,42.9,9.5,59.2,0s16.2-24.8-0.2-34.3s-42.9-9.5-59.1,0
	S209.2,93.6,225.7,103"/>
<path class="st37" d="M284.6,68.8c16.4,9.5,16.5,24.8,0.2,34.3s-42.8,9.5-59.2,0s-16.5-24.8-0.2-34.3S268.2,59.3,284.6,68.8z"/>
</svg>
