<?xml version="1.0" encoding="utf-8"?>
<!-- Generator: Adobe Illustrator 25.2.0, SVG Export Plug-In . SVG Version: 6.00 Build 0)  -->
<svg version="1.1" id="Capa_1" xmlns="http://www.w3.org/2000/svg" xmlns:xlink="http://www.w3.org/1999/xlink" x="0px" y="0px"
	 viewBox="0 0 468.9 312.5" style="enable-background:new 0 0 468.9 312.5;" xml:space="preserve">
<style type="text/css">
	.st0{fill:url(#SVGID_1_);}
	.st1{clip-path:url(#SVGID_3_);}
	.st2{fill:#614A24;}
	.st3{fill:#654D26;}
	.st4{fill:#695027;}
	.st5{fill:#6C5329;}
	.st6{fill:#70562A;}
	.st7{fill:#74592B;}
	.st8{fill:#785C2D;}
	.st9{fill:#7B5E2E;}
	.st10{fill:#7F6130;}
	.st11{fill:#836431;}
	.st12{fill:#876732;}
	.st13{clip-path:url(#SVGID_5_);}
	.st14{fill:#644D26;}
	.st15{fill:#906E36;}
	.st16{clip-path:url(#SVGID_7_);}
	.st17{fill:#949494;}
	.st18{fill:#999999;}
	.st19{fill:#9E9E9E;}
	.st20{fill:#A3A3A3;}
	.st21{fill:#A8A8A8;}
	.st22{fill:#ADADAD;}
	.st23{fill:#B3B3B3;}
	.st24{fill:#B8B8B8;}
	.st25{fill:#493314;}
	.st26{clip-path:url(#SVGID_9_);}
	.st27{fill:#C5C5C5;}
	.st28{fill:url(#SVGID_10_);}
	.st29{fill:url(#SVGID_11_);}
	.st30{fill:url(#SVGID_12_);stroke:#FDD57F;stroke-width:0.5;stroke-miterlimit:10;}
	.st31{clip-path:url(#SVGID_14_);}
	.st32{clip-path:url(#SVGID_16_);}
	.st33{fill:#858585;}
	.st34{fill:#8A8A8A;}
	.st35{fill:#8F8F8F;}
	.st36{clip-path:url(#SVGID_18_);}
	.st37{clip-path:url(#SVGID_20_);}
	.st38{fill:#898989;}
	.st39{clip-path:url(#SVGID_22_);}
	.st40{clip-path:url(#SVGID_24_);}
	.st41{clip-path:url(#SVGID_26_);}
	.st42{clip-path:url(#SVGID_28_);}
	.st43{clip-path:url(#SVGID_30_);}
	.st44{clip-path:url(#SVGID_32_);}
	.st45{clip-path:url(#SVGID_34_);}
	.st46{clip-path:url(#SVGID_36_);}
	.st47{clip-path:url(#SVGID_38_);}
	.st48{clip-path:url(#SVGID_40_);}
	.st49{clip-path:url(#SVGID_42_);}
	.st50{clip-path:url(#SVGID_44_);}
	.st51{fill:#4F3815;}
	.st52{fill:#523A16;}
	.st53{fill:#553C17;}
	.st54{fill:#583D18;}
	.st55{fill:#5A3F18;}
	.st56{fill:#5D4119;}
	.st57{fill:#60431A;}
	.st58{fill:#63451B;}
	.st59{fill:url(#SVGID_45_);}
	.st60{clip-path:url(#SVGID_47_);}
	.st61{fill:#473213;}
	.st62{clip-path:url(#SVGID_49_);}
	.st63{clip-path:url(#SVGID_51_);}
	.st64{clip-path:url(#SVGID_53_);}
	.st65{clip-path:url(#SVGID_55_);}
	.st66{clip-path:url(#SVGID_57_);}
	.st67{clip-path:url(#SVGID_59_);}
	.st68{clip-path:url(#SVGID_61_);}
	.st69{clip-path:url(#SVGID_63_);}
	.st70{fill:#6A4A1D;}
	.st71{clip-path:url(#SVGID_65_);}
	.st72{fill:url(#SVGID_66_);stroke:#FEDE8A;stroke-width:0.5;stroke-miterlimit:10;}
	.st73{clip-path:url(#SVGID_68_);}
	.st74{fill:#4D3615;}
	.st75{fill:#4A3414;}
	.st76{clip-path:url(#SVGID_70_);}
	.st77{clip-path:url(#SVGID_72_);}
	.st78{clip-path:url(#SVGID_74_);}
	.st79{fill:#FFFFFF;}
	.st80{fill:url(#SVGID_75_);}
	.st81{fill:url(#SVGID_76_);}
	.st82{fill:url(#SVGID_77_);stroke:#FDD57F;stroke-width:0.5;stroke-miterlimit:10;}
	.st83{fill:url(#SVGID_78_);stroke:#D4A855;stroke-width:0.5;stroke-miterlimit:10;}
	.st84{fill:url(#SVGID_79_);}
	.st85{fill:url(#SVGID_80_);stroke:#FDDB87;stroke-width:0.5;stroke-miterlimit:10;}
</style>
<linearGradient id="SVGID_1_" gradientUnits="userSpaceOnUse" x1="95.6" y1="115.4" x2="110.8" y2="115.4">
	<stop  offset="8.524463e-08" style="stop-color:#6A4A1D"/>
	<stop  offset="0.2173" style="stop-color:#6A4A1D"/>
	<stop  offset="0.4453" style="stop-color:#583D18"/>
	<stop  offset="0.6151" style="stop-color:#573C18"/>
	<stop  offset="0.9955" style="stop-color:#473213"/>
</linearGradient>
<path class="st0" d="M110.8,89.5l0-0.1c0,0.2,0,0.3,0,0.5c0,0.1,0,0.1-0.1,0.2l0,0.1c-0.1,0.5-0.3,0.9-0.6,1.3
	c0,0.1-0.1,0.1-0.1,0.2c-0.5,0.7-1.2,1.3-2.2,1.9l-12.1,7.1l-0.1,40.7l12.1-7c0,0,0.1,0,0.1-0.1l0,0.2l0.1-0.1l0-0.1c0,0,0,0,0,0
	l0,0.1c0.5-0.3,0.9-0.6,1.3-1c0.2-0.2,0.4-0.5,0.6-0.7c0.1-0.2,0.3-0.4,0.4-0.6s0.2-0.4,0.3-0.6l0-0.2l0,0l0,0.2
	c0.1-0.2,0.2-0.4,0.2-0.6l0.1-40.8c0,0,0,0,0,0L110.8,89.5C110.8,89.5,110.8,89.5,110.8,89.5z"/>
<g>
	<g>
		<g>
			<defs>
				<path id="SVGID_2_" d="M299.8,138.6c-4.6-2.3-10-2.3-14.6,0l0.1-40.8c4.6-2.3,10-2.3,14.6,0c2,1.2,3,2.7,3,4.2l-0.1,40.7
					C302.9,141.3,301.8,139.8,299.8,138.6z"/>
			</defs>
			<clipPath id="SVGID_3_">
				<use xlink:href="#SVGID_2_"  style="overflow:visible;"/>
			</clipPath>
			<g class="st1">
				<g>
					<path class="st2" d="M303,102.1l-0.1,40.8c0-1.5-1-3.1-3-4.3c-0.5-0.3-1-0.5-1.5-0.7l0.1-40.8c0.5,0.2,1,0.4,1.5,0.7
						C302,99,303,100.6,303,102.1"/>
					<path class="st3" d="M298.5,97.2l-0.1,40.8c-0.4-0.2-0.8-0.3-1.2-0.4l0.1-40.8C297.6,96.9,298,97,298.5,97.2"/>
					<path class="st4" d="M297.2,96.7l-0.1,40.8c-0.4-0.1-0.7-0.2-1.1-0.3l0.1-40.8C296.5,96.5,296.8,96.6,297.2,96.7"/>
					<path class="st5" d="M296.1,96.5l-0.1,40.8l-1-0.2l0.1-40.8C295.5,96.3,295.8,96.4,296.1,96.5"/>
					<path class="st6" d="M295.1,96.3L295,137l-1-0.1l0.1-40.8C294.4,96.1,294.8,96.2,295.1,96.3"/>
					<path class="st7" d="M294.1,96.2L294,137c-0.3,0-0.7,0-1-0.1l0.1-40.8L294.1,96.2"/>
					<path class="st8" d="M293.1,96.1l-0.1,40.8h-1.1l0.1-40.8C292.4,96.1,292.7,96.1,293.1,96.1"/>
					<path class="st9" d="M292,96.1l-0.1,40.8c-0.4,0-0.8,0-1.1,0.1l0.1-40.8C291.2,96.2,291.6,96.1,292,96.1"/>
					<path class="st10" d="M290.9,96.2l-0.1,40.8c-0.4,0-0.9,0.1-1.3,0.2l0.1-40.8C290,96.3,290.4,96.3,290.9,96.2"/>
					<path class="st11" d="M289.5,96.4l-0.1,40.8c-0.7,0.1-1.3,0.3-2,0.5l0.1-40.8C288.2,96.7,288.9,96.5,289.5,96.4"/>
					<path class="st12" d="M287.6,96.9l-0.1,40.8c-0.8,0.3-1.5,0.6-2.2,1l0.1-40.8C286.1,97.5,286.8,97.1,287.6,96.9"/>
				</g>
			</g>
		</g>
	</g>
</g>
<g>
	<g>
		<g>
			<defs>
				<path id="SVGID_4_" d="M302.9,142.9L302.9,142.9l0.1-40.8l0,0C303,114.3,302.9,130.6,302.9,142.9z"/>
			</defs>
			<clipPath id="SVGID_5_">
				<use xlink:href="#SVGID_4_"  style="overflow:visible;"/>
			</clipPath>
			<g class="st13">
				<g>
					<path class="st2" d="M303,102.1l-0.1,40.8c0-1.5-1-3.1-3-4.3c-0.5-0.3-1-0.5-1.5-0.7l0.1-40.8c0.5,0.2,1,0.4,1.5,0.7
						C302,99,303,100.6,303,102.1"/>
				</g>
			</g>
		</g>
	</g>
</g>
<polygon class="st14" points="273.2,104.9 273.1,145.7 270.7,144.3 270.8,103.5 "/>
<polygon class="st15" points="285.3,97.9 285.2,138.6 273.1,145.7 273.2,104.9 "/>
<g>
	<g>
		<g>
			<defs>
				<path id="SVGID_6_" d="M303,102.1l-0.1,40.8c0,1.5-1,3-3,4.2l0.1-40.8C302,105.2,303,103.6,303,102.1z"/>
			</defs>
			<clipPath id="SVGID_7_">
				<use xlink:href="#SVGID_6_"  style="overflow:visible;"/>
			</clipPath>
			<g class="st16">
				<g>
					<path class="st17" d="M303,102.1l-0.1,40.8v0.1L303,102.1L303,102.1"/>
					<path class="st18" d="M303,102.2l-0.1,40.8c0,0.2,0,0.4-0.1,0.6l0.1-40.8C302.9,102.6,303,102.4,303,102.2"/>
					<path class="st19" d="M302.9,102.8l-0.1,40.8c0,0.2-0.1,0.4-0.2,0.6l0.1-40.8C302.8,103.2,302.9,103,302.9,102.8"/>
					<path class="st20" d="M302.7,103.4l-0.1,40.8c-0.1,0.2-0.2,0.4-0.3,0.6l0.1-40.8C302.6,103.8,302.7,103.6,302.7,103.4"/>
					<path class="st21" d="M302.5,104l-0.1,40.8c-0.1,0.2-0.3,0.4-0.4,0.6l0.1-40.8C302.2,104.4,302.3,104.2,302.5,104"/>
					<path class="st22" d="M302,104.6l-0.1,40.8c-0.2,0.2-0.4,0.5-0.6,0.7l0.1-40.8C301.7,105.1,301.9,104.8,302,104.6"/>
					<path class="st23" d="M301.4,105.3l-0.1,40.7c-0.4,0.4-0.8,0.7-1.3,1l0.1-40.8C300.6,106,301,105.6,301.4,105.3"/>
					<path class="st24" d="M300.1,106.2L300,147l-0.1,0.1l0.1-40.8L300.1,106.2"/>
				</g>
			</g>
		</g>
	</g>
</g>
<polygon class="st25" points="438.6,119 438.5,159.8 262.9,58.3 263,17.6 "/>
<g>
	<g>
		<g>
			<defs>
				<path id="SVGID_8_" d="M375.4,110.5l-0.1,40.8c-4.6-2.3-10-2.3-14.6,0l0.1-40.8C365.4,108.2,370.8,108.2,375.4,110.5z"/>
			</defs>
			<clipPath id="SVGID_9_">
				<use xlink:href="#SVGID_8_"  style="overflow:visible;"/>
			</clipPath>
			<g class="st26">
				<g>
					<path class="st2" d="M375.4,110.5l-0.1,40.8c-0.5-0.3-1-0.5-1.5-0.7l0.1-40.8C374.4,110,374.9,110.3,375.4,110.5"/>
					<path class="st3" d="M373.9,109.8l-0.1,40.8c-0.4-0.2-0.8-0.3-1.3-0.4l0.1-40.8C373.1,109.5,373.5,109.7,373.9,109.8"/>
					<path class="st4" d="M372.6,109.4l-0.1,40.8c-0.4-0.1-0.7-0.2-1.1-0.3l0.1-40.8C371.9,109.2,372.3,109.3,372.6,109.4"/>
					<path class="st5" d="M371.6,109.1l-0.1,40.8l-1-0.2l0.1-40.8C370.9,109,371.2,109.1,371.6,109.1"/>
					<path class="st6" d="M370.5,109l-0.1,40.8c-0.3-0.1-0.7-0.1-1-0.1l0.1-40.8C369.9,108.9,370.2,108.9,370.5,109"/>
					<path class="st7" d="M369.5,108.8l-0.1,40.8c-0.3,0-0.7-0.1-1-0.1l0.1-40.8C368.9,108.8,369.2,108.8,369.5,108.8"/>
					<path class="st8" d="M368.5,108.8l-0.1,40.8c-0.4,0-0.7,0-1.1,0l0.1-40.8C367.8,108.8,368.2,108.8,368.5,108.8"/>
					<path class="st9" d="M367.5,108.8l-0.1,40.8c-0.4,0-0.8,0-1.1,0.1l0.1-40.8C366.7,108.9,367.1,108.8,367.5,108.8"/>
					<path class="st10" d="M366.3,108.9l-0.1,40.8c-0.5,0.1-0.9,0.1-1.3,0.2l0.1-40.8C365.4,109,365.9,108.9,366.3,108.9"/>
					<path class="st11" d="M365,109.1l-0.1,40.8c-0.7,0.1-1.3,0.3-2,0.5l0.1-40.8C363.7,109.3,364.3,109.2,365,109.1"/>
					<path class="st12" d="M363.1,109.5l-0.1,40.8c-0.8,0.3-1.5,0.6-2.3,1l0.1-40.8C361.5,110.1,362.3,109.8,363.1,109.5"/>
				</g>
			</g>
		</g>
	</g>
</g>
<polygon class="st27" points="300,106.3 299.9,147.1 287.8,154.1 287.9,113.4 "/>
<polygon class="st14" points="295.2,117.6 295.1,158.3 287.8,154.1 287.9,113.4 "/>
<linearGradient id="SVGID_10_" gradientUnits="userSpaceOnUse" x1="438.5" y1="128.15" x2="468.9" y2="128.15">
	<stop  offset="0" style="stop-color:#6A4A1D"/>
	<stop  offset="0.805" style="stop-color:#6A4A1D"/>
	<stop  offset="1" style="stop-color:#60431A"/>
</linearGradient>
<path class="st28" d="M468.7,98.1l0-0.2c0,0.3-0.2,0.7-0.3,1.2c0,0,0,0,0,0l0-0.1c-0.2,0.4-0.3,0.7-0.5,1.1
	c-0.1,0.2-0.2,0.3-0.3,0.5c-0.2,0.2-0.3,0.4-0.4,0.6c-0.1,0.1-0.2,0.2-0.2,0.3l0-0.1c-0.4,0.5-0.8,1-1.3,1.4
	c-0.8,0.8-1.6,1.4-2.6,1.9l0,0.1c0,0,0,0,0,0h-0.2l0,0.1L438.6,119l-0.1,40.8l24.3-14.1c1.8-1,3.2-2.3,4.2-3.6l0,0.1
	c0.3-0.4,0.6-0.8,0.8-1.2c0-0.1,0.1-0.2,0.1-0.2c0.2-0.3,0.3-0.6,0.4-0.9l0,0c0,0,0-0.1,0-0.1c0.2-0.4,0.3-0.9,0.4-1.3l0,0.2
	c0-0.4,0.1-0.8,0.1-1.2l0.1-40.8c0-0.1,0-0.1,0-0.2C468.9,97,468.8,97.6,468.7,98.1z"/>
<linearGradient id="SVGID_11_" gradientUnits="userSpaceOnUse" x1="392.7418" y1="223.1473" x2="428.9971" y2="163.4027" gradientTransform="matrix(1 0 0 -1 0 314)">
	<stop  offset="0" style="stop-color:#FFEF9F"/>
	<stop  offset="0.472" style="stop-color:#FDD57F"/>
	<stop  offset="1" style="stop-color:#D4A855"/>
</linearGradient>
<polygon class="st29" points="438.6,119 438.5,159.7 414.3,173.8 414.4,133.1 "/>
<linearGradient id="SVGID_12_" gradientUnits="userSpaceOnUse" x1="434.5889" y1="112.6429" x2="320.4612" y2="353.9195" gradientTransform="matrix(1 0 0 -1 0 314)">
	<stop  offset="2.591463e-02" style="stop-color:#936722"/>
	<stop  offset="0.5399" style="stop-color:#C48D35"/>
	<stop  offset="1" style="stop-color:#9E6A1A"/>
</linearGradient>
<path class="st30" d="M462.8,88c8.1,4.7,8.1,12.2,0.1,16.9L438.6,119L263,17.6l24.2-14.1c8-4.7,21.1-4.7,29.2,0L462.8,88z"/>
<g>
	<g>
		<g>
			<defs>
				<path id="SVGID_13_" d="M217.2,144.2c-7.3,4.2-11,9.8-11,15.4l0.1-40.8c0-5.6,3.7-11.1,11-15.4c14.7-8.6,38.7-8.6,53.5,0
					l-0.1,40.8C255.9,135.7,231.9,135.7,217.2,144.2z"/>
			</defs>
			<clipPath id="SVGID_14_">
				<use xlink:href="#SVGID_13_"  style="overflow:visible;"/>
			</clipPath>
			<g class="st31">
				<g>
					<path class="st2" d="M270.8,103.5l-0.1,40.8c-1.8-1-3.6-1.9-5.5-2.6l0.1-40.8C267.2,101.6,269,102.5,270.8,103.5"/>
					<path class="st3" d="M265.3,100.9l-0.1,40.8c-1.5-0.6-3-1.1-4.6-1.6l0.1-40.8C262.3,99.8,263.8,100.3,265.3,100.9"/>
					<path class="st4" d="M260.7,99.3l-0.1,40.8c-1.3-0.4-2.6-0.7-3.9-1l0.1-40.8C258.1,98.6,259.4,98.9,260.7,99.3"/>
					<path class="st5" d="M256.8,98.4l-0.1,40.8c-1.2-0.3-2.5-0.5-3.8-0.6l0.1-40.8C254.3,97.9,255.5,98.1,256.8,98.4"/>
					<path class="st6" d="M253,97.7l-0.1,40.8c-1.2-0.2-2.4-0.3-3.7-0.4l0.1-40.8C250.6,97.4,251.8,97.5,253,97.7"/>
					<path class="st7" d="M249.4,97.3l-0.1,40.8c-1.2-0.1-2.5-0.2-3.7-0.2l0.1-40.8C246.9,97.1,248.1,97.2,249.4,97.3"/>
					<path class="st8" d="M245.6,97.1l-0.1,40.8c-1.3,0-2.6,0-3.9,0l0.1-40.8C243,97.1,244.3,97.1,245.6,97.1"/>
					<path class="st9" d="M241.8,97.1l-0.1,40.8c-1.4,0-2.8,0.1-4.2,0.3l0.1-40.8C238.9,97.3,240.3,97.2,241.8,97.1"/>
					<path class="st10" d="M237.6,97.4l-0.1,40.8c-1.6,0.2-3.2,0.4-4.8,0.7l0.1-40.8C234.3,97.8,235.9,97.6,237.6,97.4"/>
					<path class="st11" d="M232.7,98.1l-0.1,40.8c-2.4,0.4-4.8,1-7.2,1.8l0.1-40.8C227.9,99.1,230.3,98.5,232.7,98.1"/>
					<path class="st12" d="M225.6,99.8l-0.1,40.8c-2.9,0.9-5.7,2.1-8.3,3.6l-0.5,0.3l0.1-40.8l0.5-0.3
						C219.9,102,222.7,100.8,225.6,99.8"/>
					<path class="st11" d="M216.8,103.8l-0.1,40.8c-1.7,1-3.3,2.2-4.8,3.5l0.1-40.8C213.5,106,215.1,104.8,216.8,103.8"/>
					<path class="st10" d="M212,107.3l-0.1,40.8c-0.8,0.8-1.6,1.6-2.3,2.5l0.1-40.8C210.4,108.9,211.2,108.1,212,107.3"/>
					<path class="st9" d="M209.7,109.8l-0.1,40.8c-0.6,0.7-1.1,1.5-1.5,2.3l0.1-40.8C208.6,111.3,209.1,110.6,209.7,109.8"/>
					<path class="st8" d="M208.2,112.1l-0.1,40.8c-0.4,0.7-0.7,1.4-1,2.1l0.1-40.8C207.4,113.5,207.8,112.8,208.2,112.1"/>
					<path class="st7" d="M207.2,114.2l-0.1,40.8c-0.3,0.7-0.5,1.4-0.6,2.1l0.1-40.8C206.7,115.6,206.9,114.9,207.2,114.2"/>
					<path class="st6" d="M206.6,116.4l-0.1,40.8c-0.1,0.7-0.2,1.4-0.2,2.2l0.1-40.8C206.3,117.8,206.4,117.1,206.6,116.4"/>
					<path class="st5" d="M206.3,118.6l-0.1,40.8c0,0.1,0,0.2,0,0.3l0.1-40.8C206.3,118.8,206.3,118.7,206.3,118.6"/>
				</g>
			</g>
		</g>
	</g>
</g>
<g>
	<g>
		<g>
			<defs>
				<path id="SVGID_15_" d="M226.8,159.7l0.1-40.8c0-2.5,1.7-5.1,5-7c6.7-3.9,17.6-3.9,24.3,0l-0.1,40.8c-6.7-3.9-17.6-3.9-24.3,0
					C228.5,154.6,226.8,157.2,226.8,159.7z"/>
			</defs>
			<clipPath id="SVGID_16_">
				<use xlink:href="#SVGID_15_"  style="overflow:visible;"/>
			</clipPath>
			<g class="st32">
				<g>
					<path class="st33" d="M256.2,112l-0.1,40.8c-0.8-0.5-1.6-0.8-2.5-1.2l0.1-40.8C254.6,111.1,255.4,111.5,256.2,112"/>
					<path class="st34" d="M253.8,110.8l-0.1,40.8c-0.7-0.3-1.4-0.5-2.1-0.7l0.1-40.8C252.4,110.3,253.1,110.5,253.8,110.8"/>
					<path class="st35" d="M251.7,110.1l-0.1,40.8c-0.6-0.2-1.2-0.3-1.8-0.4l0.1-40.8C250.5,109.7,251.1,109.9,251.7,110.1"/>
					<path class="st17" d="M249.9,109.6l-0.1,40.8c-0.6-0.1-1.1-0.2-1.7-0.3l0.1-40.8C248.8,109.4,249.3,109.5,249.9,109.6"/>
					<path class="st18" d="M248.2,109.3l-0.1,40.8c-0.6-0.1-1.1-0.1-1.7-0.2l0.1-40.8C247.1,109.2,247.6,109.2,248.2,109.3"/>
					<path class="st19" d="M246.5,109.1l-0.1,40.8c-0.6,0-1.1-0.1-1.7-0.1l0.1-40.8C245.4,109,245.9,109,246.5,109.1"/>
					<path class="st20" d="M244.8,109l-0.1,40.8c-0.6,0-1.2,0-1.8,0L243,109C243.6,109,244.2,109,244.8,109"/>
					<path class="st21" d="M243.1,109.1l-0.1,40.8c-0.6,0-1.3,0.1-1.9,0.1l0.1-40.8C241.8,109.1,242.4,109.1,243.1,109.1"/>
					<path class="st22" d="M241.1,109.2L241,150c-0.7,0.1-1.5,0.2-2.2,0.3l0.1-40.8C239.6,109.3,240.4,109.2,241.1,109.2"/>
					<path class="st23" d="M239,109.5l-0.1,40.8c-1.1,0.2-2.2,0.5-3.2,0.8l0.1-40.8C236.8,109.9,237.9,109.7,239,109.5"/>
					<path class="st24" d="M235.7,110.3l-0.1,40.8c-1.3,0.4-2.6,1-3.8,1.7l-0.2,0.1l0.1-40.8l0.2-0.1
						C233.1,111.3,234.4,110.7,235.7,110.3"/>
					<path class="st23" d="M231.7,112.1l-0.1,40.8c-0.8,0.5-1.5,1-2.2,1.6l0.1-40.8C230.2,113.1,230.9,112.5,231.7,112.1"/>
					<path class="st22" d="M229.5,113.7l-0.1,40.8c-0.4,0.4-0.7,0.7-1.1,1.1l0.1-40.8C228.8,114.4,229.2,114,229.5,113.7"/>
					<path class="st21" d="M228.5,114.8l-0.1,40.8c-0.3,0.3-0.5,0.6-0.7,1l0.1-40.8C228,115.5,228.2,115.1,228.5,114.8"/>
					<path class="st20" d="M227.8,115.9l-0.1,40.8c-0.2,0.3-0.3,0.7-0.5,1l0.1-40.8C227.4,116.5,227.6,116.2,227.8,115.9"/>
					<path class="st19" d="M227.3,116.8l-0.1,40.8c-0.1,0.3-0.2,0.7-0.3,1l0.1-40.8C227.1,117.5,227.2,117.2,227.3,116.8"/>
					<path class="st18" d="M227.1,117.8l-0.1,40.8c-0.1,0.3-0.1,0.7-0.1,1l0.1-40.8C226.9,118.5,227,118.1,227.1,117.8"/>
					<path class="st17" d="M226.9,118.8l-0.1,40.8v0.1l0.1-40.8V118.8"/>
				</g>
			</g>
		</g>
	</g>
</g>
<g>
	<g>
		<g>
			<defs>
				<path id="SVGID_17_" d="M226.8,159.8L226.8,159.8l0.1-40.8l0,0C226.9,132.6,226.9,146.2,226.8,159.8z"/>
			</defs>
			<clipPath id="SVGID_18_">
				<use xlink:href="#SVGID_17_"  style="overflow:visible;"/>
			</clipPath>
			<g class="st36">
				<g>
					<path class="st2" d="M232,126l-0.1,40.8c-3.4-2-5.1-4.5-5.1-7.1l0.1-40.8C226.9,121.5,228.6,124.1,232,126"/>
				</g>
			</g>
		</g>
	</g>
</g>
<g>
	<g>
		<g>
			<defs>
				<path id="SVGID_19_" d="M302,164.4c-1.8-2.5-4.2-4.5-6.9-6l0.1-40.8c2.7,1.5,5.1,3.5,6.9,6L302,164.4z"/>
			</defs>
			<clipPath id="SVGID_20_">
				<use xlink:href="#SVGID_19_"  style="overflow:visible;"/>
			</clipPath>
			<g class="st37">
				<g>
					<path class="st2" d="M304.3,130.4l-0.1,40.8c0-4.6-3-9.2-9.1-12.8l0.1-40.8C301.3,121.1,304.3,125.7,304.3,130.4"/>
				</g>
			</g>
		</g>
	</g>
</g>
<polygon class="st38" points="280.6,126 280.5,166.8 256.1,152.7 256.2,111.9 "/>
<g>
	<g>
		<g>
			<defs>
				<path id="SVGID_21_" d="M231.9,166.8c-3.4-1.9-5.1-4.5-5.1-7c0-13.6,0-27.2,0.1-40.8c0,2.6,1.7,5.1,5.1,7
					C232,138.3,231.9,154.6,231.9,166.8z"/>
			</defs>
			<clipPath id="SVGID_22_">
				<use xlink:href="#SVGID_21_"  style="overflow:visible;"/>
			</clipPath>
			<g class="st39">
				<g>
					<path class="st2" d="M232,126l-0.1,40.8c-3.4-2-5.1-4.5-5.1-7.1l0.1-40.8C226.9,121.5,228.6,124.1,232,126"/>
				</g>
			</g>
		</g>
	</g>
</g>
<g>
	<g>
		<g>
			<defs>
				<path id="SVGID_23_" d="M283.7,130.3l-0.1,40.8c0-1.5-1-3.1-3-4.3l0.1-40.8C282.7,127.2,283.7,128.8,283.7,130.3z"/>
			</defs>
			<clipPath id="SVGID_24_">
				<use xlink:href="#SVGID_23_"  style="overflow:visible;"/>
			</clipPath>
			<g class="st40">
				<g>
					<path class="st33" d="M283.7,130.3l-0.1,40.8c0-1.5-1-3.1-3-4.3l0.1-40.8C282.7,127.2,283.7,128.8,283.7,130.3"/>
				</g>
			</g>
		</g>
	</g>
</g>
<g>
	<g>
		<g>
			<defs>
				<path id="SVGID_25_" d="M302,164.4v-3.5c0-12.4,0.1-24.9,0.1-37.3c1.4,2,2.2,4.3,2.2,6.8l-0.1,40.8
					C304.2,168.7,303.4,166.3,302,164.4z"/>
			</defs>
			<clipPath id="SVGID_26_">
				<use xlink:href="#SVGID_25_"  style="overflow:visible;"/>
			</clipPath>
			<g class="st41">
				<g>
					<path class="st2" d="M304.3,130.4l-0.1,40.8c0-4.6-3-9.2-9.1-12.8l0.1-40.8C301.3,121.1,304.3,125.7,304.3,130.4"/>
				</g>
			</g>
		</g>
	</g>
</g>
<polygon class="st14" points="146.9,130.3 146.8,171 107.8,148.5 107.9,107.7 "/>
<polygon class="st14" points="414.4,133.1 414.3,173.8 375.3,151.3 375.4,110.5 "/>
<polygon class="st15" points="360.8,110.5 360.7,151.3 321.9,173.8 322,133.1 "/>
<g>
	<g>
		<g>
			<defs>
				<path id="SVGID_27_" d="M191.2,173.9c0-0.4-0.1-0.8-0.2-1.2l0.1-40.8c0.1,0.4,0.2,0.8,0.2,1.2
					C191.3,145.3,191.2,161.6,191.2,173.9z"/>
			</defs>
			<clipPath id="SVGID_28_">
				<use xlink:href="#SVGID_27_"  style="overflow:visible;"/>
			</clipPath>
			<g class="st42">
				<g>
					<path class="st2" d="M191.3,133.1l-0.1,40.8c0-1.5-1-3.1-3.1-4.2c-0.5-0.3-1-0.5-1.5-0.7l0.1-40.8c0.5,0.2,1,0.4,1.5,0.7
						C190.3,130,191.3,131.6,191.3,133.1"/>
				</g>
			</g>
		</g>
	</g>
</g>
<g>
	<g>
		<g>
			<defs>
				<path id="SVGID_29_" d="M149.9,175c-0.1-1.4-1.1-2.9-3-4l0.1-40.8c1.9,1.1,2.9,2.5,3,4L149.9,175z"/>
			</defs>
			<clipPath id="SVGID_30_">
				<use xlink:href="#SVGID_29_"  style="overflow:visible;"/>
			</clipPath>
			<g class="st43">
				<g>
					<path class="st2" d="M150,134.5l-0.1,40.8c0-1.5-1-3.1-3-4.3l0.1-40.8C149,131.4,150,133,150,134.5"/>
				</g>
			</g>
		</g>
	</g>
</g>
<g>
	<g>
		<g>
			<defs>
				<path id="SVGID_31_" d="M206.2,159.6l0.1-40.8c0,5.6,3.7,11.3,11.2,15.6l-0.1,40.8C209.9,170.9,206.2,165.3,206.2,159.6z"/>
			</defs>
			<clipPath id="SVGID_32_">
				<use xlink:href="#SVGID_31_"  style="overflow:visible;"/>
			</clipPath>
			<g class="st44">
				<g>
					<path class="st33" d="M217.5,134.5l-0.1,40.8c-7.5-4.3-11.2-10-11.2-15.6l0.1-40.8C206.3,124.5,210,130.2,217.5,134.5"/>
				</g>
			</g>
		</g>
	</g>
</g>
<g>
	<g>
		<g>
			<defs>
				<path id="SVGID_33_" d="M149.9,175v-0.2l0.1-40.5c0,0.1,0,0.2,0,0.3l-0.1,40.8C149.9,175.2,149.9,175.1,149.9,175z"/>
			</defs>
			<clipPath id="SVGID_34_">
				<use xlink:href="#SVGID_33_"  style="overflow:visible;"/>
			</clipPath>
			<g class="st45">
				<g>
					<path class="st2" d="M150,134.5l-0.1,40.8c0-1.5-1-3.1-3-4.3l0.1-40.8C149,131.4,150,133,150,134.5"/>
				</g>
			</g>
		</g>
	</g>
</g>
<g>
	<g>
		<g>
			<defs>
				<path id="SVGID_35_" d="M321.9,173.8c-0.9,0.5-1.7,1.2-2.3,2l0.1-40.8c0.6-0.8,1.4-1.5,2.2-2C322,145.3,321.9,161.6,321.9,173.8
					z"/>
			</defs>
			<clipPath id="SVGID_36_">
				<use xlink:href="#SVGID_35_"  style="overflow:visible;"/>
			</clipPath>
			<g class="st46">
				<g>
					<path class="st12" d="M322,133.1l-0.1,40.8l-0.1,0.1l0.1-40.8L322,133.1"/>
					<path class="st11" d="M321.9,133.1l-0.1,40.8c-0.5,0.3-0.9,0.6-1.3,1l0.1-40.8C321,133.8,321.4,133.4,321.9,133.1"/>
					<path class="st10" d="M320.6,134.1l-0.1,40.8c-0.2,0.2-0.4,0.4-0.6,0.7l0.1-40.8C320.1,134.6,320.3,134.3,320.6,134.1"/>
					<path class="st9" d="M319.9,134.8l-0.1,40.8c-0.2,0.2-0.3,0.4-0.4,0.6l0.1-40.8C319.6,135.2,319.8,135,319.9,134.8"/>
				</g>
			</g>
		</g>
	</g>
</g>
<g>
	<g>
		<g>
			<defs>
				<path id="SVGID_37_" d="M280.6,175.2c-0.9,0.5-1.7,1.2-2.2,2c0-13.6,0.1-27.2,0.1-40.8c0.6-0.8,1.4-1.5,2.3-2
					c0.8-0.5,1.6-1.1,2.1-1.8l-0.1,40.8C282.1,174.2,281.4,174.8,280.6,175.2z"/>
			</defs>
			<clipPath id="SVGID_38_">
				<use xlink:href="#SVGID_37_"  style="overflow:visible;"/>
			</clipPath>
			<g class="st47">
				<g>
					<path class="st9" d="M283.2,132.1l-0.1,40.8c-0.1,0.2-0.3,0.4-0.4,0.6l0.1-40.8C282.9,132.6,283,132.4,283.2,132.1"/>
					<path class="st10" d="M282.8,132.8l-0.1,40.8c-0.2,0.2-0.4,0.5-0.6,0.7l0.1-40.8C282.4,133.2,282.6,133,282.8,132.8"/>
					<path class="st11" d="M282.1,133.4l-0.1,40.8c-0.4,0.4-0.8,0.7-1.3,1l0.1-40.8C281.3,134.2,281.7,133.8,282.1,133.4"/>
					<path class="st12" d="M280.8,134.4l-0.1,40.8l-0.1,0.1l-0.1,0.1l0.1-40.8l0.1-0.1L280.8,134.4"/>
					<path class="st11" d="M280.6,134.6l-0.1,40.8c-0.5,0.3-0.9,0.6-1.3,1l0.1-40.8C279.7,135.2,280.1,134.8,280.6,134.6"/>
					<path class="st10" d="M279.2,135.5l-0.1,40.8c-0.2,0.2-0.4,0.4-0.6,0.7l0.1-40.8C278.8,136,279,135.7,279.2,135.5"/>
					<path class="st9" d="M278.6,136.2l-0.1,40.8c-0.2,0.2-0.3,0.4-0.4,0.6l0.1-40.8C278.3,136.6,278.5,136.4,278.6,136.2"/>
				</g>
			</g>
		</g>
	</g>
</g>
<g>
	<g>
		<g>
			<defs>
				<path id="SVGID_39_" d="M319.6,175.8c-0.5,0.6-0.7,1.4-0.7,2.2l0.1-40.8c0-0.8,0.3-1.6,0.7-2.2l-0.1,20.4c0,2.7,0,5.3,0,8
					c0,1.6,0,3.6,0,5.2v2.4C319.6,172.5,320.1,174.4,319.6,175.8z"/>
			</defs>
			<clipPath id="SVGID_40_">
				<use xlink:href="#SVGID_39_"  style="overflow:visible;"/>
			</clipPath>
			<g class="st48">
				<g>
					<path class="st9" d="M319.9,134.8l-0.1,40.8c-0.2,0.2-0.3,0.4-0.4,0.6l0.1-40.8C319.6,135.2,319.8,135,319.9,134.8"/>
					<path class="st8" d="M319.5,135.4l-0.1,40.8c-0.1,0.2-0.2,0.4-0.3,0.6l0.1-40.8C319.3,135.8,319.4,135.6,319.5,135.4"/>
					<path class="st7" d="M319.2,136l-0.1,40.8c-0.1,0.2-0.1,0.4-0.2,0.6l0.1-40.8C319.1,136.4,319.2,136.2,319.2,136"/>
					<path class="st6" d="M319.1,136.6l-0.1,40.8c0,0.2-0.1,0.4-0.1,0.6l0.1-40.8C319.1,137,319.1,136.8,319.1,136.6"/>
					<path class="st5" d="M319,137.2l-0.1,40.8v0.1L319,137.2L319,137.2"/>
				</g>
			</g>
		</g>
	</g>
</g>
<polygon class="st14" points="251.5,137.3 251.4,178.1 231.9,166.8 232,126 "/>
<g>
	<g>
		<g>
			<defs>
				<path id="SVGID_41_" d="M278.3,177.2c-0.5,0.6-0.7,1.4-0.8,2.2l0.1-40.8c0-0.8,0.3-1.6,0.7-2.2l-0.1,20.4c0,2.7,0,5.3,0,8
					c0,1.6,0,3.6,0,5.2c0,0.8,0,1.8,0,2.5C278.3,173.9,278.8,175.9,278.3,177.2z"/>
			</defs>
			<clipPath id="SVGID_42_">
				<use xlink:href="#SVGID_41_"  style="overflow:visible;"/>
			</clipPath>
			<g class="st49">
				<g>
					<path class="st9" d="M278.6,136.2l-0.1,40.8c-0.2,0.2-0.3,0.4-0.4,0.6l0.1-40.8C278.3,136.6,278.5,136.4,278.6,136.2"/>
					<path class="st8" d="M278.2,136.8l-0.1,40.8c-0.1,0.2-0.2,0.4-0.3,0.6l0.1-40.8C278,137.2,278.1,137,278.2,136.8"/>
					<path class="st7" d="M277.9,137.4l-0.1,40.8c-0.1,0.2-0.1,0.4-0.2,0.6l0.1-40.8C277.8,137.8,277.9,137.6,277.9,137.4"/>
					<path class="st6" d="M277.8,138l-0.1,40.8c0,0.2-0.1,0.4-0.1,0.6l0.1-40.8C277.7,138.4,277.7,138.2,277.8,138"/>
					<path class="st5" d="M277.7,138.6l-0.1,40.8v0.1L277.7,138.6L277.7,138.6"/>
				</g>
			</g>
		</g>
	</g>
</g>
<g>
	<g>
		<g>
			<defs>
				<path id="SVGID_43_" d="M150,134.5l-0.1,40.8c0,1.5-1,3-3,4.2l0.1-40.8C149,137.6,150,136,150,134.5z"/>
			</defs>
			<clipPath id="SVGID_44_">
				<use xlink:href="#SVGID_43_"  style="overflow:visible;"/>
			</clipPath>
			<g class="st50">
				<g>
					<path class="st51" d="M150,134.5l-0.1,40.8v0.1L150,134.5L150,134.5"/>
					<path class="st52" d="M150,134.6l-0.1,40.8c0,0.2,0,0.4-0.1,0.6l0.1-40.8C150,135,150,134.8,150,134.6"/>
					<path class="st53" d="M149.9,135.2l-0.1,40.8c0,0.2-0.1,0.4-0.2,0.6l0.1-40.8C149.8,135.6,149.9,135.4,149.9,135.2"/>
					<path class="st54" d="M149.7,135.8l-0.1,40.8c-0.1,0.2-0.2,0.4-0.3,0.6l0.1-40.8C149.6,136.2,149.7,136,149.7,135.8"/>
					<path class="st55" d="M149.5,136.4l-0.1,40.8c-0.1,0.2-0.3,0.4-0.4,0.6l0.1-40.8C149.2,136.8,149.3,136.6,149.5,136.4"/>
					<path class="st56" d="M149.1,137l-0.1,40.8c-0.2,0.2-0.4,0.5-0.6,0.7l0.1-40.8C148.6,137.5,148.9,137.2,149.1,137"/>
					<path class="st57" d="M148.4,137.7l-0.1,40.8c-0.4,0.4-0.8,0.7-1.3,1l0.1-40.8C147.6,138.4,148,138,148.4,137.7"/>
					<path class="st58" d="M147.1,138.6l-0.1,40.8l-0.1,0.1l0.1-40.8L147.1,138.6"/>
				</g>
			</g>
		</g>
	</g>
</g>
<polygon class="st25" points="54.6,138.7 54.5,179.5 42.3,172.4 42.4,131.7 "/>
<g>
	<linearGradient id="SVGID_45_" gradientUnits="userSpaceOnUse" x1="12.6" y1="156.5" x2="42.4" y2="156.5">
		<stop  offset="4.469616e-03" style="stop-color:#473213"/>
		<stop  offset="0.3849" style="stop-color:#573C18"/>
		<stop  offset="0.5547" style="stop-color:#583D18"/>
		<stop  offset="0.7827" style="stop-color:#6A4A1D"/>
		<stop  offset="1" style="stop-color:#6A4A1D"/>
	</linearGradient>
	<path class="st59" d="M42.4,131.7l-12.1,7c-1.7,0.9-3.5,1.5-5.4,1.7c0,0-0.1,0-0.1,0c-0.4,0-0.8,0.1-1.2,0.1l0-0.1h-1l0,0.1
		c-0.1,0-0.2,0-0.3,0c-0.2,0-0.5-0.1-0.8-0.1c-0.2,0-0.5,0-0.7-0.1c-0.3,0-0.5-0.1-0.8-0.1c-0.2,0-0.3-0.1-0.5-0.2l0,0.1
		c0,0-0.1,0-0.1,0c-0.1,0-0.2,0-0.2-0.1c-1.2-0.3-2.4-0.7-3.5-1.3c-1.8-1.1-3-2.6-3-4.2l-0.1,40.8c0,1.6,1.1,3.1,3,4.2
		c0.5,0.3,1,0.5,1.5,0.7v0c0,0,0,0,0,0l0,0.1c0.4,0.1,0.8,0.3,1.2,0.4l0-0.1c0.1,0,0.2,0,0.2,0.1c0.3,0.1,0.5,0.2,0.8,0.2
		c0,0,0,0,0,0v0c0.3,0.1,0.7,0.1,1,0.2l0,0l0.3,0c0.3,0,0.5,0.1,0.8,0.1c0.3,0.1,0.6,0.1,0.9,0.1l0,0c0.2,0,0.3,0,0.5,0
		c0.2,0,0.4,0,0.6,0l0,0c0.3,0,0.7-0.1,1.1-0.1c0.4,0,0.7-0.1,1.1-0.2c0.1,0,0.2,0,0.2,0v0c0,0,0.1,0,0.1,0l0,0
		c0.2,0,0.4-0.1,0.5-0.1c0.1,0,0.2,0,0.2-0.1c0.4-0.1,0.8-0.2,1.1-0.3l0,0c0,0,0,0,0,0l0,0c0.1,0,0.2-0.1,0.3-0.1
		c0.2-0.1,0.4-0.1,0.5-0.2c0.5-0.2,1-0.4,1.4-0.7l0-0.1l12.1-7L42.4,131.7z"/>
</g>
<g>
	<g>
		<g>
			<defs>
				<path id="SVGID_46_" d="M318.9,178l0.1-40.8c0,1.5,1,3.1,3,4.2l-0.1,40.8C319.9,181.1,318.9,179.6,318.9,178z"/>
			</defs>
			<clipPath id="SVGID_47_">
				<use xlink:href="#SVGID_46_"  style="overflow:visible;"/>
			</clipPath>
			<g class="st60">
				<g>
					<path class="st61" d="M322.1,141.5l-0.1,40.8c-2-1.2-3-2.7-3-4.2l0.1-40.8C319.1,138.8,320.1,140.4,322.1,141.5"/>
				</g>
			</g>
		</g>
	</g>
</g>
<g>
	<g>
		<g>
			<defs>
				<path id="SVGID_48_" d="M173.6,169.6c-6,3.5-9,8-9,12.6l0.1-40.8c0-4.6,3-9.1,9-12.6c4.6-2.3,10-2.3,14.6,0
					c1.3,0.7,2.3,1.8,2.9,3.1l-0.1,40.8c-0.5-1.3-1.6-2.4-2.9-3.1C183.6,167.3,178.1,167.3,173.6,169.6z"/>
			</defs>
			<clipPath id="SVGID_49_">
				<use xlink:href="#SVGID_48_"  style="overflow:visible;"/>
			</clipPath>
			<g class="st62">
				<g>
					<path class="st2" d="M191.3,133.1l-0.1,40.8c0-1.5-1-3.1-3.1-4.2c-0.5-0.3-1-0.5-1.5-0.7l0.1-40.8c0.5,0.2,1,0.4,1.5,0.7
						C190.3,130,191.3,131.6,191.3,133.1"/>
					<path class="st3" d="M186.8,128.1l-0.1,40.8c-0.4-0.2-0.8-0.3-1.2-0.4l0.1-40.8C186,127.8,186.4,128,186.8,128.1"/>
					<path class="st4" d="M185.5,127.7l-0.1,40.8c-0.4-0.1-0.7-0.2-1.1-0.3l0.1-40.8C184.8,127.5,185.2,127.6,185.5,127.7"/>
					<path class="st5" d="M184.4,127.4l-0.1,40.8c-0.3-0.1-0.7-0.1-1-0.2l0.1-40.8C183.8,127.3,184.1,127.4,184.4,127.4"/>
					<path class="st6" d="M183.4,127.3l-0.1,40.7c-0.3-0.1-0.7-0.1-1-0.1l0.1-40.8L183.4,127.3"/>
					<path class="st7" d="M182.4,127.2l-0.1,40.8c-0.3,0-0.7,0-1-0.1l0.1-40.8C181.7,127.1,182.1,127.1,182.4,127.2"/>
					<path class="st8" d="M181.4,127.1l-0.1,40.8c-0.4,0-0.7,0-1.1,0l0.1-40.8C180.7,127.1,181,127.1,181.4,127.1"/>
					<path class="st9" d="M180.3,127.1l-0.1,40.8c-0.4,0-0.8,0-1.1,0.1l0.1-40.8C179.6,127.2,179.9,127.1,180.3,127.1"/>
					<path class="st10" d="M179.2,127.2l-0.1,40.8c-0.4,0.1-0.9,0.1-1.3,0.2l0.1-40.8C178.3,127.3,178.8,127.2,179.2,127.2"/>
					<path class="st11" d="M177.9,127.4l-0.1,40.8c-0.7,0.1-1.3,0.3-1.9,0.5l0.1-40.8C176.6,127.6,177.2,127.5,177.9,127.4"/>
					<path class="st12" d="M175.9,127.9l-0.1,40.8c-0.8,0.3-1.5,0.6-2.3,1l-0.4,0.2l0.1-40.8l0.4-0.2
						C174.4,128.4,175.1,128.1,175.9,127.9"/>
					<path class="st11" d="M173.3,129.1l-0.1,40.8c-1.4,0.8-2.7,1.8-3.9,2.9l0.1-40.7C170.6,130.9,171.9,129.9,173.3,129.1"/>
					<path class="st10" d="M169.4,132l-0.1,40.8c-0.7,0.6-1.3,1.3-1.9,2.1l0.1-40.8C168.1,133.3,168.7,132.6,169.4,132"/>
					<path class="st9" d="M167.5,134l-0.1,40.8c-0.5,0.6-0.9,1.2-1.2,1.9l0.1-40.8C166.6,135.2,167,134.6,167.5,134"/>
					<path class="st8" d="M166.2,135.9l-0.1,40.8c-0.3,0.6-0.6,1.2-0.8,1.8l0.1-40.8C165.6,137,165.9,136.4,166.2,135.9"/>
					<path class="st7" d="M165.4,137.6l-0.1,40.8c-0.2,0.6-0.4,1.1-0.5,1.7l0.1-40.8C165,138.8,165.2,138.2,165.4,137.6"/>
					<path class="st6" d="M164.9,139.4l-0.1,40.8c-0.1,0.6-0.2,1.2-0.2,1.8l0.1-40.8C164.7,140.6,164.8,140,164.9,139.4"/>
					<path class="st5" d="M164.7,141.2l-0.1,40.8v0.3l0.1-40.8C164.7,141.3,164.7,141.2,164.7,141.2"/>
				</g>
			</g>
		</g>
	</g>
</g>
<g>
	<g>
		<g>
			<defs>
				<path id="SVGID_50_" d="M191.3,133.1l-0.1,40.8c0,1.5-1,3-3,4.2s-3,2.7-3,4.2l0.1-40.8c0-1.5,1-3,3-4.2S191.3,134.6,191.3,133.1
					z"/>
			</defs>
			<clipPath id="SVGID_51_">
				<use xlink:href="#SVGID_50_"  style="overflow:visible;"/>
			</clipPath>
			<g class="st63">
				<g>
					<path class="st17" d="M191.3,133.1l-0.1,40.8v0.1l0.1-40.8V133.1"/>
					<path class="st18" d="M191.3,133.2l-0.1,40.8c0,0.2,0,0.4-0.1,0.6l0.1-40.8C191.3,133.6,191.3,133.4,191.3,133.2"/>
					<path class="st19" d="M191.2,133.8l-0.1,40.8c0,0.2-0.1,0.4-0.2,0.6l0.1-40.8C191.1,134.2,191.2,134,191.2,133.8"/>
					<path class="st20" d="M191.1,134.4l-0.1,40.8c-0.1,0.2-0.2,0.4-0.3,0.6l0.1-40.8C190.9,134.8,191,134.6,191.1,134.4"/>
					<path class="st21" d="M190.8,135l-0.1,40.8c-0.1,0.2-0.3,0.4-0.4,0.6l0.1-40.8C190.5,135.4,190.7,135.2,190.8,135"/>
					<path class="st22" d="M190.4,135.6l-0.1,40.8c-0.2,0.2-0.4,0.5-0.6,0.7l0.1-40.8C190,136,190.2,135.8,190.4,135.6"/>
					<path class="st23" d="M189.7,136.3l-0.1,40.7c-0.4,0.4-0.8,0.7-1.3,1l0.1-40.8C188.9,137,189.3,136.6,189.7,136.3"/>
					<path class="st24" d="M188.4,137.2l-0.1,40.8l-0.1,0.1l-0.1,0.1l0.1-40.8l0.1-0.1L188.4,137.2"/>
					<path class="st23" d="M188.2,137.4l-0.1,40.8c-0.5,0.3-0.9,0.6-1.3,1l0.1-40.8C187.3,138,187.7,137.7,188.2,137.4"/>
					<path class="st22" d="M186.9,138.3l-0.1,40.8c-0.2,0.2-0.4,0.4-0.6,0.7l0.1-40.8C186.4,138.8,186.6,138.5,186.9,138.3"/>
					<path class="st21" d="M186.2,139l-0.1,40.8c-0.2,0.2-0.3,0.4-0.4,0.6l0.1-40.8C185.9,139.4,186.1,139.2,186.2,139"/>
					<path class="st20" d="M185.8,139.6l-0.1,40.8c-0.1,0.2-0.2,0.4-0.3,0.6l0.1-40.8C185.6,140,185.7,139.8,185.8,139.6"/>
					<path class="st19" d="M185.6,140.2l-0.1,40.8c-0.1,0.2-0.1,0.4-0.2,0.6l0.1-40.8C185.4,140.6,185.5,140.4,185.6,140.2"/>
					<path class="st18" d="M185.4,140.8l-0.1,40.8c0,0.2-0.1,0.4-0.1,0.6l0.1-40.8C185.3,141.2,185.3,141,185.4,140.8"/>
					<path class="st17" d="M185.3,141.4l-0.1,40.8v0.1L185.3,141.4L185.3,141.4"/>
				</g>
			</g>
		</g>
	</g>
</g>
<g>
	<g>
		<g>
			<defs>
				<path id="SVGID_52_" d="M185.2,182.3L185.2,182.3l0.1-40.8l0,0C185.3,155.1,185.2,168.7,185.2,182.3z"/>
			</defs>
			<clipPath id="SVGID_53_">
				<use xlink:href="#SVGID_52_"  style="overflow:visible;"/>
			</clipPath>
			<g class="st64">
				<g>
					<path class="st2" d="M188.4,145.8l-0.1,40.8c-2-1.2-3.1-2.7-3-4.3l0.1-40.8C185.4,143,186.4,144.6,188.4,145.8"/>
				</g>
			</g>
		</g>
	</g>
</g>
<g>
	<g>
		<g>
			<defs>
				<path id="SVGID_54_" d="M304.3,130.4l-0.1,40.8c0,4.6-3,9.1-9,12.6c-4.6,2.3-10,2.3-14.6,0c-2-1.2-3-2.7-3-4.3l0.1-40.8
					c0,1.5,1,3.1,3,4.2c4.6,2.3,10,2.3,14.6,0C301.3,139.4,304.3,134.9,304.3,130.4z"/>
			</defs>
			<clipPath id="SVGID_55_">
				<use xlink:href="#SVGID_54_"  style="overflow:visible;"/>
			</clipPath>
			<g class="st65">
				<g>
					<path class="st17" d="M304.3,130.4l-0.1,40.8v0.3l0.1-40.8V130.4"/>
					<path class="st18" d="M304.3,130.6l-0.1,40.8c0,0.6-0.1,1.2-0.2,1.8l0.1-40.8C304.2,131.8,304.3,131.2,304.3,130.6"/>
					<path class="st19" d="M304.1,132.4l-0.1,40.8c-0.1,0.6-0.3,1.2-0.5,1.7l0.1-40.8C303.8,133.6,304,133,304.1,132.4"/>
					<path class="st20" d="M303.6,134.1l-0.1,40.8c-0.2,0.6-0.5,1.2-0.8,1.8l0.1-40.8C303.1,135.3,303.4,134.7,303.6,134.1"/>
					<path class="st21" d="M302.8,135.9l-0.1,40.8c-0.4,0.7-0.8,1.3-1.2,1.9l0.1-40.8C302,137.2,302.4,136.6,302.8,135.9"/>
					<path class="st22" d="M301.5,137.8l-0.1,40.8c-0.6,0.7-1.2,1.4-1.9,2.1l0.1-40.8C300.3,139.2,300.9,138.5,301.5,137.8"/>
					<path class="st23" d="M299.6,139.8l-0.1,40.8c-1.2,1.1-2.5,2.1-3.9,2.9l0.1-40.8C297.1,141.9,298.4,140.9,299.6,139.8"/>
					<path class="st24" d="M295.7,142.7l-0.1,40.8l-0.4,0.2c-0.7,0.4-1.5,0.7-2.3,1l0.1-40.8c0.8-0.3,1.5-0.6,2.3-1L295.7,142.7"/>
					<path class="st23" d="M293.1,143.9l-0.1,40.8c-0.6,0.2-1.3,0.4-2,0.5l0.1-40.8C291.8,144.3,292.5,144.1,293.1,143.9"/>
					<path class="st22" d="M291.1,144.4l-0.1,40.8c-0.4,0.1-0.9,0.1-1.3,0.2l0.1-40.8C290.3,144.6,290.7,144.5,291.1,144.4"/>
					<path class="st21" d="M289.8,144.6l-0.1,40.8c-0.4,0-0.8,0.1-1.1,0.1l0.1-40.8C289,144.7,289.4,144.7,289.8,144.6"/>
					<path class="st20" d="M288.7,144.7l-0.1,40.8h-1l0.1-40.8H288.7"/>
					<path class="st19" d="M287.6,144.7l-0.1,40.8c-0.3,0-0.7,0-1-0.1l0.1-40.8L287.6,144.7"/>
					<path class="st18" d="M286.6,144.6l-0.1,40.8l-1-0.1l0.1-40.8C285.9,144.6,286.3,144.6,286.6,144.6"/>
					<path class="st17" d="M285.6,144.5l-0.1,40.8l-1-0.2l0.1-40.8C284.9,144.4,285.2,144.5,285.6,144.5"/>
					<path class="st35" d="M284.6,144.3l-0.1,40.8c-0.4-0.1-0.7-0.2-1.1-0.3l0.1-40.8C283.8,144.2,284.2,144.3,284.6,144.3"/>
					<path class="st34" d="M283.5,144.1l-0.1,40.8c-0.4-0.1-0.8-0.3-1.2-0.4l0.1-40.8C282.6,143.8,283,143.9,283.5,144.1"/>
					<path class="st33" d="M282.2,143.6l-0.1,40.8c-0.5-0.2-1-0.4-1.5-0.7c-2-1.2-3-2.7-3-4.3l0.1-40.8c0,1.5,1,3.1,3,4.2
						C281.2,143.2,281.7,143.4,282.2,143.6"/>
				</g>
			</g>
		</g>
	</g>
</g>
<polygon class="st38" points="237,145.8 236.9,186.5 217.4,175.2 217.5,134.5 "/>
<g>
	<g>
		<g>
			<defs>
				<path id="SVGID_56_" d="M188.2,186.5c-2-1.2-3-2.7-3-4.2c0-13.6,0.1-27.2,0.1-40.8c0,1.5,1,3.1,3,4.2
					C188.3,158,188.3,174.3,188.2,186.5z"/>
			</defs>
			<clipPath id="SVGID_57_">
				<use xlink:href="#SVGID_56_"  style="overflow:visible;"/>
			</clipPath>
			<g class="st66">
				<g>
					<path class="st2" d="M188.4,145.8l-0.1,40.8c-2-1.2-3.1-2.7-3-4.3l0.1-40.8C185.4,143,186.4,144.6,188.4,145.8"/>
				</g>
			</g>
		</g>
	</g>
</g>
<g>
	<g>
		<g>
			<defs>
				<path id="SVGID_58_" d="M242.1,152.8l-0.1,40.8c0-2.6-1.7-5.1-5.1-7.1l0.1-40.8C240.4,147.7,242.1,150.3,242.1,152.8z"/>
			</defs>
			<clipPath id="SVGID_59_">
				<use xlink:href="#SVGID_58_"  style="overflow:visible;"/>
			</clipPath>
			<g class="st67">
				<g>
					<path class="st33" d="M242.1,152.8l-0.1,40.8c0-2.6-1.7-5.1-5.1-7.1l0.1-40.8C240.4,147.8,242.1,150.3,242.1,152.8"/>
				</g>
			</g>
		</g>
	</g>
</g>
<g>
	<g>
		<g>
			<defs>
				<path id="SVGID_60_" d="M262.6,193.7c0-5.6-3.7-11.3-11.2-15.6l0.1-40.8c7.5,4.3,11.2,10,11.2,15.6
					C262.7,165.1,262.6,181.4,262.6,193.7z"/>
			</defs>
			<clipPath id="SVGID_61_">
				<use xlink:href="#SVGID_60_"  style="overflow:visible;"/>
			</clipPath>
			<g class="st68">
				<g>
					<path class="st2" d="M262.7,152.9l-0.1,40.8c0-5.6-3.7-11.3-11.2-15.6l0.1-40.8C259,141.6,262.7,147.3,262.7,152.9"/>
				</g>
			</g>
		</g>
	</g>
</g>
<g>
	<g>
		<g>
			<defs>
				<path id="SVGID_62_" d="M164.6,182.2l0.1-40.8c0,4.6,3,9.2,9.1,12.8l-0.1,40.8C167.6,191.4,164.6,186.8,164.6,182.2z"/>
			</defs>
			<clipPath id="SVGID_63_">
				<use xlink:href="#SVGID_62_"  style="overflow:visible;"/>
			</clipPath>
			<g class="st69">
				<g>
					<path class="st33" d="M173.8,154.2l-0.1,40.8c-6.1-3.5-9.1-8.1-9.1-12.8l0.1-40.8C164.7,146.1,167.7,150.7,173.8,154.2"/>
				</g>
			</g>
		</g>
	</g>
</g>
<polygon class="st38" points="181.1,158.4 181,199.2 173.7,195 173.8,154.2 "/>
<polygon class="st14" points="212.8,159.8 212.6,200.6 188.2,186.5 188.4,145.8 "/>
<polygon class="st70" points="147,138.7 146.9,179.5 108.1,202 108.2,161.2 "/>
<polygon class="st25" points="93.6,161.2 93.5,202 54.5,179.5 54.6,138.7 "/>
<polygon class="st25" points="361.1,164.1 361,204.8 321.9,182.3 322.1,141.5 "/>
<g>
	<g>
		<g>
			<defs>
				<path id="SVGID_64_" d="M236.9,200.6c-6.7,3.9-17.6,3.9-24.3,0l0.1-40.8c6.7,3.9,17.6,3.9,24.3,0c3.3-1.9,5-4.5,5-7l-0.1,40.8
					C241.9,196.1,240.3,198.7,236.9,200.6z"/>
			</defs>
			<clipPath id="SVGID_65_">
				<use xlink:href="#SVGID_64_"  style="overflow:visible;"/>
			</clipPath>
			<g class="st71">
				<g>
					<path class="st5" d="M242.1,152.8l-0.1,40.8v0.1l0.1-40.8V152.8"/>
					<path class="st6" d="M242.1,153l-0.1,40.8c0,0.3,0,0.7-0.1,1L242,154C242,153.7,242.1,153.3,242.1,153"/>
					<path class="st7" d="M241.9,154l-0.1,40.8c-0.1,0.3-0.2,0.7-0.3,1l0.1-40.8C241.8,154.7,241.9,154.3,241.9,154"/>
					<path class="st8" d="M241.7,154.9l-0.1,40.8c-0.1,0.3-0.3,0.7-0.5,1l0.1-40.8C241.4,155.6,241.5,155.3,241.7,154.9"/>
					<path class="st9" d="M241.2,155.9l-0.1,40.8c-0.2,0.3-0.4,0.7-0.7,1l0.1-40.8C240.8,156.6,241,156.3,241.2,155.9"/>
					<path class="st10" d="M240.5,157l-0.1,40.8c-0.3,0.4-0.7,0.8-1.1,1.1l0.1-40.8C239.8,157.8,240.2,157.4,240.5,157"/>
					<path class="st11" d="M239.4,158.1l-0.1,40.8c-0.7,0.6-1.4,1.2-2.2,1.6l0.1-40.8C238,159.2,238.8,158.7,239.4,158.1"/>
					<path class="st12" d="M237.3,159.7l-0.1,40.8l-0.2,0.1c-1.2,0.7-2.5,1.2-3.8,1.7l0.1-40.8c1.3-0.4,2.6-1,3.8-1.7L237.3,159.7"
						/>
					<path class="st11" d="M233.3,161.5l-0.1,40.8c-1.1,0.3-2.2,0.6-3.3,0.8l0.1-40.8C231.1,162.1,232.2,161.8,233.3,161.5"/>
					<path class="st10" d="M230,162.3l-0.1,40.8c-0.7,0.1-1.4,0.2-2.2,0.3l0.1-40.8C228.5,162.5,229.3,162.4,230,162.3"/>
					<path class="st9" d="M227.8,162.6l-0.1,40.8c-0.6,0.1-1.3,0.1-1.9,0.1l0.1-40.8C226.6,162.7,227.2,162.7,227.8,162.6"/>
					<path class="st8" d="M225.9,162.7l-0.1,40.8c-0.6,0-1.2,0-1.8,0l0.1-40.8C224.8,162.7,225.4,162.7,225.9,162.7"/>
					<path class="st7" d="M224.2,162.7l-0.1,40.8c-0.6,0-1.1,0-1.7-0.1l0.1-40.8C223,162.7,223.6,162.7,224.2,162.7"/>
					<path class="st6" d="M222.5,162.6l-0.1,40.8c-0.6,0-1.1-0.1-1.7-0.2l0.1-40.8C221.4,162.5,221.9,162.6,222.5,162.6"/>
					<path class="st5" d="M220.8,162.5l-0.1,40.8c-0.6-0.1-1.1-0.2-1.7-0.3l0.1-40.8C219.7,162.3,220.2,162.4,220.8,162.5"/>
					<path class="st4" d="M219.1,162.2L219,203c-0.6-0.1-1.2-0.3-1.8-0.4l0.1-40.8C217.9,161.9,218.5,162,219.1,162.2"/>
					<path class="st3" d="M217.3,161.7l-0.1,40.8c-0.7-0.2-1.4-0.4-2.1-0.7l0.1-40.8C215.9,161.3,216.6,161.5,217.3,161.7"/>
					<path class="st2" d="M215.2,161l-0.1,40.8c-0.9-0.3-1.7-0.7-2.5-1.2l0.1-40.8C213.5,160.3,214.4,160.7,215.2,161"/>
				</g>
			</g>
		</g>
	</g>
</g>
<linearGradient id="SVGID_66_" gradientUnits="userSpaceOnUse" x1="171.8447" y1="-11.6393" x2="57.717" y2="229.6373" gradientTransform="matrix(1 0 0 -1 0 314)">
	<stop  offset="2.591463e-02" style="stop-color:#936722"/>
	<stop  offset="0.5399" style="stop-color:#C48D35"/>
	<stop  offset="1" style="stop-color:#9E6A1A"/>
</linearGradient>
<path class="st72" d="M107.8,85.2c4,2.3,4.1,6.1,0,8.4l-12.1,7l12.2,7l39,22.5c4,2.3,4.1,6.1,0,8.4l-38.6,22.6
	c-4.6,2.3-10,2.3-14.6,0l-39-22.5l-12.2-7l-12.1,7c-2.2,1.2-4.8,1.8-7.3,1.8c-2.5,0.1-5.1-0.6-7.3-1.8c-1.9-1.1-3-2.6-3-4.2
	l-0.2-45.1c0-3.3,4.6-6,10.3-6h77.8C103.1,83.4,105.5,84,107.8,85.2z"/>
<g>
	<g>
		<g>
			<defs>
				<path id="SVGID_67_" d="M108.2,161.2l-0.1,40.8c-4.6,2.3-10,2.3-14.6,0l0.1-40.8C98.2,163.6,103.6,163.6,108.2,161.2z"/>
			</defs>
			<clipPath id="SVGID_68_">
				<use xlink:href="#SVGID_67_"  style="overflow:visible;"/>
			</clipPath>
			<g class="st73">
				<g>
					<path class="st58" d="M108.2,161.2l-0.1,40.8c-0.7,0.4-1.5,0.7-2.3,1l0.1-40.8C106.7,162,107.5,161.6,108.2,161.2"/>
					<path class="st57" d="M105.9,162.2l-0.1,40.8c-0.6,0.2-1.3,0.4-1.9,0.5l0.1-40.8C104.7,162.6,105.3,162.4,105.9,162.2"/>
					<path class="st56" d="M104,162.7l-0.1,40.8c-0.4,0.1-0.9,0.1-1.3,0.2l0.1-40.8C103.1,162.9,103.6,162.8,104,162.7"/>
					<path class="st55" d="M102.7,162.9l-0.1,40.8c-0.4,0-0.8,0.1-1.1,0.1l0.1-40.8C101.9,163,102.3,163,102.7,162.9"/>
					<path class="st54" d="M101.5,163l-0.1,40.8h-1.1l0.1-40.8C100.8,163,101.2,163,101.5,163"/>
					<path class="st53" d="M100.5,163l-0.1,40.8c-0.3,0-0.7,0-1-0.1l0.1-40.8L100.5,163"/>
					<path class="st52" d="M99.4,162.9l-0.1,40.8c-0.3,0-0.7-0.1-1-0.1l0.1-40.8C98.8,162.9,99.1,162.9,99.4,162.9"/>
					<path class="st51" d="M98.4,162.8l-0.1,40.8l-1-0.2l0.1-40.8C97.8,162.7,98.1,162.8,98.4,162.8"/>
					<path class="st74" d="M97.4,162.6l-0.1,40.8c-0.4-0.1-0.7-0.2-1.1-0.3l0.1-40.8C96.7,162.5,97.1,162.6,97.4,162.6"/>
					<path class="st75" d="M96.3,162.4l-0.1,40.8c-0.4-0.1-0.8-0.3-1.3-0.4l0.1-40.7C95.5,162.2,95.9,162.3,96.3,162.4"/>
					<path class="st61" d="M95.1,162L95,202.7c-0.5-0.2-1-0.4-1.5-0.7l0.1-40.8C94.1,161.5,94.6,161.8,95.1,162"/>
				</g>
			</g>
		</g>
	</g>
</g>
<polygon class="st15" points="181.1,158.4 181,199.2 168.9,206.2 169,165.5 "/>
<polygon class="st38" points="198.2,168.3 198.1,209 195.7,207.6 195.8,166.9 "/>
<g>
	<g>
		<g>
			<defs>
				<path id="SVGID_69_" d="M168.9,206.2c-2,1.1-3,2.7-3,4.2l0.1-40.8c0-1.5,1-3,3-4.2C169,177.7,168.9,194,168.9,206.2z"/>
			</defs>
			<clipPath id="SVGID_70_">
				<use xlink:href="#SVGID_69_"  style="overflow:visible;"/>
			</clipPath>
			<g class="st76">
				<g>
					<path class="st12" d="M169,165.5l-0.1,40.8l-0.1,0.1l0.1-40.8L169,165.5"/>
					<path class="st11" d="M168.9,165.5l-0.1,40.8c-0.5,0.3-0.9,0.6-1.3,1l0.1-40.8C168,166.2,168.4,165.8,168.9,165.5"/>
					<path class="st10" d="M167.6,166.5l-0.1,40.8c-0.2,0.2-0.4,0.4-0.6,0.7l0.1-40.8C167.1,166.9,167.4,166.7,167.6,166.5"/>
					<path class="st9" d="M166.9,167.2l-0.1,40.8c-0.1,0.2-0.3,0.4-0.4,0.6l0.1-40.8C166.6,167.6,166.8,167.4,166.9,167.2"/>
					<path class="st8" d="M166.5,167.8l-0.1,40.8c-0.1,0.2-0.2,0.4-0.3,0.6l0.1-40.8C166.3,168.2,166.4,168,166.5,167.8"/>
					<path class="st7" d="M166.2,168.4l-0.1,40.8c-0.1,0.2-0.1,0.4-0.2,0.6L166,169C166.1,168.8,166.2,168.6,166.2,168.4"/>
					<path class="st6" d="M166.1,169l-0.1,40.7c0,0.2-0.1,0.4-0.1,0.6l0.1-40.8C166,169.4,166.1,169.2,166.1,169"/>
					<path class="st5" d="M166,169.6l-0.1,40.8v0.1L166,169.6L166,169.6"/>
				</g>
			</g>
		</g>
	</g>
</g>
<polygon class="st27" points="195.8,166.9 195.7,207.6 183.5,214.7 183.6,173.9 "/>
<g>
	<g>
		<g>
			<defs>
				<path id="SVGID_71_" d="M165.9,210.4l0.1-40.8c0,1.5,1,3.1,3.1,4.3c4.6,2.3,10,2.3,14.6,0l-0.1,40.8c-4.6,2.3-10,2.3-14.6,0
					C166.9,213.5,165.9,212,165.9,210.4z"/>
			</defs>
			<clipPath id="SVGID_72_">
				<use xlink:href="#SVGID_71_"  style="overflow:visible;"/>
			</clipPath>
			<g class="st77">
				<g>
					<path class="st24" d="M183.6,173.9l-0.1,40.8c-0.7,0.4-1.5,0.8-2.3,1l0.1-40.8C182.2,174.7,182.9,174.3,183.6,173.9"/>
					<path class="st23" d="M181.4,174.9l-0.1,40.8c-0.7,0.2-1.3,0.4-2,0.5l0.1-40.8C180.1,175.3,180.7,175.1,181.4,174.9"/>
					<path class="st22" d="M179.4,175.4l-0.1,40.8c-0.4,0.1-0.9,0.1-1.3,0.2l0.1-40.8C178.6,175.5,179,175.5,179.4,175.4"/>
					<path class="st21" d="M178.1,175.6l-0.1,40.8c-0.4,0-0.8,0.1-1.1,0.1l0.1-40.8C177.4,175.7,177.7,175.7,178.1,175.6"/>
					<path class="st20" d="M177,175.7l-0.1,40.8c-0.4,0-0.7,0-1.1,0l0.1-40.8H177"/>
					<path class="st19" d="M175.9,175.7l-0.1,40.8c-0.3,0-0.7,0-1,0l0.1-40.8C175.3,175.7,175.6,175.7,175.9,175.7"/>
					<path class="st18" d="M174.9,175.6l-0.1,40.8l-1-0.1l0.1-40.8L174.9,175.6"/>
					<path class="st17" d="M173.9,175.5l-0.1,40.8c-0.4,0-0.7-0.1-1-0.2l0.1-40.8L173.9,175.5"/>
					<path class="st35" d="M172.9,175.3l-0.1,40.8c-0.4-0.1-0.7-0.2-1.1-0.3l0.1-40.8C172.2,175.2,172.5,175.2,172.9,175.3"/>
					<path class="st34" d="M171.8,175.1l-0.1,40.8c-0.4-0.1-0.8-0.3-1.2-0.4l0.1-40.8C171,174.8,171.4,174.9,171.8,175.1"/>
					<path class="st33" d="M170.6,174.6l-0.1,40.8c-0.5-0.2-1-0.4-1.5-0.7c-2-1.2-3.1-2.7-3-4.3l0.1-40.8c0,1.5,1,3.1,3.1,4.3
						C169.6,174.2,170.1,174.4,170.6,174.6"/>
				</g>
			</g>
		</g>
	</g>
</g>
<g>
	<g>
		<g>
			<defs>
				<path id="SVGID_73_" d="M262.7,152.9l-0.1,40.8c0,5.6-3.7,11.1-11,15.4c-14.7,8.6-38.7,8.6-53.5,0l0.1-40.8
					c14.8,8.6,38.8,8.6,53.5,0C259,164,262.7,158.5,262.7,152.9z"/>
			</defs>
			<clipPath id="SVGID_74_">
				<use xlink:href="#SVGID_73_"  style="overflow:visible;"/>
			</clipPath>
			<g class="st78">
				<g>
					<path class="st17" d="M262.7,152.9l-0.1,40.8c0,0.1,0,0.2,0,0.3l0.1-40.8V152.9"/>
					<path class="st18" d="M262.7,153.2l-0.1,40.8c0,0.7-0.1,1.5-0.2,2.2l0.1-40.8C262.6,154.7,262.7,154,262.7,153.2"/>
					<path class="st19" d="M262.4,155.4l-0.1,40.8c-0.1,0.7-0.3,1.4-0.6,2.1l0.1-40.8C262.1,156.8,262.3,156.1,262.4,155.4"/>
					<path class="st20" d="M261.8,157.5l-0.1,40.8c-0.3,0.7-0.6,1.5-1,2.1l0.1-40.8C261.2,159,261.6,158.3,261.8,157.5"/>
					<path class="st21" d="M260.8,159.7l-0.1,40.8c-0.4,0.8-1,1.5-1.5,2.3l0.1-40.8C259.9,161.2,260.4,160.5,260.8,159.7"/>
					<path class="st22" d="M259.3,161.9l-0.1,40.8c-0.7,0.9-1.5,1.7-2.3,2.5l0.1-40.8C257.8,163.7,258.6,162.8,259.3,161.9"/>
					<path class="st23" d="M257,164.5l-0.1,40.8c-1.5,1.3-3.1,2.5-4.8,3.6l0.1-40.8C253.9,167,255.5,165.8,257,164.5"/>
					<path class="st24" d="M252.2,168l-0.2,40.8l-0.5,0.3c-2.6,1.5-5.4,2.7-8.3,3.6l0.1-40.8c2.9-0.9,5.7-2.1,8.3-3.6L252.2,168"/>
					<path class="st23" d="M243.4,171.9l-0.1,40.8c-2.3,0.8-4.7,1.3-7.2,1.8l0.1-40.8C238.7,173.3,241.1,172.7,243.4,171.9"/>
					<path class="st22" d="M236.2,173.7l-0.1,40.8c-1.6,0.3-3.2,0.5-4.8,0.7l0.1-40.8C233.1,174.2,234.7,174,236.2,173.7"/>
					<path class="st21" d="M231.4,174.4l-0.1,40.8c-1.4,0.1-2.8,0.2-4.2,0.3l0.1-40.8C228.6,174.7,230,174.5,231.4,174.4"/>
					<path class="st20" d="M227.2,174.7l-0.1,40.8c-1.3,0.1-2.6,0.1-3.9,0l0.1-40.8C224.7,174.7,226,174.7,227.2,174.7"/>
					<path class="st19" d="M223.4,174.7l-0.1,40.8c-1.2,0-2.5-0.1-3.7-0.2l0.1-40.8C220.9,174.6,222.1,174.6,223.4,174.7"/>
					<path class="st18" d="M219.6,174.5l-0.1,40.8c-1.2-0.1-2.5-0.2-3.7-0.4l0.1-40.8C217.2,174.2,218.4,174.4,219.6,174.5"/>
					<path class="st17" d="M216,174.1l-0.1,40.8c-1.3-0.2-2.5-0.4-3.8-0.6l0.1-40.8C213.5,173.7,214.7,173.9,216,174.1"/>
					<path class="st35" d="M212.2,173.4l-0.1,40.8c-1.3-0.3-2.6-0.6-3.9-1l0.1-40.8C209.6,172.8,210.9,173.1,212.2,173.4"/>
					<path class="st34" d="M208.3,172.4l-0.1,40.8c-1.6-0.4-3.1-1-4.6-1.6l0.1-40.8C205.1,171.5,206.7,172,208.3,172.4"/>
					<path class="st33" d="M203.7,170.9l-0.1,40.8c-1.9-0.7-3.7-1.6-5.5-2.6l0.1-40.8C200,169.3,201.8,170.2,203.7,170.9"/>
				</g>
			</g>
		</g>
	</g>
</g>
<path class="st79" d="M299.9,97.9c4,2.3,4.1,6.1,0,8.4l-12.1,7l7.3,4.2c12.1,7,12.2,18.3,0.1,25.3c-4.6,2.3-10,2.3-14.6,0
	c-4-2.3-4.1-6.1,0-8.4s4-6.1,0-8.4l-24.4-14c-6.7-3.9-17.6-3.9-24.3,0s-6.7,10.2,0.1,14.1l19.5,11.3c14.8,8.6,14.9,22.4,0.2,31
	s-38.7,8.6-53.5,0l-2.4-1.4l-12.1,7c-4.6,2.3-10,2.3-14.6,0c-4-2.3-4.1-6.1-0.1-8.4l12.1-7.1l-7.3-4.2c-12.1-7-12.2-18.3-0.1-25.4
	c4.6-2.3,10-2.3,14.6,0c4,2.3,4.1,6.1,0.1,8.4s-4,6.1,0,8.4l24.4,14.1c6.7,3.9,17.6,3.9,24.3,0s6.7-10.2-0.1-14.1l-19.5-11.3
	c-14.8-8.6-14.9-22.4-0.2-31s38.7-8.6,53.5,0l2.4,1.4l12.1-7C289.9,95.6,295.3,95.5,299.9,97.9z"/>
<linearGradient id="SVGID_75_" gradientUnits="userSpaceOnUse" x1="251.3873" y1="137.3681" x2="287.6426" y2="77.6235" gradientTransform="matrix(1 0 0 -1 0 314)">
	<stop  offset="0" style="stop-color:#FFEF9F"/>
	<stop  offset="0.472" style="stop-color:#FDD57F"/>
	<stop  offset="1" style="stop-color:#D4A855"/>
</linearGradient>
<polygon class="st80" points="361.1,164.1 361,204.8 205.9,295 206,254.2 "/>
<linearGradient id="SVGID_76_" gradientUnits="userSpaceOnUse" x1="358.1" y1="196.65" x2="456.6" y2="196.65">
	<stop  offset="1.697628e-02" style="stop-color:#493314"/>
	<stop  offset="0.2002" style="stop-color:#60431A"/>
	<stop  offset="0.2508" style="stop-color:#60431A"/>
	<stop  offset="0.662" style="stop-color:#60431A"/>
	<stop  offset="0.8989" style="stop-color:#67471A"/>
	<stop  offset="1" style="stop-color:#5D4119"/>
</linearGradient>
<path class="st81" d="M456.6,182.9c0,0.1,0,0.1-0.1,0.2c0,0.2-0.1,0.4-0.2,0.6l0,0.1c-0.1,0.1-0.1,0.3-0.2,0.4l0,0c0,0,0,0.1,0,0.1
	c-0.1,0.1-0.2,0.3-0.3,0.4c0,0-0.1,0.1-0.1,0.1l0,0c-0.5,0.6-1.2,1.2-2,1.7l0,0c-0.1,0.1-0.3,0.2-0.4,0.3c-1.2,0.6-2.6,1.1-4.1,1.4
	c-0.1,0-0.1,0-0.2,0c-0.4,0.1-0.7,0.1-1.1,0.1c-0.3,0-0.6,0-0.9,0l0,0.1c0,0-0.1,0-0.1,0l0-0.1h-0.6h-73l0-17.2l-12.2-7l-0.1,22.3
	c-1.9-1.1-2.8-2.6-2.8-4.1l-0.1,40.8c0,0,0,0,0,0l0,0.1c0,1.5,1,3,3,4.2c0.5,0.3,1,0.5,1.5,0.7l0-0.1c0,0,0.1,0,0.1,0l0,0.1
	c0.3,0.1,0.7,0.3,1.1,0.4l0,0c0.4,0.1,0.7,0.2,1.1,0.3l0-0.1c0,0,0.1,0,0.1,0l0,0.1c0.3,0.1,0.7,0.1,1,0.2l0-0.1c0,0,0.1,0,0.1,0
	c0.3,0.1,0.7,0.1,1,0.1c0.3,0.1,0.6,0.1,0.9,0.1h0.4h77.8h0l0,0.1c2.9,0,5.5-0.7,7.4-1.8l0,0c0.4-0.2,0.7-0.5,1-0.8
	c0.1-0.1,0.2-0.2,0.3-0.2c0,0,0,0,0,0v0c0,0,0.1-0.1,0.1-0.1l0,0.1c0.2-0.2,0.4-0.5,0.6-0.7l0-0.1c0.2-0.2,0.3-0.4,0.4-0.6l0,0.1
	c0.1-0.2,0.2-0.4,0.3-0.6l0-0.1c0.1-0.2,0.1-0.4,0.2-0.7c0-0.1,0-0.3,0-0.4l0.1-40.8v-0.1C456.6,182.6,456.6,182.7,456.6,182.9z"/>
<linearGradient id="SVGID_77_" gradientUnits="userSpaceOnUse" x1="420.9439" y1="106.1886" x2="306.8163" y2="347.4652" gradientTransform="matrix(1 0 0 -1 0 314)">
	<stop  offset="2.591463e-02" style="stop-color:#936722"/>
	<stop  offset="0.5399" style="stop-color:#C48D35"/>
	<stop  offset="1" style="stop-color:#9E6A1A"/>
</linearGradient>
<path class="st82" d="M453.3,133.1c1.9,1.1,3,2.6,3,4.2l0.2,45.1c0,3.3-4.6,6-10.3,6h-77.8c-2.5,0-5.1-0.6-7.3-1.8
	c-4-2.3-4.1-6.1,0-8.4l12.1-7l-12.2-7l-39-22.5c-4-2.3-4.1-6.1,0-8.4l38.8-22.5c4.6-2.3,10-2.3,14.6,0l39,22.5l12.2,7.1l12.1-7
	c4.6-2.3,10-2.3,14.6,0L453.3,133.1z"/>
<polygon class="st14" points="206,254.2 205.9,295 30.2,193.6 30.3,152.8 "/>
<linearGradient id="SVGID_78_" gradientUnits="userSpaceOnUse" x1="319.1829" y1="66.8585" x2="182.0765" y2="246.8585" gradientTransform="matrix(1 0 0 -1 0 314)">
	<stop  offset="0" style="stop-color:#FFEF9F"/>
	<stop  offset="0.472" style="stop-color:#FDD57F"/>
	<stop  offset="1" style="stop-color:#D4A855"/>
</linearGradient>
<path class="st83" d="M375.4,110.5c-4.6-2.3-10-2.3-14.6,0L322,133.1c-4,2.3-4,6.1,0,8.4l39,22.5l-155,90.1L30.3,152.8l24.2-14.1
	l39,22.5c4.6,2.3,10,2.3,14.6,0l38.8-22.5c4-2.3,4-6.1,0-8.4l-39-22.5l155-90.1L438.6,119l-24.2,14.1L375.4,110.5z M232,126
	c-6.7-3.9-6.8-10.2-0.1-14.1s17.6-3.9,24.3,0l24.4,14.1c4,2.3,4.1,6.1,0,8.4s-4,6.1,0,8.4c4.6,2.3,10,2.3,14.6,0
	c12-7,12-18.3-0.1-25.3l-7.3-4.2l12.1-7c4-2.3,4-6.1,0-8.4c-4.6-2.3-10-2.3-14.6,0l-12.1,7l-2.4-1.4c-14.8-8.6-38.8-8.6-53.5,0
	s-14.6,22.4,0.2,31l19.5,11.3c6.7,3.9,6.8,10.2,0.1,14.1s-17.6,3.9-24.3,0l-24.4-14.1c-4-2.3-4-6.1,0-8.4s4-6.1,0-8.4
	c-4.6-2.3-10-2.3-14.6,0c-12,7-11.9,18.3,0.1,25.4l7.3,4.2l-12.2,7c-4,2.3-4,6.1,0.1,8.4c4.6,2.3,10,2.3,14.6,0l12.1-7l2.4,1.4
	c14.8,8.6,38.8,8.6,53.5,0c14.7-8.6,14.6-22.4-0.2-31L232,126"/>
<linearGradient id="SVGID_79_" gradientUnits="userSpaceOnUse" x1="0" y1="243.9" x2="206" y2="243.9">
	<stop  offset="0" style="stop-color:#493314"/>
	<stop  offset="7.150865e-02" style="stop-color:#493314"/>
	<stop  offset="0.6978" style="stop-color:#493314"/>
	<stop  offset="0.7827" style="stop-color:#583D18"/>
	<stop  offset="0.857" style="stop-color:#6A4A1D"/>
	<stop  offset="1" style="stop-color:#6A4A1D"/>
</linearGradient>
<path class="st84" d="M206,254.2l-24.2,14.1c-1.5,0.8-3,1.4-4.5,1.9l0,0.1c0,0-0.1,0-0.1,0v0c-1.3,0.4-2.6,0.7-3.9,0.9
	c-0.9,0.2-1.7,0.3-2.6,0.4c-0.8,0.1-1.5,0.2-2.3,0.1l0,0.1c-0.3,0-0.5,0-0.8,0c-0.3,0-0.6,0-0.9,0c-0.4,0-0.8,0-1.2,0
	c-0.2,0-0.4,0-0.6,0c-0.5,0-0.9-0.1-1.4-0.1c-0.2,0-0.4,0-0.6-0.1c-0.3,0-0.5-0.1-0.8-0.1l0,0c-0.6-0.1-1.3-0.2-2-0.4l0,0.1
	c-0.7-0.2-1.4-0.3-2.1-0.5l0,0c-0.4-0.1-0.8-0.2-1.1-0.3c-1.6-0.5-3-1.2-4.4-2l0,0.1L6.2,183.8c0,0,0,0,0,0l0-0.1
	c-4.1-2.3-6.1-5.4-6.1-8.5L0,216c0,3.1,2,6.2,6.1,8.6l0-0.1L152.5,309c0,0,0,0,0,0l0,0.1c1,0.5,2,1,3,1.4c0.8,0.3,1.7,0.6,2.5,0.8
	l0,0c0,0,0,0,0,0l0,0.1c0.7,0.2,1.4,0.4,2.1,0.5l0-0.1c0.6,0.2,1.3,0.3,2,0.4l0,0c0,0,0,0,0,0l0,0.1c0.7,0.1,1.3,0.1,2,0.2l0-0.1
	c0,0,0.1,0,0.1,0l0,0.1c0.6,0.1,1.3,0.1,2,0.1s1.4,0,2.1,0l0-0.1c0.8,0,1.5,0,2.3-0.1c0.9-0.1,1.7-0.2,2.6-0.4
	c0.5-0.1,1-0.2,1.5-0.3c0.8-0.2,1.7-0.4,2.5-0.7l0,0c0.9-0.3,1.8-0.7,2.7-1.1c0.2-0.1,0.3-0.1,0.4-0.2c0.5-0.2,0.9-0.5,1.3-0.7
	l0-0.1l24.2-13.9L206,254.2z"/>
<linearGradient id="SVGID_80_" gradientUnits="userSpaceOnUse" x1="158.1803" y1="-18.1027" x2="44.0527" y2="223.1739" gradientTransform="matrix(1 0 0 -1 0 314)">
	<stop  offset="2.591463e-02" style="stop-color:#936722"/>
	<stop  offset="0.5399" style="stop-color:#C48D35"/>
	<stop  offset="1" style="stop-color:#9E6A1A"/>
</linearGradient>
<path class="st85" d="M206,254.2l-24.2,14.1c-8,4.7-21.1,4.7-29.2,0L6.2,183.8c-8.1-4.7-8.1-12.2-0.1-16.9l24.2-14.1L206,254.2z"/>
</svg>
