<?xml version="1.0" encoding="utf-8"?>
<!-- Generator: Adobe Illustrator 25.2.0, SVG Export Plug-In . SVG Version: 6.00 Build 0)  -->
<svg version="1.1" id="Capa_1" xmlns="http://www.w3.org/2000/svg" xmlns:xlink="http://www.w3.org/1999/xlink" x="0px" y="0px"
	 viewBox="0 0 465 310.5" style="enable-background:new 0 0 465 310.5;" xml:space="preserve">
<style type="text/css">
	.st0{clip-path:url(#SVGID_2_);}
	.st1{fill:#473213;}
	.st2{fill:#4A3414;}
	.st3{fill:#4D3615;}
	.st4{fill:url(#SVGID_3_);}
	.st5{fill:#493314;}
	.st6{clip-path:url(#SVGID_5_);}
	.st7{fill:#785C2D;}
	.st8{clip-path:url(#SVGID_7_);}
	.st9{fill:#70562A;}
	.st10{fill:#74592B;}
	.st11{clip-path:url(#SVGID_9_);}
	.st12{clip-path:url(#SVGID_11_);}
	.st13{fill:#7B5E2E;}
	.st14{fill:#7F6130;}
	.st15{clip-path:url(#SVGID_13_);}
	.st16{fill:#6C5329;}
	.st17{clip-path:url(#SVGID_15_);}
	.st18{fill:#695027;}
	.st19{clip-path:url(#SVGID_17_);}
	.st20{fill:#654D26;}
	.st21{clip-path:url(#SVGID_19_);}
	.st22{clip-path:url(#SVGID_21_);}
	.st23{fill:#614A24;}
	.st24{clip-path:url(#SVGID_23_);}
	.st25{clip-path:url(#SVGID_25_);}
	.st26{fill:#836431;}
	.st27{fill:#876732;}
	.st28{clip-path:url(#SVGID_27_);}
	.st29{clip-path:url(#SVGID_29_);}
	.st30{fill:#858585;}
	.st31{fill:#8F6D35;}
	.st32{clip-path:url(#SVGID_31_);}
	.st33{clip-path:url(#SVGID_33_);}
	.st34{fill:url(#SVGID_34_);}
	.st35{fill:url(#SVGID_35_);stroke:#DCB15E;stroke-miterlimit:10;}
	.st36{clip-path:url(#SVGID_37_);}
	.st37{clip-path:url(#SVGID_39_);}
	.st38{fill:#949494;}
	.st39{fill:#999999;}
	.st40{fill:#9E9E9E;}
	.st41{fill:#A3A3A3;}
	.st42{fill:#A8A8A8;}
	.st43{fill:#ADADAD;}
	.st44{fill:#B3B3B3;}
	.st45{fill:#B8B8B8;}
	.st46{fill:#B9B9B9;}
	.st47{fill:#898989;}
	.st48{clip-path:url(#SVGID_41_);}
	.st49{fill:#8F8F8F;}
	.st50{fill:#8A8A8A;}
	.st51{fill:#FFFFFF;}
	.st52{fill:url(#SVGID_42_);}
	.st53{fill:url(#SVGID_43_);stroke:#EFC570;stroke-width:0.5;stroke-miterlimit:10;}
</style>
<g>
	<g>
		<g>
			<defs>
				<path id="SVGID_1_" d="M181,60l-0.1,40.8c-2.6-1.4-5.3-2.5-8.2-3.3l0.1-40.8C175.7,57.5,178.4,58.6,181,60z"/>
			</defs>
			<clipPath id="SVGID_2_">
				<use xlink:href="#SVGID_1_"  style="overflow:visible;"/>
			</clipPath>
			<g class="st0">
				<g>
					<path class="st1" d="M181,60l-0.1,40.8c-1.4-0.8-2.8-1.5-4.3-2.1l0.1-40.8C178.2,58.6,179.6,59.2,181,60"/>
					<path class="st2" d="M176.7,58l-0.1,40.8c-1.1-0.4-2.3-0.8-3.5-1.2l0.1-40.8C174.3,57.1,175.5,57.5,176.7,58"/>
					<path class="st3" d="M173.1,56.8L173,97.5l-0.3-0.1l0.1-40.8L173.1,56.8"/>
				</g>
			</g>
		</g>
	</g>
</g>
<linearGradient id="SVGID_3_" gradientUnits="userSpaceOnUse" x1="215.6504" y1="77.928" x2="405.6504" y2="77.928">
	<stop  offset="2.717173e-07" style="stop-color:#644D26"/>
	<stop  offset="1" style="stop-color:#906E36"/>
</linearGradient>
<path class="st4" d="M382.5,48c-3.6-2.1-7.4-3.9-11.4-5.5l0,0c-3.1-1.2-6.3-2.3-9.5-3.2c-2.7-0.8-5.5-1.4-8.2-2l0,0c0,0-0.1,0-0.1,0
	v0c0,0-0.1,0-0.1,0c-1.4-0.3-2.9-0.6-4.4-0.8c-1.1-0.2-2.2-0.4-3.2-0.5l0,0c-2.6-0.3-5.1-0.6-7.6-0.9l0,0.1c0,0-0.1,0-0.1,0v0
	c-2.3-0.2-4.7-0.4-7.1-0.4c-0.4,0-0.9,0-1.3,0c-2.5-0.1-4.9-0.1-7.3,0l0,0c0,0-0.1,0-0.1,0l0,0c-2.9,0.1-5.8,0.3-8.7,0.6
	c-3.4,0.3-6.7,0.8-10,1.4c-5.1,0.9-10,2.1-14.9,3.7l0,0l0,0l0,0c-5.9,1.9-11.7,4.2-17.1,7.3l0-0.3l-55.6,32.8l-0.1,40.7l55.5-32.1
	c0.8-0.4,1.6-0.9,2.4-1.3c0.4-0.2,0.8-0.4,1.2-0.6c0.8-0.4,1.5-0.8,2.3-1.2c0,0,0.1,0,0.1,0c13.7-6.5,30.4-9.9,47.3-10.2
	c1,0,2,0,3,0c0.7,0,1.5,0,2.2,0c0.2,0,0.3,0,0.5,0c2.4,0.1,4.7,0.2,7.1,0.4c11.9,0.9,23.5,3.4,33.9,7.5v0c0.9,0.3,1.8,0.7,2.6,1.1
	c3,1.3,5.9,2.7,8.7,4.3c15.5,8.9,23.2,20.7,23.2,32.4l0.1-40.8C405.7,68.6,397.9,56.9,382.5,48z"/>
<polygon class="st5" points="215.8,80.2 215.7,120.9 180.9,100.8 181,60 "/>
<g>
	<g>
		<g>
			<defs>
				<path id="SVGID_4_" d="M200.3,170.6l0.1-40.8h1.8c0,13.6,0,27.2-0.1,40.8C201.5,170.6,200.9,170.6,200.3,170.6z"/>
			</defs>
			<clipPath id="SVGID_5_">
				<use xlink:href="#SVGID_4_"  style="overflow:visible;"/>
			</clipPath>
			<g class="st6">
				<g>
					<path class="st7" d="M203.9,129.9l-0.1,40.8c-1.3,0-2.7,0-4,0l0.1-40.8C201.3,129.9,202.6,129.9,203.9,129.9"/>
				</g>
			</g>
		</g>
	</g>
</g>
<g>
	<g>
		<g>
			<defs>
				<path id="SVGID_6_" d="M207.9,170.9c-1.9-0.2-3.9-0.3-5.8-0.2c0-13.6,0.1-27.2,0.1-40.8c2,0,3.9,0.1,5.8,0.2
					C208,143.7,208,157.3,207.9,170.9z"/>
			</defs>
			<clipPath id="SVGID_7_">
				<use xlink:href="#SVGID_6_"  style="overflow:visible;"/>
			</clipPath>
			<g class="st8">
				<g>
					<path class="st9" d="M211.6,130.5l-0.1,40.8c-1.3-0.2-2.5-0.3-3.8-0.4l0.1-40.8C209.1,130.2,210.3,130.3,211.6,130.5"/>
					<path class="st10" d="M207.8,130.1l-0.1,40.8c-1.3-0.1-2.6-0.2-3.9-0.2l0.1-40.8C205.2,129.9,206.5,130,207.8,130.1"/>
					<path class="st7" d="M203.9,129.9l-0.1,40.8c-1.3,0-2.7,0-4,0l0.1-40.8C201.3,129.9,202.6,129.9,203.9,129.9"/>
				</g>
			</g>
		</g>
	</g>
</g>
<g>
	<g>
		<g>
			<defs>
				<path id="SVGID_8_" d="M207.9,170.9c0-13.6,0.1-27.2,0.1-40.8c0.6,0.1,1.1,0.1,1.7,0.2c0,13.6-0.1,27.2-0.1,40.8L207.9,170.9z"
					/>
			</defs>
			<clipPath id="SVGID_9_">
				<use xlink:href="#SVGID_8_"  style="overflow:visible;"/>
			</clipPath>
			<g class="st11">
				<g>
					<path class="st9" d="M211.6,130.5l-0.1,40.8c-1.3-0.2-2.5-0.3-3.8-0.4l0.1-40.8C209.1,130.2,210.3,130.3,211.6,130.5"/>
				</g>
			</g>
		</g>
	</g>
</g>
<g>
	<g>
		<g>
			<defs>
				<path id="SVGID_10_" d="M200.3,170.6c-1.9,0.1-3.8,0.2-5.7,0.4c0-13.6,0-27.2,0.1-40.8c1.9-0.2,3.8-0.3,5.7-0.4L200.3,170.6z"/>
			</defs>
			<clipPath id="SVGID_11_">
				<use xlink:href="#SVGID_10_"  style="overflow:visible;"/>
			</clipPath>
			<g class="st12">
				<g>
					<path class="st7" d="M203.9,129.9l-0.1,40.8c-1.3,0-2.7,0-4,0l0.1-40.8C201.3,129.9,202.6,129.9,203.9,129.9"/>
					<path class="st13" d="M199.9,129.9l-0.1,40.8c-1.5,0-2.9,0.1-4.4,0.3l0.1-40.8C197,130,198.4,129.9,199.9,129.9"/>
					<path class="st14" d="M195.5,130.2l-0.1,40.8c-1.7,0.2-3.4,0.4-5,0.7l0.1-40.8C192.2,130.6,193.9,130.3,195.5,130.2"/>
				</g>
			</g>
		</g>
	</g>
</g>
<g>
	<g>
		<g>
			<defs>
				<path id="SVGID_12_" d="M213.8,171.6c-1.4-0.2-2.8-0.5-4.2-0.6c0-13.6,0-27.2,0.1-40.8c1.4,0.1,2.8,0.4,4.2,0.6L213.8,171.6z"/>
			</defs>
			<clipPath id="SVGID_13_">
				<use xlink:href="#SVGID_12_"  style="overflow:visible;"/>
			</clipPath>
			<g class="st15">
				<g>
					<path class="st16" d="M215.5,131.2l-0.1,40.8c-1.3-0.3-2.6-0.5-3.9-0.7l0.1-40.8C212.9,130.7,214.2,130.9,215.5,131.2"/>
					<path class="st9" d="M211.6,130.5l-0.1,40.8c-1.3-0.2-2.5-0.3-3.8-0.4l0.1-40.8C209.1,130.2,210.3,130.3,211.6,130.5"/>
				</g>
			</g>
		</g>
	</g>
</g>
<g>
	<g>
		<g>
			<defs>
				<path id="SVGID_14_" d="M213.8,171.6l0.1-40.8c1,0.2,2.1,0.4,3.1,0.6c0,13.6-0.1,27.2-0.1,40.8
					C215.9,172,214.9,171.8,213.8,171.6z"/>
			</defs>
			<clipPath id="SVGID_15_">
				<use xlink:href="#SVGID_14_"  style="overflow:visible;"/>
			</clipPath>
			<g class="st17">
				<g>
					<path class="st18" d="M219.6,132.2l-0.1,40.8c-1.3-0.4-2.7-0.7-4.1-1l0.1-40.8C216.9,131.5,218.3,131.8,219.6,132.2"/>
					<path class="st16" d="M215.5,131.2l-0.1,40.8c-1.3-0.3-2.6-0.5-3.9-0.7l0.1-40.8C212.9,130.7,214.2,130.9,215.5,131.2"/>
				</g>
			</g>
		</g>
	</g>
</g>
<g>
	<g>
		<g>
			<defs>
				<path id="SVGID_16_" d="M219.5,173c-0.9-0.2-1.7-0.5-2.6-0.7c0-13.6,0-27.2,0.1-40.8c0.9,0.2,1.8,0.4,2.6,0.7L219.5,173z"/>
			</defs>
			<clipPath id="SVGID_17_">
				<use xlink:href="#SVGID_16_"  style="overflow:visible;"/>
			</clipPath>
			<g class="st19">
				<g>
					<path class="st20" d="M224.4,133.8l-0.1,40.8c-1.5-0.6-3.1-1.1-4.8-1.6l0.1-40.8C221.2,132.6,222.8,133.2,224.4,133.8"/>
					<path class="st18" d="M219.6,132.2l-0.1,40.8c-1.3-0.4-2.7-0.7-4.1-1l0.1-40.8C216.9,131.5,218.3,131.8,219.6,132.2"/>
				</g>
			</g>
		</g>
	</g>
</g>
<g>
	<g>
		<g>
			<defs>
				<path id="SVGID_18_" d="M219.5,173l0.1-40.8c1.4,0.4,2.9,0.9,4.2,1.4l-0.1,40.8C222.4,173.8,221,173.4,219.5,173z"/>
			</defs>
			<clipPath id="SVGID_19_">
				<use xlink:href="#SVGID_18_"  style="overflow:visible;"/>
			</clipPath>
			<g class="st21">
				<g>
					<path class="st20" d="M224.4,133.8l-0.1,40.8c-1.5-0.6-3.1-1.1-4.8-1.6l0.1-40.8C221.2,132.6,222.8,133.2,224.4,133.8"/>
				</g>
			</g>
		</g>
	</g>
</g>
<g>
	<g>
		<g>
			<defs>
				<path id="SVGID_20_" d="M228.6,176.5c-1.6-0.8-3.2-1.5-4.8-2.2l0.1-40.8c1.6,0.6,3.3,1.3,4.8,2.2
					C228.7,149.3,228.6,162.9,228.6,176.5z"/>
			</defs>
			<clipPath id="SVGID_21_">
				<use xlink:href="#SVGID_20_"  style="overflow:visible;"/>
			</clipPath>
			<g class="st22">
				<g>
					<path class="st23" d="M241.6,152.7l-0.1,40.8c0-5.9-3.9-11.7-11.6-16.2c-1.8-1-3.7-2-5.7-2.7l0.1-40.8c2,0.8,3.9,1.7,5.7,2.7
						C237.8,141,241.7,146.9,241.6,152.7"/>
					<path class="st20" d="M224.4,133.8l-0.1,40.8c-1.5-0.6-3.1-1.1-4.8-1.6l0.1-40.8C221.2,132.6,222.8,133.2,224.4,133.8"/>
				</g>
			</g>
		</g>
	</g>
</g>
<g>
	<g>
		<g>
			<defs>
				<path id="SVGID_22_" d="M228.6,176.5c0-13.6,0.1-27.2,0.1-40.8c0.5,0.2,0.9,0.5,1.4,0.7c0,13.6-0.1,27.2-0.1,40.8
					C229.5,177,229.1,176.8,228.6,176.5z"/>
			</defs>
			<clipPath id="SVGID_23_">
				<use xlink:href="#SVGID_22_"  style="overflow:visible;"/>
			</clipPath>
			<g class="st24">
				<g>
					<path class="st23" d="M241.6,152.7l-0.1,40.8c0-5.9-3.9-11.7-11.6-16.2c-1.8-1-3.7-2-5.7-2.7l0.1-40.8c2,0.8,3.9,1.7,5.7,2.7
						C237.8,141,241.7,146.9,241.6,152.7"/>
				</g>
			</g>
		</g>
	</g>
</g>
<g>
	<g>
		<g>
			<defs>
				<path id="SVGID_24_" d="M174.3,177.3c-7.3,4.2-11.4,9.9-11.4,15.8l0.1-40.8c0-5.9,4.1-11.6,11.4-15.8c6.3-3.5,13.2-5.6,20.3-6.3
					c0,13.6-0.1,27.2-0.1,40.8C187.5,171.7,180.6,173.8,174.3,177.3L174.3,177.3z"/>
			</defs>
			<clipPath id="SVGID_25_">
				<use xlink:href="#SVGID_24_"  style="overflow:visible;"/>
			</clipPath>
			<g class="st25">
				<g>
					<path class="st14" d="M195.5,130.2l-0.1,40.8c-1.7,0.2-3.4,0.4-5,0.7l0.1-40.8C192.2,130.6,193.9,130.3,195.5,130.2"/>
					<path class="st26" d="M190.5,130.9l-0.1,40.8c-2.5,0.5-5,1.1-7.4,1.9l0.1-40.8C185.5,131.9,188,131.3,190.5,130.9"/>
					<path class="st27" d="M183.1,132.7l-0.1,40.8c-3,1-5.9,2.2-8.6,3.8l-0.6,0.3l0.1-40.8l0.6-0.3
						C177.2,135,180.1,133.7,183.1,132.7"/>
					<path class="st26" d="M173.9,136.9l-0.1,40.8c-1.8,1-3.4,2.3-4.9,3.6l0.1-40.8C170.5,139.1,172.1,137.9,173.9,136.9"/>
					<path class="st14" d="M169,140.5l-0.1,40.8c-0.9,0.8-1.7,1.7-2.4,2.6l0.1-40.8C167.3,142.2,168.1,141.3,169,140.5"/>
					<path class="st13" d="M166.6,143.1l-0.1,40.8c-0.6,0.7-1.1,1.5-1.6,2.3l0.1-40.8C165.5,144.6,166,143.8,166.6,143.1"/>
					<path class="st7" d="M165,145.4l-0.1,40.8c-0.4,0.7-0.7,1.4-1,2.2l0.1-40.8C164.3,146.9,164.6,146.1,165,145.4"/>
					<path class="st10" d="M164,147.6l-0.1,40.8c-0.3,0.7-0.5,1.4-0.6,2.2l0.1-40.8C163.5,149.1,163.7,148.3,164,147.6"/>
					<path class="st9" d="M163.3,149.8l-0.1,40.8c-0.1,0.7-0.2,1.5-0.2,2.2l0.1-40.8C163.1,151.3,163.2,150.5,163.3,149.8"/>
					<path class="st16" d="M163.1,152l-0.1,40.8v0.4l0.1-40.8C163.1,152.2,163.1,152.1,163.1,152"/>
				</g>
			</g>
		</g>
	</g>
</g>
<g>
	<g>
		<g>
			<defs>
				<path id="SVGID_26_" d="M241.5,193.5c0-5.9-3.9-11.8-11.6-16.2c0-13.6,0-27.2,0.1-40.8c7.8,4.5,11.6,10.4,11.6,16.2
					C241.6,165,241.6,181.3,241.5,193.5z"/>
			</defs>
			<clipPath id="SVGID_27_">
				<use xlink:href="#SVGID_26_"  style="overflow:visible;"/>
			</clipPath>
			<g class="st28">
				<g>
					<path class="st23" d="M241.6,152.7l-0.1,40.8c0-5.9-3.9-11.7-11.6-16.2c-1.8-1-3.7-2-5.7-2.7l0.1-40.8c2,0.8,3.9,1.7,5.7,2.7
						C237.8,141,241.7,146.9,241.6,152.7"/>
				</g>
			</g>
		</g>
	</g>
</g>
<g>
	<g>
		<g>
			<defs>
				<path id="SVGID_28_" d="M163,193.1l0.1-40.8c0,0.4,0,0.8,0.1,1.2l-0.1,40.8C163,193.9,163,193.5,163,193.1z"/>
			</defs>
			<clipPath id="SVGID_29_">
				<use xlink:href="#SVGID_28_"  style="overflow:visible;"/>
			</clipPath>
			<g class="st29">
				<g>
					<path class="st30" d="M163.1,153.6l-0.1,40.8c0-0.4,0-0.8,0-1.2l0.1-40.8C163.1,152.8,163.2,153.2,163.1,153.6"/>
				</g>
			</g>
		</g>
	</g>
</g>
<polygon class="st31" points="163.1,153.6 163,194.3 128.4,204.4 128.5,163.6 "/>
<polygon class="st5" points="362.2,164.7 362.1,205.4 327.3,185.3 327.4,144.6 "/>
<g>
	<g>
		<g>
			<defs>
				<path id="SVGID_30_" d="M123,209.5l0.1-40.8c0-2.1,2-4.1,5.4-5.1l-0.1,40.8C125,205.4,123,207.4,123,209.5z"/>
			</defs>
			<clipPath id="SVGID_31_">
				<use xlink:href="#SVGID_30_"  style="overflow:visible;"/>
			</clipPath>
			<g class="st32">
				<g>
					<path class="st26" d="M128.5,163.6l-0.1,40.8l-0.4,0.1l0.1-40.8L128.5,163.6"/>
					<path class="st27" d="M128.1,163.7l-0.1,40.8c-0.8,0.2-1.6,0.6-2.3,1l0.1-40.8C126.6,164.3,127.3,164,128.1,163.7"/>
					<path class="st26" d="M125.8,164.8l-0.1,40.7c-0.4,0.3-0.8,0.6-1.2,0.9l0.1-40.8C125,165.3,125.4,165,125.8,164.8"/>
					<path class="st14" d="M124.6,165.7l-0.1,40.8c-0.2,0.2-0.4,0.4-0.6,0.7l0.1-40.8C124.2,166.1,124.4,165.9,124.6,165.7"/>
					<path class="st13" d="M124,166.3l-0.1,40.8c-0.1,0.2-0.3,0.4-0.4,0.6l0.1-40.8C123.7,166.7,123.8,166.5,124,166.3"/>
					<path class="st7" d="M123.6,166.9l-0.1,40.8c-0.1,0.2-0.2,0.4-0.3,0.6l0.1-40.8C123.4,167.3,123.5,167.1,123.6,166.9"/>
					<path class="st10" d="M123.3,167.5l-0.1,40.8c-0.1,0.2-0.1,0.4-0.2,0.6l0.1-40.8C123.1,167.9,123.2,167.7,123.3,167.5"/>
					<path class="st9" d="M123.2,168.1l-0.1,40.8c0,0.2-0.1,0.4-0.1,0.6l0.1-40.8C123.1,168.4,123.2,168.2,123.2,168.1"/>
					<path class="st16" d="M123.1,168.6l-0.1,40.8v0.1l0.1-40.8V168.6"/>
				</g>
			</g>
		</g>
	</g>
</g>
<g>
	<g>
		<g>
			<defs>
				<path id="SVGID_32_" d="M368,169.4l-0.1,40.8c-1.6-1.9-3.6-3.5-5.8-4.7l0.1-40.8C364.4,165.9,366.4,167.5,368,169.4z"/>
			</defs>
			<clipPath id="SVGID_33_">
				<use xlink:href="#SVGID_32_"  style="overflow:visible;"/>
			</clipPath>
			<g class="st33">
				<g>
					<path class="st1" d="M368,169.4l-0.1,40.8c-1.6-1.9-3.6-3.5-5.8-4.7l0.1-40.8C364.4,165.9,366.4,167.5,368,169.4"/>
				</g>
			</g>
		</g>
	</g>
</g>
<linearGradient id="SVGID_34_" gradientUnits="userSpaceOnUse" x1="367.8504" y1="145.4125" x2="464.5504" y2="145.4125">
	<stop  offset="2.717173e-07" style="stop-color:#644D26"/>
	<stop  offset="1" style="stop-color:#906E36"/>
</linearGradient>
<path class="st34" d="M464.4,83.3l0-1.5c0,2.6-0.3,5.2-0.9,7.8l0,0.1c-0.3,1.8-0.8,3.6-1.4,5.4c-0.1,0.2-0.1,0.4-0.2,0.5
	c0,0.1-0.1,0.2-0.1,0.3c-0.2,0.5-0.4,1-0.6,1.5l0-0.1c-1,2.7-2.2,5.3-3.7,7.8l0,0.1c-0.7,1.3-1.5,2.5-2.3,3.8
	c-0.2,0.4-0.5,0.7-0.7,1.1c-0.1,0.1-0.1,0.2-0.2,0.2c-0.8,1.1-1.6,2.2-2.5,3.3c-0.5,0.6-1,1.3-1.6,1.9c-0.3,0.4-0.6,0.7-1,1.1
	c-0.2,0.3-0.5,0.6-0.7,0.8c-0.4,0.5-0.9,1-1.4,1.5c0,0,0,0,0,0c-1.2,1.2-2.4,2.5-3.7,3.7l0,0c-5.3,4.9-11.2,9.2-17.4,12.8l0,0.1
	c-0.5,0.3-1,0.6-1.6,0.9L368,169.4l-0.1,40.8l56.6-32.9l0.1-0.1l0,0.2c26.5-15.5,39.8-35.7,39.9-56c0,0.4,0,0.8,0,1.2l0.1-40.8
	c0-0.4,0-0.8,0-1.2C464.5,81.5,464.5,82.4,464.4,83.3z"/>
<linearGradient id="SVGID_35_" gradientUnits="userSpaceOnUse" x1="328.1243" y1="336.2007" x2="306.1243" y2="123.2007" gradientTransform="matrix(1 0 0 -1 0 313.025)">
	<stop  offset="2.591463e-02" style="stop-color:#936722"/>
	<stop  offset="0.5399" style="stop-color:#C48D35"/>
	<stop  offset="1" style="stop-color:#9E6A1A"/>
</linearGradient>
<path class="st35" d="M424,23.8c53.8,31.1,54.1,81.6,0.6,112.7L368,169.4c-1.6-1.9-3.6-3.5-5.8-4.7l-34.9-20.1l55.4-32.2
	c30.6-17.8,30.5-46.6-0.4-64.4s-80.6-17.8-111.2,0l-55.4,32.2l-34.9-20.1c-2.6-1.5-5.3-2.6-8.2-3.3l56.6-32.9
	C283-7.3,370.1-7.3,424,23.8z"/>
<g>
	<g>
		<g>
			<defs>
				<path id="SVGID_36_" d="M123,209.5l0.1-40.8c0,0.9,0.4,1.9,1,2.6c0.5,0.6,1.2,1.1,1.9,1.5l-0.1,40.7c-0.7-0.4-1.3-0.9-1.9-1.5
					C123.4,211.3,123,210.4,123,209.5z"/>
			</defs>
			<clipPath id="SVGID_37_">
				<use xlink:href="#SVGID_36_"  style="overflow:visible;"/>
			</clipPath>
			<g class="st36">
				<g>
					<path class="st30" d="M126,172.7l-0.1,40.8c-0.7-0.4-1.3-0.9-1.9-1.5c-0.7-0.7-1-1.6-1.1-2.6l0.1-40.8c0,0.9,0.4,1.9,1,2.6
						C124.6,171.9,125.3,172.4,126,172.7"/>
				</g>
			</g>
		</g>
	</g>
</g>
<g>
	<g>
		<g>
			<defs>
				<path id="SVGID_38_" d="M241.6,152.7l-0.1,40.8c0,5.8-3.8,11.6-11.4,16s-18.4,6.9-29.4,6.6l0.1-40.8c11,0.3,21.7-2.1,29.4-6.6
					S241.6,158.5,241.6,152.7z"/>
			</defs>
			<clipPath id="SVGID_39_">
				<use xlink:href="#SVGID_38_"  style="overflow:visible;"/>
			</clipPath>
			<g class="st37">
				<g>
					<path class="st38" d="M241.6,152.7l-0.1,40.8c0,0.1,0,0.2,0,0.3l0.1-40.8V152.7"/>
					<path class="st39" d="M241.6,153.1l-0.1,40.8c0,0.8-0.1,1.5-0.2,2.3l0.1-40.8C241.5,154.6,241.6,153.8,241.6,153.1"/>
					<path class="st40" d="M241.4,155.3l-0.1,40.8c-0.2,0.8-0.4,1.5-0.6,2.2l0.1-40.8C241,156.8,241.2,156.1,241.4,155.3"/>
					<path class="st41" d="M240.8,157.6l-0.1,40.8c-0.3,0.8-0.6,1.5-1.1,2.2l0.1-40.8C240.1,159.1,240.5,158.3,240.8,157.6"/>
					<path class="st42" d="M239.7,159.8l-0.1,40.7c-0.5,0.8-1,1.6-1.6,2.4l0.1-40.8C238.7,161.3,239.2,160.6,239.7,159.8"/>
					<path class="st43" d="M238.1,162.1l-0.1,40.8c-0.7,0.9-1.6,1.8-2.4,2.6l0.1-40.8C236.6,163.9,237.4,163.1,238.1,162.1"/>
					<path class="st44" d="M235.7,164.7l-0.1,40.8c-1.5,1.4-3.2,2.7-5.1,3.7l0.1-40.8C232.4,167.4,234.1,166.2,235.7,164.7"/>
					<path class="st45" d="M230.6,168.5l-0.1,40.8l-0.4,0.2c-2.8,1.6-5.7,2.9-8.7,3.8l0.1-40.8c3-1,6-2.2,8.7-3.8L230.6,168.5"/>
					<path class="st44" d="M221.5,172.6l-0.1,40.8c-2.4,0.8-4.8,1.4-7.3,1.8l0.1-40.8C216.7,173.9,219.1,173.3,221.5,172.6"/>
					<path class="st43" d="M214.3,174.3l-0.1,40.8c-1.6,0.3-3.3,0.5-5,0.7l0.1-40.8C211,174.9,212.7,174.6,214.3,174.3"/>
					<path class="st42" d="M209.3,175l-0.1,40.8c-1.4,0.1-2.8,0.2-4.3,0.3l0.1-40.8C206.5,175.3,207.9,175.2,209.3,175"/>
					<path class="st41" d="M205,175.3l-0.1,40.8c-1.3,0-2.6,0-4,0l0.1-40.8C202.4,175.3,203.7,175.3,205,175.3"/>
					<path class="st40" d="M201.1,175.3l-0.1,40.8h-0.2l0.1-40.8H201.1"/>
				</g>
			</g>
		</g>
	</g>
</g>
<polygon class="st46" points="200.8,175.3 200.7,216.1 183.5,236.2 183.6,195.4 "/>
<polygon class="st47" points="167.8,196.9 167.7,237.7 125.9,213.5 126,172.7 "/>
<g>
	<g>
		<g>
			<defs>
				<path id="SVGID_40_" d="M183.6,195.4l-0.1,40.8c-0.5,0.6-1.2,1.1-1.9,1.5c-4.4,2.2-9.5,2.2-13.9,0l0.1-40.8
					c4.4,2.2,9.5,2.2,13.9,0C182.4,196.5,183.1,196,183.6,195.4z"/>
			</defs>
			<clipPath id="SVGID_41_">
				<use xlink:href="#SVGID_40_"  style="overflow:visible;"/>
			</clipPath>
			<g class="st48">
				<g>
					<path class="st43" d="M183.6,195.4l-0.1,40.8c-0.1,0.2-0.3,0.3-0.5,0.5l0.1-40.8C183.3,195.8,183.4,195.6,183.6,195.4"/>
					<path class="st44" d="M183.1,195.9l-0.1,40.8c-0.4,0.4-0.8,0.7-1.2,0.9l0.1-40.8C182.3,196.6,182.7,196.2,183.1,195.9"/>
					<path class="st45" d="M181.9,196.8l-0.1,40.8l-0.1,0.1c-0.7,0.4-1.4,0.7-2.1,0.9l0.1-40.8c0.7-0.2,1.5-0.6,2.1-0.9L181.9,196.8
						"/>
					<path class="st44" d="M179.6,197.9l-0.1,40.8c-0.6,0.2-1.2,0.3-1.9,0.5l0.1-40.8C178.4,198.2,179,198,179.6,197.9"/>
					<path class="st43" d="M177.7,198.3l-0.1,40.8c-0.4,0.1-0.8,0.1-1.2,0.2l0.1-40.8C176.9,198.5,177.3,198.4,177.7,198.3"/>
					<path class="st42" d="M176.5,198.5l-0.1,40.8c-0.4,0-0.7,0.1-1.1,0.1l0.1-40.8C175.8,198.6,176.1,198.6,176.5,198.5"/>
					<path class="st41" d="M175.4,198.6l-0.1,40.8c-0.3,0-0.7,0-1,0l0.1-40.8H175.4"/>
					<path class="st40" d="M174.4,198.6l-0.1,40.8c-0.3,0-0.6,0-1,0l0.1-40.8C173.7,198.6,174,198.6,174.4,198.6"/>
					<path class="st39" d="M173.4,198.5l-0.1,40.8c-0.3,0-0.6-0.1-0.9-0.1l0.1-40.8C172.8,198.4,173.1,198.5,173.4,198.5"/>
					<path class="st38" d="M172.5,198.4l-0.1,40.8l-1-0.2l0.1-40.8L172.5,198.4"/>
					<path class="st49" d="M171.5,198.2l-0.1,40.8c-0.4-0.1-0.7-0.2-1-0.3l0.1-40.8C170.8,198.1,171.2,198.2,171.5,198.2"/>
					<path class="st50" d="M170.5,198l-0.1,40.8c-0.4-0.1-0.8-0.2-1.2-0.4l0.1-40.8C169.7,197.7,170.1,197.9,170.5,198"/>
					<path class="st30" d="M169.3,197.6l-0.1,40.8c-0.5-0.2-1-0.4-1.4-0.7l0.1-40.8C168.3,197.2,168.8,197.4,169.3,197.6"/>
				</g>
			</g>
		</g>
	</g>
</g>
<path class="st51" d="M230.1,136.5c15.4,8.9,15.5,23.3,0.2,32.2c-7.7,4.5-18.4,6.9-29.4,6.6l-17.2,20.1c-0.5,0.6-1.1,1.1-1.8,1.5
	c-4.4,2.2-9.5,2.2-13.9,0l-41.8-24.1c-0.7-0.4-1.3-0.9-1.9-1.5c-2.4-2.8-0.5-6.2,4.4-7.6l34.6-10c-0.6-6.4,3.5-12.6,11.3-17.1
	C189.8,127.6,214.6,127.6,230.1,136.5z"/>
<linearGradient id="SVGID_42_" gradientUnits="userSpaceOnUse" x1="0.1504" y1="231.5" x2="370.8227" y2="231.5">
	<stop  offset="2.717173e-07" style="stop-color:#644D26"/>
	<stop  offset="5.419042e-02" style="stop-color:#644D26"/>
	<stop  offset="0.4341" style="stop-color:#644D26"/>
	<stop  offset="0.5413" style="stop-color:#7B5E2E"/>
	<stop  offset="0.662" style="stop-color:#906E36"/>
	<stop  offset="0.9553" style="stop-color:#906E36"/>
	<stop  offset="1" style="stop-color:#644D26"/>
</linearGradient>
<path class="st52" d="M370.8,177.4c-0.1,0.4-0.1,0.8-0.1,1.2c0,0.2-0.1,0.4-0.1,0.6l0-0.3c-0.1,0.6-0.2,1.1-0.5,1.7l0,0.2
	c-0.1,0.3-0.2,0.6-0.4,0.8c-0.1,0.2-0.2,0.4-0.3,0.6l0,0c0,0,0,0,0,0l0,0c-0.4,0.7-0.8,1.2-1.2,1.8v0c-0.1,0.1-0.1,0.2-0.2,0.3
	c-0.6,0.7-1.2,1.3-1.9,2c-0.9,0.8-1.9,1.5-2.8,2.2c-0.2,0.1-0.3,0.2-0.5,0.3l0,0l-0.4,0.2l0,0.1l-124.7,72.4v0
	c-0.6,0.3-1.2,0.7-1.8,1c-2.2,1.1-4.5,2.1-6.9,3c-0.7,0.2-1.3,0.5-2,0.7c-1.5,0.5-3,0.9-4.5,1.3c-0.1,0-0.1,0-0.2,0.1
	c-1.5,0.4-3.1,0.7-4.6,0.9l0,0c-2,0.4-4.1,0.7-6.2,0.9v0c-0.6,0.1-1.1,0.1-1.7,0.2c-1.6,0.1-3.2,0.2-4.9,0.2c-1.2,0-2.4,0-3.6,0
	c-1.4,0-2.8-0.1-4.2-0.2c-0.3,0-0.6-0.1-0.9-0.1l0,0c-1.6-0.1-3.2-0.3-4.8-0.5v0c-0.8-0.1-1.6-0.2-2.4-0.4c-0.1,0-0.1,0-0.2,0
	c-0.8-0.1-1.6-0.3-2.3-0.5l0,0.1c-1.7-0.4-3.4-0.8-5.1-1.3v0c0,0-0.1,0-0.1,0c-2.4-0.7-4.7-1.5-6.8-2.4c-0.2-0.1-0.4-0.2-0.7-0.3
	c-0.2-0.1-0.5-0.2-0.7-0.3c-1.6-0.7-3.2-1.5-4.8-2.4c0,0,0,0,0,0L14.8,172.7c-9.1-5.2-13.9-12-14.4-18.8c0-0.5-0.1-0.9-0.1-1.4
	l-0.1,40.7c0,7.4,4.8,14.7,14.5,20.3l153.4,88.6c0,0,0,0,0,0c2,1.2,4.2,2.2,6.5,3.1c0.2,0.1,0.4,0.2,0.6,0.3c0.1,0,0.2,0.1,0.3,0.1
	c1.8,0.7,3.7,1.3,5.7,1.9l0,0.1c1.6,0.4,3.4,0.8,5.1,1.2l0,0c0.8,0.2,1.6,0.3,2.3,0.4c0.1,0,0.1,0,0.2,0c0.7,0.1,1.5,0.2,2.3,0.4
	l0,0.1c1.6,0.2,3.2,0.4,4.8,0.5l0-0.1c0.6,0,1.2,0.1,1.8,0.1c1,0.1,2.1,0.1,3.1,0.1c1.6,0.1,3.3,0.1,5,0l0,0c0,0,0.1,0,0.1,0l0,0
	c1.1-0.1,2.1-0.1,3.2-0.2c0.7-0.1,1.4-0.1,2.1-0.2l0,0.1c2.1-0.2,4.2-0.5,6.3-0.9l0-0.1c5.2-0.9,10.2-2.4,14.7-4.3
	c0.2-0.1,0.5-0.2,0.7-0.3c0.5-0.2,1-0.4,1.5-0.7c0.4-0.2,0.7-0.4,1.1-0.5c0.7-0.4,1.4-0.8,2.1-1.2v0l124.6-72.4l0,0l0,0.1
	c0.1-0.1,0.3-0.2,0.4-0.2l0,0c0.5-0.3,0.9-0.6,1.4-0.9c4.3-3,6.6-6.7,6.8-10.4c0-0.1,0-0.2,0-0.3v0.1l0.1-40.8V177
	C370.8,177.1,370.8,177.3,370.8,177.4z"/>
<linearGradient id="SVGID_43_" gradientUnits="userSpaceOnUse" x1="185.5632" y1="2.5125" x2="185.5632" y2="260.3826" gradientTransform="matrix(1 0 0 -1 0 313.025)">
	<stop  offset="0" style="stop-color:#FFEF9F"/>
	<stop  offset="0.472" style="stop-color:#FDD57F"/>
	<stop  offset="1" style="stop-color:#D4A855"/>
</linearGradient>
<path class="st53" d="M368,169.4c5.3,6.3,3.4,14.2-5.7,19.4l-124.7,72.4c-19.1,11.1-50.2,11.1-69.5,0L14.8,172.7
	c-19.2-11.1-19.4-29.1-0.2-40.2L139.3,60c9-5.3,22.6-6.4,33.5-3.3c2.9,0.8,5.6,1.9,8.2,3.3l34.9,20.1l111.6,64.4l34.9,20.1
	C364.4,165.9,366.4,167.5,368,169.4z M167.8,196.9c4.4,2.2,9.5,2.2,13.9,0c0.7-0.4,1.3-0.9,1.8-1.5l17.2-20.1
	c11,0.3,21.7-2.1,29.4-6.6c15.3-8.9,15.2-23.3-0.2-32.2s-40.3-8.9-55.6,0c-7.8,4.5-11.9,10.7-11.3,17.1l-34.6,10
	c-4.8,1.4-6.8,4.8-4.3,7.6c0.5,0.6,1.2,1.1,1.9,1.5L167.8,196.9"/>
</svg>
