<?xml version="1.0" encoding="utf-8"?>
<!-- Generator: Adobe Illustrator 25.2.0, SVG Export Plug-In . SVG Version: 6.00 Build 0)  -->
<svg version="1.1" id="Capa_1" xmlns="http://www.w3.org/2000/svg" xmlns:xlink="http://www.w3.org/1999/xlink" x="0px" y="0px"
	 viewBox="0 0 493.1 344" style="enable-background:new 0 0 493.1 344;" xml:space="preserve">
<style type="text/css">
	.st0{clip-path:url(#SVGID_2_);}
	.st1{fill:#876732;}
	.st2{fill:#836431;}
	.st3{fill:#7F6130;}
	.st4{fill:#7B5E2E;}
	.st5{fill:#785C2D;}
	.st6{fill:#74592B;}
	.st7{fill:#70562A;}
	.st8{fill:#6C5329;}
	.st9{clip-path:url(#SVGID_4_);}
	.st10{fill:#473213;}
	.st11{clip-path:url(#SVGID_6_);}
	.st12{clip-path:url(#SVGID_8_);}
	.st13{clip-path:url(#SVGID_10_);}
	.st14{fill:#493314;}
	.st15{fill:#906E36;}
	.st16{fill:#6A4A1D;}
	.st17{clip-path:url(#SVGID_12_);}
	.st18{clip-path:url(#SVGID_14_);}
	.st19{fill:#614A24;}
	.st20{fill:#654D26;}
	.st21{fill:#695027;}
	.st22{clip-path:url(#SVGID_16_);}
	.st23{clip-path:url(#SVGID_18_);}
	.st24{clip-path:url(#SVGID_20_);}
	.st25{clip-path:url(#SVGID_22_);}
	.st26{clip-path:url(#SVGID_24_);}
	.st27{fill:#949494;}
	.st28{fill:#999999;}
	.st29{fill:#9E9E9E;}
	.st30{fill:#A3A3A3;}
	.st31{clip-path:url(#SVGID_26_);}
	.st32{clip-path:url(#SVGID_28_);}
	.st33{clip-path:url(#SVGID_30_);}
	.st34{clip-path:url(#SVGID_32_);}
	.st35{clip-path:url(#SVGID_34_);}
	.st36{fill:#A8A8A8;}
	.st37{fill:#ADADAD;}
	.st38{fill:#B3B3B3;}
	.st39{fill:#B8B8B8;}
	.st40{clip-path:url(#SVGID_36_);}
	.st41{clip-path:url(#SVGID_38_);}
	.st42{fill:#C5C5C5;}
	.st43{clip-path:url(#SVGID_40_);}
	.st44{clip-path:url(#SVGID_42_);}
	.st45{clip-path:url(#SVGID_44_);}
	.st46{fill:#8F8F8F;}
	.st47{fill:#8A8A8A;}
	.st48{fill:#858585;}
	.st49{fill:#A5A5A5;}
	.st50{fill:#795D2D;}
	.st51{clip-path:url(#SVGID_46_);}
	.st52{clip-path:url(#SVGID_48_);}
	.st53{clip-path:url(#SVGID_50_);}
	.st54{fill:#644D26;}
	.st55{clip-path:url(#SVGID_52_);}
	.st56{clip-path:url(#SVGID_54_);}
	.st57{clip-path:url(#SVGID_56_);}
	.st58{clip-path:url(#SVGID_58_);}
	.st59{fill:#898989;}
	.st60{clip-path:url(#SVGID_60_);}
	.st61{fill:url(#SVGID_61_);stroke:#FCD37E;stroke-width:0.5;stroke-miterlimit:10;}
	.st62{fill:url(#SVGID_62_);stroke:#FCD37E;stroke-width:0.5;stroke-miterlimit:10;}
	.st63{clip-path:url(#SVGID_64_);}
	.st64{clip-path:url(#SVGID_66_);}
	.st65{clip-path:url(#SVGID_68_);}
	.st66{clip-path:url(#SVGID_70_);}
	.st67{clip-path:url(#SVGID_72_);}
	.st68{clip-path:url(#SVGID_74_);}
	.st69{clip-path:url(#SVGID_76_);}
	.st70{clip-path:url(#SVGID_78_);}
	.st71{clip-path:url(#SVGID_80_);}
	.st72{clip-path:url(#SVGID_82_);}
	.st73{clip-path:url(#SVGID_84_);}
	.st74{clip-path:url(#SVGID_86_);}
	.st75{clip-path:url(#SVGID_88_);}
	.st76{clip-path:url(#SVGID_90_);}
	.st77{clip-path:url(#SVGID_92_);}
	.st78{fill:url(#SVGID_93_);}
	.st79{clip-path:url(#SVGID_95_);}
	.st80{clip-path:url(#SVGID_97_);}
	.st81{clip-path:url(#SVGID_99_);}
	.st82{clip-path:url(#SVGID_101_);}
	.st83{fill:#FFFFFF;}
	.st84{clip-path:url(#SVGID_103_);}
	.st85{clip-path:url(#SVGID_105_);}
	.st86{fill:#4A3414;}
	.st87{fill:#4D3615;}
	.st88{fill:#4F3815;}
	.st89{fill:#523A16;}
	.st90{fill:#553C17;}
	.st91{fill:#583D18;}
	.st92{fill:#5A3F18;}
	.st93{fill:#5D4119;}
	.st94{fill:#60431A;}
	.st95{fill:#63451B;}
	.st96{clip-path:url(#SVGID_107_);}
	.st97{clip-path:url(#SVGID_109_);}
	.st98{fill:url(#SVGID_110_);stroke:#FDD883;stroke-width:0.5;stroke-miterlimit:10;}
	.st99{fill:url(#SVGID_111_);stroke:#FCD37E;stroke-width:0.5;stroke-miterlimit:10;}
	.st100{fill:url(#SVGID_112_);}
	.st101{clip-path:url(#SVGID_114_);}
	.st102{fill:#DCDCDC;}
	.st103{fill:url(#SVGID_115_);}
	.st104{fill:url(#SVGID_116_);stroke:#FEE492;stroke-width:0.5;stroke-miterlimit:10;}
	.st105{fill:url(#SVGID_117_);}
</style>
<g>
	<g>
		<g>
			<defs>
				<path id="SVGID_1_" d="M208.1,56.1l0.1-40.8c0-3.8,2.5-7.7,7.6-10.6l-0.1,40.8C210.6,48.4,208.1,52.2,208.1,56.1z"/>
			</defs>
			<clipPath id="SVGID_2_">
				<use xlink:href="#SVGID_1_"  style="overflow:visible;"/>
			</clipPath>
			<g class="st0">
				<g>
					<path class="st1" d="M215.7,4.7l-0.1,40.8l-0.3,0.2l0.1-40.8L215.7,4.7"/>
					<path class="st2" d="M215.4,4.9l-0.1,40.8c-1.2,0.7-2.3,1.5-3.3,2.4l0.1-40.8C213.1,6.4,214.2,5.6,215.4,4.9"/>
					<path class="st3" d="M212.1,7.3L212,48.1c-0.6,0.5-1.1,1.1-1.6,1.7L210.5,9C211,8.4,211.5,7.9,212.1,7.3"/>
					<path class="st4" d="M210.5,9.1l-0.1,40.8c-0.4,0.5-0.7,1-1,1.5l0.1-40.8C209.8,10.1,210.2,9.6,210.5,9.1"/>
					<path class="st5" d="M209.5,10.6l-0.1,40.8c-0.3,0.5-0.5,1-0.7,1.5l0.1-40.8C209,11.6,209.2,11.1,209.5,10.6"/>
					<path class="st6" d="M208.8,12.1l-0.1,40.8c-0.2,0.5-0.3,1-0.4,1.5l0.1-40.8C208.4,13.1,208.6,12.6,208.8,12.1"/>
					<path class="st7" d="M208.3,13.6l-0.1,40.7c-0.1,0.5-0.2,1-0.2,1.5l0.1-40.8C208.2,14.5,208.2,14,208.3,13.6"/>
					<path class="st8" d="M208.2,15.1l-0.1,40.7V56l0.1-40.8C208.2,15.2,208.2,15.2,208.2,15.1"/>
				</g>
			</g>
		</g>
	</g>
</g>
<g>
	<g>
		<g>
			<defs>
				<path id="SVGID_3_" d="M210,61.8c-1.2-1.7-1.9-3.7-1.9-5.8l0.1-40.8c0,2.1,0.7,4.1,1.9,5.8C210.1,34.6,210.1,48.2,210,61.8z"/>
			</defs>
			<clipPath id="SVGID_4_">
				<use xlink:href="#SVGID_3_"  style="overflow:visible;"/>
			</clipPath>
			<g class="st9">
				<g>
					<path class="st10" d="M215.9,26l-0.1,40.8c-5.1-3-7.7-6.8-7.7-10.7l0.1-40.8C208.2,19.2,210.7,23.1,215.9,26"/>
				</g>
			</g>
		</g>
	</g>
</g>
<g>
	<g>
		<g>
			<defs>
				<path id="SVGID_5_" d="M210.8,62.8c-0.3-0.3-0.5-0.7-0.8-1c0-13.6,0.1-27.2,0.1-40.8c0.2,0.3,0.5,0.7,0.8,1L210.8,62.8z"/>
			</defs>
			<clipPath id="SVGID_6_">
				<use xlink:href="#SVGID_5_"  style="overflow:visible;"/>
			</clipPath>
			<g class="st11">
				<g>
					<path class="st10" d="M215.9,26l-0.1,40.8c-5.1-3-7.7-6.8-7.7-10.7l0.1-40.8C208.2,19.2,210.7,23.1,215.9,26"/>
				</g>
			</g>
		</g>
	</g>
</g>
<g>
	<g>
		<g>
			<defs>
				<path id="SVGID_7_" d="M210.8,62.8c0-0.3,0-0.6,0-0.9l0.1-39.9c0.5,0.6,1,1.1,1.6,1.6l-0.1,23.1c0,5.9-0.1,11.8-0.1,17.7
					C211.8,63.9,211.3,63.4,210.8,62.8z"/>
			</defs>
			<clipPath id="SVGID_8_">
				<use xlink:href="#SVGID_7_"  style="overflow:visible;"/>
			</clipPath>
			<g class="st12">
				<g>
					<path class="st10" d="M215.9,26l-0.1,40.8c-5.1-3-7.7-6.8-7.7-10.7l0.1-40.8C208.2,19.2,210.7,23.1,215.9,26"/>
				</g>
			</g>
		</g>
	</g>
</g>
<g>
	<g>
		<g>
			<defs>
				<path id="SVGID_9_" d="M215.7,66.8c-1.2-0.7-2.3-1.5-3.4-2.4c0-13.6,0-27.2,0.1-40.8c1,0.9,2.2,1.7,3.4,2.4
					C215.8,38.3,215.8,54.6,215.7,66.8z"/>
			</defs>
			<clipPath id="SVGID_10_">
				<use xlink:href="#SVGID_9_"  style="overflow:visible;"/>
			</clipPath>
			<g class="st13">
				<g>
					<path class="st10" d="M215.9,26l-0.1,40.8c-5.1-3-7.7-6.8-7.7-10.7l0.1-40.8C208.2,19.2,210.7,23.1,215.9,26"/>
				</g>
			</g>
		</g>
	</g>
</g>
<polygon class="st14" points="228.2,33.1 228,73.9 215.7,66.8 215.9,26 "/>
<polygon class="st15" points="215.9,26 215.7,66.8 7.8,187.7 7.9,146.9 "/>
<polygon class="st16" points="228.2,33.1 228,73.9 20.1,194.7 20.2,154 "/>
<g>
	<g>
		<g>
			<defs>
				<path id="SVGID_11_" d="M175,129.2c-1.9-0.2-3.8-0.2-5.6,0.3l0.1-40.8c1.8-0.4,3.7-0.5,5.6-0.2
					C175.1,102.1,175.1,115.6,175,129.2z"/>
			</defs>
			<clipPath id="SVGID_12_">
				<use xlink:href="#SVGID_11_"  style="overflow:visible;"/>
			</clipPath>
			<g class="st17">
				<g>
					<path class="st7" d="M175.4,88.5l-0.1,40.8H175l-0.8-0.1l0.1-40.8l0.7,0.1L175.4,88.5"/>
					<path class="st6" d="M174.4,88.4l-0.1,40.8c-0.3,0-0.7-0.1-1-0.1l0.1-40.8C173.7,88.4,174,88.4,174.4,88.4"/>
					<path class="st5" d="M173.4,88.4l-0.1,40.8h-1l0.1-40.8L173.4,88.4"/>
					<path class="st4" d="M172.4,88.4l-0.1,40.8c-0.3,0-0.7,0-1,0.1l0.1-40.8C171.7,88.4,172.1,88.4,172.4,88.4"/>
					<path class="st3" d="M171.4,88.4l-0.1,40.8c-0.4,0-0.8,0.1-1.1,0.2l0.1-40.8C170.6,88.5,171,88.5,171.4,88.4"/>
					<path class="st2" d="M170.3,88.6l-0.1,40.7l-0.7,0.2l0.1-40.8L170.3,88.6"/>
				</g>
			</g>
		</g>
	</g>
</g>
<g>
	<g>
		<g>
			<defs>
				<path id="SVGID_13_" d="M175,129.2L175,129.2c0-13.6,0-27.2,0.1-40.8l0,0L175,129.2l0.1-40.7c1.8,0.2,3.5,0.7,5.1,1.6l-0.1,40.7
					C178.5,129.9,176.8,129.4,175,129.2z"/>
			</defs>
			<clipPath id="SVGID_14_">
				<use xlink:href="#SVGID_13_"  style="overflow:visible;"/>
			</clipPath>
			<g class="st18">
				<g>
					<path class="st19" d="M183.1,93.9l-0.1,40.8c0-0.7-0.2-1.4-0.6-2c-0.6-0.8-1.4-1.5-2.3-1.9c-0.5-0.3-1-0.5-1.5-0.7l0.1-40.8
						c0.5,0.2,1,0.4,1.5,0.7c0.9,0.5,1.7,1.1,2.3,1.9C182.9,92.5,183.1,93.2,183.1,93.9"/>
					<path class="st20" d="M178.7,89.4l-0.1,40.8c-0.4-0.1-0.8-0.3-1.2-0.4l0.1-40.8C178,89.1,178.4,89.2,178.7,89.4"/>
					<path class="st21" d="M177.5,89l-0.1,40.8c-0.3-0.1-0.7-0.2-1.1-0.3l0.1-40.8C176.9,88.8,177.2,88.9,177.5,89"/>
					<path class="st8" d="M176.5,88.7l-0.1,40.8c-0.3-0.1-0.7-0.1-1.1-0.2l0.1-40.8C175.8,88.5,176.2,88.6,176.5,88.7"/>
					<path class="st7" d="M175.4,88.5l-0.1,40.8H175l-0.8-0.1l0.1-40.8l0.7,0.1L175.4,88.5"/>
				</g>
			</g>
		</g>
	</g>
</g>
<g>
	<g>
		<g>
			<defs>
				<path id="SVGID_15_" d="M169.5,88.7l-0.1,40.8c-1.9,0.5-3.6,1.3-5.3,2.3l0.1-40.8C165.9,90,167.7,89.2,169.5,88.7z"/>
			</defs>
			<clipPath id="SVGID_16_">
				<use xlink:href="#SVGID_15_"  style="overflow:visible;"/>
			</clipPath>
			<g class="st22">
				<g>
					<path class="st2" d="M169.5,88.7l-0.1,40.8c-0.3,0.1-0.5,0.1-0.8,0.2l0.1-40.8C169,88.9,169.3,88.8,169.5,88.7"/>
					<path class="st1" d="M168.7,89l-0.1,40.8c-1.6,0.5-3.1,1.2-4.5,2.1l0.1-40.8C165.7,90.2,167.2,89.5,168.7,89"/>
				</g>
			</g>
		</g>
	</g>
</g>
<g>
	<g>
		<g>
			<defs>
				<path id="SVGID_17_" d="M180.1,130.8L180.1,130.8l0.1-40.8l0,0L180.1,130.8l0.1-40.8c0.9,0.5,1.7,1.1,2.3,1.9l-0.1,40.8
					C181.8,131.9,181,131.3,180.1,130.8z"/>
			</defs>
			<clipPath id="SVGID_18_">
				<use xlink:href="#SVGID_17_"  style="overflow:visible;"/>
			</clipPath>
			<g class="st23">
				<g>
					<path class="st19" d="M183.1,93.9l-0.1,40.8c0-0.7-0.2-1.4-0.6-2c-0.6-0.8-1.4-1.5-2.3-1.9c-0.5-0.3-1-0.5-1.5-0.7l0.1-40.8
						c0.5,0.2,1,0.4,1.5,0.7c0.9,0.5,1.7,1.1,2.3,1.9C182.9,92.5,183.1,93.2,183.1,93.9"/>
				</g>
			</g>
		</g>
	</g>
</g>
<g>
	<g>
		<g>
			<defs>
				<rect id="SVGID_19_" x="182.4" y="92" width="0" height="40.8"/>
			</defs>
			<clipPath id="SVGID_20_">
				<use xlink:href="#SVGID_19_"  style="overflow:visible;"/>
			</clipPath>
			<g class="st24">
				<g>
					<path class="st19" d="M183.1,93.9l-0.1,40.8c0-0.7-0.2-1.4-0.6-2c-0.6-0.8-1.4-1.5-2.3-1.9c-0.5-0.3-1-0.5-1.5-0.7l0.1-40.8
						c0.5,0.2,1,0.4,1.5,0.7c0.9,0.5,1.7,1.1,2.3,1.9C182.9,92.5,183.1,93.2,183.1,93.9"/>
				</g>
			</g>
		</g>
	</g>
</g>
<g>
	<g>
		<g>
			<defs>
				<path id="SVGID_21_" d="M183,134.7c0-0.7-0.2-1.4-0.6-2l0.1-40.8c0.4,0.6,0.6,1.3,0.6,2C183.1,106.2,183,122.5,183,134.7z"/>
			</defs>
			<clipPath id="SVGID_22_">
				<use xlink:href="#SVGID_21_"  style="overflow:visible;"/>
			</clipPath>
			<g class="st25">
				<g>
					<path class="st19" d="M183.1,93.9l-0.1,40.8c0-0.7-0.2-1.4-0.6-2c-0.6-0.8-1.4-1.5-2.3-1.9c-0.5-0.3-1-0.5-1.5-0.7l0.1-40.8
						c0.5,0.2,1,0.4,1.5,0.7c0.9,0.5,1.7,1.1,2.3,1.9C182.9,92.5,183.1,93.2,183.1,93.9"/>
				</g>
			</g>
		</g>
	</g>
</g>
<g>
	<g>
		<g>
			<defs>
				<path id="SVGID_23_" d="M183.1,93.9l-0.1,40.8v0.1c0,0.8-0.2,1.6-0.5,2.4c-0.3,0.9-0.7,1.9-1.1,2.8l0.1-40.8l1.1-2.8
					C182.9,95.6,183.1,94.8,183.1,93.9L183.1,93.9z"/>
			</defs>
			<clipPath id="SVGID_24_">
				<use xlink:href="#SVGID_23_"  style="overflow:visible;"/>
			</clipPath>
			<g class="st26">
				<g>
					<path class="st27" d="M183.1,93.9l-0.1,40.8v0.1L183.1,93.9L183.1,93.9"/>
					<path class="st28" d="M183.1,94.1l-0.1,40.8c0,0.3,0,0.7-0.1,1l0.1-40.8C183,94.7,183.1,94.4,183.1,94.1"/>
					<path class="st29" d="M183,95l-0.1,40.7c-0.1,0.5-0.2,0.9-0.4,1.4l-0.5,1.3l0.1-40.8c0.2-0.4,0.3-0.9,0.5-1.3
						C182.7,96,182.9,95.5,183,95"/>
					<path class="st30" d="M182.1,97.7l-0.1,40.8l-0.6,1.5l0.1-40.8L182.1,97.7"/>
				</g>
			</g>
		</g>
	</g>
</g>
<g>
	<g>
		<g>
			<defs>
				<rect id="SVGID_25_" x="212" y="110.4" width="0" height="40.8"/>
			</defs>
			<clipPath id="SVGID_26_">
				<use xlink:href="#SVGID_25_"  style="overflow:visible;"/>
			</clipPath>
			<g class="st31">
				<g>
					<path class="st4" d="M212.1,110.4l-0.1,40.8h-0.1l-0.6,0.1l0.1-40.8c0.2,0,0.4,0,0.6,0L212.1,110.4"/>
				</g>
			</g>
		</g>
	</g>
</g>
<g>
	<g>
		<g>
			<defs>
				<path id="SVGID_27_" d="M217.7,152.5c-1.8-1-3.8-1.5-5.8-1.3l0.1-40.8c2-0.1,4,0.3,5.8,1.3v9.8c0,1.6,0,3.7,0,5.2
					c0,1.5,0,3.7,0,5.3L217.7,152.5z"/>
			</defs>
			<clipPath id="SVGID_28_">
				<use xlink:href="#SVGID_27_"  style="overflow:visible;"/>
			</clipPath>
			<g class="st32">
				<g>
					<path class="st19" d="M220.2,114.9l-0.1,40.8c0-1.1-0.8-2.2-2.4-3.1c-0.4-0.2-0.9-0.5-1.3-0.6l0.1-40.8
						c0.5,0.2,0.9,0.4,1.3,0.6C219.4,112.7,220.2,113.8,220.2,114.9"/>
					<path class="st20" d="M216.5,111.1l-0.1,40.8c-0.3-0.1-0.6-0.2-0.9-0.3l0.1-40.8C215.9,110.9,216.2,111,216.5,111.1"/>
					<path class="st21" d="M215.6,110.8l-0.1,40.8c-0.2-0.1-0.5-0.1-0.7-0.2l0.1-40.8C215.1,110.7,215.3,110.8,215.6,110.8"/>
					<path class="st8" d="M214.9,110.6l-0.1,40.8c-0.2-0.1-0.4-0.1-0.7-0.1l0.1-40.8C214.4,110.5,214.6,110.6,214.9,110.6"/>
					<path class="st7" d="M214.2,110.5l-0.1,40.8l-0.6-0.1l0.1-40.8L214.2,110.5"/>
					<path class="st6" d="M213.5,110.5l-0.1,40.8c-0.2,0-0.4,0-0.7,0l0.1-40.8C213.1,110.5,213.3,110.5,213.5,110.5"/>
					<path class="st5" d="M212.9,110.4l-0.1,40.8H212l0.1-40.8L212.9,110.4"/>
					<path class="st4" d="M212.1,110.4l-0.1,40.8h-0.1l-0.6,0.1l0.1-40.8c0.2,0,0.4,0,0.6,0L212.1,110.4"/>
				</g>
			</g>
		</g>
	</g>
</g>
<g>
	<g>
		<g>
			<defs>
				<path id="SVGID_29_" d="M205.2,153.4c0-13.6,0.1-27.2,0.1-40.8c2-1.3,4.3-2,6.7-2.2l-0.1,40.8
					C209.5,151.4,207.2,152.1,205.2,153.4z"/>
			</defs>
			<clipPath id="SVGID_30_">
				<use xlink:href="#SVGID_29_"  style="overflow:visible;"/>
			</clipPath>
			<g class="st33">
				<g>
					<path class="st4" d="M212.1,110.4l-0.1,40.8h-0.1l-0.6,0.1l0.1-40.8c0.2,0,0.4,0,0.6,0L212.1,110.4"/>
					<path class="st3" d="M211.4,110.5l-0.1,40.8c-0.3,0-0.6,0.1-0.9,0.1l0.1-40.8C210.7,110.6,211.1,110.5,211.4,110.5"/>
					<path class="st2" d="M210.4,110.6l-0.1,40.8c-0.6,0.1-1.1,0.3-1.7,0.4l0.1-40.8C209.3,110.9,209.9,110.7,210.4,110.6"/>
					<path class="st1" d="M208.7,111l-0.1,40.8c-1.2,0.4-2.3,0.9-3.4,1.6l0.1-40.8C206.4,112,207.5,111.4,208.7,111"/>
				</g>
			</g>
		</g>
	</g>
</g>
<g>
	<g>
		<g>
			<defs>
				<path id="SVGID_31_" d="M220.1,155.7c0-1.1-0.8-2.2-2.4-3.1c0-13.6,0.1-27.2,0.1-40.8c1.6,0.9,2.4,2,2.4,3.1
					C220.2,127.1,220.1,143.4,220.1,155.7z"/>
			</defs>
			<clipPath id="SVGID_32_">
				<use xlink:href="#SVGID_31_"  style="overflow:visible;"/>
			</clipPath>
			<g class="st34">
				<g>
					<path class="st19" d="M220.2,114.9l-0.1,40.8c0-1.1-0.8-2.2-2.4-3.1c-0.4-0.2-0.9-0.5-1.3-0.6l0.1-40.8
						c0.5,0.2,0.9,0.4,1.3,0.6C219.4,112.7,220.2,113.8,220.2,114.9"/>
				</g>
			</g>
		</g>
	</g>
</g>
<polygon class="st15" points="164.3,91 164.2,131.8 118,158.6 118.1,117.9 "/>
<g>
	<g>
		<g>
			<defs>
				<path id="SVGID_33_" d="M220.2,114.9l-0.1,40.8c0,0.1,0,0.2,0,0.3c-0.1,1.3-1.4,2.6-3.7,3.9l0.1-40.8c2.3-1.3,3.5-2.6,3.7-3.9
					C220.2,115.1,220.2,115,220.2,114.9z"/>
			</defs>
			<clipPath id="SVGID_34_">
				<use xlink:href="#SVGID_33_"  style="overflow:visible;"/>
			</clipPath>
			<g class="st35">
				<g>
					<path class="st27" d="M220.2,114.9l-0.1,40.8v0.1L220.2,114.9L220.2,114.9"/>
					<path class="st28" d="M220.2,115l-0.1,40.8c0,0.1,0,0.1,0,0.2c0,0.1,0,0.1,0,0.2l0.1-40.8v-0.2
						C220.2,115.1,220.2,115,220.2,115"/>
					<path class="st29" d="M220.2,115.4l-0.1,40.8c0,0.1-0.1,0.3-0.1,0.4l0.1-40.8C220.2,115.6,220.2,115.5,220.2,115.4"/>
					<path class="st30" d="M220.1,115.7l-0.1,40.8c-0.1,0.1-0.1,0.3-0.2,0.4l0.1-40.8C220,116,220,115.9,220.1,115.7"/>
					<path class="st36" d="M219.9,116.2l-0.1,40.8c-0.1,0.2-0.2,0.4-0.4,0.5l0.1-40.8C219.6,116.5,219.8,116.4,219.9,116.2"/>
					<path class="st37" d="M219.5,116.7l-0.1,40.8c-0.2,0.3-0.4,0.5-0.7,0.7l0.1-40.8C219.1,117.2,219.3,117,219.5,116.7"/>
					<path class="st38" d="M218.8,117.4l-0.1,40.8c-0.6,0.6-1.3,1-2,1.5l0.1-40.8C217.6,118.5,218.2,118,218.8,117.4"/>
					<path class="st39" d="M216.8,118.9l-0.1,40.8l-0.3,0.2l0.1-40.8L216.8,118.9"/>
				</g>
			</g>
		</g>
	</g>
</g>
<g>
	<g>
		<g>
			<defs>
				<path id="SVGID_35_" d="M234.3,164.2c-1.6-0.3-3.3-0.3-4.9,0l0.1-40.8c1.6-0.3,3.2-0.3,4.8,0C234.3,137,234.3,150.6,234.3,164.2
					z"/>
			</defs>
			<clipPath id="SVGID_36_">
				<use xlink:href="#SVGID_35_"  style="overflow:visible;"/>
			</clipPath>
			<g class="st40">
				<g>
					<path class="st21" d="M235.3,123.6l-0.1,40.8c-0.3-0.1-0.6-0.2-0.9-0.2h-0.1l0.1-40.8h0.1C234.7,123.5,235,123.6,235.3,123.6"
						/>
					<path class="st8" d="M234.3,123.4l-0.1,40.8c-0.2-0.1-0.5-0.1-0.7-0.1l0.1-40.8C233.8,123.3,234,123.3,234.3,123.4"/>
					<path class="st7" d="M233.5,123.3l-0.1,40.8c-0.2,0-0.4-0.1-0.7-0.1l0.1-40.8L233.5,123.3"/>
					<path class="st6" d="M232.9,123.2l-0.1,40.8c-0.2,0-0.4,0-0.6,0l0.1-40.8L232.9,123.2"/>
					<path class="st5" d="M232.2,123.1l-0.1,40.8c-0.2,0-0.4,0-0.7,0l0.1-40.8H232.2"/>
					<path class="st4" d="M231.5,123.1l-0.1,40.8c-0.2,0-0.5,0-0.8,0l0.1-40.8H231.5"/>
					<path class="st3" d="M230.8,123.2l-0.1,40.8c-0.3,0-0.6,0.1-0.9,0.1l0.1-40.8C230.2,123.3,230.5,123.2,230.8,123.2"/>
					<path class="st2" d="M229.9,123.3l-0.1,40.8l-0.3,0.1c-0.5,0.1-0.9,0.2-1.4,0.4l0.1-40.8c0.5-0.2,0.9-0.3,1.4-0.4L229.9,123.3"
						/>
				</g>
			</g>
		</g>
	</g>
</g>
<g>
	<g>
		<g>
			<defs>
				<rect id="SVGID_37_" x="229.5" y="123.4" width="0" height="40.8"/>
			</defs>
			<clipPath id="SVGID_38_">
				<use xlink:href="#SVGID_37_"  style="overflow:visible;"/>
			</clipPath>
			<g class="st41">
				<g>
					<path class="st2" d="M229.9,123.3l-0.1,40.8l-0.3,0.1c-0.5,0.1-0.9,0.2-1.4,0.4l0.1-40.8c0.5-0.2,0.9-0.3,1.4-0.4L229.9,123.3"
						/>
				</g>
			</g>
		</g>
	</g>
</g>
<polygon class="st42" points="164.6,104.1 164.5,144.8 129.4,165.2 129.5,124.5 "/>
<g>
	<g>
		<g>
			<defs>
				<path id="SVGID_39_" d="M234.3,164.2L234.3,164.2c0-13.6,0.1-27.2,0.1-40.8l0,0C234.3,137,234.3,150.5,234.3,164.2
					c0-13.6,0-27.2,0.1-40.8c1.8,0.4,3.4,1.1,5,2l-0.1,40.7l0.1-40.7l0,0l-0.1,40.8C237.7,165.2,236,164.6,234.3,164.2z"/>
			</defs>
			<clipPath id="SVGID_40_">
				<use xlink:href="#SVGID_39_"  style="overflow:visible;"/>
			</clipPath>
			<g class="st43">
				<g>
					<path class="st19" d="M239.4,125.4l-0.1,40.8c-0.9-0.5-1.8-0.9-2.7-1.3l0.1-40.8C237.6,124.5,238.5,124.9,239.4,125.4"/>
					<path class="st20" d="M236.7,124.1l-0.1,40.8c-0.5-0.2-1-0.4-1.4-0.5l0.1-40.8C235.8,123.8,236.2,123.9,236.7,124.1"/>
					<path class="st21" d="M235.3,123.6l-0.1,40.8c-0.3-0.1-0.6-0.2-0.9-0.2h-0.1l0.1-40.8h0.1C234.7,123.5,235,123.6,235.3,123.6"
						/>
				</g>
			</g>
		</g>
	</g>
</g>
<g>
	<g>
		<g>
			<defs>
				<path id="SVGID_41_" d="M229.4,164.2c-1.8,0.4-3.5,1.1-5.1,2c0-13.6,0.1-27.2,0.1-40.8c1.6-0.9,3.3-1.6,5.1-2L229.4,164.2z"/>
			</defs>
			<clipPath id="SVGID_42_">
				<use xlink:href="#SVGID_41_"  style="overflow:visible;"/>
			</clipPath>
			<g class="st44">
				<g>
					<path class="st2" d="M229.9,123.3l-0.1,40.8l-0.3,0.1c-0.5,0.1-0.9,0.2-1.4,0.4l0.1-40.8c0.5-0.2,0.9-0.3,1.4-0.4L229.9,123.3"
						/>
					<path class="st1" d="M228.1,123.8l-0.1,40.8c-1.3,0.4-2.5,1-3.6,1.6l0.1-40.8C225.6,124.7,226.8,124.2,228.1,123.8"/>
				</g>
			</g>
		</g>
	</g>
</g>
<g>
	<g>
		<g>
			<defs>
				<path id="SVGID_43_" d="M114.3,162.8l0.1-40.8c0,1.2,0.8,2.2,2.4,3.2c1.8,1,3.8,1.5,5.9,1.3c2.4-0.1,4.7-0.8,6.8-2.1l-0.1,40.8
					c-2.1,1.3-4.4,2-6.8,2.1c-2,0.1-4.1-0.4-5.9-1.4C115.1,165,114.3,164,114.3,162.8z"/>
			</defs>
			<clipPath id="SVGID_44_">
				<use xlink:href="#SVGID_43_"  style="overflow:visible;"/>
			</clipPath>
			<g class="st45">
				<g>
					<path class="st39" d="M129.5,124.5l-0.1,40.8c-1,0.6-2.1,1.1-3.2,1.5l0.1-40.8C127.4,125.6,128.5,125.1,129.5,124.5"/>
					<path class="st38" d="M126.3,125.9l-0.1,40.8c-0.6,0.2-1.1,0.3-1.7,0.4l0.1-40.8C125.1,126.2,125.7,126.1,126.3,125.9"/>
					<path class="st37" d="M124.5,126.4l-0.1,40.8c-0.3,0.1-0.7,0.1-1,0.1l0.1-40.8C123.9,126.5,124.2,126.4,124.5,126.4"/>
					<path class="st36" d="M123.6,126.5l-0.1,40.8c-0.3,0-0.5,0-0.8,0.1l0.1-40.8C123.1,126.6,123.3,126.6,123.6,126.5"/>
					<path class="st30" d="M122.8,126.5l-0.1,40.8h-0.8l0.1-40.8C122.2,126.5,122.5,126.5,122.8,126.5L122.8,126.5"/>
					<path class="st29" d="M122,126.5l-0.1,40.8h-0.8l0.1-40.8H122"/>
					<path class="st28" d="M121.2,126.5l-0.1,40.8l-0.7-0.1l0.1-40.8L121.2,126.5"/>
					<path class="st27" d="M120.5,126.4l-0.1,40.8c-0.2,0-0.5-0.1-0.7-0.1l0.1-40.8C120,126.3,120.3,126.4,120.5,126.4"/>
					<path class="st46" d="M119.8,126.3l-0.1,40.8l-0.8-0.2l0.1-40.8C119.3,126.2,119.5,126.2,119.8,126.3"/>
					<path class="st47" d="M119.1,126.1l-0.1,40.8c-0.3-0.1-0.6-0.2-0.9-0.3l0.1-40.8C118.5,125.9,118.8,126,119.1,126.1"/>
					<path class="st48" d="M118.1,125.8l-0.1,40.8c-0.4-0.2-0.9-0.4-1.3-0.6c-1.6-0.9-2.4-2-2.4-3.1l0.1-40.8c0,1.2,0.8,2.2,2.4,3.2
						C117.2,125.4,117.7,125.6,118.1,125.8"/>
				</g>
			</g>
		</g>
	</g>
</g>
<polygon class="st49" points="181.5,99.2 181.4,140 169.6,174.1 169.7,133.3 "/>
<polygon class="st15" points="205.3,112.6 205.2,153.4 169.6,174 169.7,133.3 "/>
<polygon class="st50" points="164.6,104.1 164.5,144.8 152.5,178.3 152.6,137.5 "/>
<g>
	<g>
		<g>
			<defs>
				<path id="SVGID_45_" d="M152.2,179.2l0.1-40.8c0.1-0.3,0.2-0.6,0.3-0.9l-0.1,40.8L152.2,179.2z"/>
			</defs>
			<clipPath id="SVGID_46_">
				<use xlink:href="#SVGID_45_"  style="overflow:visible;"/>
			</clipPath>
			<g class="st51">
				<g>
					<path class="st6" d="M152.6,137.5l-0.1,40.8c-0.3,0.9-0.6,1.9-0.8,2.8c-0.1,0.2-0.1,0.4-0.1,0.6l0.1-40.8
						c0-0.2,0.1-0.4,0.1-0.6C152,139.4,152.3,138.5,152.6,137.5"/>
				</g>
			</g>
		</g>
	</g>
</g>
<g>
	<g>
		<g>
			<defs>
				<path id="SVGID_47_" d="M151.4,182.3l0.1-40.8c0-0.4,0.1-0.8,0.2-1.2c0.2-0.6,0.4-1.3,0.6-1.9l-0.1,40.8
					c-0.2,0.6-0.4,1.3-0.6,1.9C151.6,181.5,151.5,181.9,151.4,182.3z"/>
			</defs>
			<clipPath id="SVGID_48_">
				<use xlink:href="#SVGID_47_"  style="overflow:visible;"/>
			</clipPath>
			<g class="st52">
				<g>
					<path class="st6" d="M152.6,137.5l-0.1,40.8c-0.3,0.9-0.6,1.9-0.8,2.8c-0.1,0.2-0.1,0.4-0.1,0.6l0.1-40.8
						c0-0.2,0.1-0.4,0.1-0.6C152,139.4,152.3,138.5,152.6,137.5"/>
					<path class="st7" d="M151.6,140.9l-0.1,40.8c-0.1,0.4-0.1,0.8-0.1,1.2l0.1-40.8C151.5,141.7,151.6,141.3,151.6,140.9"/>
				</g>
			</g>
		</g>
	</g>
</g>
<g>
	<g>
		<g>
			<defs>
				<path id="SVGID_49_" d="M151.4,182.3v0.1l0.1-40.8v-0.1c0,11.4-0.1,22.9-0.1,34.3c0,1.1,0,2.1,0,3.2v2.8
					C151.4,182.1,151.4,182.2,151.4,182.3z"/>
			</defs>
			<clipPath id="SVGID_50_">
				<use xlink:href="#SVGID_49_"  style="overflow:visible;"/>
			</clipPath>
			<g class="st53">
				<g>
					<path class="st7" d="M151.6,140.9l-0.1,40.8c-0.1,0.4-0.1,0.8-0.1,1.2l0.1-40.8C151.5,141.7,151.6,141.3,151.6,140.9"/>
				</g>
			</g>
		</g>
	</g>
</g>
<polygon class="st54" points="268.2,142 268.1,182.8 239.3,166.2 239.4,125.4 "/>
<g>
	<g>
		<g>
			<defs>
				<path id="SVGID_51_" d="M151.4,182.6c0-13.6,0-27.2,0.1-40.8c0-0.1,0-0.1,0-0.2l-0.1,40.8C151.4,182.5,151.4,182.5,151.4,182.6z
					"/>
			</defs>
			<clipPath id="SVGID_52_">
				<use xlink:href="#SVGID_51_"  style="overflow:visible;"/>
			</clipPath>
			<g class="st55">
				<g>
					<path class="st7" d="M151.6,140.9l-0.1,40.8c-0.1,0.4-0.1,0.8-0.1,1.2l0.1-40.8C151.5,141.7,151.6,141.3,151.6,140.9"/>
				</g>
			</g>
		</g>
	</g>
</g>
<g>
	<g>
		<g>
			<defs>
				<path id="SVGID_53_" d="M151.4,182.6c0,0.2,0,0.3,0,0.5l0.1-40.8c0-0.1,0-0.3,0-0.5l-0.1,30.7c0,1.7,0,3.3,0,5
					c0,0.9,0,1.7,0,2.6V182.6L151.4,182.6z"/>
			</defs>
			<clipPath id="SVGID_54_">
				<use xlink:href="#SVGID_53_"  style="overflow:visible;"/>
			</clipPath>
			<g class="st56">
				<g>
					<path class="st7" d="M151.6,140.9l-0.1,40.8c-0.1,0.4-0.1,0.8-0.1,1.2l0.1-40.8C151.5,141.7,151.6,141.3,151.6,140.9"/>
					<path class="st8" d="M151.5,142.1l-0.1,40.8v0.2l0.1-40.8C151.5,142.2,151.5,142.2,151.5,142.1"/>
				</g>
			</g>
		</g>
	</g>
</g>
<polygon class="st42" points="216.5,119.1 216.4,159.8 169.3,187.2 169.5,146.4 "/>
<polygon class="st15" points="224.5,125.4 224.4,166.2 178.3,192.9 178.4,152.2 "/>
<polygon class="st42" points="234.8,133.6 234.7,174.4 219.4,183.2 219.5,142.5 "/>
<g>
	<g>
		<g>
			<defs>
				<path id="SVGID_55_" d="M271.2,145.3L271.2,145.3c0,8.6,0,17.1-0.1,25.7c0-4.4,0-8.9,0-13.3
					C271.2,153.6,271.2,149.4,271.2,145.3z"/>
			</defs>
			<clipPath id="SVGID_56_">
				<use xlink:href="#SVGID_55_"  style="overflow:visible;"/>
			</clipPath>
			<g class="st57">
				<g>
					<path class="st19" d="M271.2,145.5l-0.1,40.8c0-0.1,0-0.1,0-0.2c-0.1-1-1.1-2.1-3-3.2l0.1-40.8c1.9,1.1,3,2.2,3.1,3.2
						L271.2,145.5"/>
				</g>
			</g>
		</g>
	</g>
</g>
<g>
	<g>
		<g>
			<defs>
				<path id="SVGID_57_" d="M268.1,182.8c0-13.6,0.1-27.2,0.1-40.8c1.9,1.1,3,2.2,3.1,3.2v0.2l-0.2,40.7c0-0.1,0-0.1,0-0.2l0.1-40.8
					c0,4.1,0,8.3,0,12.4c0,9.4,0,18.9-0.1,28.3l0,0C271,185,270,183.9,268.1,182.8z"/>
			</defs>
			<clipPath id="SVGID_58_">
				<use xlink:href="#SVGID_57_"  style="overflow:visible;"/>
			</clipPath>
			<g class="st58">
				<g>
					<path class="st19" d="M271.2,145.5l-0.1,40.8c0-0.1,0-0.1,0-0.2c-0.1-1-1.1-2.1-3-3.2l0.1-40.8c1.9,1.1,3,2.2,3.1,3.2
						L271.2,145.5"/>
				</g>
			</g>
		</g>
	</g>
</g>
<polygon class="st59" points="258.8,147.5 258.7,188.2 234.7,174.4 234.8,133.6 "/>
<g>
	<g>
		<g>
			<defs>
				<path id="SVGID_59_" d="M0.1,176.9l0.1-40.8c0,3.9,2.5,7.8,7.7,10.7l-0.1,40.8C2.6,184.7,0.1,180.8,0.1,176.9z"/>
			</defs>
			<clipPath id="SVGID_60_">
				<use xlink:href="#SVGID_59_"  style="overflow:visible;"/>
			</clipPath>
			<g class="st60">
				<g>
					<path class="st19" d="M7.9,146.9l-0.1,40.8c-5.1-3-7.7-6.9-7.7-10.7l0.1-40.8C0.2,140,2.8,143.9,7.9,146.9"/>
				</g>
			</g>
		</g>
	</g>
</g>
<linearGradient id="SVGID_61_" gradientUnits="userSpaceOnUse" x1="264.3252" y1="410.319" x2="507.8997" y2="2.0637" gradientTransform="matrix(1 0 0 -1 0 346.55)">
	<stop  offset="2.591463e-02" style="stop-color:#936722"/>
	<stop  offset="0.5399" style="stop-color:#C48D35"/>
	<stop  offset="1" style="stop-color:#9E6A1A"/>
</linearGradient>
<path class="st61" d="M492.6,143.3l-36.7,21.3L228.2,33.1L215.9,26c-10.2-5.9-10.2-15.4-0.1-21.3s26.6-5.9,36.8,0L492.6,143.3z"/>
<linearGradient id="SVGID_62_" gradientUnits="userSpaceOnUse" x1="0.25" y1="270.775" x2="215.8126" y2="270.775" gradientTransform="matrix(1 0 0 -1 0 346.55)">
	<stop  offset="0" style="stop-color:#FFEF9F"/>
	<stop  offset="0.472" style="stop-color:#FDD57F"/>
	<stop  offset="1" style="stop-color:#D4A855"/>
</linearGradient>
<path class="st62" d="M215.7,4.7c-10.1,5.9-10.1,15.4,0.1,21.3L7.9,146.9c-10.2-5.9-10.2-15.4-0.1-21.3l152.9-88.9L215.7,4.7z"/>
<g>
	<g>
		<g>
			<defs>
				<path id="SVGID_63_" d="M276,188.9L276,188.9c0-13.6,0-27.2,0.1-40.8l0,0C276.1,161.8,276,175.3,276,188.9z"/>
			</defs>
			<clipPath id="SVGID_64_">
				<use xlink:href="#SVGID_63_"  style="overflow:visible;"/>
			</clipPath>
			<g class="st63">
				<g>
					<path class="st6" d="M276.5,148.2l-0.1,40.8H276h-0.2l0.1-40.8h0.2H276.5"/>
				</g>
			</g>
		</g>
	</g>
</g>
<g>
	<g>
		<g>
			<defs>
				<path id="SVGID_65_" d="M271.2,145.5l-0.1,40.8c0,1-0.7,1.8-2,2.6c-1.5,0.8-3.1,1.2-4.8,1.2c-2-0.1-3.9-0.7-5.6-1.8l0.1-40.8
					c1.7,1,3.6,1.7,5.6,1.8c1.7,0.1,3.4-0.3,4.8-1.2C270.6,147.3,271.2,146.4,271.2,145.5z"/>
			</defs>
			<clipPath id="SVGID_66_">
				<use xlink:href="#SVGID_65_"  style="overflow:visible;"/>
			</clipPath>
			<g class="st64">
				<g>
					<path class="st27" d="M271.2,145.5l-0.1,40.8v0.1L271.2,145.5L271.2,145.5"/>
					<path class="st28" d="M271.2,145.5l-0.1,40.8c0,0.1,0,0.2,0,0.4l0.1-40.8C271.2,145.8,271.2,145.7,271.2,145.5"/>
					<path class="st29" d="M271.2,145.9l-0.1,40.8c0,0.1-0.1,0.2-0.1,0.3l0.1-40.8C271.2,146.1,271.2,146,271.2,145.9"/>
					<path class="st30" d="M271.1,146.2L271,187c0,0.1-0.1,0.2-0.1,0.3l0.1-40.8C271,146.4,271.1,146.3,271.1,146.2"/>
					<path class="st36" d="M270.9,146.5l-0.1,40.8c-0.1,0.1-0.2,0.2-0.2,0.4l0.1-40.8C270.8,146.8,270.9,146.7,270.9,146.5"/>
					<path class="st37" d="M270.7,146.9l-0.1,40.8c-0.1,0.1-0.2,0.3-0.4,0.4l0.1-40.8C270.5,147.2,270.6,147,270.7,146.9"/>
					<path class="st38" d="M270.3,147.3l-0.1,40.8c-0.3,0.3-0.6,0.5-0.9,0.7l0.1-40.8C269.7,147.8,270,147.6,270.3,147.3"/>
					<path class="st39" d="M269.4,148l-0.1,40.8l-0.1,0.1c-0.5,0.3-1.1,0.5-1.6,0.7l0.1-40.8c0.6-0.2,1.1-0.4,1.7-0.7V148"/>
					<path class="st38" d="M267.6,148.8l-0.1,40.8c-0.4,0.1-0.7,0.2-1.1,0.3l0.1-40.8C266.9,149,267.3,148.9,267.6,148.8"/>
					<path class="st37" d="M266.5,149.1l-0.1,40.8l-0.7,0.1l0.1-40.8C266,149.2,266.2,149.1,266.5,149.1"/>
					<path class="st36" d="M265.8,149.2l-0.1,40.8h-0.6l0.1-40.8C265.3,149.2,265.5,149.2,265.8,149.2"/>
					<path class="st30" d="M265.1,149.2L265,190h-0.6l0.1-40.8H265.1"/>
					<path class="st29" d="M264.5,149.2l-0.1,40.8l0,0h-0.5l0.1-40.8H264.5L264.5,149.2"/>
					<path class="st28" d="M263.9,149.2l-0.1,40.8l-0.6-0.1l0.1-40.8L263.9,149.2"/>
					<path class="st27" d="M263.4,149.1l-0.1,40.8c-0.2,0-0.4-0.1-0.6-0.1l0.1-40.8C262.9,149.1,263.2,149.1,263.4,149.1"/>
					<path class="st46" d="M262.7,149l-0.1,40.8c-0.3,0-0.5-0.1-0.8-0.2l0.1-40.8C262.2,148.9,262.5,149,262.7,149"/>
					<path class="st47" d="M262,148.8l-0.1,40.8c-0.4-0.1-0.8-0.2-1.1-0.4l0.1-40.8C261.2,148.6,261.6,148.7,262,148.8"/>
					<path class="st48" d="M260.8,148.4l-0.1,40.8c-0.7-0.3-1.4-0.6-2-1l0.1-40.8C259.5,147.8,260.1,148.2,260.8,148.4"/>
				</g>
			</g>
		</g>
	</g>
</g>
<g>
	<g>
		<g>
			<defs>
				<path id="SVGID_67_" d="M270.7,190.2L270.7,190.2c0-13.6,0.1-27.2,0.1-40.8l0,0L270.7,190.2v-20.4l0.1-20.4
					c1.6-0.9,3.4-1.3,5.2-1.2c0,13.6-0.1,27.2-0.1,40.8C274.2,188.8,272.3,189.2,270.7,190.2z"/>
			</defs>
			<clipPath id="SVGID_68_">
				<use xlink:href="#SVGID_67_"  style="overflow:visible;"/>
			</clipPath>
			<g class="st65">
				<g>
					<path class="st6" d="M276.5,148.2l-0.1,40.8H276h-0.2l0.1-40.8h0.2H276.5"/>
					<path class="st5" d="M275.9,148.2l-0.1,40.8h-0.7l0.1-40.8H275.9"/>
					<path class="st4" d="M275.2,148.2l-0.1,40.8c-0.2,0-0.5,0-0.7,0.1l0.1-40.8L275.2,148.2"/>
					<path class="st3" d="M274.6,148.2l-0.1,40.8c-0.3,0-0.5,0.1-0.8,0.1l0.1-40.8C274,148.3,274.3,148.2,274.6,148.2"/>
					<path class="st2" d="M273.8,148.3l-0.1,40.8c-0.4,0.1-0.8,0.2-1.2,0.3l0.1-40.8C273,148.5,273.4,148.4,273.8,148.3"/>
					<path class="st1" d="M272.6,148.6l-0.1,40.8c-0.6,0.2-1.2,0.5-1.8,0.8l-0.1,0.1l0.1-40.8l0.1-0.1
						C271.4,149.1,272,148.8,272.6,148.6"/>
				</g>
			</g>
		</g>
	</g>
</g>
<g>
	<g>
		<g>
			<defs>
				<path id="SVGID_69_" d="M281.9,190.8c-1.8-1.1-3.8-1.7-5.9-1.9c0-13.6,0.1-27.2,0.1-40.8c2.1,0.1,4.1,0.8,5.9,1.9
					C282,163.6,282,177.2,281.9,190.8z"/>
			</defs>
			<clipPath id="SVGID_70_">
				<use xlink:href="#SVGID_69_"  style="overflow:visible;"/>
			</clipPath>
			<g class="st66">
				<g>
					<path class="st19" d="M282,150l-0.1,40.8c-0.7-0.4-1.4-0.7-2.1-1l0.1-40.8C280.7,149.3,281.4,149.7,282,150"/>
					<path class="st20" d="M279.9,149l-0.1,40.8c-0.4-0.2-0.8-0.3-1.2-0.4l0.1-40.8C279.1,148.7,279.5,148.9,279.9,149"/>
					<path class="st21" d="M278.7,148.6l-0.1,40.8c-0.3-0.1-0.6-0.1-0.9-0.2l0.1-40.8L278.7,148.6"/>
					<path class="st8" d="M277.9,148.4l-0.1,40.8l-0.7-0.1l0.1-40.8L277.9,148.4"/>
					<path class="st7" d="M277.2,148.3l-0.1,40.8l-0.6-0.1l0.1-40.8L277.2,148.3"/>
					<path class="st6" d="M276.5,148.2l-0.1,40.8H276h-0.2l0.1-40.8h0.2H276.5"/>
				</g>
			</g>
		</g>
	</g>
</g>
<g>
	<g>
		<g>
			<defs>
				<path id="SVGID_71_" d="M151.4,183l0.1-40.8c0,0.2,0,0.4,0,0.7c0.1,0.8,0.4,1.6,1,2.3c0.7,0.8,1.5,1.5,2.5,2
					c4.4,2.5,9.2,2.3,14.5-0.8l-0.1,40.8c-5.3,3.1-10.1,3.3-14.5,0.8c-0.9-0.5-1.8-1.2-2.5-2c-0.6-0.6-0.9-1.4-1-2.3
					C151.4,183.5,151.4,183.3,151.4,183z"/>
			</defs>
			<clipPath id="SVGID_72_">
				<use xlink:href="#SVGID_71_"  style="overflow:visible;"/>
			</clipPath>
			<g class="st67">
				<g>
					<path class="st39" d="M169.5,146.4l-0.1,40.8c-1.3,0.7-2.6,1.3-4,1.8l0.1-40.8C166.8,147.8,168.2,147.2,169.5,146.4"/>
					<path class="st38" d="M165.5,148.2l-0.1,40.8c-0.7,0.2-1.3,0.4-2,0.5l0.1-40.8C164.1,148.6,164.8,148.4,165.5,148.2"/>
					<path class="st37" d="M163.5,148.7l-0.1,40.8c-0.4,0.1-0.7,0.1-1.1,0.1l0.1-40.8C162.8,148.8,163.2,148.8,163.5,148.7"/>
					<path class="st36" d="M162.5,148.9l-0.1,40.8l-0.8,0.1l0.1-40.8L162.5,148.9"/>
					<path class="st30" d="M161.7,148.9l-0.1,40.8h-0.7l0.1-40.8H161.7"/>
					<path class="st29" d="M160.9,148.9l-0.1,40.8h-0.7l0.1-40.8H160.9"/>
					<path class="st28" d="M160.2,148.9l-0.1,40.8c-0.2,0-0.5,0-0.7-0.1l0.1-40.8L160.2,148.9"/>
					<path class="st27" d="M159.5,148.8l-0.1,40.8c-0.3,0-0.5-0.1-0.8-0.1l0.1-40.8L159.5,148.8"/>
					<path class="st46" d="M158.8,148.7l-0.1,40.8c-0.3-0.1-0.6-0.1-0.9-0.2l0.1-40.8C158.2,148.6,158.5,148.6,158.8,148.7"/>
					<path class="st47" d="M157.9,148.5l-0.1,40.8c-0.4-0.1-0.8-0.2-1.1-0.4l0.1-40.8C157.2,148.2,157.5,148.4,157.9,148.5"/>
					<path class="st48" d="M156.8,148.1l-0.1,40.8c-0.6-0.2-1.2-0.5-1.8-0.9c-0.9-0.5-1.8-1.2-2.5-2c-0.6-0.6-0.9-1.4-1-2.3
						c0-0.2,0-0.4,0-0.7l0.1-40.8c0,0.2,0,0.4,0,0.7c0.1,0.8,0.4,1.6,1,2.3c0.7,0.8,1.5,1.5,2.5,2
						C155.6,147.5,156.2,147.8,156.8,148.1"/>
				</g>
			</g>
		</g>
	</g>
</g>
<g>
	<g>
		<g>
			<defs>
				<path id="SVGID_73_" d="M270.7,190.2c-1.4,0.8-2.1,1.7-2.1,2.8l0.1-40.8c0-1,0.7-2,2.1-2.8C270.8,163,270.8,176.6,270.7,190.2z"
					/>
			</defs>
			<clipPath id="SVGID_74_">
				<use xlink:href="#SVGID_73_"  style="overflow:visible;"/>
			</clipPath>
			<g class="st68">
				<g>
					<path class="st1" d="M272.6,148.6l-0.1,40.8c-0.6,0.2-1.2,0.5-1.8,0.8l-0.1,0.1l0.1-40.8l0.1-0.1
						C271.4,149.1,272,148.8,272.6,148.6"/>
					<path class="st2" d="M270.7,149.5l-0.1,40.8c-0.4,0.2-0.7,0.5-1,0.7l0.1-40.8C270,149.9,270.4,149.7,270.7,149.5"/>
					<path class="st3" d="M269.7,150.2l-0.1,40.8c-0.2,0.1-0.3,0.3-0.4,0.4l0.1-40.8C269.4,150.5,269.6,150.4,269.7,150.2"/>
					<path class="st4" d="M269.3,150.7l-0.1,40.8c-0.1,0.1-0.2,0.2-0.2,0.4l0.1-40.8C269.1,150.9,269.2,150.8,269.3,150.7"/>
					<path class="st5" d="M269.1,151l-0.1,40.8c-0.1,0.1-0.1,0.2-0.2,0.4l0.1-40.8C269,151.3,269,151.1,269.1,151"/>
					<path class="st6" d="M268.9,151.4l-0.1,40.8c0,0.1-0.1,0.2-0.1,0.4l0.1-40.8C268.8,151.6,268.9,151.5,268.9,151.4"/>
					<path class="st7" d="M268.8,151.7l-0.1,40.8c0,0.1,0,0.2,0,0.4l0.1-40.8C268.8,152,268.8,151.9,268.8,151.7"/>
					<path class="st8" d="M268.7,152.1l-0.1,40.8v0.1L268.7,152.1L268.7,152.1"/>
				</g>
			</g>
		</g>
	</g>
</g>
<polygon class="st54" points="239.6,154.1 239.5,194.8 219.4,183.2 219.5,142.5 "/>
<g>
	<g>
		<g>
			<defs>
				<path id="SVGID_75_" d="M268.6,192.9l0.1-40.8c0,0.1,0,0.1,0,0.2c0.1,1.1,1.2,2.3,3.3,3.5l-0.1,40.8c-2.1-1.2-3.2-2.4-3.3-3.5
					C268.6,193.1,268.6,193,268.6,192.9z"/>
			</defs>
			<clipPath id="SVGID_76_">
				<use xlink:href="#SVGID_75_"  style="overflow:visible;"/>
			</clipPath>
			<g class="st69">
				<g>
					<path class="st48" d="M272,155.9l-0.1,40.8c-2.1-1.2-3.2-2.4-3.3-3.5c0-0.1,0-0.1,0-0.2l0.1-40.8c0,0.1,0,0.1,0,0.2
						C268.9,153.5,270,154.6,272,155.9"/>
				</g>
			</g>
		</g>
	</g>
</g>
<g>
	<g>
		<g>
			<defs>
				<path id="SVGID_77_" d="M178.3,192.9c-2.5,1.4-3.8,2.8-3.8,4.2l0.1-40.8c0.1-1.4,1.4-2.8,3.8-4.2L178.3,192.9z"/>
			</defs>
			<clipPath id="SVGID_78_">
				<use xlink:href="#SVGID_77_"  style="overflow:visible;"/>
			</clipPath>
			<g class="st70">
				<g>
					<path class="st1" d="M178.4,152.2l-0.1,40.8l-0.3,0.2l0.1-40.8L178.4,152.2"/>
					<path class="st2" d="M178.1,152.4l-0.1,40.8c-0.7,0.4-1.4,0.9-2.1,1.5l0.1-40.8C176.7,153.3,177.4,152.8,178.1,152.4"/>
					<path class="st3" d="M176.1,153.9l-0.1,40.8c-0.3,0.2-0.5,0.5-0.7,0.8l0.1-40.8C175.6,154.4,175.8,154.1,176.1,153.9"/>
					<path class="st4" d="M175.3,154.6l-0.1,40.8c-0.1,0.2-0.3,0.4-0.4,0.6l0.1-40.8C175.1,155,175.2,154.8,175.3,154.6"/>
					<path class="st5" d="M175,155.2l-0.1,40.8c-0.1,0.1-0.2,0.3-0.2,0.5l0.1-40.8C174.8,155.5,174.9,155.3,175,155.2"/>
					<path class="st6" d="M174.8,155.7l-0.1,40.8c-0.1,0.1-0.1,0.3-0.1,0.4l0.1-40.8C174.7,155.9,174.7,155.8,174.8,155.7"/>
					<path class="st7" d="M174.6,156.1l-0.1,40.8c0,0.1,0,0.2,0,0.3v0.1l0.1-40.8v-0.1C174.6,156.3,174.6,156.2,174.6,156.1"/>
				</g>
			</g>
		</g>
	</g>
</g>
<g>
	<g>
		<g>
			<defs>
				<path id="SVGID_79_" d="M174.5,197.2L174.5,197.2l0.1-40.8l0,0l-0.1,20.4c0,0.8,0,1.9,0,2.7c0,1.6,0,3.7,0,5.3s0,3.6,0,5.2
					s0,3.4,0,4.9C174.5,195.5,174.5,196.5,174.5,197.2z"/>
			</defs>
			<clipPath id="SVGID_80_">
				<use xlink:href="#SVGID_79_"  style="overflow:visible;"/>
			</clipPath>
			<g class="st71">
				<g>
					<path class="st7" d="M174.6,156.1l-0.1,40.8c0,0.1,0,0.2,0,0.3v0.1l0.1-40.8v-0.1C174.6,156.3,174.6,156.2,174.6,156.1"/>
				</g>
			</g>
		</g>
	</g>
</g>
<g>
	<g>
		<g>
			<defs>
				<path id="SVGID_81_" d="M174.5,197.3l0.1-40.8c0,1.3,0.9,2.4,2.6,3.4c1.9,1.1,4,1.6,6.2,1.5c2.6-0.1,5.1-0.9,7.3-2.2l-0.1,40.8
					c-2.2,1.4-4.7,2.1-7.3,2.2c-2.2,0.1-4.3-0.4-6.2-1.5C175.3,199.8,174.5,198.6,174.5,197.3z"/>
			</defs>
			<clipPath id="SVGID_82_">
				<use xlink:href="#SVGID_81_"  style="overflow:visible;"/>
			</clipPath>
			<g class="st72">
				<g>
					<path class="st39" d="M190.6,159.2l-0.1,40.8c-1.1,0.7-2.3,1.2-3.5,1.6l0.1-40.8C188.3,160.4,189.5,159.9,190.6,159.2"/>
					<path class="st38" d="M187.1,160.8l-0.1,40.8c-0.6,0.2-1.2,0.3-1.8,0.4l0.1-40.8C185.9,161.2,186.5,161,187.1,160.8"/>
					<path class="st37" d="M185.3,161.3l-0.1,40.8c-0.3,0.1-0.7,0.1-1,0.1l0.1-40.8C184.6,161.4,185,161.4,185.3,161.3"/>
					<path class="st36" d="M184.3,161.4l-0.1,40.8c-0.3,0-0.5,0-0.8,0.1l0.1-40.8C183.8,161.5,184.1,161.5,184.3,161.4"/>
					<path class="st30" d="M183.5,161.5l-0.1,40.8h-0.9l0.1-40.8H183.5"/>
					<path class="st29" d="M182.7,161.5l-0.1,40.8c-0.3,0-0.5,0-0.8,0l0.1-40.8H182.7"/>
					<path class="st28" d="M181.9,161.4l-0.1,40.8l-0.8-0.1l0.1-40.8L181.9,161.4"/>
					<path class="st27" d="M181.1,161.4l-0.1,40.8l-0.8-0.1l0.1-40.8C180.6,161.2,180.8,161.3,181.1,161.4"/>
					<path class="st46" d="M180.4,161.2l-0.1,40.8l-0.8-0.2l0.1-40.8C179.8,161.1,180.1,161.2,180.4,161.2"/>
					<path class="st47" d="M179.6,161l-0.1,40.8c-0.3-0.1-0.7-0.2-1-0.3l0.1-40.8C178.9,160.8,179.2,160.9,179.6,161"/>
					<path class="st48" d="M178.6,160.7l-0.1,40.8c-0.5-0.2-0.9-0.4-1.4-0.7c-1.7-1-2.6-2.1-2.6-3.4l0.1-40.8c0,1.3,0.9,2.4,2.6,3.4
						C177.6,160.3,178.1,160.5,178.6,160.7"/>
				</g>
			</g>
		</g>
	</g>
</g>
<g>
	<g>
		<g>
			<defs>
				<path id="SVGID_83_" d="M174.5,197.2c0,0.1,0,0.1,0,0.2l0.1-40.8c0-0.1,0-0.1,0-0.2l-0.1,20.4c0,5.2,0,10.4-0.1,15.6
					C174.5,193.8,174.5,195.7,174.5,197.2z"/>
			</defs>
			<clipPath id="SVGID_84_">
				<use xlink:href="#SVGID_83_"  style="overflow:visible;"/>
			</clipPath>
			<g class="st73">
				<g>
					<path class="st7" d="M174.6,156.1l-0.1,40.8c0,0.1,0,0.2,0,0.3v0.1l0.1-40.8v-0.1C174.6,156.3,174.6,156.2,174.6,156.1"/>
					<path class="st8" d="M174.6,156.5l-0.1,40.8v0.1l0.1-40.8V156.5"/>
				</g>
			</g>
		</g>
	</g>
</g>
<g>
	<g>
		<g>
			<defs>
				<path id="SVGID_85_" d="M239.5,194.8c0-13.6,0.1-27.2,0.1-40.8c1.9,1.1,2.8,2.1,2.9,3.1c0,13.6-0.1,27.2-0.1,40.8
					C242.3,197,241.3,195.9,239.5,194.8z"/>
			</defs>
			<clipPath id="SVGID_86_">
				<use xlink:href="#SVGID_85_"  style="overflow:visible;"/>
			</clipPath>
			<g class="st74">
				<g>
					<path class="st19" d="M242.5,157.4l-0.1,40.8V198c-0.1-1-1.1-2.1-2.9-3.1l0.1-40.8c1.9,1.1,2.8,2.1,2.9,3.1
						C242.5,157.3,242.5,157.3,242.5,157.4"/>
				</g>
			</g>
		</g>
	</g>
</g>
<g>
	<g>
		<g>
			<defs>
				<path id="SVGID_87_" d="M242.4,198L242.4,198c0-13.6,0-27.2,0.1-40.8l0,0C242.4,170.8,242.4,184.4,242.4,198z"/>
			</defs>
			<clipPath id="SVGID_88_">
				<use xlink:href="#SVGID_87_"  style="overflow:visible;"/>
			</clipPath>
			<g class="st75">
				<g>
					<path class="st19" d="M242.5,157.4l-0.1,40.8V198c-0.1-1-1.1-2.1-2.9-3.1l0.1-40.8c1.9,1.1,2.8,2.1,2.9,3.1
						C242.5,157.3,242.5,157.3,242.5,157.4"/>
				</g>
			</g>
		</g>
	</g>
</g>
<g>
	<g>
		<g>
			<defs>
				<path id="SVGID_89_" d="M242.4,198.2V198c0-13.6,0-27.2,0.1-40.8c0,0.1,0,0.1,0,0.2C242.5,169.6,242.4,185.9,242.4,198.2z"/>
			</defs>
			<clipPath id="SVGID_90_">
				<use xlink:href="#SVGID_89_"  style="overflow:visible;"/>
			</clipPath>
			<g class="st76">
				<g>
					<path class="st19" d="M242.5,157.4l-0.1,40.8V198c-0.1-1-1.1-2.1-2.9-3.1l0.1-40.8c1.9,1.1,2.8,2.1,2.9,3.1
						C242.5,157.3,242.5,157.3,242.5,157.4"/>
				</g>
			</g>
		</g>
	</g>
</g>
<polygon class="st42" points="210.4,147.8 210.2,188.5 190.5,200 190.6,159.2 "/>
<polygon class="st59" points="230.5,159.4 230.3,200.1 210.2,188.5 210.4,147.8 "/>
<g>
	<g>
		<g>
			<defs>
				<path id="SVGID_91_" d="M242.5,157.4l-0.1,40.8c0,0.9-0.6,1.8-1.9,2.5c-1.4,0.8-3.1,1.2-4.7,1.1c-1.9-0.1-3.7-0.7-5.4-1.7
					l0.1-40.8c1.6,1,3.5,1.6,5.4,1.7c1.6,0.1,3.3-0.3,4.7-1.1C241.9,159.2,242.5,158.4,242.5,157.4z"/>
			</defs>
			<clipPath id="SVGID_92_">
				<use xlink:href="#SVGID_91_"  style="overflow:visible;"/>
			</clipPath>
			<g class="st77">
				<g>
					<path class="st27" d="M242.5,157.4l-0.1,40.8l0,0L242.5,157.4L242.5,157.4"/>
					<path class="st28" d="M242.5,157.5l-0.1,40.8c0,0.1,0,0.2,0,0.3l0.1-40.8C242.5,157.7,242.5,157.6,242.5,157.5"/>
					<path class="st29" d="M242.5,157.8l-0.1,40.8c0,0.1,0,0.2-0.1,0.3l0.1-40.8C242.4,158,242.4,157.9,242.5,157.8"/>
					<path class="st30" d="M242.4,158.1l-0.1,40.8c0,0.1-0.1,0.2-0.1,0.3l0.1-40.8C242.3,158.3,242.3,158.2,242.4,158.1"/>
					<path class="st36" d="M242.2,158.4l-0.1,40.8c-0.1,0.1-0.1,0.2-0.2,0.3l0.1-40.8C242.1,158.7,242.2,158.6,242.2,158.4"/>
					<path class="st37" d="M242,158.8l-0.1,40.8c-0.1,0.1-0.2,0.3-0.4,0.4l0.1-40.8C241.7,159.1,241.9,158.9,242,158.8"/>
					<path class="st38" d="M241.6,159.2l-0.1,40.8c-0.3,0.3-0.6,0.5-0.9,0.7l0.1-40.8C241,159.7,241.3,159.4,241.6,159.2"/>
					<path class="st39" d="M240.7,159.9l-0.1,40.8l-0.1,0.1c-0.5,0.3-1,0.5-1.6,0.7l0.1-40.8c0.6-0.2,1.1-0.4,1.6-0.7L240.7,159.9"
						/>
					<path class="st38" d="M239,160.7l-0.1,40.8c-0.4,0.1-0.7,0.2-1.1,0.3l0.1-40.8C238.2,160.9,238.6,160.8,239,160.7"/>
					<path class="st37" d="M237.9,160.9l-0.1,40.8c-0.2,0-0.5,0.1-0.7,0.1l0.1-40.8L237.9,160.9"/>
					<path class="st36" d="M237.2,161l-0.1,40.8c-0.2,0-0.4,0-0.6,0l0.1-40.8H237.2"/>
					<path class="st30" d="M236.5,161.1l-0.1,40.8h-0.6l0.1-40.8H236.5"/>
					<path class="st29" d="M236,161.1l-0.1,40.8h-0.1h-0.4l0.1-40.8h0.4H236"/>
					<path class="st28" d="M235.4,161l-0.1,40.8l-0.6-0.1l0.1-40.8C235,161,235.2,161,235.4,161"/>
					<path class="st27" d="M234.9,161l-0.1,40.8l-0.6-0.1l0.1-40.8L234.9,161"/>
					<path class="st46" d="M234.2,160.9l-0.1,40.8l-0.8-0.2l0.1-40.8C233.7,160.8,234,160.8,234.2,160.9"/>
					<path class="st47" d="M233.5,160.7l-0.1,40.8c-0.4-0.1-0.7-0.2-1.1-0.4l0.1-40.8C232.7,160.5,233.1,160.6,233.5,160.7"/>
					<path class="st48" d="M232.4,160.3l-0.1,40.8c-0.7-0.3-1.3-0.6-1.9-0.9l0.1-40.8C231.1,159.7,231.7,160,232.4,160.3"/>
				</g>
			</g>
		</g>
	</g>
</g>
<polygon class="st54" points="320.8,172.4 320.7,213.2 281.9,190.8 282,150 "/>
<polygon class="st59" points="285.3,163.5 285.2,204.3 271.9,196.6 272,155.9 "/>
<polygon class="st14" points="455.9,164.7 455.8,205.4 228,73.9 228.2,33.1 "/>
<linearGradient id="SVGID_93_" gradientUnits="userSpaceOnUse" x1="462.7201" y1="168.5121" x2="313.3584" y2="120.2568" gradientTransform="matrix(1 0 0 -1 0 346.55)">
	<stop  offset="2.591463e-02" style="stop-color:#936722"/>
	<stop  offset="0.5399" style="stop-color:#C48D35"/>
	<stop  offset="1" style="stop-color:#9E6A1A"/>
</linearGradient>
<polygon class="st78" points="492.6,143.3 492.5,184.1 455.8,205.4 455.9,164.7 "/>
<g>
	<g>
		<g>
			<defs>
				<path id="SVGID_94_" d="M320.7,213.2c0-13.6,0.1-27.2,0.1-40.8c2.1,1.2,3.2,2.4,3.3,3.5l0,0c0,4.7,0,9.4,0,14.1
					c0,5.5,0,11,0,16.6c0,3.4,0,6.8,0,10.1l0,0C323.9,215.6,322.8,214.4,320.7,213.2z"/>
			</defs>
			<clipPath id="SVGID_95_">
				<use xlink:href="#SVGID_94_"  style="overflow:visible;"/>
			</clipPath>
			<g class="st79">
				<g>
					<path class="st19" d="M324.2,176.2l-0.1,40.8c0-0.1,0-0.2,0-0.2c-0.1-1.1-1.2-2.3-3.3-3.5l0.1-40.8c2.1,1.2,3.2,2.4,3.3,3.5
						C324.2,176,324.2,176.1,324.2,176.2"/>
				</g>
			</g>
		</g>
	</g>
</g>
<g>
	<g>
		<g>
			<defs>
				<path id="SVGID_96_" d="M324,216.7c0-0.3,0-0.6,0-0.9c0-13.3,0-26.6,0.1-39.9c0,0.1,0,0.2,0,0.2v40.7
					C324.1,216.9,324.1,216.8,324,216.7z"/>
			</defs>
			<clipPath id="SVGID_97_">
				<use xlink:href="#SVGID_96_"  style="overflow:visible;"/>
			</clipPath>
			<g class="st80">
				<g>
					<path class="st19" d="M324.2,176.2l-0.1,40.8c0-0.1,0-0.2,0-0.2c-0.1-1.1-1.2-2.3-3.3-3.5l0.1-40.8c2.1,1.2,3.2,2.4,3.3,3.5
						C324.2,176,324.2,176.1,324.2,176.2"/>
				</g>
			</g>
		</g>
	</g>
</g>
<polygon class="st59" points="310.8,178.2 310.7,219 297.4,211.3 297.5,170.6 "/>
<g>
	<g>
		<g>
			<defs>
				<path id="SVGID_98_" d="M324.2,176.2l-0.1,40.8c0,1-0.7,2-2.1,2.8c-1.6,0.9-3.4,1.3-5.2,1.2c-2.1-0.1-4.2-0.8-6.1-1.9l0.1-40.8
					c1.8,1.1,3.9,1.8,6.1,1.9c1.8,0.1,3.6-0.3,5.2-1.2C323.5,178.2,324.2,177.2,324.2,176.2z"/>
			</defs>
			<clipPath id="SVGID_99_">
				<use xlink:href="#SVGID_98_"  style="overflow:visible;"/>
			</clipPath>
			<g class="st81">
				<g>
					<path class="st27" d="M324.2,176.2l-0.1,40.8v0.1L324.2,176.2L324.2,176.2"/>
					<path class="st28" d="M324.2,176.3l-0.1,40.8c0,0.1,0,0.3,0,0.4l0.1-40.8C324.2,176.5,324.2,176.4,324.2,176.3"/>
					<path class="st29" d="M324.1,176.6l-0.1,40.8c0,0.1-0.1,0.2-0.1,0.4L324,177C324,176.9,324.1,176.8,324.1,176.6"/>
					<path class="st30" d="M324,177l-0.1,40.8c0,0.1-0.1,0.2-0.2,0.4l0.1-40.8C323.9,177.2,324,177.1,324,177"/>
					<path class="st36" d="M323.9,177.3l-0.1,40.8c-0.1,0.1-0.2,0.3-0.2,0.4l0.1-40.8C323.7,177.6,323.8,177.4,323.9,177.3"/>
					<path class="st37" d="M323.6,177.7l-0.1,40.8c-0.1,0.2-0.3,0.3-0.4,0.4l0.1-40.8C323.3,178,323.5,177.9,323.6,177.7"/>
					<path class="st38" d="M323.2,178.2l-0.1,40.8c-0.3,0.3-0.6,0.5-1,0.7l0.1-40.8C322.6,178.7,322.9,178.4,323.2,178.2"/>
					<path class="st39" d="M322.2,178.9l-0.1,40.8l-0.1,0.1c-0.5,0.3-1.1,0.6-1.7,0.8l0.1-40.8c0.6-0.2,1.2-0.4,1.7-0.8L322.2,178.9
						"/>
					<path class="st38" d="M320.4,179.7l-0.1,40.8c-0.4,0.1-0.8,0.2-1.2,0.3l0.1-40.8C319.6,179.9,320,179.8,320.4,179.7"/>
					<path class="st37" d="M319.2,180l-0.1,40.8l-0.8,0.1l0.1-40.8C318.7,180.1,319,180.1,319.2,180"/>
					<path class="st36" d="M318.4,180.1l-0.1,40.8h-0.7l0.1-40.8C317.9,180.1,318.2,180.1,318.4,180.1"/>
					<path class="st30" d="M317.7,180.2l-0.1,40.8h-0.7l0.1-40.8H317.7"/>
					<path class="st29" d="M317,180.2l-0.1,40.8h-0.1c-0.2,0-0.3,0-0.5,0l0.1-40.8h0.5H317"/>
					<path class="st28" d="M316.4,180.1l-0.1,40.8c-0.2,0-0.4,0-0.6-0.1l0.1-40.8L316.4,180.1"/>
					<path class="st27" d="M315.8,180.1l-0.1,40.8l-0.7-0.1l0.1-40.8L315.8,180.1"/>
					<path class="st46" d="M315.1,179.9l-0.1,40.8c-0.3-0.1-0.6-0.1-0.9-0.2l0.1-40.8C314.5,179.8,314.8,179.9,315.1,179.9"/>
					<path class="st47" d="M314.2,179.7l-0.1,40.8c-0.4-0.1-0.8-0.3-1.2-0.4l0.1-40.8C313.4,179.5,313.8,179.6,314.2,179.7"/>
					<path class="st48" d="M313,179.3l-0.1,40.8c-0.8-0.3-1.5-0.7-2.2-1.1l0.1-40.8C311.5,178.6,312.3,179,313,179.3"/>
				</g>
			</g>
		</g>
	</g>
</g>
<polygon class="st15" points="285.3,163.5 285.2,204.3 241.7,229.6 241.9,188.8 "/>
<polygon class="st42" points="297.5,170.6 297.4,211.3 253.9,236.6 254,195.8 "/>
<g>
	<g>
		<g>
			<defs>
				<path id="SVGID_100_" d="M237.9,234l0.1-40.8c0,1.3,0.9,2.4,2.6,3.4c1.9,1.1,4,1.6,6.2,1.5c2.6-0.1,5.1-0.9,7.3-2.3l-0.1,40.8
					c-2.2,1.4-4.7,2.1-7.2,2.3c-2.2,0.1-4.3-0.4-6.2-1.5C238.8,236.4,237.9,235.3,237.9,234z"/>
			</defs>
			<clipPath id="SVGID_101_">
				<use xlink:href="#SVGID_100_"  style="overflow:visible;"/>
			</clipPath>
			<g class="st82">
				<g>
					<path class="st39" d="M254,195.8l-0.1,40.8c-1.1,0.7-2.3,1.2-3.6,1.6l0.1-40.8C251.7,197,252.9,196.5,254,195.8"/>
					<path class="st38" d="M250.5,197.4l-0.1,40.8c-0.6,0.2-1.2,0.3-1.8,0.4l0.1-40.8C249.3,197.8,249.9,197.6,250.5,197.4"/>
					<path class="st37" d="M248.7,197.9l-0.1,40.8c-0.3,0.1-0.7,0.1-1,0.1l0.1-40.8C248,198,248.3,198,248.7,197.9"/>
					<path class="st36" d="M247.7,198l-0.1,40.8c-0.3,0-0.5,0-0.8,0.1l0.1-40.8C247.2,198.1,247.4,198.1,247.7,198"/>
					<path class="st30" d="M246.9,198.1l-0.1,40.8H246l0.2-40.7L246.9,198.1"/>
					<path class="st29" d="M246.1,198.1l-0.1,40.8c-0.3,0-0.5,0-0.8,0l0.1-40.8H246.1"/>
					<path class="st28" d="M245.3,198.1l-0.1,40.8c-0.3,0-0.5,0-0.8-0.1l0.1-40.8C244.8,198,245,198,245.3,198.1"/>
					<path class="st27" d="M244.5,198l-0.1,40.8l-0.7-0.1l0.1-40.8C244,197.9,244.3,197.9,244.5,198"/>
					<path class="st46" d="M243.8,197.8l-0.1,40.8c-0.3-0.1-0.5-0.1-0.8-0.2l0.1-40.8C243.2,197.7,243.5,197.8,243.8,197.8"/>
					<path class="st47" d="M243,197.7l-0.1,40.8c-0.3-0.1-0.7-0.2-1-0.3l0.1-40.8C242.3,197.4,242.6,197.6,243,197.7"/>
					<path class="st48" d="M242,197.3l-0.1,40.8c-0.5-0.2-1-0.4-1.4-0.7c-1.7-1-2.6-2.1-2.6-3.4l0.1-40.8c0,1.3,0.9,2.4,2.6,3.4
						C241,196.9,241.5,197.1,242,197.3"/>
				</g>
			</g>
		</g>
	</g>
</g>
<path class="st83" d="M320.8,172.4c2.1,1.2,3.2,2.4,3.3,3.5c0.1,1.1-0.6,2.1-2.1,3c-1.6,0.9-3.4,1.3-5.2,1.2
	c-2.1-0.1-4.2-0.8-6.1-1.9l-13.3-7.7l-43.5,25.3c-2.2,1.4-4.7,2.1-7.3,2.3c-2.2,0.1-4.3-0.4-6.2-1.5c-1.8-1-2.7-2.2-2.6-3.6
	c0.1-1.4,1.4-2.8,3.9-4.2l43.5-25.3l-13.3-7.7c-2.1-1.2-3.2-2.4-3.3-3.5c-0.1-1.1,0.6-2.1,2.1-3c1.6-0.9,3.4-1.3,5.2-1.2
	c2.1,0.1,4.1,0.8,5.9,1.9L320.8,172.4z"/>
<g>
	<g>
		<g>
			<defs>
				<path id="SVGID_102_" d="M308.8,241c-10.1,5.9-15.1,13.5-15.1,21.2l0.1-40.8c0-7.7,5.1-15.3,15.1-21.2
					c20.3-11.8,53.2-11.8,73.6,0l-0.1,40.8C362,229.2,329,229.2,308.8,241z"/>
			</defs>
			<clipPath id="SVGID_103_">
				<use xlink:href="#SVGID_102_"  style="overflow:visible;"/>
			</clipPath>
			<g class="st84">
				<g>
					<path class="st19" d="M382.5,200.2l-0.1,40.8c-2.4-1.4-4.9-2.6-7.5-3.6l0.1-40.8C377.6,197.6,380.1,198.8,382.5,200.2"/>
					<path class="st20" d="M375,196.6l-0.1,40.8c-2.1-0.8-4.2-1.5-6.3-2.1l0.1-40.8C370.9,195.1,373,195.8,375,196.6"/>
					<path class="st21" d="M368.7,194.5l-0.1,40.8c-1.8-0.5-3.6-0.9-5.4-1.3l0.1-40.8C365.1,193.5,366.9,194,368.7,194.5"/>
					<path class="st8" d="M363.2,193.1l-0.1,40.8c-1.7-0.4-3.4-0.7-5.2-0.9l0.1-40.8C359.8,192.5,361.5,192.8,363.2,193.1"/>
					<path class="st7" d="M358.1,192.2L358,233c-1.7-0.2-3.4-0.4-5.1-0.6l0.1-40.8C354.7,191.8,356.4,192,358.1,192.2"/>
					<path class="st6" d="M353,191.7l-0.1,40.8c-1.7-0.1-3.4-0.2-5.1-0.3l0.1-40.8C349.6,191.4,351.3,191.5,353,191.7"/>
					<path class="st5" d="M347.9,191.4l-0.1,40.8c-1.8,0-3.6,0-5.3,0l0.1-40.8C344.3,191.3,346.1,191.3,347.9,191.4"/>
					<path class="st4" d="M342.6,191.4l-0.1,40.8c-1.9,0.1-3.9,0.2-5.8,0.4l0.1-40.8C338.7,191.6,340.6,191.5,342.6,191.4"/>
					<path class="st3" d="M336.8,191.8l-0.1,40.8c-2.2,0.2-4.5,0.5-6.6,0.9l0.1-40.8C332.3,192.3,334.5,192,336.8,191.8"/>
					<path class="st2" d="M330.1,192.7l-0.1,40.8c-3.3,0.6-6.6,1.4-9.9,2.4l0.1-40.8C323.5,194.1,326.8,193.3,330.1,192.7"/>
					<path class="st1" d="M320.3,195.2l-0.1,40.8c-4,1.3-7.8,2.9-11.4,5l-0.7,0.3l0.1-40.8l0.6-0.4
						C312.5,198.1,316.3,196.4,320.3,195.2"/>
					<path class="st2" d="M308.2,200.6l-0.1,40.7c-2.4,1.4-4.6,3-6.6,4.9l0.1-40.8C303.6,203.6,305.9,201.9,308.2,200.6"/>
					<path class="st3" d="M301.6,205.5l-0.1,40.8c-1.2,1.1-2.2,2.2-3.2,3.5l0.1-40.8C299.4,207.7,300.5,206.5,301.6,205.5"/>
					<path class="st4" d="M298.4,208.9l-0.1,40.8c-0.8,1-1.5,2-2.1,3.1l0.1-40.8C296.9,211,297.6,209.9,298.4,208.9"/>
					<path class="st5" d="M296.3,212.1l-0.1,40.8c-0.5,1-1,2-1.4,3l0.1-40.8C295.3,214,295.8,213,296.3,212.1"/>
					<path class="st6" d="M294.9,215l-0.1,40.8c-0.4,1-0.6,1.9-0.8,2.9l0.1-40.8C294.3,216.9,294.6,216,294.9,215"/>
					<path class="st7" d="M294.1,217.9l-0.1,40.8c-0.2,1-0.3,2-0.4,3l0.1-40.8C293.8,219.9,293.9,218.9,294.1,217.9"/>
					<path class="st8" d="M293.7,220.9l-0.1,40.8v0.5l0.1-40.8C293.7,221.2,293.7,221.1,293.7,220.9"/>
				</g>
			</g>
		</g>
	</g>
</g>
<g>
	<g>
		<g>
			<defs>
				<path id="SVGID_104_" d="M333.4,255.2c-3.4,2-5,4.5-5,7l0.1-40.8c0-2.6,1.7-5.1,5-7c6.8-3.9,17.8-3.9,24.5,0
					c3.4,2,5.1,4.5,5.1,7.1c0,13.6,0,27.2-0.1,40.8c0-2.6-1.7-5.1-5.1-7.1C351.1,251.3,340.1,251.3,333.4,255.2z"/>
			</defs>
			<clipPath id="SVGID_105_">
				<use xlink:href="#SVGID_104_"  style="overflow:visible;"/>
			</clipPath>
			<g class="st85">
				<g>
					<path class="st10" d="M363.2,221.6l-0.1,40.7c0-2.6-1.7-5.2-5.1-7.1c-0.8-0.5-1.6-0.9-2.5-1.2l0.1-40.8
						c0.9,0.3,1.7,0.7,2.5,1.2C361.5,216.4,363.2,219,363.2,221.6"/>
					<path class="st86" d="M355.5,213.2l-0.1,40.8c-0.7-0.3-1.4-0.5-2.1-0.7l0.1-40.8C354.1,212.7,354.9,212.9,355.5,213.2"/>
					<path class="st87" d="M353.4,212.5l-0.1,40.8c-0.6-0.2-1.2-0.3-1.8-0.4l0.1-40.8C352.2,212.2,352.8,212.4,353.4,212.5"/>
					<path class="st88" d="M351.6,212.1l-0.1,40.8c-0.6-0.1-1.1-0.2-1.7-0.3l0.1-40.8C350.5,211.8,351.1,211.9,351.6,212.1"/>
					<path class="st89" d="M349.9,211.8l-0.1,40.8c-0.6-0.1-1.1-0.1-1.7-0.2l0.1-40.8C348.8,211.6,349.3,211.7,349.9,211.8"/>
					<path class="st90" d="M348.2,211.6l-0.1,40.7l-1.7-0.1l0.1-40.8C347.1,211.5,347.6,211.5,348.2,211.6"/>
					<path class="st91" d="M346.5,211.5l-0.1,40.8c-0.6,0-1.2,0-1.8,0l0.1-40.8C345.3,211.5,345.9,211.5,346.5,211.5"/>
					<path class="st92" d="M344.7,211.5l-0.1,40.8c-0.6,0-1.3,0.1-1.9,0.1l0.1-40.8C343.4,211.6,344.1,211.6,344.7,211.5"/>
					<path class="st93" d="M342.8,211.6l-0.1,40.8c-0.8,0.1-1.5,0.2-2.2,0.3l0.1-40.8C341.3,211.8,342.1,211.7,342.8,211.6"/>
					<path class="st94" d="M340.6,211.9l-0.1,40.8c-1.1,0.2-2.2,0.5-3.3,0.8l0.1-40.8C338.4,212.4,339.5,212.1,340.6,211.9"/>
					<path class="st95" d="M337.3,212.7l-0.1,40.8c-1.3,0.4-2.6,1-3.8,1.7l-0.2,0.1l0.1-40.8l0.2-0.1
						C334.7,213.7,336,213.2,337.3,212.7"/>
					<path class="st94" d="M333.3,214.5l-0.1,40.8c-0.8,0.5-1.5,1-2.2,1.6l0.1-40.8C331.8,215.6,332.5,215,333.3,214.5"/>
					<path class="st93" d="M331.1,216.2L331,257c-0.4,0.4-0.8,0.7-1.1,1.2l0.1-40.8C330.4,216.9,330.7,216.5,331.1,216.2"/>
					<path class="st92" d="M330,217.3l-0.1,40.8c-0.3,0.3-0.5,0.6-0.7,1l0.1-40.8C329.5,217.9,329.8,217.6,330,217.3"/>
					<path class="st91" d="M329.3,218.4l-0.1,40.8c-0.2,0.3-0.3,0.7-0.5,1l0.1-40.8C329,219,329.1,218.7,329.3,218.4"/>
					<path class="st90" d="M328.9,219.4l-0.1,40.8c-0.1,0.3-0.2,0.7-0.3,1l0.1-40.8C328.6,220,328.7,219.7,328.9,219.4"/>
					<path class="st89" d="M328.6,220.3l-0.1,40.8c-0.1,0.3-0.1,0.7-0.1,1l0.1-40.8C328.5,221,328.5,220.6,328.6,220.3"/>
					<path class="st88" d="M328.5,221.3l-0.1,40.8v0.1L328.5,221.3L328.5,221.3"/>
				</g>
			</g>
		</g>
	</g>
</g>
<g>
	<g>
		<g>
			<defs>
				<path id="SVGID_106_" d="M363.2,221.6l-0.1,40.7c0,2.6-1.7,5.1-5,7.1c-6.8,3.9-17.7,3.9-24.5,0c-3.4-2-5.1-4.6-5.1-7.2l0.1-40.8
					c0,2.6,1.7,5.2,5.1,7.2c6.8,3.9,17.8,3.9,24.5,0C361.5,226.7,363.2,224.1,363.2,221.6z"/>
			</defs>
			<clipPath id="SVGID_107_">
				<use xlink:href="#SVGID_106_"  style="overflow:visible;"/>
			</clipPath>
			<g class="st96">
				<g>
					<path class="st27" d="M363.2,221.6l-0.1,40.7v0.1L363.2,221.6L363.2,221.6"/>
					<path class="st28" d="M363.2,221.7l-0.1,40.8c0,0.3,0,0.7-0.1,1l0.1-40.8C363.2,222.4,363.2,222.1,363.2,221.7"/>
					<path class="st29" d="M363.1,222.7l-0.1,40.8c-0.1,0.3-0.2,0.7-0.3,1l0.1-40.8C362.9,223.4,363,223.1,363.1,222.7"/>
					<path class="st30" d="M362.8,223.7l-0.1,40.8c-0.1,0.3-0.3,0.7-0.5,1l0.1-40.8C362.5,224.4,362.6,224,362.8,223.7"/>
					<path class="st36" d="M362.3,224.7l-0.1,40.8c-0.2,0.4-0.4,0.7-0.7,1l0.1-40.8C361.9,225.4,362.1,225.1,362.3,224.7"/>
					<path class="st37" d="M361.6,225.7l-0.1,40.8c-0.3,0.4-0.7,0.8-1.1,1.2l0.1-40.8C360.9,226.5,361.3,226.1,361.6,225.7"/>
					<path class="st38" d="M360.5,226.9l-0.1,40.8c-0.7,0.6-1.4,1.2-2.2,1.6l0.1-40.8C359.1,228,359.9,227.5,360.5,226.9"/>
					<path class="st39" d="M358.3,228.5l-0.1,40.8l-0.2,0.1c-1.2,0.7-2.5,1.3-3.8,1.7l0.1-40.8c1.3-0.4,2.6-1,3.8-1.7L358.3,228.5"
						/>
					<path class="st38" d="M354.3,230.3l-0.1,40.8c-1.1,0.3-2.2,0.6-3.3,0.8l0.1-40.8C352.1,230.9,353.2,230.6,354.3,230.3"/>
					<path class="st37" d="M351,231.1l-0.1,40.8c-0.7,0.1-1.5,0.2-2.2,0.3l0.1-40.8C349.6,231.4,350.3,231.3,351,231.1"/>
					<path class="st36" d="M348.8,231.4l-0.1,40.8c-0.6,0.1-1.3,0.1-1.9,0.1l0.1-40.8C347.5,231.6,348.2,231.5,348.8,231.4"/>
					<path class="st30" d="M346.9,231.6l-0.1,40.7c-0.6,0-1.2,0-1.8,0l0.1-40.8C345.7,231.5,346.3,231.5,346.9,231.6"/>
					<path class="st29" d="M345.1,231.6l-0.1,40.7c-0.6,0-1.1,0-1.7-0.1l0.1-40.8C344,231.5,344.5,231.5,345.1,231.6"/>
					<path class="st28" d="M343.4,231.5l-0.1,40.8c-0.6,0-1.1-0.1-1.7-0.2l0.1-40.8C342.3,231.4,342.8,231.4,343.4,231.5"/>
					<path class="st27" d="M341.7,231.3l-0.1,40.8c-0.6-0.1-1.1-0.2-1.7-0.3L340,231C340.6,231.1,341.1,231.2,341.7,231.3"/>
					<path class="st46" d="M340,231l-0.1,40.8c-0.6-0.1-1.2-0.3-1.8-0.4l0.1-40.8C338.8,230.7,339.4,230.9,340,231"/>
					<path class="st47" d="M338.2,230.5l-0.1,40.8c-0.7-0.2-1.4-0.5-2.1-0.7l0.1-40.8C336.8,230.1,337.5,230.3,338.2,230.5"/>
					<path class="st48" d="M336.1,229.8l-0.1,40.8c-0.9-0.3-1.7-0.7-2.5-1.2c-3.4-2-5.1-4.6-5.1-7.2l0.1-40.8c0,2.6,1.7,5.2,5.1,7.2
						C334.4,229.1,335.2,229.5,336.1,229.8"/>
				</g>
			</g>
		</g>
	</g>
</g>
<g>
	<g>
		<g>
			<defs>
				<path id="SVGID_108_" d="M293.6,262.1l0.1-40.8c0,7.8,5.1,15.6,15.4,21.5l-0.1,40.8C298.7,277.7,293.6,269.9,293.6,262.1z"/>
			</defs>
			<clipPath id="SVGID_109_">
				<use xlink:href="#SVGID_108_"  style="overflow:visible;"/>
			</clipPath>
			<g class="st97">
				<g>
					<path class="st10" d="M309.1,242.9l-0.1,40.8c-10.3-5.9-15.4-13.7-15.4-21.5l0.1-40.8C293.7,229.2,298.8,236.9,309.1,242.9"/>
				</g>
			</g>
		</g>
	</g>
</g>
<polygon class="st14" points="346.1,264.2 345.9,304.9 309,283.6 309.1,242.9 "/>
<linearGradient id="SVGID_110_" gradientUnits="userSpaceOnUse" x1="404.2307" y1="77.101" x2="133.8477" y2="258.633" gradientTransform="matrix(1 0 0 -1 0 346.55)">
	<stop  offset="0" style="stop-color:#FFEF9F"/>
	<stop  offset="0.472" style="stop-color:#FDD57F"/>
	<stop  offset="1" style="stop-color:#D4A855"/>
</linearGradient>
<path class="st98" d="M382.5,200.2c-20.4-11.8-53.4-11.8-73.6,0s-20.2,30.9,0.2,42.6l37,21.3l-67.3,39.2L20.2,154l208-120.8
	l227.7,131.5l30.8,17.8l-67.3,39.1l-18.5-10.7L382.5,200.2z M169.5,146.4l47.1-27.4c2.3-1.3,3.5-2.6,3.7-3.9s-0.7-2.4-2.4-3.4
	c-1.8-1-3.8-1.5-5.8-1.3c-2.4,0.2-4.7,0.9-6.7,2.2l-35.7,20.7l11.8-34.1l1.1-2.8c0.3-0.8,0.5-1.6,0.5-2.4c0-0.7-0.2-1.4-0.6-2
	c-0.6-0.8-1.4-1.5-2.3-1.9c-1.6-0.9-3.3-1.4-5.1-1.6c-1.9-0.3-3.8-0.2-5.6,0.2c-1.9,0.5-3.6,1.3-5.3,2.3l-46.1,26.9
	c-2.3,1.3-3.5,2.6-3.6,3.9s0.7,2.4,2.4,3.4c1.8,1,3.8,1.5,5.9,1.3c2.4-0.1,4.7-0.8,6.8-2.1l35.1-20.4l-12,33.5
	c-0.3,0.9-0.6,1.9-0.8,2.8c-0.3,0.8-0.3,1.7-0.2,2.6c0.1,0.8,0.4,1.6,1,2.3c0.7,0.8,1.5,1.5,2.5,2
	C159.4,149.8,164.2,149.5,169.5,146.4 M316.9,180.2c1.8,0.1,3.6-0.3,5.2-1.2c1.5-0.9,2.2-1.9,2.1-3s-1.2-2.3-3.3-3.5l-38.8-22.4
	c-1.8-1.1-3.8-1.7-5.9-1.9c-1.8-0.1-3.7,0.3-5.3,1.2c-1.5,0.9-2.2,1.9-2.1,3s1.2,2.3,3.3,3.5l13.3,7.7l-43.5,25.3
	c-2.5,1.4-3.8,2.8-3.9,4.2s0.8,2.6,2.6,3.6c1.9,1.1,4,1.6,6.2,1.5c2.6-0.1,5.1-0.9,7.3-2.3l43.5-25.3l13.3,7.7
	C312.7,179.4,314.7,180.1,316.9,180.2 M264.5,149.3c1.7,0.1,3.4-0.3,4.8-1.2c1.4-0.8,2-1.7,2-2.8s-1.1-2.1-3.1-3.2l-28.8-16.7
	c-1.6-0.9-3.2-1.6-5-2c-1.6-0.3-3.3-0.3-4.9,0c-1.8,0.4-3.5,1.1-5.1,2l-46,26.8c-2.5,1.4-3.8,2.8-3.8,4.2c-0.1,1.4,0.8,2.6,2.6,3.6
	c1.9,1.1,4,1.6,6.2,1.5c2.6-0.1,5.1-0.9,7.3-2.2l19.7-11.5l20.1,11.6c1.6,1,3.5,1.6,5.4,1.7c1.6,0.1,3.3-0.3,4.7-1.1s2-1.7,1.9-2.7
	s-1.1-2.1-2.9-3.1l-20.1-11.6l15.3-8.9l24,13.9C260.5,148.5,262.5,149.1,264.5,149.3"/>
<path class="st83" d="M217.8,111.8c1.8,1,2.6,2.1,2.4,3.4s-1.4,2.6-3.7,3.9l-47.1,27.4c-5.3,3.1-10.1,3.3-14.5,0.8
	c-0.9-0.5-1.8-1.2-2.5-2c-0.6-0.6-0.9-1.4-1-2.3c-0.1-0.9,0-1.8,0.2-2.6c0.3-0.9,0.5-1.8,0.8-2.8l12-33.5l-35.1,20.4
	c-2.1,1.3-4.4,2-6.8,2.1c-2,0.1-4.1-0.4-5.9-1.3c-1.7-1-2.5-2.2-2.4-3.4s1.3-2.6,3.6-3.9L164,91.2c1.6-1,3.4-1.8,5.3-2.3
	c1.8-0.4,3.7-0.5,5.6-0.2c1.8,0.2,3.5,0.7,5.1,1.6c0.9,0.5,1.7,1.1,2.3,1.9c0.4,0.6,0.6,1.3,0.6,2c0,0.8-0.2,1.6-0.5,2.4l-1.1,2.8
	l-11.6,33.9l35.6-20.7c2-1.3,4.3-2,6.7-2.2C214,110.3,216,110.8,217.8,111.8z"/>
<linearGradient id="SVGID_111_" gradientUnits="userSpaceOnUse" x1="88.8112" y1="305.6032" x2="332.3856" y2="-102.6521" gradientTransform="matrix(1 0 0 -1 0 346.55)">
	<stop  offset="2.591463e-02" style="stop-color:#936722"/>
	<stop  offset="0.5399" style="stop-color:#C48D35"/>
	<stop  offset="1" style="stop-color:#9E6A1A"/>
</linearGradient>
<polygon class="st99" points="228.2,33.1 20.2,154 7.9,146.9 215.9,26 "/>
<polygon class="st14" points="20.2,154 20.1,194.7 7.8,187.7 7.9,146.9 "/>
<path class="st83" d="M268.2,142c1.9,1.1,3,2.2,3.1,3.2s-0.6,2-2,2.8c-1.5,0.8-3.1,1.2-4.8,1.2c-2-0.1-3.9-0.7-5.6-1.8l-24-13.9
	l-15.3,8.9l20.1,11.6c1.9,1.1,2.8,2.1,2.9,3.1s-0.6,1.9-1.9,2.7c-1.4,0.8-3.1,1.2-4.7,1.1c-1.9-0.1-3.8-0.7-5.4-1.7l-20.1-11.6
	l-19.7,11.5c-2.2,1.4-4.7,2.1-7.3,2.2c-2.2,0.1-4.3-0.4-6.2-1.5c-1.8-1-2.7-2.2-2.6-3.6s1.4-2.8,3.8-4.2l46-26.8
	c1.6-0.9,3.3-1.6,5.1-2c1.6-0.3,3.3-0.3,4.9,0c1.8,0.4,3.4,1.1,5,2L268.2,142z"/>
<polygon class="st54" points="401,210.9 400.9,251.6 382.4,241 382.5,200.2 "/>
<polygon class="st54" points="419.5,221.5 419.3,262.3 400.9,251.6 401,210.9 "/>
<linearGradient id="SVGID_112_" gradientUnits="userSpaceOnUse" x1="427.6369" y1="168.3202" x2="458.7859" y2="114.1926" gradientTransform="matrix(1 0 0 -1 0 346.55)">
	<stop  offset="2.591463e-02" style="stop-color:#936722"/>
	<stop  offset="0.5399" style="stop-color:#C48D35"/>
	<stop  offset="1" style="stop-color:#9E6A1A"/>
</linearGradient>
<polygon class="st100" points="486.7,182.4 486.6,223.2 419.3,262.3 419.5,221.5 "/>
<g>
	<g>
		<g>
			<defs>
				<path id="SVGID_113_" d="M363.1,262.3L363.1,262.3c0-13.6,0.1-27.2,0.1-40.8l0,0C363.1,233.8,363.1,250.1,363.1,262.3z"/>
			</defs>
			<clipPath id="SVGID_114_">
				<use xlink:href="#SVGID_113_"  style="overflow:visible;"/>
			</clipPath>
			<g class="st101">
				<g>
					<path class="st10" d="M363.2,221.6l-0.1,40.7c0-2.6-1.7-5.2-5.1-7.1c-0.8-0.5-1.6-0.9-2.5-1.2l0.1-40.8
						c0.9,0.3,1.7,0.7,2.5,1.2C361.5,216.4,363.2,219,363.2,221.6"/>
				</g>
			</g>
		</g>
	</g>
</g>
<path class="st102" d="M358,214.4c6.8,3.9,6.8,10.3,0.1,14.2s-17.7,3.9-24.5,0s-6.8-10.3-0.1-14.2S351.2,210.5,358,214.4z"/>
<linearGradient id="SVGID_115_" gradientUnits="userSpaceOnUse" x1="345.9125" y1="271.825" x2="430.7126" y2="271.825">
	<stop  offset="2.591463e-02" style="stop-color:#503816"/>
	<stop  offset="0.3134" style="stop-color:#694A1D"/>
	<stop  offset="0.4162" style="stop-color:#68491D"/>
	<stop  offset="0.8408" style="stop-color:#583E18"/>
	<stop  offset="1" style="stop-color:#553C17"/>
</linearGradient>
<path class="st103" d="M430.7,232.2c0,1.1-0.3,2.1-0.9,3.2c0,0,0,0,0,0v0c-0.4,0.6-0.9,1.3-1.4,1.9c-0.1,0.1-0.2,0.2-0.3,0.2
	c-0.7,0.7-1.4,1.2-2.2,1.6l0,0.1c-0.1,0-0.1,0.1-0.2,0.1l0,0v0l-49,28.4c-1.7,1-3.6,1.7-5.7,2.2c-0.4,0.1-0.9,0.2-1.3,0.3
	c-0.2,0.1-0.5,0.1-0.7,0.1c-0.2,0-0.5,0.1-0.7,0.1c-0.3,0-0.5,0.1-0.7,0.1v0c-0.3,0-0.6,0.1-0.9,0.1c-0.1,0-0.1,0-0.2,0
	c-0.3,0-0.6,0-0.9,0l0,0.1c-0.9,0-1.7,0-2.6,0c-0.1,0-0.3,0-0.4,0c-0.3,0-0.5,0-0.8-0.1c-0.5-0.1-1-0.2-1.5-0.3l0,0.1
	c-0.1,0-0.2,0-0.3,0c-0.3-0.1-0.6-0.1-0.9-0.2c-1.5-0.3-3-0.7-4.4-1.3l0,0c-0.2-0.1-0.3-0.1-0.5-0.2c-0.7-0.3-1.4-0.6-2-1l-6.1-3.5
	l-0.2,40.7l6.2,3.6v0c0.8,0.5,1.6,0.9,2.5,1.2l0,0c0,0,0,0,0,0l0,0.1c0.7,0.2,1.4,0.5,2.1,0.7c0.6,0.1,1.2,0.3,1.8,0.4
	c0.5,0.1,1.1,0.2,1.7,0.3l0-0.1c0.6,0.1,1.1,0.1,1.7,0.2l0,0.1l1.7,0.1c0.6,0,1.2,0,1.8,0l0-0.1c0,0,0.1,0,0.1,0v0
	c0.6,0,1.3,0,1.9-0.1v0c0.7-0.1,1.5-0.2,2.2-0.3c1.1-0.2,2.2-0.5,3.3-0.8l0,0c1.3-0.4,2.6-1,3.8-1.7v0l48.9-28.3l0.2-0.1l0,0
	c0.5-0.3,1-0.7,1.5-1c0.1-0.1,0.2-0.2,0.3-0.3c0.1-0.1,0.2-0.1,0.2-0.2c0.1-0.1,0.1-0.1,0.2-0.2c0.4-0.3,0.8-0.7,1.1-1.1
	c0.3-0.3,0.5-0.6,0.7-1l0-0.2c0.2-0.3,0.3-0.6,0.4-0.8c0.1-0.3,0.2-0.7,0.3-1c0.1-0.3,0.1-0.7,0.1-1l0.1-40.8c0,0,0,0,0,0l0-0.1
	V232.2z"/>
<linearGradient id="SVGID_116_" gradientUnits="userSpaceOnUse" x1="297.0516" y1="227.8011" x2="454.3282" y2="-36.7095" gradientTransform="matrix(1 0 0 -1 0 346.55)">
	<stop  offset="2.591463e-02" style="stop-color:#936722"/>
	<stop  offset="0.5399" style="stop-color:#C48D35"/>
	<stop  offset="1" style="stop-color:#9E6A1A"/>
</linearGradient>
<path class="st104" d="M425.6,225.1c6.8,3.9,6.8,10.3,0.1,14.2l-48.9,28.4c-6.8,3.9-17.7,3.9-24.5,0l-6.1-3.6l-37-21.3
	c-20.4-11.8-20.5-30.9-0.2-42.6s53.2-11.8,73.6,0l18.5,10.7l18.5,10.7L425.6,225.1z M333.6,228.6c6.8,3.9,17.8,3.9,24.5,0
	s6.7-10.3-0.1-14.2s-17.8-3.9-24.5,0S326.8,224.7,333.6,228.6"/>
<polygon class="st54" points="278.8,303.3 278.7,344 20.1,194.7 20.2,154 "/>
<linearGradient id="SVGID_117_" gradientUnits="userSpaceOnUse" x1="286.6744" y1="87.2003" x2="317.8233" y2="33.0726" gradientTransform="matrix(1 0 0 -1 0 346.55)">
	<stop  offset="2.591463e-02" style="stop-color:#936722"/>
	<stop  offset="0.5399" style="stop-color:#C48D35"/>
	<stop  offset="1" style="stop-color:#9E6A1A"/>
</linearGradient>
<polygon class="st105" points="346.1,264.2 345.9,304.9 278.7,344 278.8,303.3 "/>
</svg>
