<?xml version="1.0" encoding="utf-8"?>
<!-- Generator: Adobe Illustrator 23.1.1, SVG Export Plug-In . SVG Version: 6.00 Build 0)  -->
<svg version="1.1" id="Capa_1" xmlns="http://www.w3.org/2000/svg" xmlns:xlink="http://www.w3.org/1999/xlink" x="0px" y="0px"
	 viewBox="0 0 785.4 785.4" style="enable-background:new 0 0 785.4 785.4;" xml:space="preserve">
<style type="text/css">
	.st0{fill:#DAA520;}
	.st1{fill:#14143B;}
	.st2{fill:#FFD700;}
	.st3{fill:#FFFFFF;}
	.st4{fill:#324D95;}
</style>
<g>
	<g id="Capa_1-2">
		<path class="st0" d="M635.677,44.164L382.481,415.676l-35.887,297.208l374.955,47.587L784,235.282L635.677,44.164z"/>
		<path class="st1" d="M635.677,44.164L382.481,415.676l-35.887,297.208l374.955,47.587L784,235.282L635.677,44.164z"/>
		<polygon class="st2" points="640.12,34 374.436,34 0,411.812 133.503,546.999 267.015,682.176 640.146,304.102 640.146,34 		"/>
		<path class="st3" d="M500.029,215.525l-19.575-19.821l-18.565-18.798l-42.01,42.537c-30.006-14.309-66.68-9.684-91.493,15.386
			c-31.351,31.815-31.578,83.25-0.509,115.348c11.816,12.173,10.386,29.161,0.509,39.161c-10.893,10.284-27.957,9.679-38.114-1.351
			c-9.651-10.481-9.658-26.732-0.017-37.222l-38.194-38.673c-24.732,25.097-29.309,62.204-15.195,92.632l-42.01,42.537
			l18.565,18.798l19.575,19.821l42.01-42.537c34.994,16.734,69.585,6.815,91.529-15.386c29.032-29.396,34.207-79.246-0.492-116.416
			c-10.224-10.952-9.743-28.223,1.074-38.575c10.817-10.352,27.873-9.865,38.097,1.087c10.024,10.739,9.785,27.605-0.539,38.048
			l38.14,38.664c24.795-25.106,29.38-62.258,15.195-92.677L500.029,215.525z"/>
		<path class="st4" d="M640.12,34H374.436L0,411.812l133.503,135.187l133.512,135.178l373.131-378.083V34H640.12z"/>
		<path class="st3" d="M500.029,215.525l-19.575-19.821l-18.565-18.798l-42.01,42.537c-30.006-14.309-66.68-9.684-91.493,15.386
			c-31.351,31.815-31.578,83.25-0.509,115.348c11.816,12.173,10.386,29.161,0.509,39.161c-10.893,10.284-27.957,9.679-38.114-1.351
			c-9.651-10.481-9.658-26.732-0.017-37.222l-38.194-38.673c-24.732,25.097-29.309,62.204-15.195,92.632l-42.01,42.537
			l18.565,18.798l19.575,19.821l42.01-42.537c34.994,16.734,69.585,6.815,91.529-15.386c29.032-29.396,34.207-79.246-0.492-116.416
			c-10.224-10.952-9.743-28.223,1.074-38.575c10.817-10.352,27.873-9.865,38.097,1.087c10.024,10.739,9.785,27.605-0.539,38.048
			l38.14,38.664c24.795-25.106,29.38-62.258,15.195-92.677L500.029,215.525z"/>
	</g>
</g>
</svg>
