<svg xmlns="http://www.w3.org/2000/svg" xmlns:xlink="http://www.w3.org/1999/xlink" viewBox="0 0 304 304"><defs><style>.cls-1{fill:url(#Degradado_sin_nombre_20);}.cls-2{fill:url(#Degradado_sin_nombre_20-2);}.cls-3{fill:url(#Degradado_sin_nombre_3);}.cls-4{fill:url(#Degradado_sin_nombre_20-3);}.cls-5{fill:url(#Degradado_sin_nombre_20-4);}.cls-6{fill:url(#Degradado_sin_nombre_3-2);}.cls-7{fill:url(#Degradado_sin_nombre_20-5);}.cls-8{fill:url(#Degradado_sin_nombre_20-6);}.cls-9{fill:url(#Degradado_sin_nombre_3-3);}.cls-10{fill:url(#Degradado_sin_nombre_20-7);}.cls-11{fill:url(#Degradado_sin_nombre_20-8);}.cls-12{fill:url(#Degradado_sin_nombre_3-4);}.cls-13{fill:url(#Degradado_sin_nombre_41);}.cls-14{fill:url(#Degradado_sin_nombre_41-2);}.cls-15{fill:url(#Degradado_sin_nombre_41-3);}.cls-16{fill:url(#Degradado_sin_nombre_41-4);}</style><linearGradient id="Degradado_sin_nombre_20" x1="152" y1="253.33" x2="152" y2="192.53" gradientUnits="userSpaceOnUse"><stop offset="0" stop-color="#ffef9f"/><stop offset="0.47" stop-color="#fdd57f"/><stop offset="1" stop-color="#d4a855"/></linearGradient><linearGradient id="Degradado_sin_nombre_20-2" x1="104.51" y1="291.03" x2="134.8" y2="248.48" xlink:href="#Degradado_sin_nombre_20"/><linearGradient id="Degradado_sin_nombre_3" x1="179.87" y1="304" x2="179.87" y2="222.93" gradientUnits="userSpaceOnUse"><stop offset="0" stop-color="#c48d35"/><stop offset="1" stop-color="#9e6a1a"/></linearGradient><linearGradient id="Degradado_sin_nombre_20-3" x1="248.27" y1="157.07" x2="248.27" y2="96.27" xlink:href="#Degradado_sin_nombre_20"/><linearGradient id="Degradado_sin_nombre_20-4" x1="194.62" y1="199.27" x2="237.85" y2="145.49" xlink:href="#Degradado_sin_nombre_20"/><linearGradient id="Degradado_sin_nombre_3-2" x1="276.13" y1="207.73" x2="276.13" y2="126.67" xlink:href="#Degradado_sin_nombre_3"/><linearGradient id="Degradado_sin_nombre_20-5" x1="55.73" y1="157.07" x2="55.73" y2="96.27" xlink:href="#Degradado_sin_nombre_20"/><linearGradient id="Degradado_sin_nombre_20-6" x1="-2.8" y1="211.57" x2="42.14" y2="146.55" xlink:href="#Degradado_sin_nombre_20"/><linearGradient id="Degradado_sin_nombre_3-3" x1="83.6" y1="207.73" x2="83.6" y2="126.67" xlink:href="#Degradado_sin_nombre_3"/><linearGradient id="Degradado_sin_nombre_20-7" y1="60.8" y2="0" xlink:href="#Degradado_sin_nombre_20"/><linearGradient id="Degradado_sin_nombre_20-8" x1="107.69" y1="98.78" x2="136.63" y2="49.76" xlink:href="#Degradado_sin_nombre_20"/><linearGradient id="Degradado_sin_nombre_3-4" x1="179.87" y1="111.47" x2="179.87" y2="30.4" xlink:href="#Degradado_sin_nombre_3"/><linearGradient id="Degradado_sin_nombre_41" x1="50.67" y1="238.13" x2="111.47" y2="238.13" gradientUnits="userSpaceOnUse"><stop offset="0.03" stop-color="#936722"/><stop offset="0.54" stop-color="#c48d35"/><stop offset="1" stop-color="#9e6a1a"/></linearGradient><linearGradient id="Degradado_sin_nombre_41-2" x1="192.53" y1="238.13" x2="253.33" y2="238.13" xlink:href="#Degradado_sin_nombre_41"/><linearGradient id="Degradado_sin_nombre_41-3" x1="192.53" y1="83.6" x2="253.33" y2="83.6" xlink:href="#Degradado_sin_nombre_41"/><linearGradient id="Degradado_sin_nombre_41-4" x1="50.67" y1="83.6" x2="111.47" y2="83.6" xlink:href="#Degradado_sin_nombre_41"/></defs><g id="Capa_2" data-name="Capa 2"><g id="Capa_1-2" data-name="Capa 1"><path class="cls-1" d="M207.73,222.93,152,192.53l-55.73,30.4L152,253.33Z"/><path class="cls-2" d="M96.27,222.93V273.6L152,304V253.33"/><path class="cls-3" d="M207.73,222.93V273.6L152,304V253.33"/><path class="cls-4" d="M304,126.67l-55.73-30.4-55.74,30.4,55.74,30.4Z"/><path class="cls-5" d="M192.53,126.67v50.66l55.74,30.4V157.07"/><path class="cls-6" d="M304,126.67v50.66l-55.73,30.4V157.07"/><path class="cls-7" d="M111.47,126.67,55.73,96.27,0,126.67l55.73,30.4Z"/><path class="cls-8" d="M0,126.67v50.66l55.73,30.4V157.07"/><path class="cls-9" d="M111.47,126.67v50.66l-55.74,30.4V157.07"/><path class="cls-10" d="M207.73,30.4,152,0,96.27,30.4,152,60.8Z"/><path class="cls-11" d="M96.27,30.4V81.07L152,111.47V60.8"/><path class="cls-12" d="M207.73,30.4V81.07L152,111.47V60.8"/><path class="cls-13" d="M111.47,253.33H55.73a5.06,5.06,0,0,1-5.06-5.06V222.93H60.8V243.2h50.67Z"/><path class="cls-14" d="M248.27,253.33H192.53V243.2H243.2V222.93h10.13v25.34A5.06,5.06,0,0,1,248.27,253.33Z"/><path class="cls-15" d="M253.33,116.53H243.2V60.8H192.53V50.67h55.74a5.06,5.06,0,0,1,5.06,5.06Z"/><path class="cls-16" d="M60.8,116.53H50.67V55.73a5.06,5.06,0,0,1,5.06-5.06h55.74V60.8H60.8Z"/></g></g></svg>