<svg xmlns="http://www.w3.org/2000/svg" viewBox="0 0 50.094 50"><defs><style>.cls-1{fill:#e17726;}.cls-10,.cls-12,.cls-14,.cls-16,.cls-18,.cls-2,.cls-20,.cls-21,.cls-4,.cls-6,.cls-8{fill:none;}.cls-2{stroke:#e17726;}.cls-10,.cls-12,.cls-14,.cls-16,.cls-18,.cls-2,.cls-20,.cls-4,.cls-6,.cls-8{stroke-linecap:round;stroke-linejoin:round;stroke-width:0.094px;}.cls-3{fill:#e27625;}.cls-4{stroke:#e27625;}.cls-5{fill:#d5bfb2;}.cls-6{stroke:#d5bfb2;}.cls-7{fill:#233447;}.cls-8{stroke:#233447;}.cls-9{fill:#cc6228;}.cls-10{stroke:#cc6228;}.cls-11{fill:#e27525;}.cls-12{stroke:#e27525;}.cls-13{fill:#f5841f;}.cls-14{stroke:#f5841f;}.cls-15{fill:#c0ac9d;}.cls-16{stroke:#c0ac9d;}.cls-17{fill:#161616;}.cls-18{stroke:#161616;}.cls-19{fill:#763e1a;}.cls-20{stroke:#763e1a;}</style></defs><g id="Capa_2" data-name="Capa 2"><g id="Capa_1-2" data-name="Capa 1"><polygon class="cls-1" points="47.574 1.876 28.042 16.328 31.674 7.811 47.574 1.876"/><polygon class="cls-2" points="47.574 1.876 28.042 16.328 31.674 7.811 47.574 1.876"/><polygon class="cls-3" points="2.52 1.876 21.878 16.463 18.42 7.811 2.52 1.876"/><polygon class="cls-4" points="2.52 1.876 21.878 16.463 18.42 7.811 2.52 1.876"/><polygon class="cls-3" points="40.541 35.387 35.344 43.326 46.472 46.39 49.66 35.56 40.541 35.387"/><polygon class="cls-4" points="40.541 35.387 35.344 43.326 46.472 46.39 49.66 35.56 40.541 35.387"/><polygon class="cls-3" points="0.452 35.56 3.621 46.39 14.73 43.326 9.552 35.387 0.452 35.56"/><polygon class="cls-4" points="0.452 35.56 3.621 46.39 14.73 43.326 9.552 35.387 0.452 35.56"/><polygon class="cls-3" points="14.131 21.975 11.04 26.638 22.052 27.139 21.685 15.288 14.131 21.975"/><polygon class="cls-4" points="14.131 21.975 11.04 26.638 22.052 27.139 21.685 15.288 14.131 21.975"/><polygon class="cls-3" points="35.962 21.975 28.292 15.153 28.041 27.139 39.053 26.638 35.962 21.975"/><polygon class="cls-4" points="35.962 21.975 28.292 15.153 28.041 27.139 39.053 26.638 35.962 21.975"/><polygon class="cls-3" points="14.73 43.326 21.395 40.108 15.657 35.637 14.73 43.326"/><polygon class="cls-4" points="14.73 43.326 21.395 40.108 15.657 35.637 14.73 43.326"/><polygon class="cls-3" points="28.698 40.108 35.344 43.326 34.436 35.637 28.698 40.108"/><polygon class="cls-4" points="28.698 40.108 35.344 43.326 34.436 35.637 28.698 40.108"/><polygon class="cls-5" points="35.344 43.326 28.698 40.108 29.239 44.425 29.181 46.255 35.344 43.326"/><polygon class="cls-6" points="35.344 43.326 28.698 40.108 29.239 44.425 29.181 46.255 35.344 43.326"/><polygon class="cls-5" points="14.73 43.326 20.912 46.255 20.874 44.425 21.395 40.108 14.73 43.326"/><polygon class="cls-6" points="14.73 43.326 20.912 46.255 20.874 44.425 21.395 40.108 14.73 43.326"/><polygon class="cls-7" points="21.028 32.785 15.503 31.167 19.405 29.375 21.028 32.785"/><polygon class="cls-8" points="21.028 32.785 15.503 31.167 19.405 29.375 21.028 32.785"/><polygon class="cls-7" points="29.065 32.785 30.688 29.375 34.61 31.167 29.065 32.785"/><polygon class="cls-8" points="29.065 32.785 30.688 29.375 34.61 31.167 29.065 32.785"/><polygon class="cls-9" points="14.73 43.326 15.696 35.387 9.552 35.56 14.73 43.326"/><polygon class="cls-10" points="14.73 43.326 15.696 35.387 9.552 35.56 14.73 43.326"/><polygon class="cls-9" points="34.398 35.387 35.344 43.326 40.541 35.56 34.398 35.387"/><polygon class="cls-10" points="34.398 35.387 35.344 43.326 40.541 35.56 34.398 35.387"/><polygon class="cls-9" points="39.053 26.638 28.041 27.139 29.065 32.785 30.688 29.374 34.61 31.166 39.053 26.638"/><polygon class="cls-10" points="39.053 26.638 28.041 27.139 29.065 32.785 30.688 29.374 34.61 31.166 39.053 26.638"/><polygon class="cls-9" points="15.503 31.166 19.405 29.374 21.028 32.785 22.052 27.139 11.04 26.638 15.503 31.166"/><polygon class="cls-10" points="15.503 31.166 19.405 29.374 21.028 32.785 22.052 27.139 11.04 26.638 15.503 31.166"/><polygon class="cls-11" points="11.04 26.638 15.658 35.637 15.503 31.166 11.04 26.638"/><polygon class="cls-12" points="11.04 26.638 15.658 35.637 15.503 31.166 11.04 26.638"/><polygon class="cls-11" points="34.61 31.166 34.436 35.637 39.054 26.638 34.61 31.166"/><polygon class="cls-12" points="34.61 31.166 34.436 35.637 39.054 26.638 34.61 31.166"/><polygon class="cls-11" points="22.053 27.139 21.029 32.785 22.323 39.453 22.613 30.665 22.053 27.139"/><polygon class="cls-12" points="22.053 27.139 21.029 32.785 22.323 39.453 22.613 30.665 22.053 27.139"/><polygon class="cls-11" points="28.042 27.139 27.5 30.646 27.771 39.453 29.065 32.785 28.042 27.139"/><polygon class="cls-12" points="28.042 27.139 27.5 30.646 27.771 39.453 29.065 32.785 28.042 27.139"/><polygon class="cls-13" points="29.065 32.786 27.771 39.453 28.698 40.108 34.436 35.637 34.61 31.167 29.065 32.786"/><polygon class="cls-14" points="29.065 32.786 27.771 39.453 28.698 40.108 34.436 35.637 34.61 31.167 29.065 32.786"/><polygon class="cls-13" points="15.503 31.167 15.657 35.637 21.395 40.108 22.323 39.453 21.028 32.786 15.503 31.167"/><polygon class="cls-14" points="15.503 31.167 15.657 35.637 21.395 40.108 22.323 39.453 21.028 32.786 15.503 31.167"/><polygon class="cls-15" points="29.181 46.255 29.239 44.425 28.737 44 21.357 44 20.874 44.425 20.912 46.255 14.73 43.326 16.894 45.099 21.28 48.124 28.795 48.124 33.2 45.099 35.344 43.326 29.181 46.255"/><polygon class="cls-16" points="29.181 46.255 29.239 44.425 28.737 44 21.357 44 20.874 44.425 20.912 46.255 14.73 43.326 16.894 45.099 21.28 48.124 28.795 48.124 33.2 45.099 35.344 43.326 29.181 46.255"/><polygon class="cls-17" points="28.698 40.108 27.771 39.453 22.323 39.453 21.395 40.108 20.874 44.425 21.357 44 28.737 44 29.239 44.425 28.698 40.108"/><polygon class="cls-18" points="28.698 40.108 27.771 39.453 22.323 39.453 21.395 40.108 20.874 44.425 21.357 44 28.737 44 29.239 44.425 28.698 40.108"/><polygon class="cls-19" points="48.405 17.273 50.047 9.295 47.574 1.876 28.698 15.847 35.962 21.975 46.222 24.962 48.482 22.322 47.497 21.608 49.061 20.183 47.864 19.258 49.429 18.063 48.405 17.273"/><polygon class="cls-20" points="48.405 17.273 50.047 9.295 47.574 1.876 28.698 15.847 35.962 21.975 46.222 24.962 48.482 22.322 47.497 21.608 49.061 20.183 47.864 19.258 49.429 18.063 48.405 17.273"/><polygon class="cls-19" points="0.047 9.295 1.708 17.273 0.646 18.063 2.23 19.258 1.032 20.183 2.597 21.608 1.612 22.322 3.872 24.962 14.131 21.975 21.395 15.847 2.52 1.876 0.047 9.295"/><polygon class="cls-20" points="0.047 9.295 1.708 17.273 0.646 18.063 2.23 19.258 1.032 20.183 2.597 21.608 1.612 22.322 3.872 24.962 14.131 21.975 21.395 15.847 2.52 1.876 0.047 9.295"/><polygon class="cls-13" points="46.222 24.962 35.963 21.975 39.054 26.638 34.436 35.637 40.541 35.56 49.661 35.56 46.222 24.962"/><polygon class="cls-14" points="46.222 24.962 35.963 21.975 39.054 26.638 34.436 35.637 40.541 35.56 49.661 35.56 46.222 24.962"/><polygon class="cls-13" points="14.131 21.975 3.872 24.962 0.452 35.56 9.552 35.56 15.657 35.637 11.04 26.638 14.131 21.975"/><polygon class="cls-14" points="14.131 21.975 3.872 24.962 0.452 35.56 9.552 35.56 15.657 35.637 11.04 26.638 14.131 21.975"/><polygon class="cls-13" points="28.041 27.139 28.698 15.847 31.673 7.811 18.42 7.811 21.395 15.847 22.052 27.139 22.303 30.685 22.323 39.453 27.771 39.453 27.79 30.685 28.041 27.139"/><polygon class="cls-14" points="28.041 27.139 28.698 15.847 31.673 7.811 18.42 7.811 21.395 15.847 22.052 27.139 22.303 30.685 22.323 39.453 27.771 39.453 27.79 30.685 28.041 27.139"/><rect class="cls-21" x="0.047" width="50" height="50"/></g></g></svg>