<?xml version="1.0" encoding="utf-8"?>
<!-- Generator: Adobe Illustrator 23.1.1, SVG Export Plug-In . SVG Version: 6.00 Build 0)  -->
<svg version="1.1" id="Layer_1" xmlns="http://www.w3.org/2000/svg" xmlns:xlink="http://www.w3.org/1999/xlink" x="0px" y="0px"
	 viewBox="0 0 60 32.953" style="enable-background:new 0 0 60 32.953;" xml:space="preserve">
<style type="text/css">
	.st0{fill:#D4A855;}
	.st1{fill:#C19146;}
</style>
<path class="st0" d="M59.858,15.426l-1.269-3.748v-0.06l-3.748,1.269l1.145,3.608l-8.702,2.92c-0.544,3.143-3.023,5.501-5.924,5.501
	c-3.325,0-6.045-3.083-6.045-6.891c0-1.693,0.544-3.204,1.39-4.353l-6.89-7.797l2.78-2.722l-2.841-2.902l-2.902,2.841l2.841,2.902
	l0.106-0.103l-6.876,7.841c0.846,1.209,1.39,2.72,1.39,4.353c0,3.808-2.72,6.891-6.045,6.891c-2.902,0-5.38-2.358-5.924-5.501
	L3.745,16.53l1.525-3.462l-3.567-1.632l-1.632,3.627l3.567,1.632l0.049-0.049l5.935,15.948c5.864-1.632,12.816-2.781,20.553-2.781
	c7.375,0,14.025,1.028,19.707,2.539l6.151-15.705l0.015,0.048L59.858,15.426z"/>
<path class="st1" d="M49.883,32.352l6.151-15.705l0.015,0.048l3.808-1.269l-1.269-3.748v-0.06l-3.748,1.269l1.145,3.608
	l-8.702,2.921c-0.544,3.143-3.023,5.501-5.924,5.501c-3.325,0-6.045-3.083-6.045-6.891c0-1.693,0.544-3.204,1.39-4.353l-6.89-7.797
	l2.78-2.722l-2.841-2.902l-0.046,0.045v5.684l0.091-0.089l-0.091,0.104v23.826c0.158-0.001,0.31-0.009,0.469-0.009
	C37.551,29.813,44.201,30.841,49.883,32.352z"/>
</svg>
