<?xml version="1.0" encoding="utf-8"?>
<!-- Generator: Adobe Illustrator 23.1.1, SVG Export Plug-In . SVG Version: 6.00 Build 0)  -->
<svg version="1.1" id="Layer_1" xmlns="http://www.w3.org/2000/svg" xmlns:xlink="http://www.w3.org/1999/xlink" x="0px" y="0px"
	 viewBox="0 0 60 60" style="enable-background:new 0 0 60 60;" xml:space="preserve">
<style type="text/css">
	.st0{fill:#D4A855;}
</style>
<g>
	<g>
		<path class="st0" d="M0.576,59.032c-0.089-0.089-0.144-0.211-0.144-0.347V0.907c0-0.271,0.219-0.49,0.49-0.49l57.783-0.005
			c0.271,0,0.49,0.219,0.49,0.49s-0.219,0.49-0.49,0.49L1.413,1.398v57.288c0,0.271-0.219,0.49-0.49,0.49
			C0.787,59.176,0.664,59.121,0.576,59.032z"/>
	</g>
	<g>
		<g>
			<path class="st0" d="M14.823,34.971c-0.893-0.893-1.431-2.118-1.502-3.322c-0.207-3.504,2.493-7.062,4.663-9.921
				c0.024-0.031,0.048-0.063,0.072-0.095c-0.566,0.253-1.163,0.417-1.777,0.39c-1.617-0.07-3.01-1.367-3.172-2.952
				c-0.075-0.727,0.015-1.475,0.101-2.199c0.171-1.432,0.318-2.668-0.654-3.641l0,0c-0.001-0.001-0.001-0.001-0.002-0.002
				c-0.191-0.191-0.191-0.502,0-0.693c0.192-0.192,0.515-0.183,0.694,0.001l0.001,0.001c0.973,0.973,2.209,0.825,3.641,0.654
				c0.724-0.086,1.472-0.176,2.199-0.101c1.584,0.161,2.882,1.554,2.952,3.172c0.027,0.614-0.137,1.212-0.39,1.777
				c0.031-0.024,0.063-0.048,0.095-0.072c2.859-2.17,6.417-4.87,9.921-4.663c2.374,0.141,4.831,2.095,4.658,5.008
				c-0.068,1.154-0.736,2.257-1.786,2.951c-1.02,0.674-2.21,0.844-3.264,0.466c-1.545-0.552-2.035-2.187-1.616-3.448
				c0.352-1.062,1.372-1.93,2.855-1.476c0.259,0.081,0.405,0.353,0.325,0.613c-0.079,0.259-0.353,0.405-0.612,0.325
				c-1.143-0.35-1.542,0.56-1.637,0.847c-0.267,0.802-0.002,1.851,1.015,2.216c0.761,0.272,1.633,0.141,2.392-0.361
				c0.794-0.525,1.298-1.344,1.348-2.19c0.136-2.308-1.834-3.858-3.737-3.971c-3.142-0.185-6.54,2.393-9.27,4.465
				c-0.725,0.55-1.41,1.07-2.056,1.517c-0.446,0.645-0.966,1.331-1.516,2.056c-2.072,2.73-4.651,6.128-4.466,9.27
				c0.113,1.904,1.664,3.874,3.971,3.737c0.847-0.05,1.666-0.554,2.19-1.348c0.502-0.76,0.634-1.631,0.361-2.392
				c-0.366-1.018-1.414-1.283-2.216-1.015c-0.287,0.095-1.197,0.495-0.847,1.637c0.079,0.259-0.067,0.533-0.325,0.612
				c-0.26,0.08-0.533-0.065-0.613-0.325c-0.454-1.484,0.414-2.503,1.476-2.855c1.261-0.419,2.895,0.072,3.448,1.616
				c0.378,1.054,0.207,2.244-0.466,3.264c-0.694,1.05-1.797,1.718-2.951,1.786C16.894,36.393,15.691,35.839,14.823,34.971z
				 M14.171,14.154c0.239,0.932,0.12,1.921,0.012,2.835c-0.084,0.702-0.163,1.365-0.1,1.983c0.112,1.093,1.116,2.022,2.239,2.072
				c1.043,0.046,2.184-0.743,3.1-1.377l0.155-0.107l0.106-0.155c0.634-0.917,1.423-2.057,1.377-3.1
				c-0.05-1.123-0.979-2.127-2.072-2.239c-0.619-0.063-1.281,0.016-1.983,0.1C16.092,14.275,15.102,14.393,14.171,14.154z"/>
		</g>
		<g>
			<path class="st0" d="M22.175,29.7c-0.841-0.841-1.077-2.133-0.894-3.204c0.108-0.629,0.349-1.151,0.561-1.612
				c0.309-0.67,0.576-1.249,0.427-2.064c-0.029-0.159,0.022-0.321,0.136-0.435s0.276-0.164,0.435-0.136
				c0.816,0.149,1.395-0.118,2.064-0.427c0.46-0.212,0.982-0.453,1.611-0.561c1.427-0.245,3.246,0.256,3.867,1.934
				c0.426,1.153,0.06,2.49-0.872,3.179c-0.575,0.425-1.522,0.799-2.447,0.668c0.131,0.925-0.243,1.872-0.668,2.447
				c-0.689,0.932-2.026,1.299-3.179,0.872C22.798,30.207,22.454,29.978,22.175,29.7z M23.294,23.274
				c0.003,0.799-0.283,1.419-0.561,2.022c-0.205,0.444-0.399,0.864-0.485,1.366c-0.184,1.075,0.148,2.353,1.309,2.781
				c0.752,0.278,1.614,0.053,2.049-0.535c0.449-0.607,0.837-1.791,0.065-2.563c-0.191-0.191-0.191-0.502,0-0.694
				c0.191-0.191,0.502-0.191,0.694,0c0.772,0.772,1.956,0.385,2.563-0.065c0.588-0.435,0.814-1.297,0.535-2.05
				c-0.427-1.16-1.706-1.493-2.781-1.308c-0.501,0.086-0.921,0.28-1.366,0.485C24.713,22.991,24.093,23.277,23.294,23.274z"/>
		</g>
		<g>
			<path class="st0" d="M7.436,49.414l-3.932-3.932c-0.191-0.191-0.191-0.502,0-0.694l3.932-3.932c0.191-0.191,0.502-0.191,0.694,0
				l3.932,3.932c0.191,0.191,0.191,0.502,0,0.694L8.13,49.414C7.938,49.606,7.628,49.606,7.436,49.414z M4.545,45.136l3.238,3.238
				l3.238-3.238l-3.238-3.238L4.545,45.136z"/>
		</g>
		<g>
			<path class="st0" d="M7.42,41.551c-0.089-0.089-0.144-0.211-0.144-0.347V7.751c0-0.13,0.051-0.255,0.144-0.347
				S7.637,7.26,7.767,7.26H41.22c0.271,0,0.49,0.219,0.49,0.49s-0.219,0.49-0.49,0.49H8.257v32.963c0,0.271-0.219,0.49-0.49,0.49
				C7.631,41.695,7.509,41.64,7.42,41.551z"/>
		</g>
		<g>
			<path class="st0" d="M44.805,12.046l-3.932-3.932c-0.191-0.191-0.191-0.502,0-0.694l3.932-3.932c0.191-0.191,0.502-0.191,0.694,0
				l3.932,3.932c0.191,0.191,0.191,0.502,0,0.694l-3.932,3.932C45.307,12.237,44.996,12.237,44.805,12.046z M41.913,7.767
				l3.238,3.238l3.238-3.238l-3.238-3.238L41.913,7.767z"/>
		</g>
	</g>
</g>
</svg>
