<?xml version="1.0" encoding="utf-8"?>
<!-- Generator: Adobe Illustrator 23.1.1, SVG Export Plug-In . SVG Version: 6.00 Build 0)  -->
<svg version="1.1" id="Layer_1" xmlns="http://www.w3.org/2000/svg" xmlns:xlink="http://www.w3.org/1999/xlink" x="0px" y="0px"
	 viewBox="0 0 50 50" style="enable-background:new 0 0 50 50;" xml:space="preserve">
<g>
	<path d="M13.08,20.449h-3.074c-0.386,0-0.756,0.154-1.029,0.427c-0.273,0.273-0.425,0.644-0.424,1.03L8.575,32.94
		c0,0.802,0.65,1.453,1.453,1.453s1.453-0.65,1.453-1.453v-3.35c0.594-0.003,1.228-0.006,1.6-0.006c2.552,0,4.629-2.049,4.629-4.568
		S15.632,20.449,13.08,20.449L13.08,20.449z M13.08,26.679c-0.375,0-1.011,0.003-1.608,0.006c-0.003-0.618-0.006-1.284-0.006-1.668
		c0-0.329-0.002-1.016-0.003-1.663h1.617c0.934,0,1.724,0.761,1.724,1.663C14.804,25.918,14.014,26.679,13.08,26.679z"/>
	<path d="M25.435,20.449h-3.034c-0.386,0-0.756,0.153-1.028,0.426s-0.425,0.643-0.424,1.029c0,0,0.022,10.676,0.022,10.714
		c0.001,0.385,0.156,0.754,0.429,1.026c0.272,0.27,0.64,0.422,1.023,0.422h0.006c0.092,0,2.256-0.009,3.121-0.024
		c3.282-0.057,5.664-2.911,5.664-6.785C31.213,23.185,28.891,20.449,25.435,20.449L25.435,20.449z M25.499,31.137
		c-0.376,0.007-1.023,0.012-1.628,0.016c-0.004-1.262-0.012-6.488-0.014-7.799h1.579c2.666,0,2.873,2.988,2.873,3.904
		C28.308,29.164,27.44,31.104,25.499,31.137L25.499,31.137z"/>
	<path d="M40.787,23.242c0.802,0,1.453-0.65,1.453-1.453s-0.65-1.453-1.453-1.453h-4.441c-0.802,0-1.453,0.65-1.453,1.453v10.958
		c0,0.802,0.65,1.453,1.453,1.453s1.453-0.65,1.453-1.453v-4.13h2.636c0.802,0,1.453-0.65,1.453-1.453s-0.65-1.453-1.453-1.453
		h-2.636v-2.47L40.787,23.242z"/>
	<path d="M45.061,14.251h-1.065v-0.414c0-1.867-0.707-3.642-1.992-4.997L35.97,2.476C34.605,1.036,32.684,0.21,30.7,0.21H11.362
		c-2.403,0-4.358,1.955-4.358,4.358v9.684H5.939c-2.403,0-4.358,1.955-4.358,4.358v17.43c0,2.403,1.955,4.358,4.358,4.358h1.065
		v5.035c0,2.403,1.955,4.358,4.358,4.358h28.276c2.403,0,4.358-1.955,4.358-4.358v-5.035h1.065c2.403,0,4.358-1.955,4.358-4.358
		v-17.43C49.418,16.206,47.463,14.251,45.061,14.251z M9.91,4.568c0-0.801,0.652-1.453,1.453-1.453H30.7
		c1.191,0,2.343,0.496,3.162,1.36l6.033,6.364c0.771,0.813,1.195,1.878,1.195,2.998v0.414H9.91V4.568z M41.09,45.432
		c0,0.801-0.652,1.453-1.453,1.453H11.362c-0.801,0-1.453-0.652-1.453-1.453v-5.035H41.09V45.432z M46.513,36.039
		c0,0.801-0.652,1.453-1.453,1.453H5.939c-0.801,0-1.453-0.652-1.453-1.453v-17.43c0-0.801,0.652-1.453,1.453-1.453h39.121
		c0.801,0,1.453,0.652,1.453,1.453V36.039z"/>
</g>
</svg>
