<svg xmlns="http://www.w3.org/2000/svg" xmlns:xlink="http://www.w3.org/1999/xlink" viewBox="0 0 300.93 278.99"><defs><style>.cls-1{fill:none;}.cls-2{isolation:isolate;}.cls-3{fill:url(#Degradado_sin_nombre_41);}.cls-4{fill:url(#Degradado_sin_nombre_41-2);}.cls-5{clip-path:url(#clip-path);}.cls-6{fill:#816c40;}.cls-7{fill:#927a48;}.cls-8{fill:#7d683e;}.cls-9{fill:#503816;}.cls-10{fill:#8a7344;}.cls-11{clip-path:url(#clip-path-2);}.cls-12{fill:#553c17;}.cls-13{clip-path:url(#clip-path-3);}.cls-14{fill:#867042;}.cls-15{fill:#8b7445;}.cls-16{fill:#907947;}.cls-17{fill:#957d4a;}.cls-18{fill:#9a814c;}.cls-19{clip-path:url(#clip-path-4);}.cls-20{clip-path:url(#clip-path-5);}.cls-21{clip-path:url(#clip-path-6);}.cls-22{fill:#473213;}.cls-23{fill:#4a3414;}.cls-24{fill:#4d3615;}.cls-25{fill:#4f3815;}.cls-26{fill:#523a16;}.cls-27{clip-path:url(#clip-path-7);}.cls-28{clip-path:url(#clip-path-8);}.cls-29{clip-path:url(#clip-path-9);}.cls-30{clip-path:url(#clip-path-10);}.cls-31{clip-path:url(#clip-path-11);}.cls-32{clip-path:url(#clip-path-12);}.cls-33{clip-path:url(#clip-path-13);}.cls-34{clip-path:url(#clip-path-14);}.cls-35{fill:#4b3514;}.cls-36{clip-path:url(#clip-path-15);}.cls-37{clip-path:url(#clip-path-16);}.cls-38{fill:url(#Degradado_sin_nombre_41-3);}.cls-39{fill:url(#Degradado_sin_nombre_41-4);}.cls-40{fill:url(#Degradado_sin_nombre_20);}.cls-41{clip-path:url(#clip-path-17);}.cls-42{clip-path:url(#clip-path-18);}.cls-43{fill:#453013;}.cls-44{clip-path:url(#clip-path-19);}.cls-45{fill:url(#Degradado_sin_nombre_20-2);}.cls-46{fill:url(#Degradado_sin_nombre_41-5);}.cls-47{fill:url(#Degradado_sin_nombre_41-6);}</style><linearGradient id="Degradado_sin_nombre_41" x1="187.5" y1="72.31" x2="194.39" y2="69.24" gradientUnits="userSpaceOnUse"><stop offset="0.03" stop-color="#936722"/><stop offset="0.54" stop-color="#c48d35"/><stop offset="1" stop-color="#9e6a1a"/></linearGradient><linearGradient id="Degradado_sin_nombre_41-2" x1="195.94" y1="91.31" x2="202.83" y2="88.25" xlink:href="#Degradado_sin_nombre_41"/><clipPath id="clip-path"><path class="cls-1" d="M153.18,134.36a1.43,1.43,0,0,1-.14-.5c-.15-.55-.3-1.1-.44-1.65l-.58-2.14-3.33-12.33c1,.59,1.92,1.24,2.87,1.94l4.49,16.62C155.1,135.6,154.14,135,153.18,134.36Z"/></clipPath><clipPath id="clip-path-2"><path class="cls-1" d="M88.86,167.65,84.37,151c-.22-.81-.41-1.61-.58-2.39l4.49,16.62C88.44,166,88.64,166.84,88.86,167.65Z"/></clipPath><clipPath id="clip-path-3"><path class="cls-1" d="M119.16,135.43c-8.71,7.17-9.85,16.28-7,26.88l-4.49-16.62c-2.86-10.6-1.72-19.71,7-26.88a26.56,26.56,0,0,1,18.4-6.2,32.65,32.65,0,0,1,15.62,5.13l.39,1.44.41,1.52.43,1.59.43,1.61.44,1.62.43,1.58.41,1.53.39,1.44.13.5.15.53.14.55.16.56.15.57.15.55.14.53.14.5a32.65,32.65,0,0,0-15.63-5.13A26.52,26.52,0,0,0,119.16,135.43Z"/></clipPath><clipPath id="clip-path-4"><path class="cls-1" d="M71.88,173.23c.1.48.22,1,.36,1.48l-4.49-16.62c-.14-.51-.25-1-.36-1.48C68.74,161.59,70.67,168.21,71.88,173.23Z"/></clipPath><clipPath id="clip-path-5"><path class="cls-1" d="M134.76,162.05c-.06-.24-.13-.47-.19-.69l-4.49-16.62c.07.22.13.45.2.69l.41,1.54.45,1.64.45,1.7.47,1.73.47,1.73.46,1.7.44,1.64.42,1.54.1.4.12.42.11.44.12.44.12.44.12.44.12.42Z"/></clipPath><clipPath id="clip-path-6"><path class="cls-1" d="M134.57,161.36l-4.49-16.63c-1.59-5.92-1.23-9.36,1.35-11.47a7.84,7.84,0,0,1,5.43-1.84c2.73.13,5.95,1.64,9.46,5.46a41.08,41.08,0,0,1,9.91,18.44l4.48,16.62a41.14,41.14,0,0,0-9.9-18.44c-3.51-3.82-6.73-5.33-9.46-5.46a7.86,7.86,0,0,0-5.44,1.84C133.33,152,133,155.43,134.57,161.36Z"/></clipPath><clipPath id="clip-path-7"><path class="cls-1" d="M134.76,162.05c-.31-1.13-.61-2.26-.91-3.4l-3.57-13.22c.18.63.38,1.28.6,2l.52,1.94.56,2.06.57,2.13.59,2.18.59,2.17.57,2.14.56,2.06.52,1.94C135.14,163.33,134.94,162.68,134.76,162.05Z"/></clipPath><clipPath id="clip-path-8"><path class="cls-1" d="M95.09,181.53a47.71,47.71,0,0,1-6.23-13.87L84.37,151a48,48,0,0,0,6.23,13.87l.52,1.92.55,2,.57,2.12.59,2.16.58,2.16.57,2.12.55,2,.52,1.92v0h0v0h0v.06Z"/></clipPath><clipPath id="clip-path-9"><path class="cls-1" d="M95.09,181.53a.74.74,0,0,1,0-.14L90.6,164.91l0,0c.15.58.36,1.36.52,1.94l.56,2.06.57,2.13.59,2.18.59,2.17.57,2.14.56,2.06.52,1.94Z"/></clipPath><clipPath id="clip-path-10"><path class="cls-1" d="M96.07,183c-.33-.46-.65-.93-1-1.4q-2.23-8.31-4.48-16.62c.31.47.63.94,1,1.4l.27,1,.28,1.06.3,1.09.3,1.12.3,1.12.3,1.1.28,1.06.27,1,.26.94.27,1,.28,1,.28,1,.29,1.06.28,1,.27,1Z"/></clipPath><clipPath id="clip-path-11"><path class="cls-1" d="M96.07,183a5.91,5.91,0,0,1-.25-.94l-.84-3.1-.28-1-.28-1-.27-1-.26-.94q-1.14-4.27-2.3-8.55c.31.44.64.88,1,1.31.16.58.37,1.36.52,1.94l.56,2.06.58,2.13.58,2.18.59,2.18.58,2.13.55,2.06.53,1.94C96.72,183.83,96.39,183.39,96.07,183Z"/></clipPath><clipPath id="clip-path-12"><path class="cls-1" d="M97.24,184.49l-.18-.23q-2.25-8.31-4.49-16.62l.18.23.48,1.77.51,1.89.52,1.95.54,2,.54,2,.53,2,.51,1.88.48,1.78,0,.16,0,.18,0,.18.05.18,0,.19,0,.18,0,.17Z"/></clipPath><clipPath id="clip-path-13"><path class="cls-1" d="M113.59,162.3l4.48,16.62a57.78,57.78,0,0,0-2.58-7.23,73,73,0,0,1-3.32-9.37l-4.49-16.62a73.7,73.7,0,0,0,3.33,9.37A59.43,59.43,0,0,1,113.59,162.3Z"/></clipPath><clipPath id="clip-path-14"><path class="cls-1" d="M166.34,145.92a5.13,5.13,0,0,1-.26-.95c-.63-2.35-3.23-12-4.23-15.67,6.25,7.22,8.88,13.37,10.32,18.47l4.49,16.62C175.21,159.29,172.59,153.14,166.34,145.92Z"/></clipPath><clipPath id="clip-path-15"><path class="cls-1" d="M137.73,170.54c-.95-2.42-1.74-4.59-2.37-6.53q-2.24-8.31-4.48-16.62c.62,1.94,1.42,4.11,2.37,6.53a66.15,66.15,0,0,1,2.66,7.74l4.49,16.62A66.31,66.31,0,0,0,137.73,170.54Z"/></clipPath><clipPath id="clip-path-16"><path class="cls-1" d="M72.24,174.71l-4.49-16.62A55.44,55.44,0,0,0,79,178.42L83.49,195A55.44,55.44,0,0,1,72.24,174.71Z"/></clipPath><linearGradient id="Degradado_sin_nombre_41-3" x1="197.52" y1="60.79" x2="282.67" y2="60.79" xlink:href="#Degradado_sin_nombre_41"/><linearGradient id="Degradado_sin_nombre_41-4" x1="254.82" y1="89.89" x2="300.93" y2="89.89" xlink:href="#Degradado_sin_nombre_41"/><linearGradient id="Degradado_sin_nombre_20" x1="260.07" y1="206.9" x2="236.92" y2="-41.61" gradientUnits="userSpaceOnUse"><stop offset="0" stop-color="#ffef9f"/><stop offset="0.47" stop-color="#fdd57f"/><stop offset="1" stop-color="#d4a855"/></linearGradient><clipPath id="clip-path-17"><path class="cls-1" d="M97.24,184.49s0-.06,0-.08l-.17-.63L97,183.6l0-.18,0-.18,0-.16-4.11-15.21c.64.81,1.32,1.6,2,2.38,3.06,3.31,6.42,5.41,9.58,6l.52,1.94.56,2.06.57,2.14.59,2.17.59,2.18.58,2.13.55,2.06.53,1.94c-3.16-.58-6.52-2.68-9.58-6C98.55,186.09,97.88,185.3,97.24,184.49Z"/></clipPath><clipPath id="clip-path-18"><path class="cls-1" d="M110.18,193a8.62,8.62,0,0,1-1.33-.16q-2.25-8.31-4.49-16.62a8.77,8.77,0,0,0,1.33.16,8,8,0,0,0,5.63-1.85c3.21-2.64,3.84-6.43,2.27-12.26l4.48,16.62c1.58,5.83,1,9.62-2.26,12.26A8,8,0,0,1,110.18,193Z"/></clipPath><clipPath id="clip-path-19"><path class="cls-1" d="M135.91,161.65l4.49,16.62c3.28,12.17.58,20.43-8.17,27.65a27.61,27.61,0,0,1-19,6.36c-6.33-.31-13-2.73-19.43-7.61L89.3,188.05c6.42,4.88,13.1,7.3,19.44,7.61a27.63,27.63,0,0,0,19-6.36C136.5,182.08,139.19,173.82,135.91,161.65Z"/></clipPath><linearGradient id="Degradado_sin_nombre_20-2" x1="137.1" y1="236.68" x2="114.12" y2="36" xlink:href="#Degradado_sin_nombre_20"/><linearGradient id="Degradado_sin_nombre_41-5" x1="117.26" y1="90.43" x2="122.37" y2="210.6" xlink:href="#Degradado_sin_nombre_41"/><linearGradient id="Degradado_sin_nombre_41-6" x1="0.59" y1="166.17" x2="250.65" y2="166.17" xlink:href="#Degradado_sin_nombre_41"/></defs><g id="Capa_2" data-name="Capa 2"><g id="Capa_1-2" data-name="Capa 1"><g class="cls-2"><path class="cls-3" d="M192.28,57.32,187.8,40.7c-.27,1.48-.75,2.87-.89,4.38a99.1,99.1,0,0,0,0,13.59c.17,3,.41,6.19.67,9.17-.32.38-.62.78-.92,1.18l-.27.38c-.12.17-.24.33-.35.5s-.17.27-.25.4-.16.24-.23.37c-.24.38-.46.78-.68,1.18,0,0,0,.07-.06.11-.22.43-.43.88-.63,1.33-.05.12-.1.25-.16.38l-.21.51c-.06.15-.1.3-.16.45l-.21.6q-.15.47-.27.93c-.06.2-.12.39-.16.59s-.16.69-.23,1c0,.17-.07.34-.1.51q-.14.8-.21,1.59a20.41,20.41,0,0,0,.61,7.23l4.48,16.62a20.65,20.65,0,0,1-.61-7.23c.05-.53.13-1.06.22-1.59a4,4,0,0,1,.1-.5c.07-.36.14-.71.22-1s.11-.39.16-.59.18-.62.28-.93l.21-.59c.11-.33.24-.65.37-1,.05-.13.1-.26.16-.38.2-.45.4-.9.63-1.33l.06-.12c.21-.39.44-.79.67-1.17l.23-.37c.2-.31.4-.61.61-.9l.27-.38c.29-.4.6-.8.92-1.18h0c-.7-7.95-1.23-17-.7-22.76C191.53,60.19,192,58.8,192.28,57.32Z"/><path class="cls-4" d="M228.39,74.92a20.82,20.82,0,0,0-7.73-11.25l4.49,16.62a20.91,20.91,0,0,1,7.73,11.25Z"/><g class="cls-2"><g class="cls-5"><g class="cls-2"><path class="cls-6" d="M151.56,119.68l4.49,16.62c-6.06-4.46-12.4-6.78-18.5-7.07a26.2,26.2,0,0,0-12.74,2.57l-4.49-16.62a26.22,26.22,0,0,1,12.75-2.57c6.09.29,12.44,2.61,18.49,7.07"/></g></g></g><polygon class="cls-7" points="162.51 110.66 166.99 127.28 156.05 136.3 151.56 119.68 162.51 110.66"/><polygon class="cls-8" points="171.99 120.94 176.48 137.56 166.99 127.28 162.51 110.66 171.99 120.94"/><polygon class="cls-9" points="171.99 120.94 176.48 137.56 166.34 145.92 161.85 129.3 171.99 120.94"/><polygon class="cls-10" points="83.79 148.64 88.28 165.26 71.88 173.23 67.39 156.61 83.79 148.64"/><g class="cls-2"><g class="cls-11"><g class="cls-2"><path class="cls-12" d="M83.79,148.64l4.49,16.62c.16.78.36,1.58.58,2.39L84.37,151c-.22-.81-.41-1.61-.58-2.39"/></g></g></g><g class="cls-2"><g class="cls-13"><g class="cls-2"><path class="cls-6" d="M151.56,119.68l4.49,16.62c-6.06-4.46-12.4-6.78-18.5-7.07a26.2,26.2,0,0,0-12.74,2.57l-4.49-16.62a26.22,26.22,0,0,1,12.75-2.57c6.09.29,12.44,2.61,18.49,7.07"/><path class="cls-14" d="M120.32,115.18l4.49,16.62a27.06,27.06,0,0,0-4.49,2.73l-4.49-16.63a28.57,28.57,0,0,1,4.49-2.72"/><path class="cls-15" d="M115.83,117.9l4.49,16.63c-.39.29-.78.59-1.16.9a29,29,0,0,0-2.41,2.23L112.27,121a27.34,27.34,0,0,1,2.4-2.23c.38-.31.77-.61,1.16-.91"/><path class="cls-16" d="M112.27,121l4.48,16.62a22.83,22.83,0,0,0-2.53,3.15l-4.49-16.62a21.65,21.65,0,0,1,2.54-3.15"/><path class="cls-17" d="M109.73,124.19l4.49,16.62a20.37,20.37,0,0,0-2,3.93l-4.49-16.62a20.09,20.09,0,0,1,2-3.93"/><path class="cls-18" d="M107.7,128.12l4.49,16.62c-2,5.24-1.76,11.13,0,17.58l-4.49-16.62c-1.73-6.45-2-12.34,0-17.58"/></g></g></g><g class="cls-2"><g class="cls-19"><g class="cls-2"><path class="cls-18" d="M67.39,156.61l4.49,16.62c.1.48.22,1,.36,1.48l-4.49-16.62c-.13-.51-.25-1-.36-1.48"/></g></g></g><g class="cls-2"><g class="cls-20"><g class="cls-2"><path class="cls-6" d="M135.91,161.65l4.49,16.62a66.84,66.84,0,0,0-2.67-7.73,89.44,89.44,0,0,1-3.16-9.19l-4.49-16.62a92.31,92.31,0,0,0,3.17,9.19,66.67,66.67,0,0,1,2.66,7.73"/></g></g></g><g class="cls-2"><g class="cls-21"><g class="cls-2"><path class="cls-22" d="M156.23,155.32l4.48,16.62a41.14,41.14,0,0,0-9.9-18.44c-3.51-3.82-6.73-5.33-9.46-5.46a7.74,7.74,0,0,0-3.76.76l-4.49-16.62a7.74,7.74,0,0,1,3.76-.76c2.73.13,5.95,1.64,9.46,5.46a41.08,41.08,0,0,1,9.91,18.44"/><path class="cls-23" d="M133.1,132.18l4.49,16.62a8.23,8.23,0,0,0-1.34.81L131.77,133a8.14,8.14,0,0,1,1.33-.81"/><path class="cls-24" d="M131.77,133l4.48,16.62-.34.27a7.15,7.15,0,0,0-.57.53l-4.49-16.62a5.88,5.88,0,0,1,.58-.53l.34-.27"/><path class="cls-25" d="M130.85,133.79l4.49,16.62a5.63,5.63,0,0,0-.65.81l-4.48-16.63a6.07,6.07,0,0,1,.64-.8"/><path class="cls-26" d="M130.21,134.59l4.48,16.63a6.23,6.23,0,0,0-.59,1.15l-4.48-16.62a5.51,5.51,0,0,1,.59-1.16"/><path class="cls-12" d="M129.62,135.75l4.48,16.62c-.8,2.1-.61,5,.47,9l-4.49-16.63c-1.08-4-1.26-6.88-.46-9"/></g></g></g><g class="cls-2"><g class="cls-27"><g class="cls-2"><path class="cls-6" d="M135.91,161.65l4.49,16.62a66.84,66.84,0,0,0-2.67-7.73,89.44,89.44,0,0,1-3.16-9.19l-4.49-16.62a92.31,92.31,0,0,0,3.17,9.19,66.67,66.67,0,0,1,2.66,7.73"/></g></g></g><g class="cls-2"><g class="cls-28"><g class="cls-2"><path class="cls-6" d="M109.65,175.62l4.49,16.62a8,8,0,0,1-4,.78c-3.53-.17-7.42-2.37-10.91-6.15a46.38,46.38,0,0,1-10.41-19.21L84.37,151a46.38,46.38,0,0,0,10.41,19.21c3.5,3.78,7.39,6,10.91,6.15a8,8,0,0,0,4-.78"/></g></g></g><g class="cls-2"><g class="cls-29"><g class="cls-2"><path class="cls-6" d="M109.65,175.62l4.49,16.62a8,8,0,0,1-4,.78c-3.53-.17-7.42-2.37-10.91-6.15a46.38,46.38,0,0,1-10.41-19.21L84.37,151a46.38,46.38,0,0,0,10.41,19.21c3.5,3.78,7.39,6,10.91,6.15a8,8,0,0,0,4-.78"/></g></g></g><g class="cls-2"><g class="cls-30"><g class="cls-2"><path class="cls-6" d="M109.65,175.62l4.49,16.62a8,8,0,0,1-4,.78c-3.53-.17-7.42-2.37-10.91-6.15a46.38,46.38,0,0,1-10.41-19.21L84.37,151a46.38,46.38,0,0,0,10.41,19.21c3.5,3.78,7.39,6,10.91,6.15a8,8,0,0,0,4-.78"/></g></g></g><g class="cls-2"><g class="cls-31"><g class="cls-2"><path class="cls-6" d="M109.65,175.62l4.49,16.62a8,8,0,0,1-4,.78c-3.53-.17-7.42-2.37-10.91-6.15a46.38,46.38,0,0,1-10.41-19.21L84.37,151a46.38,46.38,0,0,0,10.41,19.21c3.5,3.78,7.39,6,10.91,6.15a8,8,0,0,0,4-.78"/></g></g></g><g class="cls-2"><g class="cls-32"><g class="cls-2"><path class="cls-6" d="M109.65,175.62l4.49,16.62a8,8,0,0,1-4,.78c-3.53-.17-7.42-2.37-10.91-6.15a46.38,46.38,0,0,1-10.41-19.21L84.37,151a46.38,46.38,0,0,0,10.41,19.21c3.5,3.78,7.39,6,10.91,6.15a8,8,0,0,0,4-.78"/></g></g></g><g class="cls-2"><g class="cls-33"><g class="cls-2"><path class="cls-22" d="M113.59,162.3l4.48,16.62a57.78,57.78,0,0,0-2.58-7.23,73,73,0,0,1-3.32-9.37l-4.49-16.62a73.7,73.7,0,0,0,3.33,9.37,59.43,59.43,0,0,1,2.58,7.23"/></g></g></g><g class="cls-2"><g class="cls-34"><g class="cls-2"><path class="cls-6" d="M172.17,147.77l4.49,16.62c-1.45-5.1-4.07-11.25-10.32-18.47l-4.49-16.62c6.25,7.22,8.88,13.37,10.32,18.47"/></g></g></g><polygon class="cls-35" points="172.18 147.77 176.66 164.39 160.71 171.94 156.23 155.32 172.18 147.77"/><g class="cls-2"><g class="cls-36"><g class="cls-2"><path class="cls-6" d="M135.91,161.65l4.49,16.62a66.84,66.84,0,0,0-2.67-7.73,89.44,89.44,0,0,1-3.16-9.19l-4.49-16.62a92.31,92.31,0,0,0,3.17,9.19,66.67,66.67,0,0,1,2.66,7.73"/></g></g></g><g class="cls-2"><g class="cls-37"><g class="cls-2"><path class="cls-22" d="M79,178.42,83.49,195a55.44,55.44,0,0,1-11.25-20.33l-4.49-16.62A55.44,55.44,0,0,0,79,178.42"/></g></g></g><path class="cls-38" d="M216.67,61c0-.2.06-.39.1-.58.08-.46.17-.92.27-1.37,0-.2.09-.4.14-.59.12-.53.27-1,.42-1.56,0-.1.05-.2.08-.29.19-.61.4-1.21.62-1.8l.25-.61c.13-.31.25-.63.39-.94l.3-.64c.14-.3.28-.6.43-.89l.33-.64c.15-.29.31-.57.47-.85s.24-.42.37-.63l.52-.83c.11-.17.22-.35.34-.52.48-.72,1-1.42,1.53-2.1l.27-.33c.55-.68,1.12-1.33,1.72-2l.29-.29q.92-.95,1.89-1.83l.27-.22c.68-.6,1.39-1.18,2.12-1.72l.51-.37.83-.58.59-.39.82-.52.63-.37c.27-.16.54-.32.82-.47l.67-.35c.27-.14.55-.29.83-.42L236,36q.66-.32,1.35-.6l.54-.23c.59-.24,1.19-.46,1.79-.67l.08,0c.63-.21,1.27-.4,1.92-.58l.56-.15c.48-.13,1-.24,1.46-.35l.59-.13c.64-.13,1.29-.24,1.95-.34h.05c.67-.09,1.35-.17,2-.22l.61,0c.51,0,1-.06,1.53-.07l.62,0c.69,0,1.39,0,2.09,0,14.87.71,25.85,9.87,29.46,23.25l-4.49-16.62C274.57,25.88,263.59,16.72,248.73,16c-.71,0-1.4,0-2.1,0L246,16c-.52,0-1,0-1.54.07l-.6.05c-.68.05-1.36.13-2,.22h-.05c-.65.1-1.3.21-1.95.34l-.59.13c-.49.11-1,.22-1.46.35l-.56.15c-.65.18-1.28.37-1.92.58l-.07,0c-.61.21-1.2.43-1.79.67l-.55.23q-.68.29-1.35.6l-.33.15a1.51,1.51,0,0,0-.22.11c-.28.13-.56.28-.83.42l-.66.35-.83.47-.63.37-.82.52-.59.39-.83.58-.47.33,0,0c-.73.54-1.44,1.12-2.12,1.72l-.26.22c-.66.59-1.29,1.2-1.9,1.83-.05,0-.12.1-.17.16l-.12.13c-.6.64-1.17,1.29-1.71,2l-.27.33c-.54.68-1.05,1.38-1.54,2.1l-.1.14c-.08.12-.15.25-.24.38l-.52.83-.36.63c-.16.28-.32.56-.47.85s-.23.43-.34.64-.29.59-.43.88l-.3.65-.39.94c-.06.16-.13.31-.19.47s0,.1-.05.14c-.23.59-.43,1.19-.62,1.8l-.09.29q-.23.77-.42,1.56c-.05.19-.09.39-.14.59-.1.45-.19.91-.27,1.37,0,.19-.07.38-.1.58-.1.64-.19,1.28-.25,1.93-.69,7.49,1.41,26.72,2.26,33.49a6.77,6.77,0,0,1,.06.89c0,.1,0,.19,0,.29s0,.4,0,.6,0,.21,0,.32a5.17,5.17,0,0,1-.11.54c0,.11-.05.22-.08.33a4.68,4.68,0,0,1-.17.53c0,.1-.06.2-.1.3l-.22.49c0,.09-.09.18-.13.27s-.22.39-.34.57l-.09.16-.14.18c-.1.15-.21.3-.32.44s-.13.15-.2.23l-.3.34a10.49,10.49,0,0,1-1,.88l-.2.15-.36.24-.33.21-.4.22-.33.16a8.14,8.14,0,0,1-1.1.44l-.25.07a8.44,8.44,0,0,1-1.23.28A9.23,9.23,0,0,1,205,89a8,8,0,0,1-7.51-5.73L202,99.87a8,8,0,0,0,7.5,5.73,9.3,9.3,0,0,0,1.74-.08,8.44,8.44,0,0,0,1.23-.28l.24-.07a8.27,8.27,0,0,0,1.11-.44l.07,0,.26-.14.39-.22a3.87,3.87,0,0,0,.34-.21l.36-.24.1-.07.09-.08a8.5,8.5,0,0,0,1-.88l0,0c.1-.1.19-.21.28-.31l.19-.23c.12-.14.22-.29.33-.43s.09-.13.13-.19v0l.08-.13c.12-.19.24-.38.34-.58s.09-.18.13-.27a4.31,4.31,0,0,0,.22-.49l0-.1.06-.2c.06-.17.12-.35.17-.53s.06-.22.08-.33a5.12,5.12,0,0,0,.1-.54c0-.11,0-.21.05-.32s0-.4,0-.6,0-.19,0-.29c0-.29,0-.59-.06-.89-.86-6.77-3-26-2.26-33.49C216.48,62.25,216.57,61.6,216.67,61Z"/><path class="cls-39" d="M293,105c.45-1.26.88-2.55,1.3-3.86l.33-1c.35-1.1.68-2.21,1-3.35.08-.28.17-.57.25-.86.39-1.37.76-2.77,1.12-4.19l.24-1c.29-1.17.56-2.36.82-3.57.08-.37.17-.74.24-1.12.31-1.49.61-3,.87-4.52,0-.25.08-.5.12-.74.23-1.32.43-2.66.62-4,.06-.42.12-.85.17-1.28.21-1.6.4-3.21.55-4.85a53.93,53.93,0,0,0-1.54-19.12L294.66,34.9A54.39,54.39,0,0,1,296.2,54c-.16,1.64-.35,3.25-.55,4.85l-.18,1.28c-.18,1.36-.39,2.7-.61,4l-.12.74c-.27,1.53-.56,3-.87,4.52-.08.38-.16.75-.25,1.13-.26,1.2-.53,2.39-.82,3.56-.08.33-.15.66-.23,1-.36,1.42-.73,2.82-1.12,4.19-.09.29-.17.58-.26.87-.32,1.13-.66,2.24-1,3.34-.1.34-.21.69-.32,1-.43,1.31-.86,2.6-1.3,3.86-.06.15-.11.29-.16.44-.41,1.13-.82,2.24-1.23,3.32-.16.42-.32.85-.49,1.26s-.29.75-.44,1.11c-.2.52-.41,1-.62,1.54-.15.35-.29.7-.44,1l-.66,1.54c-.13.31-.27.63-.41.94-.24.55-.48,1.09-.73,1.63-.11.25-.22.5-.34.75-.36.77-.71,1.53-1.07,2.27l0,.08c-.34.71-.68,1.41-1,2.09l-.36.7c-.23.46-.47.92-.7,1.36l-.4.77c-.22.4-.43.8-.63,1.18l-.42.77-.59,1.08-.41.73c-.2.34-.39.68-.57,1s-.27.46-.4.69l-.55.94c-.12.21-.25.41-.36.61l-.57.93-.31.51c-.2.34-.41.66-.6,1l-.21.33c-.26.42-.52.81-.76,1.18l-.17.27-.53.8-.16.24-.44.65-.18.26-.37.55-.13.18-.42.59-.07.1-.27.37-.09.13-.17.22-.06.09-.12.16a9.72,9.72,0,0,1-.67.77,10.27,10.27,0,0,1-1,.87,8.23,8.23,0,0,1-.78.53l-.07,0a8,8,0,0,1-.77.4,6.07,6.07,0,0,1-.59.24l-.44.17c-.21.07-.43.12-.64.17l-.43.11-.73.1-.36,0a10.09,10.09,0,0,1-1.1,0,8.51,8.51,0,0,1-4.28-1.36,7.63,7.63,0,0,1-3.22-4.39l4.49,16.62a7.59,7.59,0,0,0,3.22,4.39,8.45,8.45,0,0,0,4.27,1.36,10.28,10.28,0,0,0,1.11,0l.36,0c.24,0,.49-.05.73-.1l.42-.11c.22-.05.44-.1.65-.17l.43-.16.6-.25.11,0a7,7,0,0,0,.66-.36l.07,0a7.92,7.92,0,0,0,.71-.47l.07-.06a10.27,10.27,0,0,0,1-.87l.05,0c.22-.23.42-.47.62-.72l.12-.16.06-.09c.05-.06.1-.14.17-.22l.08-.12.28-.38.07-.1c.12-.18.26-.37.42-.59l.12-.18.38-.55.17-.25.45-.66.16-.24.06-.09.49-.74c0-.08.09-.15.15-.23l.76-1.19c.06-.1.12-.2.19-.3.2-.33.41-.65.62-1l.31-.52c.19-.3.37-.6.56-.92s.24-.4.36-.61l.56-.94c.13-.23.26-.45.39-.69s.38-.65.57-1,.28-.49.41-.74.4-.71.59-1.07.28-.51.42-.78.42-.77.63-1.17l.41-.78c.23-.44.46-.9.69-1.36l.36-.7,1-2.09a.3.3,0,0,1,0-.08l1.07-2.27.34-.75c.24-.54.49-1.07.73-1.63.14-.31.28-.63.41-1l.66-1.52c.14-.35.29-.7.44-1,.2-.51.41-1,.62-1.54.15-.36.29-.73.44-1.11l.3-.76c.07-.16.12-.34.19-.5.41-1.09.82-2.19,1.23-3.33Z"/><path class="cls-40" d="M250.2.06c28.93,1.39,48.71,24.58,46,54-3.78,40.81-25.4,69.56-26.31,70.76a9,9,0,0,1-7.57,3.46,8.51,8.51,0,0,1-4.28-1.36,7.57,7.57,0,0,1-1.84-11.08c.2-.26,19.73-26.44,23.07-62.59C281.18,32.59,268.33,17,248.73,16c-18.67-.9-35.17,12.68-36.8,30.27-.69,7.49,1.41,26.72,2.26,33.49.57,4.36-2.77,8.44-7.43,9.13A9.23,9.23,0,0,1,205,89a7.93,7.93,0,0,1-7.71-6.73C197,79.59,194,56,195,45.47,197.43,19.09,222.19-1.28,250.2.06Z"/><g class="cls-2"><g class="cls-41"><g class="cls-2"><path class="cls-6" d="M109.65,175.62l4.49,16.62a8,8,0,0,1-4,.78c-3.53-.17-7.42-2.37-10.91-6.15a46.38,46.38,0,0,1-10.41-19.21L84.37,151a46.38,46.38,0,0,0,10.41,19.21c3.5,3.78,7.39,6,10.91,6.15a8,8,0,0,0,4-.78"/></g></g></g><g class="cls-2"><g class="cls-42"><g class="cls-2"><path class="cls-18" d="M113.59,162.3l4.48,16.62c1,3.7,1.11,6.57.24,8.85l-4.49-16.62c.88-2.28.77-5.15-.23-8.85"/><path class="cls-17" d="M113.82,171.15l4.49,16.62a7.44,7.44,0,0,1-.78,1.51l-4.48-16.62a7.4,7.4,0,0,0,.77-1.51"/><path class="cls-16" d="M113.05,172.66l4.48,16.62a7.89,7.89,0,0,1-.9,1.12l-4.48-16.62a7.89,7.89,0,0,0,.9-1.12"/><path class="cls-15" d="M112.15,173.78l4.48,16.62a10.06,10.06,0,0,1-.82.77l-.35.27L111,174.82l.35-.27a10.21,10.21,0,0,0,.83-.77"/><path class="cls-14" d="M111,174.82l4.49,16.62a8.3,8.3,0,0,1-1.32.8l-4.49-16.62a7.49,7.49,0,0,0,1.32-.8"/><path class="cls-6" d="M109.65,175.62l4.49,16.62a8,8,0,0,1-4,.78c-3.53-.17-7.42-2.37-10.91-6.15a46.38,46.38,0,0,1-10.41-19.21L84.37,151a46.38,46.38,0,0,0,10.41,19.21c3.5,3.78,7.39,6,10.91,6.15a8,8,0,0,0,4-.78"/></g></g></g><polygon class="cls-7" points="79 178.42 83.49 195.04 72.44 204.15 67.95 187.53 79 178.42"/><polygon class="cls-9" points="89.3 188.05 93.79 204.67 81.91 214.44 77.42 197.82 89.3 188.05"/><polygon class="cls-43" points="77.42 197.82 81.91 214.44 72.44 204.15 67.95 187.53 77.42 197.82"/><g class="cls-2"><g class="cls-44"><g class="cls-2"><path class="cls-12" d="M135.91,161.65l4.49,16.62c1.81,6.73,1.8,12.25-.05,17.07l-4.49-16.62c1.85-4.82,1.86-10.34,0-17.07"/><path class="cls-26" d="M135.86,178.72l4.49,16.62a20.9,20.9,0,0,1-2.15,4.14l-4.48-16.62a20.85,20.85,0,0,0,2.14-4.14"/><path class="cls-25" d="M133.72,182.86l4.48,16.62a25.85,25.85,0,0,1-2.9,3.6l-4.49-16.62a25.94,25.94,0,0,0,2.91-3.6"/><path class="cls-24" d="M130.81,186.46l4.49,16.62a35.31,35.31,0,0,1-3.07,2.84c-.37.31-.76.6-1.14.89l-4.49-16.62c.39-.29.77-.58,1.15-.89a35.15,35.15,0,0,0,3.06-2.84"/><path class="cls-23" d="M126.6,190.19l4.49,16.62a29.38,29.38,0,0,1-4.6,2.79L122,193a29.29,29.29,0,0,0,4.59-2.79"/><path class="cls-22" d="M122,193l4.48,16.62a27.48,27.48,0,0,1-13.27,2.68c-6.33-.31-13-2.73-19.43-7.61L89.3,188.05c6.42,4.88,13.1,7.3,19.44,7.61A27.48,27.48,0,0,0,122,193"/></g></g></g><path class="cls-45" d="M245.71,64.2c.91,26.66,1,78.51-5.07,83.5L107,257.67a20.8,20.8,0,0,1-14.18,4.69,19.1,19.1,0,0,1-13.22-6L4.56,175c-6.91-7.47-5.84-19,2.38-25.81l133.65-110c1.21-1,8.65-1.11,19.23-.61,8,.38,17.74,1.12,28,2.12-.27,1.48-.75,2.87-.89,4.38-.54,5.79,0,14.81.69,22.76a21.83,21.83,0,0,0-5.1,12c-1.12,12.1,8.38,22.41,21.22,23s24.16-8.7,25.28-20.8a20.52,20.52,0,0,0-8.34-18.45c-.59-7-1-13.73-.66-17,.07-.7.28-1.35.41-2,2.92.43,5.79.87,8.51,1.32C245,48.6,245.16,48.58,245.71,64.2Zm-89.48,91.12,15.94-7.55c-1.44-5.1-4.07-11.25-10.32-18.47L172,120.94l-9.48-10.28-10.95,9c-6.05-4.46-12.4-6.78-18.49-7.07a26.56,26.56,0,0,0-18.4,6.2c-11.18,9.2-9.89,21.61-3.66,36.26,4.27,10.14,4.69,15.88.31,19.48a8,8,0,0,1-5.63,1.85c-3.52-.17-7.41-2.37-10.91-6.15a46.74,46.74,0,0,1-11-21.61l-16.4,8c1.27,6,5.37,14.58,11.61,21.81l-11,9.11,9.47,10.29,11.88-9.77c6.42,4.88,13.1,7.3,19.44,7.61a27.63,27.63,0,0,0,19-6.36c10.49-8.66,12.27-18.8,5.5-35.38-4.66-11.87-5.52-17.64-1.82-20.66a7.79,7.79,0,0,1,5.43-1.84c2.73.13,5.95,1.64,9.46,5.46a41.18,41.18,0,0,1,9.91,18.44"/><path class="cls-46" d="M162.51,110.66,172,120.94l-10.14,8.36c6.25,7.22,8.88,13.37,10.32,18.47l-15.94,7.55a41.08,41.08,0,0,0-9.91-18.44c-3.51-3.82-6.73-5.33-9.46-5.46a7.84,7.84,0,0,0-5.43,1.84c-3.7,3-2.84,8.79,1.82,20.66,6.77,16.58,5,26.72-5.5,35.38a27.63,27.63,0,0,1-19,6.36c-6.34-.31-13-2.73-19.44-7.61l-11.88,9.77L68,187.53l11-9.11c-6.24-7.23-10.34-15.85-11.61-21.81l16.4-8a46.74,46.74,0,0,0,11,21.61c3.5,3.78,7.39,6,10.91,6.15a8,8,0,0,0,5.63-1.85c4.38-3.6,4-9.34-.31-19.48-6.23-14.65-7.52-27.06,3.66-36.26a26.56,26.56,0,0,1,18.4-6.2c6.09.29,12.44,2.61,18.49,7.07Z"/><path class="cls-47" d="M250.65,105.14v-.39c0-.85,0-1.7,0-2.54v-.48l0-2.52v-.35c0-.86,0-1.72,0-2.56v-.24c0-.85,0-1.7,0-2.54v-.1c0-.83,0-1.65-.05-2.47v-.33c0-.77,0-1.54-.05-2.29,0-.14,0-.27,0-.41,0-.74,0-1.46-.06-2.18,0-.12,0-.24,0-.36,0-.73,0-1.44-.06-2.14V83c0-.72,0-1.44-.07-2.13a69.37,69.37,0,0,0-.74-9.92c-.07-.34-.14-.65-.22-1l-4.49-16.62c.65,2.4.79,5.81,1,10.86,0,.7,0,1.42.07,2.14v.28c0,.69.05,1.4.07,2.12,0,.13,0,.26,0,.39,0,.71,0,1.44,0,2.17,0,.14,0,.27,0,.41,0,.75,0,1.52.06,2.29v.33c0,.81,0,1.62.05,2.45V77c0,.8,0,1.62,0,2.45v.25l0,2.51v.43c0,.83,0,1.66,0,2.5v.44c0,.85,0,1.71,0,2.57v.39c0,.88,0,1.77,0,2.66v.24c0,.9,0,1.79,0,2.69v.19c0,.9,0,1.81,0,2.71v.38l0,2.64v.44c0,.87,0,1.74,0,2.61v.44c0,.88,0,1.76,0,2.64v.3c0,.91,0,1.82-.07,2.72v0c0,.91,0,1.81-.08,2.7,0,.11,0,.21,0,.32,0,.85-.06,1.7-.09,2.53,0,.15,0,.29,0,.43,0,.82-.07,1.64-.11,2.44,0,.15,0,.29,0,.44,0,.81-.07,1.61-.12,2.41,0,.1,0,.21,0,.32q-.08,1.25-.15,2.46v.08c0,.8-.11,1.59-.16,2.38,0,.07,0,.15,0,.23,0,.76-.11,1.5-.17,2.23l0,.34c-.06.71-.12,1.41-.19,2.09l0,.36c-.07.68-.14,1.34-.21,2l0,.28c-.08.67-.16,1.33-.24,2,0,.05,0,.09,0,.13-.09.64-.17,1.25-.26,1.85,0,0,0,.08,0,.12-.09.59-.18,1.15-.27,1.7,0,.08,0,.16-.05.24-.09.53-.18,1-.28,1.52l-.06.24c-.1.48-.2.94-.3,1.37l-.06.2c-.11.44-.22.86-.34,1.25l0,.11c-.12.4-.25.77-.37,1.12l0,0a7.49,7.49,0,0,1-.36.85l-.06.15c-.12.25-.25.47-.37.68a1,1,0,0,0-.08.11c-.11.16-.22.32-.33.45l-.06.07a2.06,2.06,0,0,1-.3.29L107,257.67c-.39.32-.79.61-1.2.9l-.81.54-.84.51-.85.46q-.51.27-1,.51l-.37.16c-.52.22-1,.42-1.57.59l-.3.09c-.45.14-.91.26-1.36.37l-.42.1c-.54.12-1.09.22-1.64.29l-.2,0c-.49.06-1,.1-1.47.13l-.44,0c-.55,0-1.11,0-1.66,0a19.1,19.1,0,0,1-13.22-6L4.56,175a16.93,16.93,0,0,1-4-7.14l4.48,16.62a17,17,0,0,0,4,7.14L84.09,273a19.1,19.1,0,0,0,13.22,6c.55,0,1.1,0,1.66,0l.43,0c.49,0,1-.07,1.48-.13l.2,0c.55-.07,1.09-.17,1.63-.29l.42-.1c.46-.11.91-.23,1.37-.37l.3-.09c.53-.17,1-.37,1.57-.59l.37-.16.62-.28c.14-.07.28-.16.43-.23l.85-.46c.28-.16.56-.33.83-.51s.55-.35.81-.54.27-.17.4-.27.54-.41.81-.63l133.64-110h0a4,4,0,0,0,.3-.29l0,0,0,0a3.31,3.31,0,0,0,.34-.45s0,0,.05-.07,0,0,0,0a7.16,7.16,0,0,0,.37-.68l.07-.15c.12-.26.24-.54.36-.85h0v0c.13-.34.25-.71.37-1.1a.56.56,0,0,0,0-.12c.12-.39.23-.81.34-1.24,0-.07,0-.14.05-.21.11-.43.21-.89.31-1.36a2.38,2.38,0,0,0,.05-.26c.1-.48.2-1,.29-1.51,0-.08,0-.16,0-.23.1-.55.19-1.12.28-1.7a.68.68,0,0,1,0-.14c.09-.59.17-1.21.25-1.84,0,0,0-.08,0-.13.08-.63.16-1.28.23-2,0-.09,0-.19,0-.29.07-.65.14-1.32.2-2,0-.11,0-.23,0-.35.06-.68.13-1.37.18-2.08l0-.36q.09-1.09.18-2.22c0-.08,0-.16,0-.23.06-.78.11-1.58.16-2.39v-.07c0-.81.1-1.64.14-2.48,0-.1,0-.19,0-.29l.12-2.43c0-.14,0-.28,0-.42,0-.81.07-1.63.1-2.46,0-.13,0-.27,0-.4q0-1.26.09-2.55c0-.1,0-.21,0-.32,0-.89,0-1.79.08-2.7v0c0-.9.05-1.81.06-2.72,0-.1,0-.2,0-.3,0-.88,0-1.76.05-2.64,0-.15,0-.29,0-.44l0-2.61c0-.15,0-.29,0-.44,0-.88,0-1.76,0-2.64,0-.12,0-.25,0-.38,0-.91,0-1.82,0-2.73v-5.76Z"/></g></g></g></svg>