<?xml version="1.0" encoding="utf-8"?>
<!-- Generator: Adobe Illustrator 23.1.1, SVG Export Plug-In . SVG Version: 6.00 Build 0)  -->
<svg version="1.1" id="Layer_1" xmlns="http://www.w3.org/2000/svg" xmlns:xlink="http://www.w3.org/1999/xlink" x="0px" y="0px"
	 viewBox="0 0 50 50" style="enable-background:new 0 0 50 50;" xml:space="preserve">
<style type="text/css">
	.st0{fill:#F9F9F9;}
</style>
<g>
	<path class="st0" d="M42.004,8.84L35.97,2.476c-1.365-1.44-3.286-2.266-5.27-2.266H11.362c-2.403,0-4.358,1.955-4.358,4.358v40.865
		c0,2.403,1.955,4.358,4.358,4.358h28.276c2.403,0,4.358-1.955,4.358-4.358V13.837C43.996,11.97,43.289,10.195,42.004,8.84z
		 M41.09,45.432c0,0.801-0.652,1.453-1.453,1.453H11.362c-0.801,0-1.453-0.652-1.453-1.453V13.456H9.91V4.568
		c0-0.801,0.652-1.453,1.453-1.453H30.7c1.191,0,2.343,0.496,3.162,1.36l6.033,6.364c0.682,0.719,1.073,1.64,1.159,2.617h0.036
		V45.432z"/>
	<g>
		<path class="st0" d="M30.971,14.568H14.842c-0.829,0-1.5-0.671-1.5-1.5s0.671-1.5,1.5-1.5h16.129c0.828,0,1.5,0.671,1.5,1.5
			S31.799,14.568,30.971,14.568z"/>
	</g>
	<g>
		<path class="st0" d="M35.57,21.884H14.842c-0.829,0-1.5-0.671-1.5-1.5s0.671-1.5,1.5-1.5H35.57c0.828,0,1.5,0.671,1.5,1.5
			S36.398,21.884,35.57,21.884z"/>
	</g>
	<g>
		<path class="st0" d="M35.57,28.313H14.842c-0.829,0-1.5-0.672-1.5-1.5c0-0.829,0.671-1.5,1.5-1.5H35.57c0.828,0,1.5,0.671,1.5,1.5
			C37.07,27.642,36.398,28.313,35.57,28.313z"/>
	</g>
	<g>
		<path class="st0" d="M35.57,34.742H14.842c-0.829,0-1.5-0.672-1.5-1.5s0.671-1.5,1.5-1.5H35.57c0.828,0,1.5,0.672,1.5,1.5
			S36.398,34.742,35.57,34.742z"/>
	</g>
	<g>
		<path class="st0" d="M35.57,41.172H14.842c-0.829,0-1.5-0.672-1.5-1.5s0.671-1.5,1.5-1.5H35.57c0.828,0,1.5,0.672,1.5,1.5
			S36.398,41.172,35.57,41.172z"/>
	</g>
</g>
</svg>
