<svg xmlns="http://www.w3.org/2000/svg" xmlns:xlink="http://www.w3.org/1999/xlink" viewBox="0 0 298.8 286.06"><defs><style>.cls-1{fill:none;}.cls-2{isolation:isolate;}.cls-3{clip-path:url(#clip-path);}.cls-4{fill:#816c40;}.cls-5{clip-path:url(#clip-path-2);}.cls-6{clip-path:url(#clip-path-3);}.cls-7{fill:#473213;}.cls-8{fill:#826c40;}.cls-9{fill:#7d683e;}.cls-10{fill:#453013;}.cls-11{clip-path:url(#clip-path-4);}.cls-12{clip-path:url(#clip-path-5);}.cls-13{clip-path:url(#clip-path-6);}.cls-14{clip-path:url(#clip-path-7);}.cls-15{clip-path:url(#clip-path-8);}.cls-16{clip-path:url(#clip-path-9);}.cls-17{fill:#7f6a3f;}.cls-18{clip-path:url(#clip-path-10);}.cls-19{fill:#806b3f;}.cls-20{clip-path:url(#clip-path-11);}.cls-21{clip-path:url(#clip-path-12);}.cls-22{clip-path:url(#clip-path-13);}.cls-23{clip-path:url(#clip-path-14);}.cls-24{fill:#463113;}.cls-25{clip-path:url(#clip-path-15);}.cls-26{clip-path:url(#clip-path-16);}.cls-27{clip-path:url(#clip-path-17);}.cls-28{clip-path:url(#clip-path-18);}.cls-29{fill:#7e693e;}.cls-30{clip-path:url(#clip-path-19);}.cls-31{clip-path:url(#clip-path-20);}.cls-32{clip-path:url(#clip-path-21);}.cls-33{fill:url(#Degradado_sin_nombre_41);}.cls-34{fill:#7d693e;}.cls-35{clip-path:url(#clip-path-22);}.cls-36{fill:url(#Degradado_sin_nombre_41-2);}.cls-37{clip-path:url(#clip-path-23);}.cls-38{clip-path:url(#clip-path-24);}.cls-39{clip-path:url(#clip-path-25);}.cls-40{clip-path:url(#clip-path-26);}.cls-41{clip-path:url(#clip-path-27);}.cls-42{clip-path:url(#clip-path-28);}.cls-43{clip-path:url(#clip-path-29);}.cls-44{fill:#473113;}.cls-45{fill:url(#Degradado_sin_nombre_41-3);}.cls-46{clip-path:url(#clip-path-30);}.cls-47{clip-path:url(#clip-path-31);}.cls-48{clip-path:url(#clip-path-32);}.cls-49{fill:url(#Degradado_sin_nombre_41-4);}.cls-50{fill:url(#Degradado_sin_nombre_41-5);}.cls-51{clip-path:url(#clip-path-33);}.cls-52{clip-path:url(#clip-path-34);}.cls-53{clip-path:url(#clip-path-35);}.cls-54{fill:url(#Degradado_sin_nombre_41-6);}.cls-55{clip-path:url(#clip-path-36);}.cls-56{clip-path:url(#clip-path-37);}.cls-57{clip-path:url(#clip-path-38);}.cls-58{clip-path:url(#clip-path-39);}.cls-59{fill:url(#Degradado_sin_nombre_41-7);}.cls-60{fill:#f5cc79;}.cls-61{fill:url(#Degradado_sin_nombre_41-8);}.cls-62{fill:url(#Degradado_sin_nombre_41-9);}.cls-63{fill:url(#Degradado_sin_nombre_20);}.cls-64{fill:url(#Degradado_sin_nombre_41-10);}.cls-65{fill:url(#Degradado_sin_nombre_41-11);}.cls-66{fill:url(#Degradado_sin_nombre_41-12);}.cls-67{fill:url(#Degradado_sin_nombre_41-13);}.cls-68{clip-path:url(#clip-path-40);}.cls-69{fill:url(#Degradado_sin_nombre_41-14);}</style><clipPath id="clip-path"><path class="cls-1" d="M17.87,133.93a114.84,114.84,0,0,0-2.93,26q-2.61-9.53-5.23-19.05a115.48,115.48,0,0,1,2.92-26A122.54,122.54,0,0,1,21,90.42c.19.67.43,1.56.61,2.23L22.28,95,23,97.45l.69,2.5.68,2.49.68,2.45.65,2.36.61,2.23A121.69,121.69,0,0,0,17.87,133.93Z"/></clipPath><clipPath id="clip-path-2"><path class="cls-1" d="M180.12,29.28c-64.72-9-128.53,25.82-153.86,80.2Q23.64,100,21,90.42C46.35,36.05,110.16,1.24,174.88,10.23c53.28,7.4,92.87,42.49,105.06,86.94l5.23,19.06C273,71.78,233.4,36.68,180.12,29.28Z"/></clipPath><clipPath id="clip-path-3"><path class="cls-1" d="M272.26,99.23l5.23,19c-11.5-41.87-48.8-74.92-99-81.89C108.78,26.71,40.2,70.94,25.6,135a105.85,105.85,0,0,0,.95,51.83l-5.23-19.05a105.74,105.74,0,0,1-1-51.83C35,51.89,103.55,7.65,173.26,17.34,223.46,24.31,260.76,57.36,272.26,99.23Z"/></clipPath><clipPath id="clip-path-4"><path class="cls-1" d="M153.16,52.3l5.23,19.06a11.82,11.82,0,0,0-.8-2.13l-5.23-19.06A13.93,13.93,0,0,1,153.16,52.3Z"/></clipPath><clipPath id="clip-path-5"><path class="cls-1" d="M135.15,80.19l-5.23-19.06a11.72,11.72,0,0,1-.4-3.58l5.23,19.06A11.76,11.76,0,0,0,135.15,80.19Z"/></clipPath><clipPath id="clip-path-6"><path class="cls-1" d="M137.19,84.17a10.81,10.81,0,0,1-2-4l-5.24-19a11.13,11.13,0,0,0,2,4l.61,2.22.65,2.36.67,2.45.69,2.49.68,2.49.68,2.45.64,2.37Z"/></clipPath><clipPath id="clip-path-7"><path class="cls-1" d="M137.53,84.58c-.12-.13-.23-.27-.34-.41l-3-10.78-.34-1.24-.34-1.24c-.32-1.19-.65-2.38-1-3.57l-.31-1.13a4.78,4.78,0,0,1-.3-1.09l.34.4.53,1.92.56,2L134,71.6l.6,2.15.59,2.16.58,2.11.56,2,.53,1.93.08.3.09.32.09.33.09.34.09.34.1.33.08.32Z"/></clipPath><clipPath id="clip-path-8"><path class="cls-1" d="M137.53,84.58a1.81,1.81,0,0,1-.09-.31l0-.16-.09-.33-.09-.33-.05-.17L136.82,82l-4.53-16.47a10.65,10.65,0,0,0,2.63,2.13c.19.67.43,1.56.61,2.22l.65,2.36.67,2.45.69,2.49.68,2.5.68,2.45.65,2.36.61,2.23A10.47,10.47,0,0,1,137.53,84.58Z"/></clipPath><clipPath id="clip-path-9"><path class="cls-1" d="M144,88a10.69,10.69,0,0,1-3.85-1.29q-2.62-9.54-5.24-19.06a11,11,0,0,0,3.85,1.3c6.44.89,13-3.86,14.51-10.65a12.26,12.26,0,0,0-.12-6l5.23,19a12.37,12.37,0,0,1,.13,6C157,84.14,150.45,88.9,144,88Z"/></clipPath><clipPath id="clip-path-10"><path class="cls-1" d="M180,86.28l-5.24-19a12.58,12.58,0,0,1-.09-6.08,13.87,13.87,0,0,1,4.46-7.37l5.24,19a13.81,13.81,0,0,0-4.46,7.38A12.3,12.3,0,0,0,180,86.28Z"/></clipPath><clipPath id="clip-path-11"><path class="cls-1" d="M112.3,111.78a154.21,154.21,0,0,0-30.14,7.76l-5.24-19.05a154.63,154.63,0,0,1,30.15-7.76c.18.66.42,1.54.61,2.21l.64,2.34.67,2.44.68,2.48.68,2.48.67,2.44.65,2.35.6,2.21h0v0h0v0h0Z"/></clipPath><clipPath id="clip-path-12"><path class="cls-1" d="M112.3,111.78q-2.61-9.52-5.23-19l.08,0c.18.67.43,1.56.61,2.23l.65,2.36.67,2.45.68,2.49.69,2.49.67,2.45.65,2.36.61,2.23Z"/></clipPath><clipPath id="clip-path-13"><path class="cls-1" d="M114.21,111.49l-1.83.28q-2.61-9.52-5.23-19.06l1.82-.28c.17.6.38,1.39.55,2l.57,2.1.6,2.17.61,2.22.61,2.21.59,2.18.58,2.09.54,2,.07.25.07.26.08.27.07.28.08.28.08.28.07.26Z"/></clipPath><clipPath id="clip-path-14"><path class="cls-1" d="M184.47,92.52a10.77,10.77,0,0,1-4.5-6.23l-5.23-19.05a10.72,10.72,0,0,0,4.5,6.23l.61,2.22.65,2.36.67,2.45.69,2.49.68,2.5.67,2.45.65,2.36Z"/></clipPath><clipPath id="clip-path-15"><path class="cls-1" d="M188.8,94.12a10.65,10.65,0,0,1-4.33-1.6q-2.61-9.52-5.23-19a10.64,10.64,0,0,0,4.33,1.59c5.62.78,11.39-2.75,13.71-8.21l5.24,19.06C200.19,91.37,194.42,94.9,188.8,94.12Z"/></clipPath><clipPath id="clip-path-16"><path class="cls-1" d="M196.55,91.3l5.23,19.06a154.46,154.46,0,0,0-36.87-9.82,167.53,167.53,0,0,0-41-.55l-5.24-19.06a167.13,167.13,0,0,1,41.06.56A154.23,154.23,0,0,1,196.55,91.3Z"/></clipPath><clipPath id="clip-path-17"><path class="cls-1" d="M114.21,111.49Q111.59,102,109,92.43c4.92-.72,10.27-1.3,16-1.62l5.23,19.06C124.47,110.18,119.12,110.76,114.21,111.49Z"/></clipPath><clipPath id="clip-path-18"><path class="cls-1" d="M76.16,100.7l5.23,19c-.44,1.94-.84,3.66-1.16,5.61l-5.23-19C75.32,104.36,75.71,102.63,76.16,100.7Z"/></clipPath><clipPath id="clip-path-19"><path class="cls-1" d="M162,111.17a163.12,163.12,0,0,0-23.44-1.54l-5.23-19.06a164.73,164.73,0,0,1,23.44,1.55l.61,2.22.64,2.36.68,2.44.68,2.5.69,2.49.67,2.45.65,2.36Z"/></clipPath><clipPath id="clip-path-20"><path class="cls-1" d="M162.05,111.18h0q-2.61-9.53-5.23-19h0c.18.67.43,1.56.61,2.22l.64,2.36.68,2.44.68,2.49.68,2.49.68,2.44.64,2.36.61,2.22-5.22-19a167.09,167.09,0,0,1,19.86,4l.56,2,.6,2.17.62,2.25.63,2.29.63,2.3.61,2.25.6,2.17.56,2,0,.18.05.19.06.2,0,.2.06.2.05.19,0,.19.05.18A165.68,165.68,0,0,0,162.05,111.18Z"/></clipPath><clipPath id="clip-path-21"><path class="cls-1" d="M181.94,115.17q-2.61-9.53-5.23-19l1.6.43,5.23,19Z"/></clipPath><linearGradient id="Degradado_sin_nombre_41" x1="159.04" y1="39.48" x2="275.59" y2="338.79" gradientUnits="userSpaceOnUse"><stop offset="0.03" stop-color="#936722"/><stop offset="0.54" stop-color="#c48d35"/><stop offset="1" stop-color="#9e6a1a"/></linearGradient><clipPath id="clip-path-22"><path class="cls-1" d="M77.28,166.4q-2.61-9.53-5.23-19.06a168.5,168.5,0,0,1,1.57-32.89l5.23,19.06A168.5,168.5,0,0,0,77.28,166.4Z"/></clipPath><linearGradient id="Degradado_sin_nombre_41-2" x1="87.72" y1="67.25" x2="204.27" y2="366.56" xlink:href="#Degradado_sin_nombre_41"/><clipPath id="clip-path-23"><path class="cls-1" d="M191.38,118.36c-1.7-6.3-3.46-12.71-5.24-19a152.92,152.92,0,0,1,27.84,13c.19.66.43,1.55.61,2.21l.65,2.35.67,2.44.68,2.49.68,2.48.67,2.45.65,2.35.61,2.22-5.22-19,.35.21q2.63,9.52,5.23,19A153.94,153.94,0,0,0,191.38,118.36Z"/></clipPath><clipPath id="clip-path-24"><path class="cls-1" d="M14.94,160a110.34,110.34,0,0,0,3.93,28.92l-5.24-19.06a110.73,110.73,0,0,1-3.92-28.91l.61,2.22L11,145.5l.68,2.45.68,2.49.69,2.49.67,2.45.65,2.36Z"/></clipPath><clipPath id="clip-path-25"><path class="cls-1" d="M219.56,131.56v0l-.05-.18-.06-.21q-2.56-9.32-5.12-18.64A109.19,109.19,0,0,1,226.59,121l.58,2.11.62,2.24.63,2.33.65,2.36.65,2.37.64,2.32.62,2.24.58,2.11,0,.12,0,.12,0,.12,0,.13,0,.13,0,.12,0,.12,0,.12A110.68,110.68,0,0,0,219.56,131.56Z"/></clipPath><clipPath id="clip-path-26"><path class="cls-1" d="M231.83,140s0,0,0-.06l-.12-.43-.13-.49-5-18.08.27.22,5.23,19Z"/></clipPath><clipPath id="clip-path-27"><path class="cls-1" d="M227.58,121.73l5.23,19c-.41,1.83-.83,3.67-1.39,5.58l-5.23-19.05C226.75,125.39,227.16,123.55,227.58,121.73Z"/></clipPath><clipPath id="clip-path-28"><path class="cls-1" d="M77.82,173.58a123.48,123.48,0,0,0,3.79,20.33l-5.24-19a124.92,124.92,0,0,1-3.78-20.33C74.16,160.24,76.74,167.75,77.82,173.58Z"/></clipPath><clipPath id="clip-path-29"><path class="cls-1" d="M81.61,193.92l-5.24-19.06q.6,2.16,1.26,4.26l5.23,19C82.42,196.77,82,195.35,81.61,193.92Z"/></clipPath><linearGradient id="Degradado_sin_nombre_41-3" x1="106.31" y1="60.02" x2="222.85" y2="359.32" xlink:href="#Degradado_sin_nombre_41"/><clipPath id="clip-path-30"><path class="cls-1" d="M223.88,135.32l5.23,19.06a182.48,182.48,0,0,1-13.06,31.3l-5.23-19.06A183,183,0,0,0,223.88,135.32Z"/></clipPath><clipPath id="clip-path-31"><path class="cls-1" d="M277.47,118.22a105.59,105.59,0,0,1,1.33,50.28q-2.61-9.54-5.23-19.06a105.72,105.72,0,0,0-1.33-50.28Z"/></clipPath><clipPath id="clip-path-32"><path class="cls-1" d="M97.9,216.93l5.24,19a113.2,113.2,0,0,1-18-31.27l-5.24-19.06A113.51,113.51,0,0,0,97.9,216.93Z"/></clipPath><linearGradient id="Degradado_sin_nombre_41-4" x1="57.44" y1="79.05" x2="173.99" y2="378.35" xlink:href="#Degradado_sin_nombre_41"/><linearGradient id="Degradado_sin_nombre_41-5" x1="56.8" y1="79.29" x2="173.35" y2="378.6" xlink:href="#Degradado_sin_nombre_41"/><clipPath id="clip-path-33"><path class="cls-1" d="M207,173.2l5.24,19.06A172.62,172.62,0,0,1,196.66,214l-5.23-19.06A170.84,170.84,0,0,0,207,173.2Z"/></clipPath><clipPath id="clip-path-34"><path class="cls-1" d="M278.45,170.12a118.21,118.21,0,0,1-20.2,43.72q-2.61-9.53-5.23-19.06a118,118,0,0,0,20.19-43.72c.13-.54.24-1.08.36-1.62l.61,2.22.32,1.17.66,2.41.68,2.47.69,2.5.68,2.48.33,1.22.65,2.36.31,1.13a4.72,4.72,0,0,1,.3,1.1C278.69,169,278.57,169.58,278.45,170.12Z"/></clipPath><clipPath id="clip-path-35"><path class="cls-1" d="M186.42,200.45l5.23,19.06A146.13,146.13,0,0,1,160.92,244L155.69,225A145.81,145.81,0,0,0,186.42,200.45Z"/></clipPath><linearGradient id="Degradado_sin_nombre_41-6" x1="110.67" y1="58.32" x2="227.22" y2="357.62" xlink:href="#Degradado_sin_nombre_41"/><clipPath id="clip-path-36"><path class="cls-1" d="M122.76,238.94,128,258a101.4,101.4,0,0,1-19.3-16.12l-5.24-19.06A102.2,102.2,0,0,0,122.76,238.94Z"/></clipPath><clipPath id="clip-path-37"><path class="cls-1" d="M147.82,230.3l5.24,19.06c-8,3.89-17,6.53-24.84,8.67L123,239C130.85,236.84,139.8,234.19,147.82,230.3Z"/></clipPath><clipPath id="clip-path-38"><path class="cls-1" d="M125.54,268.73c-50.17-7-87.45-40-99-81.83l-5.24-19.06c11.53,41.84,48.81,74.86,99,81.83,52.32,7.27,104-15.83,132.71-54.89l.61,2.23.65,2.36.67,2.44.68,2.5.69,2.49.67,2.45.65,2.36.61,2.23C229.54,252.89,177.86,276,125.54,268.73Z"/></clipPath><clipPath id="clip-path-39"><path class="cls-1" d="M279.93,97.13l5.23,19.06a112.37,112.37,0,0,1,1,55c-15.5,68-88.28,114.92-162.26,104.64-53.26-7.4-92.84-42.47-105-86.9l-5.23-19.06c12.2,44.43,51.78,79.51,105,86.9,74,10.28,146.76-36.66,162.25-104.63A112.41,112.41,0,0,0,279.93,97.13Z"/></clipPath><linearGradient id="Degradado_sin_nombre_41-7" x1="9.71" y1="133.5" x2="283.87" y2="133.5" xlink:href="#Degradado_sin_nombre_41"/><linearGradient id="Degradado_sin_nombre_41-8" x1="160.42" y1="38.95" x2="276.97" y2="338.25" xlink:href="#Degradado_sin_nombre_41"/><linearGradient id="Degradado_sin_nombre_41-9" x1="156.53" y1="40.46" x2="273.07" y2="339.77" xlink:href="#Degradado_sin_nombre_41"/><linearGradient id="Degradado_sin_nombre_20" x1="166.55" y1="238.52" x2="120.29" y2="-7.28" gradientUnits="userSpaceOnUse"><stop offset="0" stop-color="#ffef9f"/><stop offset="0.47" stop-color="#fdd57f"/><stop offset="1" stop-color="#d4a855"/></linearGradient><linearGradient id="Degradado_sin_nombre_41-10" x1="133.35" y1="49.49" x2="249.89" y2="348.79" xlink:href="#Degradado_sin_nombre_41"/><linearGradient id="Degradado_sin_nombre_41-11" x1="64.74" y1="76.2" x2="181.29" y2="375.51" xlink:href="#Degradado_sin_nombre_41"/><linearGradient id="Degradado_sin_nombre_41-12" x1="137.31" y1="47.94" x2="253.86" y2="347.25" xlink:href="#Degradado_sin_nombre_41"/><linearGradient id="Degradado_sin_nombre_41-13" x1="69.82" y1="74.22" x2="186.36" y2="373.53" xlink:href="#Degradado_sin_nombre_41"/><clipPath id="clip-path-40"><path class="cls-1" d="M289.35,94.44l5.23,19.06a120.46,120.46,0,0,1,1.07,59c-16.61,72.89-94.39,123.05-173.71,112-57.09-7.93-99.43-45.38-112.49-92.92L4.22,172.56c13.06,47.54,55.39,85,112.49,92.92,79.32,11,157.1-39.14,173.71-112A120.58,120.58,0,0,0,289.35,94.44Z"/></clipPath><linearGradient id="Degradado_sin_nombre_41-14" x1="4.22" y1="190.25" x2="298.8" y2="190.25" xlink:href="#Degradado_sin_nombre_41"/></defs><g id="Capa_2" data-name="Capa 2"><g id="Capa_1-2" data-name="Capa 1"><g class="cls-2"><g class="cls-2"><g class="cls-3"><g class="cls-2"><path class="cls-4" d="M279.93,97.13l5.23,19.06c-12.2-44.44-51.78-79.51-105-86.91C106.15,19,33.36,66,17.87,133.93a112.25,112.25,0,0,0,1,55l-5.23-19.06a112.25,112.25,0,0,1-1-55C28.12,46.89,100.91,0,174.88,10.23c53.27,7.39,92.84,42.47,105.05,86.9"/></g></g></g><g class="cls-2"><g class="cls-5"><g class="cls-2"><path class="cls-4" d="M279.93,97.13l5.23,19.06c-12.2-44.44-51.78-79.51-105-86.91C106.15,19,33.36,66,17.87,133.93a112.25,112.25,0,0,0,1,55l-5.23-19.06a112.25,112.25,0,0,1-1-55C28.12,46.89,100.91,0,174.88,10.23c53.27,7.39,92.84,42.47,105.05,86.9"/></g></g></g><g class="cls-2"><g class="cls-6"><g class="cls-2"><path class="cls-7" d="M272.26,99.23l5.23,19c-11.5-41.87-48.8-74.92-99-81.89C108.78,26.71,40.2,70.94,25.6,135a105.85,105.85,0,0,0,.95,51.83l-5.23-19.05a105.74,105.74,0,0,1-1-51.83C35,51.89,103.55,7.65,173.26,17.34c50.2,7,87.5,40,99,81.89"/></g></g></g><polygon class="cls-8" points="112.15 40.37 117.39 59.42 112.88 65.28 107.64 46.22 112.15 40.37"/><polygon class="cls-8" points="107.64 46.22 112.88 65.28 112.58 65.64 107.35 46.59 107.64 46.22"/><polygon class="cls-9" points="118.31 44.11 123.55 63.17 117.39 59.42 112.15 40.37 118.31 44.11"/><polygon class="cls-9" points="118.61 44.37 123.85 63.43 123.55 63.17 118.31 44.11 118.61 44.37"/><polygon class="cls-4" points="171.08 27.99 176.31 47.05 169.53 51.33 164.3 32.28 171.08 27.99"/><polygon class="cls-10" points="113.32 50.18 118.55 69.23 112.58 65.64 107.35 46.59 113.32 50.18"/><polygon class="cls-7" points="118.61 44.37 123.85 63.43 119.45 69.06 114.21 50 118.61 44.37"/><polygon class="cls-9" points="175.34 33.7 180.57 52.76 176.31 47.05 171.08 27.99 175.34 33.7"/><polygon class="cls-9" points="175.61 34.07 180.85 53.13 180.57 52.76 175.34 33.7 175.61 34.07"/><polygon class="cls-10" points="168.44 38.37 173.67 57.42 169.39 51.42 164.16 32.37 168.44 38.37"/><polygon class="cls-7" points="175.61 34.07 180.85 53.13 174.27 57.28 169.04 38.22 175.61 34.07"/><polygon class="cls-4" points="168.44 38.37 173.67 57.42 157.59 69.23 152.36 50.17 168.44 38.37"/><polygon class="cls-9" points="129.51 57.55 134.75 76.61 119.47 69.14 114.23 50.08 129.51 57.55"/><g class="cls-2"><g class="cls-11"><g class="cls-2"><path class="cls-7" d="M153.16,52.3l5.23,19.06a11.82,11.82,0,0,0-.8-2.13l-5.23-19.06a13.93,13.93,0,0,1,.8,2.13"/></g></g></g><g class="cls-2"><g class="cls-12"><g class="cls-2"><path class="cls-7" d="M129.52,57.55l5.23,19.06a11.76,11.76,0,0,0,.4,3.58l-5.23-19.06a11.72,11.72,0,0,1-.4-3.58"/></g></g></g><g class="cls-2"><g class="cls-13"><g class="cls-2"><path class="cls-4" d="M153.16,52.3l5.23,19a12.38,12.38,0,0,1,.13,6C157,84.14,150.45,88.9,144,88a10.63,10.63,0,0,1-8.86-7.81l-5.23-19.06A10.61,10.61,0,0,0,138.77,69c6.44.89,13-3.86,14.51-10.65a12.26,12.26,0,0,0-.12-6"/></g></g></g><g class="cls-2"><g class="cls-14"><g class="cls-2"><path class="cls-4" d="M153.16,52.3l5.23,19a12.38,12.38,0,0,1,.13,6C157,84.14,150.45,88.9,144,88a10.63,10.63,0,0,1-8.86-7.81l-5.23-19.06A10.61,10.61,0,0,0,138.77,69c6.44.89,13-3.86,14.51-10.65a12.26,12.26,0,0,0-.12-6"/></g></g></g><polygon class="cls-9" points="179.1 53.77 184.34 72.83 174.27 57.28 169.04 38.22 179.1 53.77"/><g class="cls-2"><g class="cls-15"><g class="cls-2"><path class="cls-4" d="M153.16,52.3l5.23,19a12.38,12.38,0,0,1,.13,6C157,84.14,150.45,88.9,144,88a10.63,10.63,0,0,1-8.86-7.81l-5.23-19.06A10.61,10.61,0,0,0,138.77,69c6.44.89,13-3.86,14.51-10.65a12.26,12.26,0,0,0-.12-6"/></g></g></g><g class="cls-2"><g class="cls-16"><g class="cls-2"><path class="cls-4" d="M153.16,52.3l5.23,19a12.38,12.38,0,0,1,.13,6C157,84.14,150.45,88.9,144,88a10.63,10.63,0,0,1-8.86-7.81l-5.23-19.06A10.61,10.61,0,0,0,138.77,69c6.44.89,13-3.86,14.51-10.65a12.26,12.26,0,0,0-.12-6"/></g></g></g><polygon class="cls-17" points="113.32 50.18 118.55 69.23 123.51 99.94 118.28 80.88 113.32 50.18"/><polygon class="cls-10" points="118.63 80.93 123.86 99.99 123.51 99.94 118.28 80.88 118.63 80.93"/><g class="cls-2"><g class="cls-18"><g class="cls-2"><path class="cls-7" d="M179.1,53.78l5.24,19a13.81,13.81,0,0,0-4.46,7.38,12.3,12.3,0,0,0,.09,6.07l-5.24-19a12.58,12.58,0,0,1-.09-6.08,13.87,13.87,0,0,1,4.46-7.37"/></g></g></g><polygon class="cls-17" points="222.35 56.11 227.58 75.17 219.82 76.32 214.58 57.26 222.35 56.11"/><polygon class="cls-19" points="76.92 100.49 82.16 119.54 81.39 119.75 76.16 100.7 76.92 100.49"/><g class="cls-2"><g class="cls-20"><g class="cls-2"><path class="cls-4" d="M125,90.81l5.23,19.06a164.84,164.84,0,0,0-48,9.67l-5.24-19.05c3.86-1.47,22.26-8.25,48-9.68"/></g></g></g><g class="cls-2"><g class="cls-21"><g class="cls-2"><path class="cls-4" d="M125,90.81l5.23,19.06a164.84,164.84,0,0,0-48,9.67l-5.24-19.05c3.86-1.47,22.26-8.25,48-9.68"/></g></g></g><g class="cls-2"><g class="cls-22"><g class="cls-2"><path class="cls-4" d="M125,90.81l5.23,19.06a164.84,164.84,0,0,0-48,9.67l-5.24-19.05c3.86-1.47,22.26-8.25,48-9.68"/></g></g></g><g class="cls-2"><g class="cls-23"><g class="cls-2"><path class="cls-4" d="M197.28,66.85l5.24,19.06c-2.33,5.46-8.1,9-13.72,8.21A10.58,10.58,0,0,1,180,86.28l-5.24-19a10.61,10.61,0,0,0,8.84,7.83c5.62.78,11.39-2.75,13.71-8.21"/></g></g></g><polygon class="cls-17" points="215.04 63.95 220.27 83.01 202.52 85.91 197.28 66.85 215.04 63.95"/><polygon class="cls-17" points="214.58 57.26 219.82 76.32 220.27 83.01 215.04 63.95 214.58 57.26"/><polygon class="cls-24" points="222.37 56.01 227.6 75.06 228.49 81.98 223.25 62.93 222.37 56.01"/><polygon class="cls-24" points="223.37 63.25 228.61 82.31 220.97 83.51 215.74 64.45 223.37 63.25"/><g class="cls-2"><g class="cls-25"><g class="cls-2"><path class="cls-4" d="M197.28,66.85l5.24,19.06c-2.33,5.46-8.1,9-13.72,8.21A10.58,10.58,0,0,1,180,86.28l-5.24-19a10.61,10.61,0,0,0,8.84,7.83c5.62.78,11.39-2.75,13.71-8.21"/></g></g></g><g class="cls-2"><g class="cls-26"><g class="cls-2"><path class="cls-7" d="M196.55,91.3l5.23,19.06a154.46,154.46,0,0,0-36.87-9.82,167.53,167.53,0,0,0-41-.55l-5.24-19.06a167.13,167.13,0,0,1,41.06.56,154.23,154.23,0,0,1,36.87,9.81"/></g></g></g><g class="cls-2"><g class="cls-27"><g class="cls-2"><path class="cls-4" d="M125,90.81l5.23,19.06a164.84,164.84,0,0,0-48,9.67l-5.24-19.05c3.86-1.47,22.26-8.25,48-9.68"/></g></g></g><g class="cls-2"><g class="cls-28"><g class="cls-2"><path class="cls-4" d="M76.16,100.7l5.23,19c-.44,1.94-.84,3.66-1.16,5.61l-5.23-19c.32-2,.71-3.68,1.16-5.61"/></g></g></g><polygon class="cls-4" points="75 106.31 80.23 125.36 80.18 125.58 74.95 106.52 75 106.31"/><polygon class="cls-29" points="133.37 90.57 138.6 109.63 137.87 109.6 132.64 90.54 133.37 90.57"/><g class="cls-2"><g class="cls-30"><g class="cls-2"><path class="cls-4" d="M178.31,96.55l5.23,19a168.17,168.17,0,0,0-21.49-4.42,163.31,163.31,0,0,0-23.45-1.55l-5.23-19.06a164.77,164.77,0,0,1,23.45,1.55,167.13,167.13,0,0,1,21.49,4.43"/></g></g></g><polygon class="cls-9" points="74.34 115.03 79.57 134.09 78.86 133.51 73.62 114.45 74.34 115.03"/><g class="cls-2"><g class="cls-31"><g class="cls-2"><path class="cls-4" d="M178.31,96.55l5.23,19a168.17,168.17,0,0,0-21.49-4.42,163.31,163.31,0,0,0-23.45-1.55l-5.23-19.06a164.77,164.77,0,0,1,23.45,1.55,167.13,167.13,0,0,1,21.49,4.43"/></g></g></g><g class="cls-2"><g class="cls-32"><g class="cls-2"><path class="cls-4" d="M178.31,96.55l5.23,19a168.17,168.17,0,0,0-21.49-4.42,163.31,163.31,0,0,0-23.45-1.55l-5.23-19.06a164.77,164.77,0,0,1,23.45,1.55,167.13,167.13,0,0,1,21.49,4.43"/></g></g></g><polygon class="cls-7" points="215.74 64.45 220.97 83.51 202.11 110.52 196.88 91.46 215.74 64.45"/><polygon class="cls-10" points="196.88 91.46 202.11 110.52 201.78 110.36 196.55 91.3 196.88 91.46"/><path class="cls-33" d="M171.08,28l4.19,5.75.34.33L169,38.22,179.1,53.78a13.87,13.87,0,0,0-4.46,7.37c-1.55,6.79,2.48,13,8.93,13.91,5.62.78,11.39-2.75,13.71-8.21L215,64.05l-.64-6.72,8-1.32.88,6.92.12.32-7.63,1.2-18.87,27-.32-.16a154.23,154.23,0,0,0-36.87-9.81,167.13,167.13,0,0,0-41.06-.56l-.34-.05-5-30.7-6-3.59.21-.42,4.59-5.8,6.13,3.79.33.21L114.21,50l15.31,7.55A10.79,10.79,0,0,0,138.77,69c6.44.89,13-3.86,14.51-10.65a12.29,12.29,0,0,0-.92-8.13l16.08-11.8-4.28-6Z"/><polygon class="cls-34" points="179.1 96.77 184.33 115.82 183.54 115.6 178.31 96.55 179.1 96.77"/><polygon class="cls-24" points="124.96 90.81 130.19 109.86 136.43 148.83 131.19 129.78 124.96 90.81"/><polygon class="cls-24" points="131.19 129.78 136.43 148.83 136.42 149.39 131.18 130.34 131.19 129.78"/><polygon class="cls-10" points="131.18 130.34 136.42 149.39 122.28 138.76 117.04 119.7 131.18 130.34"/><polygon class="cls-10" points="112.94 135.58 118.18 154.63 80.18 125.58 74.95 106.52 112.94 135.58"/><g class="cls-2"><g class="cls-35"><g class="cls-2"><path class="cls-4" d="M73.62,114.45l5.23,19.06a168.5,168.5,0,0,0-1.57,32.89l-5.23-19.06a168.5,168.5,0,0,1,1.57-32.89"/></g></g></g><path class="cls-36" d="M125,90.81l6.23,39v.56L117,119.7,113.45,136l-.51-.4L75,106.52l0-.21c.32-2,.71-3.68,1.16-5.61l.77-.24A165.86,165.86,0,0,1,125,90.81Z"/><polygon class="cls-10" points="113.45 135.98 118.69 155.04 118.18 154.63 112.94 135.58 113.45 135.98"/><polygon class="cls-7" points="117.04 119.7 122.28 138.76 118.69 155.04 113.45 135.98 117.04 119.7"/><polygon class="cls-10" points="72.12 147.58 77.36 166.63 77.28 166.4 72.05 147.34 72.12 147.58"/><g class="cls-2"><g class="cls-37"><g class="cls-2"><path class="cls-4" d="M226.86,121.18l5.23,19c-3.18-2.61-17.41-13.67-40.71-21.87l-5.24-19c23.31,8.2,37.54,19.25,40.72,21.87"/></g></g></g><g class="cls-2"><g class="cls-38"><g class="cls-2"><path class="cls-4" d="M279.93,97.13l5.23,19.06c-12.2-44.44-51.78-79.51-105-86.91C106.15,19,33.36,66,17.87,133.93a112.25,112.25,0,0,0,1,55l-5.23-19.06a112.25,112.25,0,0,1-1-55C28.12,46.89,100.91,0,174.88,10.23c53.27,7.39,92.84,42.47,105.05,86.9"/></g></g></g><polygon class="cls-9" points="111.29 143.35 116.53 162.4 79.57 134.09 74.34 115.03 111.29 143.35"/><polygon class="cls-29" points="73.41 154.65 78.64 173.7 77.82 173.58 72.59 154.53 73.41 154.65"/><polygon class="cls-17" points="132.64 90.54 137.87 109.6 145.23 155.84 140 136.78 132.64 90.54"/><polygon class="cls-10" points="140.09 136.9 145.32 155.96 145.23 155.84 140 136.78 140.09 136.9"/><polygon class="cls-7" points="179.1 96.77 184.33 115.82 156.15 157.8 150.91 138.74 179.1 96.77"/><polygon class="cls-8" points="186.14 99.31 191.38 118.36 168.68 152.69 163.44 133.64 186.14 99.31"/><polygon class="cls-8" points="163.44 133.64 168.68 152.69 167.97 153.66 162.74 134.61 163.44 133.64"/><polygon class="cls-24" points="180.73 128.33 185.96 147.38 167.97 153.66 162.74 134.61 180.73 128.33"/><polygon class="cls-24" points="150.91 138.74 156.15 157.8 150.35 159.88 145.12 140.83 150.91 138.74"/><polygon class="cls-10" points="145.12 140.83 150.35 159.88 145.32 155.96 140.09 136.9 145.12 140.83"/><polygon class="cls-4" points="123.73 143.41 128.97 162.47 127.87 167.28 122.63 148.22 123.73 143.41"/><polygon class="cls-8" points="122.63 148.22 127.87 167.28 127.55 167.6 122.32 148.55 122.63 148.22"/><polygon class="cls-7" points="111.29 143.35 116.53 162.4 114.49 171.34 109.25 152.28 111.29 143.35"/><polygon class="cls-10" points="109.2 153.06 114.43 172.11 77.36 166.63 72.12 147.58 109.2 153.06"/><polygon class="cls-24" points="109.25 152.28 114.49 171.34 114.43 172.11 109.2 153.06 109.25 152.28"/><g class="cls-2"><g class="cls-39"><g class="cls-2"><path class="cls-4" d="M226.86,121.18l5.23,19c-3.18-2.61-17.41-13.67-40.71-21.87l-5.24-19c23.31,8.2,37.54,19.25,40.72,21.87"/></g></g></g><g class="cls-2"><g class="cls-40"><g class="cls-2"><path class="cls-4" d="M226.86,121.18l5.23,19c-3.18-2.61-17.41-13.67-40.71-21.87l-5.24-19c23.31,8.2,37.54,19.25,40.72,21.87"/></g></g></g><polygon class="cls-9" points="227.58 121.73 232.81 140.78 232.09 140.23 226.85 121.18 227.58 121.73"/><polygon class="cls-29" points="107.58 159.61 112.82 178.66 78.64 173.7 73.41 154.65 107.58 159.61"/><g class="cls-2"><g class="cls-41"><g class="cls-2"><path class="cls-7" d="M227.58,121.73l5.23,19c-.41,1.83-.83,3.67-1.39,5.58l-5.23-19.05c.56-1.92,1-3.76,1.39-5.58"/></g></g></g><polygon class="cls-7" points="226.19 127.31 231.42 146.36 231.37 146.58 226.14 127.52 226.19 127.31"/><polygon class="cls-24" points="226.14 127.52 231.37 146.58 231.12 146.65 225.88 127.6 226.14 127.52"/><polygon class="cls-9" points="136.41 153.06 141.64 172.12 128.97 162.47 123.73 143.41 136.41 153.06"/><polygon class="cls-10" points="130.82 155.28 136.05 174.34 127.55 167.6 122.32 148.55 130.82 155.28"/><polygon class="cls-7" points="107.58 159.61 112.82 178.66 112.25 181.14 107.02 162.09 107.58 159.61"/><polygon class="cls-4" points="180.73 128.33 185.96 147.38 182.21 163.86 176.97 144.8 180.73 128.33"/><polygon class="cls-24" points="225.88 127.6 231.12 146.65 182.21 163.86 176.97 144.8 225.88 127.6"/><polygon class="cls-19" points="164.4 149.06 169.63 168.12 153.24 173.73 148 154.67 164.4 149.06"/><g class="cls-2"><g class="cls-42"><g class="cls-2"><path class="cls-4" d="M72.59,154.53l5.23,19.05a123.79,123.79,0,0,0,3.79,20.34l-5.24-19.06a124.92,124.92,0,0,1-3.78-20.33"/></g></g></g><polygon class="cls-19" points="223.88 135.32 229.11 154.38 228.19 154.69 222.96 135.64 223.88 135.32"/><polygon class="cls-9" points="109.39 167.63 114.62 186.69 112.25 181.14 107.02 162.09 109.39 167.63"/><polygon class="cls-9" points="109.61 168.23 114.85 187.28 114.62 186.69 109.39 167.63 109.61 168.23"/><polygon class="cls-7" points="164.4 149.06 169.63 168.12 168.54 172.93 163.3 153.87 164.4 149.06"/><polygon class="cls-9" points="163.45 154.26 168.69 173.32 168.54 172.93 163.3 153.87 163.45 154.26"/><polygon class="cls-24" points="163.46 154.26 168.69 173.32 157.62 177.33 152.38 158.28 163.46 154.26"/><g class="cls-2"><g class="cls-43"><g class="cls-2"><path class="cls-7" d="M77.63,179.12l5.23,19c-.44-1.4-.86-2.82-1.25-4.25l-5.24-19.06q.6,2.16,1.26,4.26"/></g></g></g><polygon class="cls-19" points="222.96 135.64 228.19 154.69 180.99 171.36 175.75 152.3 222.96 135.64"/><polygon class="cls-10" points="77.79 179.47 83.02 198.53 82.86 198.17 77.63 179.12 77.79 179.47"/><polygon class="cls-24" points="109.61 168.23 114.85 187.28 83.02 198.53 77.79 179.47 109.61 168.23"/><polygon class="cls-4" points="130.82 155.28 136.05 174.34 132.15 191.46 126.92 172.4 130.82 155.28"/><polygon class="cls-7" points="136.41 153.06 141.64 172.12 137.54 190.1 132.31 171.05 136.41 153.06"/><polygon class="cls-19" points="112.06 174.45 117.3 193.51 85.91 204.5 80.67 185.44 112.06 174.45"/><polygon class="cls-19" points="80.67 185.44 85.91 204.5 85.11 204.71 79.88 185.65 80.67 185.44"/><polygon class="cls-4" points="126.92 172.4 132.15 191.46 132.05 191.9 126.82 172.84 126.92 172.4"/><polygon class="cls-4" points="175.75 152.3 180.99 171.36 178.93 180.4 173.69 161.34 175.75 152.3"/><polygon class="cls-4" points="173.69 161.34 178.93 180.4 178.66 181.03 173.43 161.98 173.69 161.34"/><polygon class="cls-4" points="148 154.67 153.24 173.73 149.14 191.71 143.91 172.66 148 154.67"/><polygon class="cls-19" points="143.91 172.66 149.14 191.71 142.66 194.14 137.43 175.09 143.91 172.66"/><polygon class="cls-9" points="137.43 175.09 142.66 194.14 137.54 190.1 132.31 171.05 137.43 175.09"/><polygon class="cls-10" points="133.94 178.71 139.18 197.77 132.05 191.9 126.82 172.84 133.94 178.71"/><polygon class="cls-7" points="152.38 158.28 157.62 177.33 153.62 194.89 148.38 175.84 152.38 158.28"/><polygon class="cls-24" points="148.38 175.84 153.62 194.89 153.36 194.97 148.13 175.91 148.38 175.84"/><polygon class="cls-44" points="148.13 175.91 153.36 194.97 144.34 198.49 139.1 179.43 148.13 175.91"/><polygon class="cls-4" points="172.05 168.56 177.28 187.62 176.72 190.09 171.48 171.04 172.05 168.56"/><polygon class="cls-9" points="117.31 187.51 122.54 206.57 117.3 193.51 112.06 174.45 117.31 187.51"/><polygon class="cls-9" points="117.6 188.34 122.84 207.39 122.54 206.57 117.31 187.51 117.6 188.34"/><polygon class="cls-4" points="133.94 178.71 139.18 197.77 137.85 203.59 132.62 184.53 133.94 178.71"/><polygon class="cls-4" points="171.48 171.04 176.72 190.09 172.11 194.72 166.88 175.66 171.48 171.04"/><polygon class="cls-4" points="166.88 175.66 172.11 194.72 171.55 195.27 166.31 176.21 166.88 175.66"/><polygon class="cls-7" points="139.1 179.43 144.34 198.49 143.01 204.3 137.78 185.25 139.1 179.43"/><polygon class="cls-45" points="164.4 149.06 163.3 153.87 163.46 154.26 152.38 158.28 148.38 175.84 148.13 175.91 139.1 179.43 137.78 185.25 132.62 184.53 133.94 178.71 126.82 172.84 126.92 172.4 130.82 155.28 122.32 148.55 122.64 148.22 123.73 143.41 136.41 153.06 132.31 171.05 137.43 175.09 143.91 172.66 148.01 154.67 164.4 149.06"/><polygon class="cls-10" points="137.78 185.25 143.01 204.3 137.85 203.59 132.62 184.53 137.78 185.25"/><g class="cls-2"><g class="cls-46"><g class="cls-2"><path class="cls-7" d="M223.88,135.32l5.23,19.06a182.48,182.48,0,0,1-13.06,31.3l-5.23-19.06a183,183,0,0,0,13.06-31.3"/></g></g></g><polygon class="cls-10" points="210.42 166.78 215.65 185.84 178.66 181.03 173.43 161.98 210.42 166.78"/><polygon class="cls-7" points="210.82 166.62 216.05 185.68 215.88 185.87 210.65 166.82 210.82 166.62"/><g class="cls-2"><g class="cls-47"><g class="cls-2"><path class="cls-4" d="M272.26,99.23l5.23,19a106,106,0,0,1,1,51.84c-14.6,64-83.19,108.29-152.91,98.61-50.19-7-87.49-40-99-81.9l-5.23-19.05c11.5,41.87,48.79,74.92,99,81.89,69.71,9.69,138.3-34.55,152.9-98.61a105.86,105.86,0,0,0-.95-51.83"/></g></g></g><polygon class="cls-10" points="210.65 166.82 215.88 185.87 215.65 185.84 210.42 166.78 210.65 166.82"/><polygon class="cls-29" points="206.2 173.08 211.44 192.14 177.28 187.62 172.05 168.56 206.2 173.08"/><polygon class="cls-29" points="207.02 173.2 212.26 192.25 211.44 192.14 206.2 173.08 207.02 173.2"/><polygon class="cls-9" points="121.42 196.92 126.66 215.98 126.4 215.1 121.17 196.05 121.42 196.92"/><polygon class="cls-8" points="150.47 192.12 155.71 211.18 155.07 211.87 149.84 192.81 150.47 192.12"/><polygon class="cls-24" points="150.47 192.12 155.71 211.18 155.73 211.34 150.5 192.29 150.47 192.12"/><polygon class="cls-8" points="161.28 181.29 166.52 200.34 155.73 211.34 150.5 192.29 161.28 181.29"/><polygon class="cls-9" points="123 200.75 128.23 219.81 126.66 215.98 121.42 196.92 123 200.75"/><polygon class="cls-8" points="143.21 200.11 148.44 219.17 148.01 219.64 142.77 200.58 143.21 200.11"/><polygon class="cls-4" points="142.77 200.58 148.01 219.64 145.46 222.2 140.23 203.14 142.77 200.58"/><polygon class="cls-29" points="140.23 203.14 145.46 222.2 128.23 219.81 123 200.75 140.23 203.14"/><g class="cls-2"><g class="cls-48"><g class="cls-2"><path class="cls-7" d="M97.9,216.93l5.24,19a113.2,113.2,0,0,1-18-31.27l-5.24-19.06a113.51,113.51,0,0,0,18,31.28"/></g></g></g><polygon class="cls-7" points="117.6 188.34 122.84 207.39 103.54 236.37 98.3 217.31 117.6 188.34"/><path class="cls-49" d="M73.41,154.64l34.17,5-.56,2.48,2.28,5.58.31.56L77.79,179.47l-.16-.35a123.15,123.15,0,0,1-5-24.59Z"/><path class="cls-50" d="M112.06,174.45l5.21,13.11.33.78-19.3,29-.4-.38a113.51,113.51,0,0,1-18-31.28l.78-.23Z"/><polygon class="cls-10" points="98.3 217.31 103.54 236.37 103.14 235.98 97.9 216.93 98.3 217.31"/><g class="cls-2"><g class="cls-51"><g class="cls-2"><path class="cls-7" d="M207,173.2l5.24,19.06A172.62,172.62,0,0,1,196.66,214l-5.23-19.06A170.84,170.84,0,0,0,207,173.2"/></g></g></g><polygon class="cls-10" points="191.24 195.23 196.47 214.28 171.55 195.27 166.31 176.21 191.24 195.23"/><polygon class="cls-7" points="191.43 194.92 196.66 213.98 196.47 214.28 191.24 195.23 191.43 194.92"/><polygon class="cls-8" points="121.17 196.05 126.4 215.1 108.64 241.53 103.41 222.47 121.17 196.05"/><polygon class="cls-8" points="103.41 222.47 108.64 241.53 108.48 241.73 103.25 222.67 103.41 222.47"/><polygon class="cls-10" points="103.45 222.81 108.69 241.87 108.48 241.73 103.25 222.67 103.45 222.81"/><polygon class="cls-9" points="186.21 200.31 191.44 219.37 166.52 200.34 161.28 181.29 186.21 200.31"/><g class="cls-2"><g class="cls-52"><g class="cls-2"><path class="cls-4" d="M272.26,99.23l5.23,19a106,106,0,0,1,1,51.84c-14.6,64-83.19,108.29-152.91,98.61-50.19-7-87.49-40-99-81.9l-5.23-19.05c11.5,41.87,48.79,74.92,99,81.89,69.71,9.69,138.3-34.55,152.9-98.61a105.86,105.86,0,0,0-.95-51.83"/></g></g></g><polygon class="cls-17" points="149.84 192.81 155.07 211.87 160.38 243.71 155.15 224.66 149.84 192.81"/><g class="cls-2"><g class="cls-53"><g class="cls-2"><path class="cls-7" d="M186.42,200.45l5.23,19.06A146.13,146.13,0,0,1,160.92,244L155.69,225a145.81,145.81,0,0,0,30.73-24.5"/></g></g></g><polygon class="cls-17" points="155.15 224.66 160.38 243.71 160.5 244.28 155.26 225.22 155.15 224.66"/><path class="cls-54" d="M161.29,181.29l24.92,19,.21.14A145.81,145.81,0,0,1,155.69,225l-.43.28-.11-.57-5.32-31.85.64-.69,0,.17Z"/><polygon class="cls-7" points="155.69 224.95 160.92 244.01 160.5 244.28 155.26 225.22 155.69 224.95"/><polygon class="cls-24" points="143.21 200.11 148.44 219.17 153.31 249.29 148.08 230.23 143.21 200.11"/><polygon class="cls-24" points="148.08 230.23 153.31 249.29 153.06 249.36 147.82 230.3 148.08 230.23"/><g class="cls-2"><g class="cls-55"><g class="cls-2"><path class="cls-7" d="M122.76,238.94,128,258a101.4,101.4,0,0,1-19.3-16.12l-5.24-19.06a102.2,102.2,0,0,0,19.31,16.13"/></g></g></g><g class="cls-2"><g class="cls-56"><g class="cls-2"><path class="cls-7" d="M147.82,230.3l5.24,19.06c-8,3.89-17,6.53-24.84,8.67L123,239c7.86-2.13,16.81-4.78,24.83-8.67"/></g></g></g><polygon class="cls-7" points="122.99 238.97 128.22 258.03 128.08 258.12 122.85 239.06 122.99 238.97"/><polygon class="cls-10" points="122.85 239.06 128.08 258.12 127.99 257.99 122.76 238.94 122.85 239.06"/><g class="cls-2"><g class="cls-57"><g class="cls-2"><path class="cls-4" d="M272.26,99.23l5.23,19a106,106,0,0,1,1,51.84c-14.6,64-83.19,108.29-152.91,98.61-50.19-7-87.49-40-99-81.9l-5.23-19.05c11.5,41.87,48.79,74.92,99,81.89,69.71,9.69,138.3-34.55,152.9-98.61a105.86,105.86,0,0,0-.95-51.83"/></g></g></g><g class="cls-2"><g class="cls-58"><g class="cls-2"><path class="cls-7" d="M279.93,97.13l5.23,19.06a112.37,112.37,0,0,1,1,55c-15.5,68-88.28,114.92-162.26,104.64-53.26-7.4-92.84-42.47-105-86.9l-5.23-19.06c12.2,44.43,51.78,79.51,105,86.9,74,10.28,146.76-36.66,162.25-104.63a112.41,112.41,0,0,0-1-55"/></g></g></g><path class="cls-59" d="M174.88,10.23c74,10.27,121.56,73.93,106.06,141.91S192.66,267.05,118.69,256.77-2.86,182.84,12.63,114.87,100.91,0,174.88,10.23ZM120.31,249.67c69.71,9.69,138.3-34.55,152.9-98.61S243,27,173.26,17.34,35,51.89,20.36,116s30.23,124,100,133.72"/><path class="cls-60" d="M176.87,1.52C97.54-9.5,19.76,40.66,3.15,113.55S37.37,254.47,116.71,265.48s157.1-39.14,173.71-112S256.19,12.53,176.87,1.52ZM280.94,152.14c-15.49,68-88.28,114.91-162.25,104.64S-2.86,182.84,12.63,114.87,100.91,0,174.88,10.23,296.44,84.16,280.94,152.14"/><path class="cls-61" d="M186.14,99.31l-22.83,34.38-.57.92,18-6.28L177,144.8l48.91-17.2.26-.08.05-.21c.56-1.92,1-3.75,1.39-5.58l-.73-.51C223.68,118.56,209.45,107.51,186.14,99.31Z"/><path class="cls-62" d="M175.75,152.3l-2.18,9-.14.64,37,4.8.23,0,.17-.2a183,183,0,0,0,13.06-31.3l-.93.35Z"/><path class="cls-63" d="M258.08,187.36c.53-.86,1.06-1.72,1.57-2.58q1.55-2.59,3-5.27c.47-.89.93-1.79,1.38-2.69a115.36,115.36,0,0,0,9.21-25.76A105.46,105.46,0,0,0,269.61,91q-1-2.64-2.08-5.23t-2.36-5.11a105.2,105.2,0,0,0-5.51-9.82C242.07,43,211.39,22.63,173.26,17.34A143.18,143.18,0,0,0,87.78,32.25c-1.24.64-2.46,1.29-3.67,2A140.61,140.61,0,0,0,59,52c-.76.68-1.51,1.37-2.26,2.06q-5,4.65-9.45,9.76c-1,1.17-2,2.36-3,3.56q-1.68,2.07-3.27,4.2l-.94,1.28c-.67.92-1.32,1.85-2,2.78s-1.35,2-2,3c-.76,1.18-1.5,2.37-2.22,3.58q-3.09,5.19-5.66,10.69a115.31,115.31,0,0,0-7.9,23,109.48,109.48,0,0,0-2.76,23.73,104.71,104.71,0,0,0,1.84,20c.18.93.37,1.86.57,2.78A107,107,0,0,0,48,214c.66.68,1.33,1.36,2,2a113.18,113.18,0,0,0,8.66,7.67,121.44,121.44,0,0,0,33.83,19q2.91,1.08,5.9,2a134.77,134.77,0,0,0,21.94,4.92A139.67,139.67,0,0,0,143.07,251c2.16-.05,4.3-.16,6.44-.31,1.06-.07,2.13-.16,3.19-.26a142.78,142.78,0,0,0,18.86-3c2.06-.48,4.1-1,6.13-1.55a145,145,0,0,0,23.48-8.75,142.91,142.91,0,0,0,16.26-9q2.59-1.68,5.11-3.46A137.24,137.24,0,0,0,239,210.86a132.31,132.31,0,0,0,10.25-11.21c.64-.79,1.26-1.58,1.88-2.38Q254.85,192.49,258.08,187.36ZM107.65,46.22l4.5-5.85,6.16,3.74.3.26-4.38,5.71,15.29,7.47A10.79,10.79,0,0,0,138.77,69c6.44.89,13-3.86,14.51-10.65a12.29,12.29,0,0,0-.92-8.13l16.08-11.8-4.14-6.09L171.08,28l4.26,5.71.27.37L169,38.22,179.1,53.78a13.87,13.87,0,0,0-4.46,7.37c-1.55,6.79,2.48,13,8.93,13.91,5.62.78,11.39-2.75,13.71-8.21L215,64l-.46-6.69,7.77-1.15,1,6.8,0,.34-7.63,1.2-18.87,27-.32-.16a154.23,154.23,0,0,0-36.87-9.81,167.13,167.13,0,0,0-41.06-.56l-.35-.05-5-30.7-6-3.6.3-.36M179.1,96.77l-28.19,42-5.79,2.09-5-3.93-.09-.12-7.36-46.24.73,0a164.77,164.77,0,0,1,23.45,1.55,167.13,167.13,0,0,1,21.49,4.43l.79.22M75,106.31c.32-2,.71-3.68,1.15-5.61l.77-.21c3.86-1.47,22.26-8.25,48-9.68l6.15,38.9.07.63L117,119.7,113.45,136l-.51-.4L75,106.52l0-.21m-3,41a168.5,168.5,0,0,1,1.57-32.89l.72.58,37,28.32-1.92,9-.17.76-37.08-5.48-.07-.24m5.58,31.78a124,124,0,0,1-5-24.23c0-.12,0-.24,0-.36h0l.77.11,32,4.65,2.19.32h0l-.56,2.48,2.37,5.55.22.59L77.79,179.47l-.07-.16-.09-.19M98.3,217.31l-.4-.38a113.51,113.51,0,0,1-18-31.28l.79-.2,31.39-11,5.25,13.06.29.83-19.3,29m49.52,13c-8,3.89-17,6.54-24.83,8.67l-.14.09-.09-.12a102.2,102.2,0,0,1-19.31-16.13l-.2-.14.16-.2,17.76-26.42.25.87,1.58,3.83,17.23,2.39,2.54-2.56.44-.47,4.87,30.12-.26.07m.56-54.47-.25.08-9,3.52-1.33,5.82-5.15-.72,1.32-5.82-7.12-5.87.1-.44,3.9-17.12-8.5-6.73.31-.33,1.1-4.81,12.68,9.65-4.1,18,5.12,4,6.48-2.43,4.1-18,16.39-5.61-1.1,4.81.15.39-11.07,4-4,17.56m7.3,49.12-.42.28-.11-.57-5.32-31.85.64-.69,0,.17,10.79-11,24.92,19,.21.14A145.61,145.61,0,0,1,155.68,225m35.75-30-.19.31-24.93-19,.57-.55,4.6-4.62.57-2.48,34.15,4.52.82.12a170.84,170.84,0,0,1-15.59,21.72m19.39-28.3-.17.2-.23,0-37-4.8.26-.64,2.06-9L223,135.64l.92-.32a183,183,0,0,1-13.06,31.3m16.12-42.14c-.23.93-.47,1.87-.75,2.83l-.05.21-.26.08L177,144.8h0l3.76-16.47-18,6.28.57-.92L186,99.47l.11-.16h0c1.46.51,2.88,1,4.26,1.57s2.74,1.07,4,1.61l2.52,1.08c16.88,7.37,27.23,15.43,29.89,17.61l.72.55c-.21.91-.42,1.83-.64,2.75"/><path class="cls-64" d="M140.09,136.9l5,3.93,5.79-2.09,28.19-42-.84-.16a155,155,0,0,0-21.44-4.49,171.15,171.15,0,0,0-23.46-1.59h-.72L140,136.78Z"/><path class="cls-65" d="M73.62,114.45l.73.55,36.94,28.35-2,8.93,0,.78-37.08-5.48-.07-.24A168.5,168.5,0,0,1,73.62,114.45Z"/><path class="cls-66" d="M207,173.2a170.84,170.84,0,0,1-15.59,21.72l-.19.31-24.93-19,.5-.6,4.67-4.57.57-2.48,34.15,4.53Z"/><path class="cls-67" d="M121.17,196.05l.29.82,1.54,3.88,17.23,2.39,2.53-2.65.45-.38,4.87,30.12-.26.07c-8,3.89-17,6.54-24.83,8.67l-.14.09-.09-.12a102.2,102.2,0,0,1-19.31-16.13l-.2-.14.16-.2Z"/><g class="cls-2"><g class="cls-68"><path class="cls-69" d="M289.35,94.44l5.23,19.06a120.46,120.46,0,0,1,1.07,59c-16.61,72.89-94.39,123.05-173.71,112-57.09-7.93-99.43-45.38-112.49-92.92L4.22,172.56c13.06,47.54,55.39,85,112.49,92.92,79.32,11,157.1-39.14,173.71-112a120.58,120.58,0,0,0-1.07-59"/></g></g></g></g></g></svg>